<?xml version="1.0" encoding="UTF-8" standalone="no"?>
<!-- Created with Inkscape (http://www.inkscape.org/) -->

<svg
   xmlns:dc="http://purl.org/dc/elements/1.1/"
   xmlns:cc="http://creativecommons.org/ns#"
   xmlns:rdf="http://www.w3.org/1999/02/22-rdf-syntax-ns#"
   xmlns:svg="http://www.w3.org/2000/svg"
   xmlns="http://www.w3.org/2000/svg"
   xmlns:sodipodi="http://sodipodi.sourceforge.net/DTD/sodipodi-0.dtd"
   xmlns:inkscape="http://www.inkscape.org/namespaces/inkscape"
   version="1.0"
   width="24"
   height="24"
   id="svg3229"
   sodipodi:version="0.32"
   inkscape:version="0.47 r22583"
   sodipodi:docname="indicator-messages-new-butter.svg"
   inkscape:output_extension="org.inkscape.output.svg.inkscape">
  <metadata
     id="metadata8">
    <rdf:RDF>
      <cc:Work
         rdf:about="">
        <dc:format>image/svg+xml</dc:format>
        <dc:type
           rdf:resource="http://purl.org/dc/dcmitype/StillImage" />
        <dc:title></dc:title>
      </cc:Work>
    </rdf:RDF>
  </metadata>
  <sodipodi:namedview
     inkscape:window-height="849"
     inkscape:window-width="1440"
     inkscape:pageshadow="2"
     inkscape:pageopacity="0.0"
     guidetolerance="10.0"
     gridtolerance="10.0"
     objecttolerance="10.0"
     borderopacity="1.0"
     bordercolor="#666666"
     pagecolor="#ffffff"
     id="base"
     showgrid="false"
     inkscape:zoom="20.75"
     inkscape:cx="8.9046733"
     inkscape:cy="13.39759"
     inkscape:window-x="0"
     inkscape:window-y="24"
     inkscape:current-layer="svg3229"
     inkscape:window-maximized="1" />
  <defs
     id="defs3231">
    <inkscape:perspective
       sodipodi:type="inkscape:persp3d"
       inkscape:vp_x="0 : 12 : 1"
       inkscape:vp_y="0 : 1000 : 0"
       inkscape:vp_z="24 : 12 : 1"
       inkscape:persp3d-origin="12 : 8 : 1"
       id="perspective9" />
  </defs>
  <path
     style="fill:#204a87;fill-opacity:1;fill-rule:nonzero;stroke:none;stroke-width:1;stroke-linecap:butt;stroke-linejoin:miter;marker:none;marker-start:none;marker-mid:none;marker-end:none;stroke-miterlimit:4;stroke-dasharray:none;stroke-dashoffset:0;stroke-opacity:1;visibility:visible;display:inline;overflow:visible;enable-background:accumulate;opacity:0.99000000000000021"
     d="M 19.59375 6 L 4.3125 6.03125 C 3.7030937 6.0312499 3 6.78975 3 7.34375 L 3 16.625 C 3 17.355979 3.8041383 18 4.46875 18 L 19.5 18 C 20.297344 18 21 17.323243 21 16.625 L 21 7.46875 C 21 6.6932114 20.313752 6 19.59375 6 z M 4.84375 7.15625 L 11.6875 14 L 12.28125 14 L 19.15625 7.15625 L 19.84375 7.84375 L 15.75 12 L 18.84375 15.15625 L 18.15625 15.84375 L 15 12.6875 L 12.71875 15 L 11.28125 15 L 9 12.6875 L 5.84375 15.875 L 5.15625 15.15625 L 8.28125 12 L 4.15625 7.84375 L 4.84375 7.15625 z "
     id="path2387" />
  <rect
     style="opacity:0.6;fill:none;fill-opacity:1;fill-rule:nonzero;stroke:#eae3d0;stroke-width:1;stroke-linecap:round;stroke-linejoin:miter;marker:none;marker-start:none;marker-mid:none;marker-end:none;stroke-miterlimit:4;stroke-dasharray:none;stroke-dashoffset:0;stroke-opacity:1;visibility:visible;display:inline;overflow:visible;enable-background:accumulate"
     id="rect3179"
     y="5.5"
     x="2.5"
     ry="2"
     rx="2"
     height="13"
     width="19" />
  <path
     style="fill:#eae3d1;fill-opacity:1;fill-rule:nonzero;stroke:none;stroke-width:1;stroke-linecap:butt;stroke-linejoin:miter;marker:none;marker-start:none;marker-mid:none;marker-end:none;stroke-miterlimit:4;stroke-dasharray:none;stroke-dashoffset:0;stroke-opacity:1;visibility:visible;display:inline;overflow:visible;enable-background:accumulate;opacity:0.59999999999999998"
     d="M 4.84375 7.15625 L 4.15625 7.84375 L 8.28125 12 L 5.15625 15.15625 L 5.84375 15.875 L 9 12.6875 L 11.28125 15 L 12.71875 15 L 15 12.6875 L 18.15625 15.84375 L 18.84375 15.15625 L 15.75 12 L 19.84375 7.84375 L 19.15625 7.15625 L 12.28125 14 L 11.6875 14 L 4.84375 7.15625 z "
     id="rect3170" />
</svg>
