/* XPM */
static char *control_center_[] = {
/* columns rows colors chars-per-pixel */
"22 22 157 2 ",
"   c #000000",
".  c #18222E",
"X  c #262F39",
"o  c #2A425B",
"O  c #2C4561",
"+  c #3E5063",
"@  c #3E556D",
"#  c #3F5874",
"$  c #3E5B7B",
"%  c #4D504F",
"&  c #555753",
"*  c #585A54",
"=  c #5B5E58",
"-  c #635D4D",
";  c #63655F",
":  c #455667",
">  c #4A5460",
",  c #425468",
"<  c #485A6E",
"1  c #425871",
"2  c #4A5F77",
"3  c #455F7D",
"4  c #59636E",
"5  c #4B6078",
"6  c #5C6570",
"7  c #606A74",
"8  c #737C7F",
"9  c #C07A13",
"0  c #8A7B50",
"q  c #B68027",
"w  c #CD8012",
"e  c #D78F16",
"r  c #D88C15",
"t  c #D79419",
"y  c #E68C0D",
"u  c #FC9D0F",
"i  c #E69316",
"p  c #EA961C",
"a  c #FCA51B",
"s  c #FEAF1C",
"d  c #FFB31F",
"f  c #C08A2F",
"g  c #DB9B23",
"h  c #C8923D",
"j  c #DDA22B",
"k  c #DFA833",
"l  c #E3A22F",
"z  c #F7A728",
"x  c #FDB425",
"c  c #FFBA23",
"v  c #FFB42A",
"b  c #FFBC2B",
"n  c #E3A936",
"m  c #E2AC3C",
"M  c #FABC3F",
"N  c #FFC226",
"B  c #FFC12C",
"V  c #FFC632",
"C  c #FFCF38",
"Z  c #B49D64",
"A  c #E4B143",
"S  c #FABB46",
"D  c #E1B251",
"F  c #FDC140",
"G  c #F9CB4C",
"H  c #446281",
"J  c #4C6784",
"K  c #4E6986",
"L  c #486688",
"P  c #4D6B8D",
"I  c #576B82",
"U  c #5C6D82",
"Y  c #556F8B",
"T  c #56718E",
"R  c #58718E",
"E  c #506E91",
"W  c #547293",
"Q  c #5B7592",
"!  c #5D7895",
"~  c #5E7A9A",
"^  c #607184",
"/  c #6B7884",
"(  c #607792",
")  c #637B94",
"_  c #6B7E91",
"`  c #627C9A",
"'  c #607FA2",
"]  c #798386",
"[  c #788388",
"{  c #7E898B",
"}  c #66809E",
"|  c #6D849E",
" . c #70869D",
".. c #72889F",
"X. c #6482A3",
"o. c #6C85A2",
"O. c #6F89A6",
"+. c #738AA3",
"@. c #798FA7",
"#. c #738EAA",
"$. c #7B90A7",
"%. c #7590AB",
"&. c #7C93AC",
"*. c #6C8DB1",
"=. c #7491B2",
"-. c #7A95B3",
";. c #7D99B6",
":. c #7595B9",
">. c #7D9ABB",
",. c #7E9DC1",
"<. c #878888",
"1. c #869399",
"2. c #969696",
"3. c #909896",
"4. c #959D9B",
"5. c #8195AB",
"6. c #8599AF",
"7. c #969DA5",
"8. c #8097B1",
"9. c #839AB3",
"0. c #839DBA",
"q. c #9DA1A5",
"w. c #86A1BE",
"e. c #8BA2BC",
"r. c #A4A5A6",
"t. c #A9A9A9",
"y. c #AEAFB2",
"u. c #B7B7B7",
"i. c #BCBCBC",
"p. c #83A2C3",
"a. c #8AA5C3",
"s. c #8CAACA",
"d. c #94ABC5",
"f. c #98ADC5",
"g. c #93ADCB",
"h. c #96B0CD",
"j. c #9CB3CC",
"k. c #99B3D0",
"l. c #A2B7CE",
"z. c #A4B8CF",
"x. c #ACBACB",
"c. c #A2BAD4",
"v. c #B7C2CE",
"b. c #ACC3DA",
"n. c #B6CADF",
"m. c #B9CCE0",
"M. c #C3C7CD",
"N. c #CBCCCC",
"B. c #C1CAD4",
"V. c #CACED4",
"C. c #CFD0D2",
"Z. c #D1D2D2",
"A. c #DBDBDB",
"S. c #E2E2E3",
"D. c #E7E8E8",
"F. c #EBEBEB",
"G. c None",
/* pixels */
"G.G.G.G.G.G.G.G.G.G.G.G.G.G.G.G.G.G.G.G.G.G.",
"G.G.c.c.b.b.m.c.c.c.c.k.c.c.n.m.m.m.b.c.G.G.",
"G.c.g.p.p.g.h.g.p.a.p.,.p.s.k.c.c.g.g.p.s.G.",
"G.k.h.g.a.e.M.D.n.a.p.p.p.h.c.c.k.g.p.,.p.G.",
"G.a.h.j.g.w./ Z.F.D.f.p.p.k.c.l.h.a.>.:.:.G.",
"G.a.a.j.l.g.0.7.F.D.C.0.a.l.c.f.p.0.>.:.*.G.",
"G.0.0.V.l.j.x.S.D.S.A.9.d.l.f.w.;.>.:.=.*.G.",
"G.;.;.Z.A.v.A.S.A.S.Z.&.d.f.0.;.;.-.:.;.;.G.",
"G.-.-.q.A.A.A.A.A.A.u.$.f.9.-.-.9.w.e.0.0.G.",
"G.' X.^ N.A.A.A.A.i.2.u.Z 1.9.e.e.e.9.-.&.G.",
"G.X.X.o.6 r.i.i.t.2.u.D S A 4.0.0.0.;.=.%.G.",
"G.O.&.-.8._ 4 7 > <.D S u a m 3.9.9.-.%.#.G.",
"G.%.&.9.8.@.O.o.O.0 G x d s x k <.O.O.O.o.G.",
"G.` ~ ` } ` o.&.9.8 j C N c c B j ] ~ W E G.",
"G.P W ! ` +.9.6.&.` ; g V V B B B g [ W P G.",
"G.L P ! +.6.9.$.o.) | = t b b V n S f ` Q G.",
"G.H Q o.5.5.+.+.Q ! | Q * e x l : q i ) ( G.",
"G.W _ @.@.| | ) Y Q ` R Y & r z h p 9 Y Q G.",
"G.( .. .) ) ) K J Y Q K J J % 9 y 9 - $ 3 G.",
"G.U ) R R R H $ $ K Y $ $ $ $ # + I ) 2 o G.",
"G.X : 5 5 1 O O O 1 @ O O O O O 1 5 U < . G.",
"G.G.G.                                G.G.G."
};
