/* XPM */
static char *gnome_terminal[] = {
/* columns rows colors chars-per-pixel */
"22 22 164 2 ",
"   c #000000",
".  c #060507",
"X  c #09080A",
"o  c #0B0A0D",
"O  c #0E0C10",
"+  c #0E0D10",
"@  c #100E12",
"#  c #110F14",
"$  c #121014",
"%  c #131114",
"&  c #131115",
"*  c #131016",
"=  c #131116",
"-  c #141317",
";  c #151318",
":  c #17141A",
">  c #17151A",
",  c #18141B",
"<  c #18151C",
"1  c #1A171C",
"2  c #1A171D",
"3  c #1B171E",
"4  c #1B181E",
"5  c #1B181F",
"6  c #1C181F",
"7  c #1C1A1F",
"8  c #1D1B1F",
"9  c #1D1921",
"0  c #1E1B20",
"q  c #1F1B23",
"w  c #1F1D20",
"e  c #1F1C21",
"r  c #1F1D22",
"t  c #1F1D23",
"y  c #1F1B24",
"u  c #201B23",
"i  c #201D23",
"p  c #201D25",
"a  c #211E24",
"s  c #211D26",
"d  c #221D26",
"f  c #231E27",
"g  c #231F27",
"h  c #231E28",
"j  c #231F28",
"k  c #231F29",
"l  c #241F29",
"z  c #242027",
"x  c #252128",
"c  c #252129",
"v  c #262229",
"b  c #25202A",
"n  c #26212B",
"m  c #26232A",
"M  c #262429",
"N  c #272429",
"B  c #27242B",
"V  c #26212C",
"C  c #27222C",
"Z  c #28222D",
"A  c #28252D",
"S  c #29252D",
"D  c #29242E",
"F  c #2A252E",
"G  c #2A242F",
"H  c #2A262E",
"J  c #2A2430",
"K  c #2B2530",
"L  c #2B2531",
"P  c #2C2730",
"I  c #2C2632",
"U  c #2D2732",
"Y  c #2D2633",
"T  c #2E2A33",
"R  c #2E2834",
"E  c #2F2934",
"W  c #2F2835",
"Q  c #2F2936",
"!  c #302A36",
"~  c #312A37",
"^  c #312C36",
"/  c #312C37",
"(  c #322C37",
")  c #312E36",
"_  c #322C39",
"`  c #332D39",
"'  c #332C3A",
"]  c #342E39",
"[  c #342D3B",
"{  c #352E3C",
"}  c #36303C",
"|  c #37303E",
" . c #37313E",
".. c #37303F",
"X. c #3F3F3F",
"o. c #383140",
"O. c #393140",
"+. c #3A3240",
"@. c #3A3241",
"#. c #3D3546",
"$. c #3E3646",
"%. c #3F3748",
"&. c #403748",
"*. c #433A4C",
"=. c #453C4F",
"-. c #463D50",
";. c #404040",
":. c #4B4055",
">. c #5B585E",
",. c #625F66",
"<. c #68646C",
"1. c #6C696F",
"2. c #6C6A6F",
"3. c #726F76",
"4. c #878787",
"5. c #8F8F8F",
"6. c #949494",
"7. c #989898",
"8. c #9A9A9A",
"9. c #9E9E9E",
"0. c #A4A4A4",
"q. c #A5A3A8",
"w. c #A9A9A9",
"e. c #AEAEAE",
"r. c #B2B1B3",
"t. c #B3B3B3",
"y. c #B4B4B4",
"u. c #B9B9B9",
"i. c #BAB9BD",
"p. c #BDBDBD",
"a. c #BDBCBF",
"s. c #BEBEBE",
"d. c #BFBFBF",
"f. c #BFBEC0",
"g. c #C2C2C2",
"h. c #C3C3C3",
"j. c #C3C3C4",
"k. c #C5C3C6",
"l. c #C4C4C4",
"z. c #C6C6C6",
"x. c #C7C7C7",
"c. c #C8C7C9",
"v. c #C9C9C9",
"b. c #CCCCCC",
"n. c #CECECE",
"m. c #D1D1D1",
"M. c #D3D3D3",
"N. c #D5D4D6",
"B. c #D6D6D6",
"V. c #D8D8D8",
"C. c #D9D9D9",
"Z. c #DAD9DB",
"A. c #DBDBDB",
"S. c #DDDDDD",
"D. c #DEDEDE",
"F. c #E0E0E1",
"G. c #E2E2E2",
"H. c #E3E3E3",
"J. c #E5E5E5",
"K. c #E6E6E6",
"L. c #EBEBEB",
"P. c #F4F4F4",
"I. c #F8F8F8",
"U. c None",
/* pixels */
"U.U.U.U.U.U.U.U.U.U.U.U.U.U.U.U.U.U.U.U.U.U.",
"U.U.P.I.I.I.I.I.I.I.I.I.I.I.I.I.I.I.I.P.U.U.",
"U.L.z.6.6.6.6.6.6.6.6.6.6.6.6.6.6.6.6.z.L.U.",
"U.J.7.w % % % % & % % % % % % & % % w 7.J.U.",
"U.S.9.% 8 8 8 8 0 8 8 8 0 0 0 0 8 8 & 9.S.U.",
"U.A.0.& 8 i w u u w i i i 0 0 i 8 q % 0.A.U.",
"U.A.0.& w i 0 w w i i i i i w u q 8 $ w.A.U.",
"U.B.e.& 8 u r.>.N z z N z z z i w w $ e.B.U.",
"U.M.t.% w z 1.c.f.1.P P P S S N f i % y.M.U.",
"U.m.u.- n S L ^ q.F.~ ~ ^ ! N g u 8 o u.m.U.",
"U.n.s.> S Q ,.i.k.3.U D g < < ; # O . s.n.U.",
"U.n.g.5 T ` f.<.D f l l g g q 5 , $ X k.n.U.",
"U.v.v.8 ~ S l l D L N.A.Z.A.l g 9 ; o v.v.U.",
"U.z.n.< q g V U Y ~ { | { ` L l g 6 O n.z.U.",
"U.g.M.@ y n L ~ { { @...o.[ ~ L n y @ m.z.U.",
"U.g.A.$ h L Y { @.%.%.%.#.@.{ Q D g # A.g.U.",
"U.d.S.$ V U ~ @.#.*.-.-.=.&.@.~ L n $ F.d.U.",
"U.s.J.$ l Y ` @.%.-.-.:.=.&.@.~ U n $ H.s.U.",
"U.y.G.N ; q y h D L Q ~ L D h g 9 > n H.y.U.",
"U.5.j.G.J.K.K.J.K.J.J.K.J.J.J.J.J.J.G.g.5.U.",
"U.;.4.8.7.8.8.8.8.8.8.8.8.8.8.8.9.7.7.4.X.U.",
"U.U.U.                                U.U.U."
};
