/* XPM */
static char *gtk_recordmydesktop[] = {
/* columns rows colors chars-per-pixel */
"22 22 127 2 ",
"   c #000000",
".  c #3D460C",
"X  c #69791D",
"o  c #6B7B21",
"O  c #73851A",
"+  c #76891D",
"@  c #788B1F",
"#  c #728327",
"$  c #778924",
"%  c #798D22",
"&  c #77882F",
"*  c #788A2F",
"=  c #7C9126",
"-  c #7E952A",
";  c #758D34",
":  c #798E37",
">  c #778F38",
",  c #7B9234",
"<  c #7C933D",
"1  c #80941C",
"2  c #859A1F",
"3  c #80932E",
"4  c #80992D",
"5  c #829533",
"6  c #849C31",
"7  c #8A9D36",
"8  c #849639",
"9  c #859B3C",
"0  c #899D3C",
"q  c #94A922",
"w  c #85A035",
"e  c #8EA234",
"r  c #86A239",
"t  c #8AA43A",
"y  c #8AA83D",
"u  c #90A03C",
"i  c #94AA3B",
"p  c #9AAF3B",
"a  c #A7C02A",
"s  c #ADC72C",
"d  c #AEC82F",
"f  c #ACC731",
"g  c #AFC932",
"h  c #ACC73B",
"j  c #AFC93C",
"k  c #B0CA36",
"l  c #B2CB3E",
"z  c #839B46",
"x  c #889C44",
"c  c #899F4C",
"v  c #919F42",
"b  c #8FA245",
"n  c #8AA24E",
"m  c #94AA44",
"M  c #98AD44",
"N  c #96A849",
"B  c #99AD4D",
"V  c #9FB444",
"C  c #9DB44A",
"Z  c #8EA651",
"A  c #90A551",
"S  c #95AB57",
"D  c #99AE57",
"F  c #99AB5D",
"G  c #9AB252",
"H  c #9DB35C",
"J  c #A3B84D",
"K  c #A0AF56",
"L  c #A4B653",
"P  c #A5BB54",
"I  c #A7B65B",
"U  c #A8B65E",
"Y  c #A5BA5C",
"T  c #A8BC5D",
"R  c #A4BC60",
"E  c #ACBE64",
"W  c #A0B168",
"Q  c #ADBF73",
"!  c #ACC743",
"~  c #AFC943",
"^  c #ACC54D",
"/  c #AFC94C",
"(  c #B4CC43",
")  c #B4CC4B",
"_  c #B8CF4A",
"`  c #BAD04E",
"'  c #ACC753",
"]  c #AFC954",
"[  c #ADC55C",
"{  c #AFC95D",
"}  c #B1C755",
"|  c #B7CE51",
" . c #B8CE56",
".. c #B1C65C",
"X. c #B7CE5C",
"o. c #B8CE5B",
"O. c #BAD057",
"+. c #ACC564",
"@. c #AFC862",
"#. c #ACC668",
"$. c #AFC96A",
"%. c #B4C366",
"&. c #B6CD64",
"*. c #B9CE63",
"=. c #B2CA6C",
"-. c #B9CE6B",
";. c #BCD162",
":. c #BCD06B",
">. c #B1C570",
",. c #B6CC73",
"<. c #B9CF72",
"1. c #B5C778",
"2. c #B4C87A",
"3. c #BACB7C",
"4. c #BBD170",
"5. c #BDD07F",
"6. c #C1D562",
"7. c #C2D473",
"8. c #C7D976",
"9. c #C4D57C",
"0. c #C8D978",
"q. c #BBCE84",
"w. c #BDD089",
"e. c #C1D383",
"r. c #C1D58E",
"t. c #C8D98E",
"y. c None",
/* pixels */
"y.y.y.y.y.y.y.y.y.y.y.y.y.y.y.y.y.y.y.y.y.y.",
"y.y.w.r.r.r.r.r.r.r.w.w.r.r.r.r.w.w.r.w.y.y.",
"y.2.$.#.$.$.$.$.#.Z z < > ; z z Z R #.$.2.y.",
"y.=.+.$.=.=.,.Z > r b y y y y b r , z @.$.y.",
"y.{ @.$.=.+.< H q.w.r.q.2.G y y y y w < H y.",
"y.[ @.=.=.c r.3.F H =.=.,.w.2.y r w r w , y.",
"y.[ { &.D >.> : S A ; < #.=.4.w.r w w w w y.",
"y.' { G W 8 q.r.9.e.t.1.: [ -.-.=.6 6 w w y.",
"y.' } R 8 3.-.T x T :.:.,., &.-.4.m 6 6 6 y.",
"y.^ } H Y -.9 F 3.F x &.-.B P &.=.C - - - y.",
"y./ ' m [ [ v :.*.:.b [ &.L C &.*.' - - - y.",
"y.! ) i C &.0 o.*.X.0 &.*.i J *.X.C - - - y.",
"y.! / J 7 o.E ; 8 & E o.o.3 ..o.X.e = = 3 y.",
"y.! ~  .5 M :.9.3.9.6.o.0 N o.o. .3 = % @ y.",
"y.h ~ ) %.$ 5 }  . .} * 5 -.O.o.7 $ % % @ y.",
"y.h ! ) | 7.K o X X o E 7.| ) J O @ @ @ @ y.",
"y.g j ( ) | ..8.9.9.8.` | ) 3 X + + + 7 *.y.",
"y.f g ( ( ) | L 3 e p 5 $ X X O O + U O.s y.",
"y.a f g l l l ( *.U v 7 + + u U ..6.( s a y.",
"y.2 a s d d d k g g k _ 6.6.` k d d s a 4 y.",
"y.. 1 q q q q q q q q q q q q q q q q 2 . y.",
"y.y.y.                                y.y.y."
};
