/* XPM */
static char *opera[] = {
/* columns rows colors chars-per-pixel */
"22 22 178 2 ",
"   c #000000",
".  c #2C0000",
"X  c #5C0101",
"o  c #640302",
"O  c #6A0404",
"+  c #7C0505",
"@  c #651210",
"#  c #7F2F2C",
"$  c #684947",
"%  c #6A4D4C",
"&  c #810606",
"*  c #820807",
"=  c #850D0B",
"-  c #8C0B0B",
";  c #910C0C",
":  c #980E0E",
">  c #8B100E",
",  c #811714",
"<  c #8C1512",
"1  c #8C1918",
"2  c #951412",
"3  c #9C1211",
"4  c #911A16",
"5  c #991D1A",
"6  c #A11413",
"7  c #AA1515",
"8  c #A31816",
"9  c #A31D1A",
"0  c #AB1B19",
"q  c #B11B1A",
"w  c #8D201B",
"e  c #9B221E",
"r  c #A5211E",
"t  c #8A2320",
"y  c #802F2D",
"u  c #8E2D29",
"i  c #9B2521",
"p  c #992B28",
"a  c #9C302D",
"s  c #863634",
"d  c #A22623",
"f  c #AA2320",
"g  c #A52924",
"h  c #AB2A25",
"j  c #AD2E29",
"k  c #B02322",
"l  c #BC2626",
"z  c #B42E29",
"x  c #A1332E",
"c  c #A8302B",
"v  c #B1322D",
"b  c #BB312C",
"n  c #A43330",
"m  c #B63735",
"M  c #B33935",
"N  c #BB3834",
"B  c #BD3A38",
"V  c #C2342F",
"C  c #C73632",
"Z  c #CC3833",
"A  c #C13E39",
"S  c #DD3533",
"D  c #D23A35",
"F  c #DD3936",
"G  c #DB3D3C",
"H  c #E12E2C",
"J  c #E1302E",
"K  c #E13231",
"L  c #E23836",
"P  c #AB413D",
"I  c #B2403D",
"U  c #C5443F",
"Y  c #DE413D",
"T  c #E3413F",
"R  c #965D5A",
"E  c #A14A45",
"W  c #AC4C49",
"Q  c #B84F4A",
"!  c #B3524E",
"~  c #BD534E",
"^  c #A95D5A",
"/  c #BE5451",
"(  c #B45854",
")  c #BA5A55",
"_  c #B5615D",
"`  c #BC605C",
"'  c #8B7B7B",
"]  c #907473",
"[  c #927C7B",
"{  c #AD6260",
"}  c #A66F6D",
"|  c #AF7573",
" . c #B47471",
".. c #B77876",
"X. c #B07D7B",
"o. c #BA7D7B",
"O. c #CB4343",
"+. c #C24E4A",
"@. c #CC4B4B",
"#. c #D34343",
"$. c #DA4744",
"%. c #D94B47",
"&. c #DA4C4A",
"*. c #DD514E",
"=. c #CC5653",
"-. c #C55855",
";. c #CA5A57",
":. c #CC5A58",
">. c #D45451",
",. c #DE5651",
"<. c #D05957",
"1. c #DC5957",
"2. c #D45F5B",
"3. c #DB5E5B",
"4. c #E34140",
"5. c #E14946",
"6. c #E04C49",
"7. c #E1514E",
"8. c #E65451",
"9. c #E45B59",
"0. c #EB5F5F",
"q. c #C3615E",
"w. c #DE615D",
"e. c #E5625F",
"r. c #EB605F",
"t. c #CC6360",
"y. c #C66863",
"u. c #CE6865",
"i. c #C36D68",
"p. c #CC6E69",
"a. c #D46663",
"s. c #DD6560",
"d. c #D16865",
"f. c #DC6A65",
"g. c #DA6F69",
"h. c #CF726D",
"j. c #D8736E",
"k. c #CB7C77",
"l. c #D47570",
"z. c #EB6060",
"x. c #ED6C6C",
"c. c #E4726F",
"v. c #E47571",
"b. c #ED7272",
"n. c #C3807D",
"m. c #8E8282",
"M. c #9E9191",
"N. c #A58B8A",
"B. c #BA8A86",
"V. c #B4908F",
"C. c #AB9897",
"Z. c #B89D9C",
"A. c #B3A4A3",
"S. c #BBACAA",
"D. c #BDB3B2",
"F. c #CC8986",
"G. c #DF8582",
"H. c #D79590",
"J. c #E19E9C",
"K. c #CBA8A7",
"L. c #CDAEAC",
"P. c #DAA7A5",
"I. c #DCAFAD",
"U. c #C0B8B8",
"Y. c #CBBABA",
"T. c #E2A5A3",
"R. c #E9BBB9",
"E. c #CCC2C2",
"W. c #DEDDDD",
"Q. c #EBC4C3",
"!. c #E0DEDD",
"~. c #E5E5E5",
"^. c #ECECEC",
"/. c #F0E2E1",
"(. c #F0EFEF",
"). c #F3F3F3",
"_. c #F9F9F9",
"`. c None",
/* pixels */
"`.`.`.`.`.`.`.`.`.`.`.`.`.`.`.`.`.`.`.`.`.`.",
"`.`.9.0.z.z.z.z.x.b.b.b.z.z.z.z.0.0.0.9.`.`.",
"`.&.4.K J T T H L 8.8.5.J H H H H K H F &.`.",
"`.L F G 5.Y 6.5.F z.9.Y S S S F 7.6.F S L `.",
"`.G $.,.*.G &.$.c.Q././.R.c.F ,.1.9.&.%.G `.",
"`.#.&.1.%.D c.T._.[ y # ] _.J.s.$.3.1.&.#.`.",
"`.#.>.3.f.>.I._.S.C Z D C A._.P.s.f.3.>.#.`.",
"`.@.>.a.g.G.(.).X.Z Z Z Z | _.(.G.g.2.>.@.`.",
"`.Z <.a.j.L.).).{ C C C C  .).).K.2.=.O.@.`.",
"`.V q.d.j.E.).(.W V V V V _ (.).Y.O.d.=.@.`.",
"`.q B u.U W.^.^.M b b b U F.(.(.!.l.t.-.B `.",
"`.7 q N -.W.^.^.M b b b +.H.^.^.W.p.-.+.k `.",
"`.7 0 k z D.^.^.( z z z v n.^.^.U.p.t.m 7 `.",
"`.6 0 r h N.~.^.B.~ v j j ^ ~.~.C.y./ 9 6 `.",
"`.3 6 r g s !.~.V.k.~ h j } ~.W.R q.I 6 : `.",
"`.: 3 r g g [ !.S.i.c g g Z.!.[ ` ) c g : `.",
"`.; 2 5 e d u m.W.o.n x ..W.' t ! P 5 2 ; `.",
"`.- > 2 5 e x E % C.E.E.M.% w i i e 2 - - `.",
"`.& - > < 4 p p 4 , @ @ + 4 4 4 4 < > = & `.",
"`.o + & = = 1 < = = = = , < = = = * * + o `.",
"`.. X O O O O O O O O O O O O O O O O X . `.",
"`.`.`.                                `.`.`."
};
