/* XPM */
static char *picasa[] = {
/* columns rows colors chars-per-pixel */
"22 22 190 2 ",
"   c #000000",
".  c #4F4F4F",
"X  c #DF3A3D",
"o  c #F82F33",
"O  c #E03A3D",
"+  c #F93337",
"@  c #F9363A",
"#  c #F9373B",
"$  c #F67A0A",
"%  c #FB7B08",
"&  c #FC7C08",
"*  c #FE7E08",
"=  c #FE7F08",
"-  c #F93D41",
";  c #DE5D5F",
":  c #FA4246",
">  c #FA4549",
",  c #FA4A4E",
"<  c #FA5054",
"1  c #FA565A",
"2  c #E05D60",
"3  c #F9666A",
"4  c #2FAF1D",
"5  c #2DAD1E",
"6  c #2FB01D",
"7  c #34B61B",
"8  c #30B11D",
"9  c #31B31C",
"0  c #32B31C",
"q  c #33B51C",
"w  c #34B51C",
"e  c #36B81B",
"r  c #38BA1A",
"t  c #39BB1A",
"y  c #33AF25",
"u  c #4FAC3E",
"i  c #50AF3B",
"p  c #48B73B",
"a  c #53B337",
"s  c #52B238",
"d  c #51B03A",
"f  c #51B13A",
"g  c #4EA941",
"h  c #54AA4A",
"j  c #52BA46",
"k  c #7AC970",
"l  c #FE8108",
"z  c #FE8308",
"x  c #FE8508",
"c  c #FE8709",
"v  c #FE8809",
"b  c #FE8C09",
"n  c #FE8E09",
"m  c #FE8F09",
"M  c #FE9009",
"N  c #F98216",
"B  c #FD8B24",
"V  c #F58F34",
"C  c #E58F42",
"Z  c #FA9D49",
"A  c #E4A469",
"S  c #E7A469",
"D  c #EBA768",
"F  c #1657AD",
"G  c #155EAE",
"H  c #1C59AC",
"J  c #165CB0",
"K  c #165EB1",
"L  c #1664B5",
"P  c #1668B3",
"I  c #1569B8",
"U  c #9A57B5",
"Y  c #9B58B7",
"T  c #9C58B9",
"R  c #9E5ABB",
"E  c #9F5FBA",
"W  c #A05FBB",
"Q  c #A05EBC",
"!  c #A260BD",
"~  c #A362BE",
"^  c #A972BF",
"/  c #A77BBA",
"(  c #A97FBB",
")  c #A565C0",
"_  c #A567C0",
"`  c #A769C1",
"'  c #A76AC1",
"]  c #A86DC2",
"[  c #AA6FC3",
"{  c #AB70C4",
"}  c #AD72C5",
"|  c #AE75C6",
" . c #B17AC8",
".. c #7293BB",
"X. c #7EA1CF",
"o. c #AA81BB",
"O. c #AF8ABF",
"+. c #A8A8A8",
"@. c #B0B0B0",
"#. c #DE8183",
"$. c #FA8384",
"%. c #E39597",
"&. c #FA999B",
"*. c #F9ACAD",
"=. c #F9BCBD",
"-. c #90D189",
";. c #92D18B",
":. c #ADDBA8",
">. c #B1DCAC",
",. c #B4DEAF",
"<. c #C1E3BC",
"1. c #B693C4",
"2. c #B796C4",
"3. c #B893C7",
"4. c #BE94D0",
"5. c #88A7C8",
"6. c #A0BBD3",
"7. c #A3BBD9",
"8. c #CCABDB",
"9. c #D5B9E0",
"0. c #ADC2DE",
"q. c #C0C0C0",
"w. c #C1C1C1",
"e. c #CCD4DF",
"r. c #DCDCDC",
"t. c #DDDDDD",
"y. c #ECDACA",
"u. c #D9E3D8",
"i. c #F9E5CF",
"p. c #EEE6DC",
"a. c #EFE7DD",
"s. c #F5E4D4",
"d. c #F9E5D0",
"f. c #F9E4D2",
"g. c #F0E8DE",
"h. c #F1E9DE",
"j. c #DCC6E5",
"k. c #DED5E2",
"l. c #DCDFE5",
"z. c #E2D1E9",
"x. c #E7DBEC",
"c. c #DCE0E5",
"v. c #DCE1E6",
"b. c #DCE2E7",
"n. c #DCE3E8",
"m. c #DDE3E9",
"M. c #E4E4E4",
"N. c #E5E5E5",
"B. c #E6E6E6",
"V. c #E7E7E7",
"C. c #E6EEE5",
"Z. c #E0E6EA",
"A. c #EAE1EE",
"S. c #EBE7ED",
"D. c #E8E8E8",
"F. c #E9E9E9",
"G. c #E9EBE8",
"H. c #E8EAEB",
"J. c #EAEAEA",
"K. c #EBEBEB",
"L. c #EDEBE8",
"P. c #EBECEA",
"I. c #EBECED",
"U. c #ECECEC",
"Y. c #EDEDED",
"T. c #EEEEEE",
"R. c #EFEFEF",
"E. c #F2EAE0",
"W. c #F3EBE2",
"Q. c #F4ECE4",
"!. c #F4ECE5",
"~. c #F0E7EB",
"^. c #F8E6E8",
"/. c #F5E8EA",
"(. c #F2F0EE",
"). c #F3F1EF",
"_. c #EEECF0",
"`. c #F0F0F0",
"'. c #F1F0F1",
"]. c #F1F1F1",
"[. c #F2F1F2",
"{. c #F2F1F3",
"}. c #F2F2F2",
"|. c #F3F2F2",
" X c #F3F3F3",
".X c #F4F1F1",
"XX c #F4F4F4",
"oX c #F5F5F5",
"OX c #FAFAFA",
"+X c None",
/* pixels */
"+X+X+X+X+X+X+X+X+X+X+X+X+X+X+X+X+X+X+X+X+X+X",
"+X+XoXOXOXOXOXOXOXOXOXOXOXOXOXOXOXOXOXoX+X+X",
"+XT.oX}. XoXXXoXoX XoX XoX XoX XoX}.}.oXR.+X",
"+XoX}.}. X X}. X%.2 O X ; #.oX}.}.oX}.}.}.+X",
"+X}.}.}.}.}.2.O.^.3 @ @ + o Q.A }.oX}.}.}.+X",
"+X}.}.}.`./ Y W o./.$.> : - Q.% C /.}.}.}.+X",
"+X}.}.}.1.T ~ ' [ ( ~.&.< , W.z % A }.}.T.+X",
"+XT.T.k.U Q ' }  .8.S.}.*.1 W.c z $ y.T.T.+X",
"+XT.T.1.T ) {  .9.}.].].}.=.h.n c & D T.U.+X",
"+XU.T.^ Q ' | j.}.T.].~.R.}.h.n c * V T.T.+X",
"+XK.K.E ~ [ z.}.T.T.T.T.T.T.p.M c z N K.K.+X",
"+XK.T.' ) x.6.Z.T.T.T.T.T.I.h.n c z B I.K.+X",
"+XK.K.4.A.5.P n.T.T.T.T.T.T.p.n c * Z K.K.+X",
"+XK.K.U...G I n.K.P.P.P.P.I.L.i.d.f.s.K.K.+X",
"+XV.V.e.H F L c.f f a a a f u u g h u.K.B.+X",
"+XB.V.V.7.F L c.e r t t e e 7 6 4 :.B.B.B.+X",
"+XB.B.B.H.X.F l.9 w w w 7 9 4 5 -.K.B.B.B.+X",
"+XM.B.B.B.I.0.l.5 4 4 4 4 4 y :.P.B.B.B.M.+X",
"+Xt.B.B.B.B.K.B.<.-.j p k ,.C.K.B.B.B.M.t.+X",
"+X@.r.M.M.M.M.B.B.K.}.}.K.B.M.M.B.M.M.r.@.+X",
"+X. +.q.q.q.q.q.w.w.w.w.w.w.q.q.q.q.q.+.. +X",
"+X+X+X                                +X+X+X"
};
