<?xml version="1.0" encoding="UTF-8" standalone="no"?>
<!-- Created with Inkscape (http://www.inkscape.org/) -->

<svg
   xmlns:dc="http://purl.org/dc/elements/1.1/"
   xmlns:cc="http://creativecommons.org/ns#"
   xmlns:rdf="http://www.w3.org/1999/02/22-rdf-syntax-ns#"
   xmlns:svg="http://www.w3.org/2000/svg"
   xmlns="http://www.w3.org/2000/svg"
   xmlns:xlink="http://www.w3.org/1999/xlink"
   xmlns:sodipodi="http://sodipodi.sourceforge.net/DTD/sodipodi-0.dtd"
   xmlns:inkscape="http://www.inkscape.org/namespaces/inkscape"
   version="1.0"
   width="64.000084"
   height="64.000084"
   id="svg3506"
   sodipodi:version="0.32"
   inkscape:version="0.48.0 r9654"
   sodipodi:docname="firefox.svg"
   inkscape:output_extension="org.inkscape.output.svg.inkscape">
  <metadata
     id="metadata61">
    <rdf:RDF>
      <cc:Work
         rdf:about="">
        <dc:format>image/svg+xml</dc:format>
        <dc:type
           rdf:resource="http://purl.org/dc/dcmitype/StillImage" />
        <dc:title />
      </cc:Work>
    </rdf:RDF>
  </metadata>
  <sodipodi:namedview
     inkscape:window-height="1034"
     inkscape:window-width="1920"
     inkscape:pageshadow="2"
     inkscape:pageopacity="0.0"
     guidetolerance="10.0"
     gridtolerance="10.0"
     objecttolerance="10.0"
     borderopacity="1.0"
     bordercolor="#666666"
     pagecolor="#ffffff"
     id="base"
     showgrid="false"
     inkscape:zoom="1"
     inkscape:cx="29.977691"
     inkscape:cy="61.954157"
     inkscape:window-x="0"
     inkscape:window-y="24"
     inkscape:current-layer="svg3506"
     inkscape:window-maximized="1" />
  <defs
     id="defs3508">
    <inkscape:perspective
       sodipodi:type="inkscape:persp3d"
       inkscape:vp_x="0 : 32.000042 : 1"
       inkscape:vp_y="0 : 1000 : 0"
       inkscape:vp_z="64.000084 : 32.000042 : 1"
       inkscape:persp3d-origin="32.000042 : 21.333361 : 1"
       id="perspective63" />
    <linearGradient
       id="linearGradient3205">
      <stop
         id="stop3207"
         style="stop-color:#4d4d4d;stop-opacity:1"
         offset="0" />
      <stop
         id="stop3209"
         style="stop-color:#4d4d4d;stop-opacity:0.51694918"
         offset="1" />
    </linearGradient>
    <linearGradient
       id="linearGradient3198">
      <stop
         id="stop3200"
         style="stop-color:#ffffff;stop-opacity:1"
         offset="0" />
      <stop
         id="stop3202"
         style="stop-color:#ffffff;stop-opacity:0"
         offset="1" />
    </linearGradient>
    <radialGradient
       cx="605.71429"
       cy="486.64789"
       r="117.14286"
       fx="605.71429"
       fy="486.64789"
       id="radialGradient3873"
       xlink:href="#linearGradient5060"
       gradientUnits="userSpaceOnUse"
       gradientTransform="matrix(2.409717e-2,0,0,1.537476e-2,26.477584,38.629039)" />
    <linearGradient
       id="linearGradient5060">
      <stop
         id="stop5062"
         style="stop-color:#000000;stop-opacity:1"
         offset="0" />
      <stop
         id="stop5064"
         style="stop-color:#000000;stop-opacity:0"
         offset="1" />
    </linearGradient>
    <radialGradient
       cx="605.71429"
       cy="486.64789"
       r="117.14286"
       fx="605.71429"
       fy="486.64789"
       id="radialGradient3586"
       xlink:href="#linearGradient5060"
       gradientUnits="userSpaceOnUse"
       gradientTransform="matrix(-2.409717e-2,0,0,1.537476e-2,21.522412,38.629039)" />
    <linearGradient
       id="linearGradient5048">
      <stop
         id="stop5050"
         style="stop-color:#000000;stop-opacity:0"
         offset="0" />
      <stop
         id="stop5056"
         style="stop-color:#000000;stop-opacity:1"
         offset="0.5" />
      <stop
         id="stop5052"
         style="stop-color:#000000;stop-opacity:0"
         offset="1" />
    </linearGradient>
    <linearGradient
       x1="302.85715"
       y1="366.64789"
       x2="302.85715"
       y2="609.50507"
       id="linearGradient3584"
       xlink:href="#linearGradient5048"
       gradientUnits="userSpaceOnUse"
       gradientTransform="matrix(7.04142e-2,0,0,1.537476e-2,-1.4497047,38.629007)" />
    <linearGradient
       id="linearGradient3319">
      <stop
         id="stop3321"
         style="stop-color:#af9b7f;stop-opacity:1"
         offset="0" />
      <stop
         id="stop3323"
         style="stop-color:#736148;stop-opacity:1"
         offset="1" />
    </linearGradient>
    <linearGradient
       x1="22.333973"
       y1="11.029935"
       x2="53.453438"
       y2="61.220222"
       id="linearGradient2878"
       xlink:href="#linearGradient3319"
       gradientUnits="userSpaceOnUse"
       gradientTransform="matrix(0.9482529,0,0,1.0069351,1.9881995,-16.286836)" />
    <linearGradient
       id="linearGradient8967">
      <stop
         id="stop8969"
         style="stop-color:#ddcfbd;stop-opacity:1"
         offset="0" />
      <stop
         id="stop8971"
         style="stop-color:#856f50;stop-opacity:1"
         offset="1" />
    </linearGradient>
    <linearGradient
       x1="16.1015"
       y1="9.8888979"
       x2="38.491451"
       y2="45.999996"
       id="linearGradient2876"
       xlink:href="#linearGradient8967"
       gradientUnits="userSpaceOnUse"
       gradientTransform="matrix(1.3179628,0,0,1.3995242,1.9452749,-19.020161)" />
    <linearGradient
       id="linearGradient8978">
      <stop
         id="stop8980"
         style="stop-color:#4d5459;stop-opacity:0.99607843"
         offset="0" />
      <stop
         id="stop8982"
         style="stop-color:#141b1f;stop-opacity:1"
         offset="1" />
    </linearGradient>
    <linearGradient
       x1="5.4800777"
       y1="25.019028"
       x2="8.5000601"
       y2="25.019028"
       id="linearGradient2873"
       xlink:href="#linearGradient8978"
       gradientUnits="userSpaceOnUse"
       gradientTransform="matrix(1.1428572,0,0,1.3809523,2.1180086,-18.356108)" />
    <linearGradient
       id="linearGradient3913">
      <stop
         id="stop3915"
         style="stop-color:#4e555a;stop-opacity:1"
         offset="0" />
      <stop
         id="stop3917"
         style="stop-color:#151c20;stop-opacity:1"
         offset="0.15977758" />
      <stop
         id="stop3919"
         style="stop-color:#9b876c;stop-opacity:1"
         offset="0.1672256" />
      <stop
         id="stop3921"
         style="stop-color:#9b876c;stop-opacity:1"
         offset="0.75216067" />
      <stop
         id="stop3923"
         style="stop-color:#9b876c;stop-opacity:1"
         offset="0.93860334" />
      <stop
         id="stop3925"
         style="stop-color:#c2c2c2;stop-opacity:1"
         offset="0.94891226" />
      <stop
         id="stop3927"
         style="stop-color:#c2c2c2;stop-opacity:1"
         offset="1" />
    </linearGradient>
    <linearGradient
       x1="5.7542129"
       y1="5.2438145"
       x2="55.495323"
       y2="0.065301567"
       id="linearGradient2867"
       xlink:href="#linearGradient3913"
       gradientUnits="userSpaceOnUse"
       gradientTransform="matrix(0.9630315,0,0,0.9748253,2.3120707,-16.054718)" />
    <linearGradient
       id="linearGradient2346">
      <stop
         id="stop2348"
         style="stop-color:#eeeeee;stop-opacity:1"
         offset="0" />
      <stop
         id="stop2350"
         style="stop-color:#d9d9da;stop-opacity:1"
         offset="1" />
    </linearGradient>
    <linearGradient
       x1="24.62738"
       y1="3.1234391"
       x2="24.640038"
       y2="4.882647"
       id="linearGradient2865"
       xlink:href="#linearGradient2346"
       gradientUnits="userSpaceOnUse"
       gradientTransform="matrix(1.3499326,0,0,2.006728,1.0605193,-21.258376)" />
    <linearGradient
       x1="28.25223"
       y1="4.0340509"
       x2="40.977692"
       y2="24.620178"
       id="linearGradient3204"
       xlink:href="#linearGradient3198"
       gradientUnits="userSpaceOnUse"
       gradientTransform="matrix(1.3560131,0,0,1.3439274,-0.5618914,-16.420031)" />
    <linearGradient
       x1="13.832294"
       y1="-9.8322983"
       x2="13.832294"
       y2="44.167702"
       id="linearGradient3211"
       xlink:href="#linearGradient3205"
       gradientUnits="userSpaceOnUse" />
    <radialGradient
       r="10.625"
       fy="4.625"
       fx="62.625"
       cy="4.625"
       cx="62.625"
       gradientTransform="matrix(2.1647059,0,0,0.8746607,-111.42185,34.668974)"
       gradientUnits="userSpaceOnUse"
       id="radialGradient3102"
       xlink:href="#linearGradient8838-9"
       inkscape:collect="always" />
    <linearGradient
       id="linearGradient8838-9">
      <stop
         id="stop8840-2"
         style="stop-color:#000000;stop-opacity:1"
         offset="0" />
      <stop
         id="stop8842-6"
         style="stop-color:#000000;stop-opacity:0"
         offset="1" />
    </linearGradient>
    <radialGradient
       inkscape:collect="always"
       xlink:href="#linearGradient8647"
       id="radialGradient4080"
       gradientUnits="userSpaceOnUse"
       gradientTransform="matrix(3.4483073,0,0,2.8391845,-10.093968,-2.5424327)"
       cx="12.465816"
       cy="5.3052077"
       fx="12.465816"
       fy="5.3052077"
       r="10.499999" />
    <linearGradient
       id="linearGradient8647">
      <stop
         style="stop-color:#8fb1dc;stop-opacity:1;"
         offset="0"
         id="stop8649" />
      <stop
         style="stop-color:#3465a4;stop-opacity:1;"
         offset="1"
         id="stop8651" />
    </linearGradient>
    <filter
       color-interpolation-filters="sRGB"
       inkscape:collect="always"
       id="filter4206">
      <feGaussianBlur
         inkscape:collect="always"
         stdDeviation="1.0589844"
         id="feGaussianBlur4208" />
    </filter>
    <linearGradient
       y2="-1.4615115"
       x2="62.200409"
       y1="-12.489107"
       x1="62.200409"
       gradientTransform="matrix(3.0201378,0,0,3.020069,-155.40493,39.761171)"
       gradientUnits="userSpaceOnUse"
       id="linearGradient3130"
       xlink:href="#linearGradient4873-1"
       inkscape:collect="always" />
    <linearGradient
       id="linearGradient4873-1">
      <stop
         id="stop4875-43"
         style="stop-color:#ffffff;stop-opacity:1"
         offset="0" />
      <stop
         id="stop4877-6"
         style="stop-color:#ffffff;stop-opacity:0"
         offset="1" />
    </linearGradient>
    <linearGradient
       gradientTransform="matrix(1.389667,0,0,1.389667,-1.7136178,-1.3739947)"
       inkscape:collect="always"
       xlink:href="#linearGradient4229"
       id="linearGradient4235"
       x1="1.6875"
       y1="23.852516"
       x2="46.3125"
       y2="23.852516"
       gradientUnits="userSpaceOnUse" />
    <linearGradient
       id="linearGradient4229">
      <stop
         style="stop-color:#f57900;stop-opacity:1;"
         offset="0"
         id="stop4231" />
      <stop
         style="stop-color:#f5ad00;stop-opacity:1;"
         offset="1"
         id="stop4233" />
    </linearGradient>
    <linearGradient
       gradientTransform="matrix(1.389667,0,0,1.389667,-1.7136178,-1.3739947)"
       inkscape:collect="always"
       xlink:href="#linearGradient4237"
       id="linearGradient4243"
       x1="1.6875"
       y1="23.852516"
       x2="46.3125"
       y2="23.852516"
       gradientUnits="userSpaceOnUse" />
    <linearGradient
       id="linearGradient4237">
      <stop
         style="stop-color:#c85a00;stop-opacity:1;"
         offset="0"
         id="stop4239" />
      <stop
         style="stop-color:#c86700;stop-opacity:1;"
         offset="1"
         id="stop4241" />
    </linearGradient>
    <radialGradient
       r="20.976337"
       fy="32.475872"
       fx="-20.094555"
       cy="32.475872"
       cx="-20.094555"
       gradientTransform="matrix(1.8825263,2.8396177,-2.6356979,1.7473672,153.61739,28.982016)"
       gradientUnits="userSpaceOnUse"
       id="radialGradient3131"
       xlink:href="#linearGradient6119-4"
       inkscape:collect="always" />
    <linearGradient
       inkscape:collect="always"
       id="linearGradient6119-4">
      <stop
         style="stop-color: rgb(255, 241, 227); stop-opacity: 1;"
         offset="0"
         id="stop6121-1" />
      <stop
         style="stop-color: rgb(255, 241, 227); stop-opacity: 0;"
         offset="1"
         id="stop6123-4" />
    </linearGradient>
    <linearGradient
       inkscape:collect="always"
       xlink:href="#linearGradient3490"
       id="linearGradient3496"
       x1="-18.198442"
       y1="23.479414"
       x2="44.828243"
       y2="12.947504"
       gradientUnits="userSpaceOnUse"
       gradientTransform="matrix(1.3896669,0,0,1.3896669,0.31330149,-0.50406233)" />
    <linearGradient
       inkscape:collect="always"
       id="linearGradient3490">
      <stop
         style="stop-color: rgb(239, 41, 41); stop-opacity: 1;"
         offset="0"
         id="stop3492" />
      <stop
         style="stop-color: rgb(239, 41, 41); stop-opacity: 0;"
         offset="1"
         id="stop3494" />
    </linearGradient>
    <linearGradient
       inkscape:collect="always"
       xlink:href="#linearGradient11549"
       id="linearGradient1572"
       gradientUnits="userSpaceOnUse"
       gradientTransform="matrix(-0.02429568,0.05994258,-0.05142922,-0.02063197,46.13985,30.62728)"
       x1="374.50772"
       y1="352.56131"
       x2="168.51511"
       y2="535.84491" />
    <linearGradient
       id="linearGradient11549">
      <stop
         id="stop11565"
         offset="0"
         style="stop-color:#fde1a2;stop-opacity:1;" />
      <stop
         style="stop-color: rgb(252, 218, 108); stop-opacity: 0;"
         offset="0.90625"
         id="stop3430" />
      <stop
         id="stop11553"
         offset="1.0000000"
         style="stop-color: rgb(255, 252, 181); stop-opacity: 1;" />
    </linearGradient>
    <linearGradient
       inkscape:collect="always"
       xlink:href="#linearGradient11549"
       id="linearGradient1580"
       gradientUnits="userSpaceOnUse"
       gradientTransform="matrix(6.1996099e-4,0.06467622,-0.05540866,7.2868158e-4,43.694943,30.022416)"
       x1="374.50772"
       y1="352.56131"
       x2="168.51511"
       y2="535.84491" />
    <linearGradient
       id="linearGradient3927">
      <stop
         id="stop3929"
         offset="0"
         style="stop-color:#fde1a2;stop-opacity:1;" />
      <stop
         style="stop-color: rgb(252, 218, 108); stop-opacity: 0;"
         offset="0.90625"
         id="stop3931" />
      <stop
         id="stop3933"
         offset="1.0000000"
         style="stop-color: rgb(255, 252, 181); stop-opacity: 1;" />
    </linearGradient>
    <linearGradient
       inkscape:collect="always"
       xlink:href="#linearGradient11549"
       id="linearGradient1584"
       gradientUnits="userSpaceOnUse"
       gradientTransform="matrix(-0.04132202,0.04975827,-0.04275602,-0.03525016,41.207601,34.019269)"
       x1="374.50772"
       y1="352.56131"
       x2="168.51511"
       y2="535.84491" />
    <linearGradient
       id="linearGradient3936">
      <stop
         id="stop3938"
         offset="0"
         style="stop-color:#fde1a2;stop-opacity:1;" />
      <stop
         style="stop-color: rgb(252, 218, 108); stop-opacity: 0;"
         offset="0.90625"
         id="stop3940" />
      <stop
         id="stop3942"
         offset="1.0000000"
         style="stop-color: rgb(255, 252, 181); stop-opacity: 1;" />
    </linearGradient>
    <linearGradient
       inkscape:collect="always"
       xlink:href="#linearGradient11549"
       id="linearGradient1438"
       gradientUnits="userSpaceOnUse"
       gradientTransform="matrix(0.04749979,-0.04389958,0.03775545,0.04056077,27.312627,25.311918)"
       x1="374.50772"
       y1="352.56131"
       x2="168.51511"
       y2="535.84491" />
    <linearGradient
       id="linearGradient3945">
      <stop
         id="stop3947"
         offset="0"
         style="stop-color:#fde1a2;stop-opacity:1;" />
      <stop
         style="stop-color: rgb(252, 218, 108); stop-opacity: 0;"
         offset="0.90625"
         id="stop3949" />
      <stop
         id="stop3951"
         offset="1.0000000"
         style="stop-color: rgb(255, 252, 181); stop-opacity: 1;" />
    </linearGradient>
    <linearGradient
       inkscape:collect="always"
       xlink:href="#linearGradient11549"
       id="linearGradient1442"
       gradientUnits="userSpaceOnUse"
       gradientTransform="matrix(0.06315397,-0.01396337,0.0121558,0.05406374,27.707151,21.40197)"
       x1="374.50772"
       y1="352.56131"
       x2="168.51511"
       y2="535.84491" />
    <linearGradient
       id="linearGradient3954">
      <stop
         id="stop3956"
         offset="0"
         style="stop-color:#fde1a2;stop-opacity:1;" />
      <stop
         style="stop-color: rgb(252, 218, 108); stop-opacity: 0;"
         offset="0.90625"
         id="stop3958" />
      <stop
         id="stop3960"
         offset="1.0000000"
         style="stop-color: rgb(255, 252, 181); stop-opacity: 1;" />
    </linearGradient>
    <linearGradient
       inkscape:collect="always"
       xlink:href="#linearGradient11549"
       id="linearGradient1446"
       gradientUnits="userSpaceOnUse"
       gradientTransform="matrix(0.06329044,0.01333141,-0.01122822,0.054264,30.434776,23.266519)"
       x1="374.50772"
       y1="352.56131"
       x2="168.51511"
       y2="535.84491" />
    <linearGradient
       id="linearGradient3963">
      <stop
         id="stop3965"
         offset="0"
         style="stop-color:#fde1a2;stop-opacity:1;" />
      <stop
         style="stop-color: rgb(252, 218, 108); stop-opacity: 0;"
         offset="0.90625"
         id="stop3967" />
      <stop
         id="stop3969"
         offset="1.0000000"
         style="stop-color: rgb(255, 252, 181); stop-opacity: 1;" />
    </linearGradient>
    <radialGradient
       r="10.625"
       fy="4.625"
       fx="62.625"
       cy="4.625"
       cx="62.625"
       gradientTransform="matrix(3.0082203,0,0,1.215487,-156.1762,46.902106)"
       gradientUnits="userSpaceOnUse"
       id="radialGradient3987"
       xlink:href="#linearGradient8838-9"
       inkscape:collect="always" />
  </defs>
  <path
     inkscape:connector-curvature="0"
     style="opacity:0.3;fill:url(#radialGradient3987);fill-opacity:1;fill-rule:evenodd;stroke:none;stroke-width:0.99999988;marker:none;visibility:visible;display:inline;overflow:visible"
     id="path8836"
     d="m 64.175943,52.523741 c 0,7.132519 -14.310028,12.914568 -31.96234,12.914568 -17.652312,0 -31.96234036,-5.782049 -31.96234036,-12.914568 0,-7.13252 14.31002836,-12.914569 31.96234036,-12.914569 17.652312,0 31.96234,5.782049 31.96234,12.914569 z" />
  <path
     style="fill:url(#radialGradient4080);fill-opacity:1;stroke:#204a87;stroke-width:1.00000155;stroke-linecap:round;stroke-linejoin:round;stroke-miterlimit:4;stroke-opacity:1;stroke-dasharray:none;stroke-dashoffset:0"
     d="m 32.869702,1.716264 c -15.669694,0 -28.3697012,12.699952 -28.3697012,28.369606 0,15.669654 12.7000072,28.414215 28.3697012,28.414213 15.669697,0 28.414324,-12.744559 28.414297,-28.414213 0,-15.669654 -12.7446,-28.369606 -28.414297,-28.369606 z"
     id="path2555"
     inkscape:connector-curvature="0" />
  <path
     inkscape:connector-curvature="0"
     style="opacity:0.1;fill:#000000;fill-opacity:1;fill-rule:evenodd;stroke:none;filter:url(#filter4206)"
     d="m 44.21875,7.328125 c 4.573145,2.250552 6.788749,7.955579 7.5,13.375 -0.747725,-0.583873 -1.422354,-0.995434 -1.8125,-1.03125 0.945349,2.853931 1.351501,5.509282 1.53125,7.3125 -2.9e-5,0.0026 1.2e-4,0.02855 0,0.03125 -0.240129,1.031205 -0.558074,2.04471 -0.96875,3 -0.605191,-1.384489 -1.316265,-2.624561 -1.84375,-3.09375 -0.03413,-0.02904 -0.09242,-0.07149 -0.125,-0.09375 -0.01608,-0.01026 -0.04684,-0.02277 -0.0625,-0.03125 -0.346678,4.077818 -1.498386,7.388022 -2,8.8125 -0.0029,0.0082 -4.319353,2.6875 -6.9375,2.6875 -2.819755,10e-7 -6.124722,-2.03002 -7.144929,-3.553893 1.856753,0.719965 2.609351,0.934787 3.977358,0.934787 3.393162,0 5.767648,-3.731613 5.730071,-4.162144 -6.08e-4,-0.0056 -1.279143,-1.99059 -2.09375,-2.375 -0.01059,-0.0056 -0.05205,-0.02611 -0.0625,-0.03125 -1.703629,0.271437 -3.306888,1.26159 -5.75,1.65625 -0.0048,-0.0044 -3.22405,-1.100086 -3.5625,-2.9375 1.150591,-0.248113 2.723805,-0.30563 3.461771,0.08683 -0.598177,-1.397325 -0.970026,-2.557313 -1.430521,-3.49308 1.750108,-0.597096 4.037349,-2.917692 4.28125,-4.625 10e-7,0 -4.261447,-0.13788 -5.21875,-1.09375 -0.0039,-0.0041 -0.0253,-0.02552 -0.03125,-0.03125 -0.0069,-0.0071 -0.02925,-0.02966 -0.03125,-0.03125 0.113378,-0.830264 0.324835,-1.546396 0.59375,-2.0625 -3.1e-4,-0.0015 -9.6e-5,-0.02414 0,-0.03125 0.632179,-0.994356 1.754423,-3.933808 1.75,-3.9375 -0.01038,-0.0056 -4.279729,0.43004 -6.40625,2.6875 -3.575063,-0.144139 -5.310998,2.739778 -8.3,-3.8875 -1.624542,2.11854 -2.456865,4.888987 -1.60625,8.23125 0.0018,0.007 -1.29e-4,0.02995 0,0.03125 -0.0056,0.0057 -0.0256,0.02554 -0.03125,0.03125 2.68e-4,0.0016 8.4e-5,0.02417 0,0.03125 -0.865138,1.238773 -2.183927,4.479108 -2.1875,7.3125 0.336206,-0.262439 0.777963,-0.556233 1.28125,-0.84375 -0.02314,0.472668 -0.03125,0.937682 -0.03125,1.40625 0,11.624869 9.437632,21.062501 21.0625,21.0625 11.62487,10e-7 21.062498,-9.437631 21.0625,-21.0625 0,-9.536027 -5.550805,-17.628571 -14.25,-20.21875 l -0.34375,-0.0625 z"
     id="path1711-6"
     sodipodi:nodetypes="cccsscsscsscssscccccsssssssccssssccssscc"
     transform="matrix(1.26232,0,0,1.26232,-14.63359,-4.3145416)" />
  <path
     style="opacity:0.5;fill:none;stroke:url(#linearGradient3130);stroke-width:1;stroke-miterlimit:4;stroke-opacity:1;stroke-dasharray:none"
     id="path8655"
     d="m 58.861496,29.157269 c 0,14.587756 -11.8262,26.413552 -26.412282,26.413552 -14.587416,0 -26.4129498,-11.825931 -26.4129498,-26.413552 0,-14.587083 11.8255338,-26.4116779 26.4129498,-26.4116779 14.586082,0 26.412282,11.8245949 26.412282,26.4116779 l 0,0 z"
     inkscape:connector-curvature="0" />
  <path
     style="opacity:0.4;fill:#000000;fill-opacity:1;fill-rule:nonzero;stroke:none"
     id="path6534"
     d="m 32.944965,3.6048688 -3.372741,0.386133 -3.710014,1.0135994 c 0.316026,-0.1108121 0.636178,-0.2317695 0.963639,-0.3378665 l -0.43364,-0.772267 -1.44546,0.2413335 -0.722731,0.6757341 -1.108186,0.1448005 -1.01182,0.482667 -0.48182,0.2413325 -0.144549,0.193068 -0.722728,0.1447995 -0.433635,0.9170676 -0.578189,-1.1584022 -0.192724,0.4826681 0.09638,1.3032016 -0.915458,0.772267 -0.530002,1.3997353 1.108189,0 0.433635,-0.9170672 0.144548,-0.3378675 C 20.374913,8.1346201 20.836837,7.750198 21.333113,7.4179374 l 1.156366,0.386134 c 0.752881,0.512404 1.511053,1.0329095 2.264556,1.5445338 l 1.10818,-1.0136003 -1.252734,-0.5309335 -0.578183,-1.158401 -2.120009,-0.2413335 -0.04818,-0.2413336 0.915454,0.193066 0.530007,-0.5309335 1.156367,-0.2413335 c 0.273652,-0.1333244 0.542845,-0.229352 0.819092,-0.3378676 l -0.722729,0.6757341 2.601828,1.7858697 0,1.061867 -1.011823,1.0136007 1.349096,2.7029388 0.915461,-0.530937 1.156367,-1.785869 c 1.625769,-0.5035218 3.091014,-1.0894392 4.625476,-1.7858665 l -0.09638,0.675734 0.770909,0.5309337 1.3491,-0.9170677 -0.674552,-0.7722681 -0.91546,0.5309335 -0.28909,-0.096529 c 0.0664,-0.030395 0.126042,-0.06563 0.192726,-0.096529 l 1.34911,-3.4752085 -2.939101,-1.1583989 z m -13.201874,5.2128042 1.108186,0.7722672 0.91546,0 0,-0.9170677 -1.108184,-0.4826681 -0.915462,0.6274686 0,0 z m 25.584649,-0.6274686 -1.975461,0.4826681 -1.25273,0.8205337 0,0.7239998 -1.975463,1.254933 0.385456,1.882407 1.156369,-0.820536 0.722727,0.820536 0.819098,0.482666 0.53,-1.399736 -0.289092,-0.820536 0.289092,-0.579203 1.156371,-1.0618638 0.53,0 -0.53,1.1584048 0,1.061865 c 0.476619,-0.129962 0.957707,-0.180582 1.445458,-0.241335 l -1.349096,0.965337 -0.09638,0.579198 -1.541825,1.303204 -1.590009,-0.386137 0,-0.917067 -0.722728,0.482667 0.337273,0.820537 -1.156367,0 -0.626366,1.061866 -0.770913,0.868802 -1.397278,0.289598 0.819095,0.820534 0.192727,0.820535 -1.011822,0 -1.349098,0.724002 0,2.123731 0.626366,0 0.578185,0.627469 1.300914,-0.627469 0.481821,-1.303199 0.96364,-0.579201 0.192729,-0.482667 1.541822,-0.386134 0.867276,0.965335 0.915461,0.482667 -0.530005,1.061869 0.819099,-0.241335 0.433634,-1.061869 -1.060001,-1.206667 0.433635,0 1.060005,0.868801 0.19273,1.158402 0.915456,1.061868 0.240911,-1.544534 0.48182,-0.241336 c 0.512867,0.533356 0.917135,1.185613 1.349095,1.78587 l 1.590009,0.09655 0.915455,0.579201 -0.433634,0.627467 -0.915459,0.820535 -1.349099,0 -1.782733,-0.579198 -0.915458,0.09654 -0.674549,0.772268 -1.927282,-1.930671 -1.349094,-0.386131 -1.975463,0.241334 -1.734553,0.482665 c -0.989492,1.123749 -2.002556,2.259877 -2.939104,3.42694 l -1.108186,2.702931 0.530003,0.579203 -0.96364,1.399734 1.060004,2.461602 c 0.882038,0.999523 1.769256,1.9923 2.650011,2.992537 l 1.300914,-1.110136 0.530002,0.675737 1.397281,-0.917067 0.481819,0.530933 1.397278,0 0.819094,0.917066 -0.481821,1.64107 0.963641,1.110135 -0.04819,1.930666 0.722728,1.399735 -0.530001,1.206669 c -0.05167,0.865435 -0.09638,1.692563 -0.09638,2.558136 0.425111,1.172637 0.851314,2.342396 1.252733,3.523468 l 0.289092,1.8824 0,0.965336 0.770909,0 1.108189,-0.724 1.349098,0 2.023644,-2.268535 -0.240911,-0.772271 1.349099,-1.206665 -1.011826,-1.110135 1.20455,-0.965332 1.15637,-0.724003 0.530002,-0.579199 -0.337273,-1.303201 c 0,-1.097159 2e-6,-2.184833 0,-3.282138 l 0.91546,-2.0272 1.156366,-1.254936 1.252734,-3.08907 0,-0.820533 c -0.623401,0.07867 -1.220932,0.149595 -1.830919,0.193069 l 1.252734,-1.254936 1.73455,-1.158401 0.915462,-1.061869 0,-1.158399 c -0.20763,-0.392263 -0.417309,-0.814413 -0.626364,-1.206671 l -0.819095,0.965333 -0.626365,-0.723998 -0.915461,-0.724002 0,-1.49627 1.060006,1.20667 1.204552,-0.144799 c 0.543408,0.494186 1.065198,0.933606 1.541822,1.496266 l 0.770931,-0.868825 c 0,-0.935336 -1.051611,-5.552815 -3.324558,-9.460274 -2.272943,-3.906173 -6.26366,-7.4813428 -6.263657,-7.4813428 l -0.289093,0.5309348 -1.060005,1.1584 -1.349095,-1.3997338 1.349095,0 0.626368,-0.6757336 -2.505466,-0.482667 -1.300916,-0.4826681 z M 16.37035,8.817673 15.888531,10.072606 c 0,0 -0.843549,0.139512 -1.060002,0.193066 -2.764337,2.551809 -8.338781,8.086786 -9.6364035,18.486152 0.05138,0.241111 0.9154584,1.641068 0.9154584,1.641068 l 2.1200093,1.254934 2.1200088,0.5792 0.915459,1.110135 1.397276,1.061868 0.819095,-0.144801 0.578186,0.289603 0,0.193064 -0.770915,2.172003 -0.626366,0.91707 0.192729,0.434398 -0.481819,1.737603 1.782733,3.282135 1.830918,1.592803 0.819093,1.1584 -0.09638,2.413335 0.578185,1.351466 -0.578185,2.606406 c 0,0 -0.07715,-0.02144 0,0.241334 0.07784,0.262891 3.22081,2.031395 3.420921,1.8824 0.199424,-0.151772 0.385456,-0.289601 0.385456,-0.289601 l -0.192727,-0.579201 0.819094,-0.772266 0.289092,-0.820535 1.300915,-0.434402 1.01182,-2.509866 -0.28909,-0.675735 0.674547,-1.061867 1.541825,-0.337867 0.770914,-1.834136 -0.19273,-2.268536 1.204551,-1.689332 0.192725,-1.737601 c -1.652704,-0.821008 -3.27419,-1.664585 -4.914565,-2.509871 l -0.819089,-1.592801 -1.493644,-0.337866 -0.819093,-2.172004 -1.975462,0.241333 -1.734554,-1.254932 -1.830915,1.592799 0,0.241336 c -0.548399,-0.15857 -1.198056,-0.181903 -1.68636,-0.482668 l -0.385455,-1.158401 0,-1.254934 -1.252731,0.144798 c 0.100811,-0.799363 0.235759,-1.61411 0.337271,-2.413335 l -0.722731,0 -0.7227317,0.917068 -0.6745478,0.337867 -1.0118222,-0.5792 -0.096357,-1.254935 0.1927287,-1.351467 1.4936413,-1.158403 1.2045527,0 0.24091,-0.675733 1.493641,0.337864 1.108186,1.399737 0.192728,-2.316803 1.927281,-1.5928 0.674547,-1.689333 1.445462,-0.579202 0.770911,-1.158403 1.830919,-0.337866 0.915456,-1.351467 c -0.906118,0 -1.840254,0 -2.746375,0 l 1.734555,-0.820536 1.204547,0 1.541826,-0.530931 0.289092,1.496265 0.674548,-1.061868 -0.770914,-0.530933 0.192729,-0.627465 -0.626365,-0.579202 -0.674551,-0.193067 0.19273,-0.723999 -0.530002,-1.0136 -1.204551,0.482665 0.192729,-0.917065 -1.39728,-0.820537 -1.108183,1.930668 0.09638,0.675735 -1.108185,0.482667 -0.674548,1.496268 -0.337275,-1.399735 -1.879098,-0.772267 -0.337273,-1.061868 2.553646,-1.448001 1.108184,-1.061868 0.09638,-1.2549345 -0.626366,-0.3378665 -0.819094,-0.096529 -1.5e-5,-1.1e-6 z m 20.670086,2.316805 0,0.772261 0.433637,0.482672 0,1.1584 -0.24091,1.544534 1.252732,-0.241334 0.91546,-0.917066 -0.819095,-0.77227 c -0.265623,-0.708583 -0.53482,-1.347574 -0.867274,-2.027197 l -0.67455,0 z m -1.060006,1.544529 -0.770911,0.241338 0.192728,1.399733 1.011822,-0.530938 -0.433639,-1.110133 0,0 z m 14.117332,12.694148 1.156366,1.351466 1.39728,2.992538 0.867274,0.965331 -0.433636,1.013605 0.770913,0.917069 c -0.353776,0.02346 -0.696386,0.04828 -1.060005,0.04828 -0.660562,-1.390496 -1.183346,-2.792788 -1.686371,-4.247469 l -0.867277,-0.965335 -0.481819,-1.737601 0.337275,-0.337867 0,-6e-6 z"
     inkscape:connector-curvature="0" />
  <path
     inkscape:connector-curvature="0"
     style="fill:url(#linearGradient4235);fill-opacity:1;fill-rule:evenodd;stroke:url(#linearGradient4243);stroke-width:1;stroke-linecap:round;stroke-linejoin:miter;stroke-miterlimit:4;stroke-opacity:1;stroke-dasharray:none;stroke-dashoffset:0"
     d="m 41.496339,3.0460381 c 6.355149,3.1275173 9.4341,11.0556039 10.422502,18.5867939 -1.039089,-0.811388 -1.976598,-1.383322 -2.518771,-1.433094 1.31372,3.966014 1.878136,7.656067 2.127928,10.16194 -4.1e-5,0.0036 1.66e-4,0.03968 0,0.04342 -0.3337,1.433031 -0.775538,2.841466 -1.346241,4.169001 -0.841013,-1.923979 -1.829169,-3.647266 -2.562198,-4.299283 -0.04743,-0.04035 -0.128433,-0.09934 -0.173708,-0.130281 -0.02234,-0.01426 -0.06509,-0.03164 -0.08685,-0.04342 -0.481767,5.666809 -2.082258,10.26689 -2.779334,12.24644 -0.0041,0.01139 -6.002463,3.73473 -9.640815,3.73473 -3.91852,1e-6 -8.511323,-2.821052 -9.929071,-4.938728 2.580268,1.000512 3.626129,1.299043 5.527203,1.299043 4.715365,0 8.01511,-5.185699 7.96289,-5.783994 -8.45e-4,-0.0078 -1.777583,-2.766258 -2.909615,-3.300459 -0.01472,-0.0078 -0.07233,-0.03628 -0.08685,-0.04342 -2.367476,0.377207 -4.595473,1.75319 -7.990585,2.301636 -0.0066,-0.0061 -4.480356,-1.528753 -4.950688,-4.082147 1.598937,-0.344795 3.785182,-0.424724 4.810708,0.120665 -0.831267,-1.941816 -1.348013,-3.553814 -1.987947,-4.854218 2.432067,-0.829764 5.61057,-4.05462 5.949511,-6.427209 1e-6,0 -5.921991,-0.191608 -7.252324,-1.519949 -0.0055,-0.0057 -0.03516,-0.03546 -0.04343,-0.04342 -0.0096,-0.0099 -0.04065,-0.04122 -0.04342,-0.04342 0.157557,-1.15379 0.451413,-2.148975 0.825115,-2.866188 -4.31e-4,-0.002 -1.34e-4,-0.03354 0,-0.04342 0.878518,-1.381824 2.438063,-5.466684 2.431917,-5.471814 -0.01442,-0.0078 -5.947398,0.597613 -8.902554,3.73473 C 13.381565,13.919647 10.969193,17.927332 6.8154768,8.7176228 4.557904,11.661687 3.4012509,15.511687 4.5833237,20.156318 c 0.00251,0.0097 -1.792e-4,0.04163 0,0.04343 -0.00778,0.0079 -0.035575,0.03549 -0.043427,0.04343 3.725e-4,0.0022 1.154e-4,0.03359 0,0.04342 C 3.3376431,22.008079 1.5049639,26.511066 1.5,30.448537 c 0.467213,-0.364703 1.0811095,-0.772979 1.7805111,-1.172531 -0.032157,0.656851 -0.043427,1.303065 -0.043427,1.954219 0,16.154695 13.1151649,29.269861 29.2698599,29.269859 16.154697,2e-6 29.269857,-13.115164 29.26986,-29.269859 0,-13.251902 -7.713771,-24.497842 -19.802754,-28.0973277 l -0.477698,-0.086854 z"
     id="path1711"
     sodipodi:nodetypes="cccsscsscsscssscccccsssssssccssssccssscc" />
  <path
     style="opacity:0.8;fill:none;stroke:url(#radialGradient3131);stroke-width:1.38966691;stroke-linecap:round;stroke-linejoin:miter;stroke-miterlimit:4;stroke-opacity:0.60893902;stroke-dasharray:none;stroke-dashoffset:0"
     d="m 49.663949,8.5390524 c 0.50635,1.2836508 4.451327,7.8375576 4.47817,15.2908316 0.0096,2.645212 -0.287545,0.954797 -1.724587,-0.04668 0.755675,3.959141 1.356021,6.105645 1.069964,7.463475 -1.390512,4.127099 -1.412931,4.758481 -2.874927,7.190228 -1.218079,-2.638345 -1.262375,-2.482738 -1.810231,-3.749083 -0.368937,2.643004 -2.09921,8.12416 -2.391565,8.845797 -4.743954,2.605157 -7.071027,3.768842 -10.827745,4.203067 -6.459957,0.05308 -11.399919,-4.490154 -14.456269,-9.657959 3.212168,1.053168 7.811957,2.932048 9.288963,2.905475 2.558279,0.421267 6.185677,-2.852869 6.768553,-3.911517 -0.982227,-1.510039 -0.949975,-1.204108 -1.705434,-1.888774 -1.759288,0.443323 -3.759448,1.461137 -6.93943,2.11209 -1.839665,0.293113 -8.268856,-3.38831 -7.107233,-6.965362 1.363271,-0.224564 1.998875,-0.651407 3.94263,-0.470768 -0.458682,-1.493262 -0.861108,-1.921213 -1.737687,-3.747224 1.900923,-0.595265 4.883822,-2.200001 5.875418,-4.204432 0,-2e-6 -4.66755,-0.346361 -6.938769,-2.4054 -0.0046,-0.0041 0.227571,-2.177813 2.515744,-6.913996 -1.030214,0.250823 -3.671868,1.242901 -5.813736,2.970182 -2.489285,0.33761 -3.78395,0.854558 -5.316418,0.98892 -3.860534,-0.155649 -5.6072666,-2.405057 -6.7813772,-4.358364 -0.9406505,1.895781 -1.2643342,3.527019 -0.6247363,8.76005 -0.00899,0.01223 -2.5895314,3.358251 -2.5933891,6.417893 2.3377465,-1.599859 1.2181667,2.405242 1.2181667,2.911225 C 4.6909334,48.79543 20.441551,60.060717 34.475017,59.020328 52.252282,57.624768 60.878131,43.173614 60.764015,30.621009 60.698192,23.38046 57.009815,13.304647 49.663949,8.5390524 z"
     id="path5035"
     sodipodi:nodetypes="csccccccccccccccssccccccccsc"
     inkscape:connector-curvature="0" />
  <path
     inkscape:connector-curvature="0"
     style="opacity:0.75;fill:url(#linearGradient3496);fill-opacity:1;fill-rule:evenodd;stroke:none"
     d="M 46.598472,5.9285498 C 51.439651,12.016741 53.784138,20.34754 53.461661,26.87359 51.53792,37.064932 49.935,41.682454 45.781468,46.440622 c -0.0082,0.01595 -0.03511,0.02751 -0.04343,0.04343 -0.01531,0.0139 -0.02807,0.02961 -0.04343,0.04342 -0.0056,0.0106 0.008,0.03452 0,0.04342 C 42.497865,50.10903 38.564049,51.39496 27.796146,52.361779 18.420807,53.20834 9.4761077,44.024827 7.2915486,40.460234 12.042138,54.323839 25.904817,58.853377 34.338285,58.333073 49.990589,57.415203 57.516094,45.190961 59.630806,35.151265 61.529728,25.033752 58.824187,11.891094 46.598472,5.9285498 z"
     id="path2729"
     sodipodi:nodetypes="cccsssccccc" />
  <path
     inkscape:connector-curvature="0"
     style="fill:#ffffff;fill-opacity:0.675978;fill-rule:evenodd;stroke:none"
     d="m 30.535555,21.267445 c -1.330293,3.320933 -4.063079,4.522806 -6.00197,5.136425 0.422191,-1.632619 1.433525,-2.361185 1.761474,-2.708016 1.176863,-0.554788 1.347878,-0.223618 4.240496,-2.428409 z"
     id="path2726"
     sodipodi:nodetypes="cccc" />
  <path
     inkscape:connector-curvature="0"
     style="fill:#2e3436;fill-opacity:1;fill-rule:evenodd;stroke:none"
     d="m 30.842081,21.03028 c -0.586472,1.744204 -1.980851,3.024181 -2.649969,3.479661 0.16981,-1.599002 -0.838489,-2.958608 -1.614105,-3.811663 1.768061,0.354238 2.488585,0.300657 4.264074,0.332002 z"
     id="rect8531"
     sodipodi:nodetypes="cccc" />
  <path
     style="opacity:0.65;fill:url(#linearGradient1572);fill-opacity:1;fill-rule:evenodd;stroke:none"
     d="M 20.246402,45.404087 C 15.471145,42.908008 11.3307,39.007212 13.479691,32.160082 l 2.843006,0.09517 c -0.154721,5.690774 1.178848,8.674886 3.923705,13.148839 z"
     id="path1570"
     sodipodi:nodetypes="cccc"
     inkscape:connector-curvature="0" />
  <path
     style="opacity:0.65;fill:url(#linearGradient1580);fill-opacity:1;fill-rule:evenodd;stroke:none"
     d="M 25.473768,53.619238 C 20.105867,53.151131 14.783863,51.142208 14.134931,43.995164 l 2.661041,-1.005285 c 2.045274,5.312786 4.423716,7.554739 8.677796,10.629359 z"
     id="path1578"
     sodipodi:nodetypes="cccc"
     inkscape:connector-curvature="0" />
  <path
     style="opacity:0.65;fill:url(#linearGradient1584);fill-opacity:1;fill-rule:evenodd;stroke:none"
     d="M 12.053217,40.252252 C 8.259207,36.426162 5.4959286,31.45386 9.6192691,25.580239 l 2.6804099,0.952439 c -1.872386,5.376152 -1.506075,8.624098 -0.246462,13.719574 z"
     id="path1582"
     sodipodi:nodetypes="cccc"
     inkscape:connector-curvature="0" />
  <path
     style="opacity:0.65;fill:url(#linearGradient1438);fill-opacity:1;fill-rule:evenodd;stroke:none"
     d="m 57.033122,22.962269 c 3.258585,4.291283 5.34481,9.583462 0.485695,14.864594 l -2.532085,-1.29626 c 2.562321,-5.083635 2.625801,-8.351555 2.04639,-13.568334 z"
     id="path1436"
     sodipodi:nodetypes="cccc"
     inkscape:connector-curvature="0" />
  <path
     style="opacity:0.65000006;fill:url(#linearGradient1442);fill-opacity:1;fill-rule:evenodd;stroke:none"
     d="m 54.558392,34.357246 c 0.650546,5.348858 -0.215987,10.971012 -7.074947,13.081941 l -1.533164,-2.396069 c 4.775875,-3.098364 6.478308,-5.888535 8.608111,-10.685872 z"
     id="path1440"
     sodipodi:nodetypes="cccc"
     inkscape:connector-curvature="0" />
  <path
     style="opacity:0.65;fill:url(#linearGradient1446);fill-opacity:1;fill-rule:evenodd;stroke:none"
     d="m 49.550896,46.144437 c -1.613817,5.140922 -4.722363,9.905001 -11.841335,8.9986 l -0.408252,-2.815149 c 5.6287,-0.852393 8.330503,-2.69185 12.249587,-6.183451 z"
     id="path1444"
     sodipodi:nodetypes="cccc"
     inkscape:connector-curvature="0" />
</svg>
