<?xml version="1.0" encoding="UTF-8" standalone="no"?>
<!-- Created with Inkscape (http://www.inkscape.org/) -->

<svg
   xmlns:dc="http://purl.org/dc/elements/1.1/"
   xmlns:cc="http://creativecommons.org/ns#"
   xmlns:rdf="http://www.w3.org/1999/02/22-rdf-syntax-ns#"
   xmlns:svg="http://www.w3.org/2000/svg"
   xmlns="http://www.w3.org/2000/svg"
   xmlns:xlink="http://www.w3.org/1999/xlink"
   version="1.0"
   width="28.617188"
   height="18.734375"
   viewBox="0 0 20.8125 13.625"
   id="Foreground"
   xml:space="preserve"><metadata
   id="metadata2399"><rdf:RDF><cc:Work
       rdf:about=""><dc:format>image/svg+xml</dc:format><dc:type
         rdf:resource="http://purl.org/dc/dcmitype/StillImage" /><dc:title></dc:title></cc:Work></rdf:RDF></metadata><defs
   id="defs2397"><linearGradient
     id="linearGradient3975"><stop
       id="stop3977"
       style="stop-color:#bad3b7;stop-opacity:1"
       offset="0" /><stop
       id="stop3979"
       style="stop-color:#e5ecdd;stop-opacity:1"
       offset="1" /></linearGradient><linearGradient
     x1="11.625"
     y1="7.53125"
     x2="11.625"
     y2="0.1875"
     id="linearGradient4738"
     xlink:href="#linearGradient3975"
     gradientUnits="userSpaceOnUse"
     gradientTransform="matrix(0.91491398,0,0,0.92891195,-0.23003676,-0.1788938)" /></defs>

<path
   d="m 5.3092664,0.4339244 c -2.6961386,0 -4.87853636,2.035188 -4.87853636,4.5632016 l 0,3.639696 c 0,2.528015 2.18239776,4.563203 4.87853636,4.563203 l 10.1931446,0 c 2.696137,0 4.878538,-2.035188 4.878538,-4.563203 l 0,-2.1729528 0,-1.4667432 0,-4.5632016 -4.878538,0 -4.605992,0 -5.5871526,0 z"
   id="rect3805"
   style="fill:url(#linearGradient4738);fill-opacity:1;stroke:#8cac86;stroke-width:0.87065965;stroke-opacity:0.72826089" /><path
   d="M 7.8286432,2.7688661 C 7.5136428,2.7792641 7.2077071,2.8901689 6.9752007,3.1344225 6.5101881,3.62293 6.5547453,4.4011219 7.0552114,4.8577601 L 8.922117,6.5810976 7.0552114,8.278325 c -0.500664,0.456428 -0.5448107,1.208525 -0.080009,1.697226 0.4648006,0.488701 1.2595612,0.534764 1.7602251,0.07832 l 2.0002555,-1.827778 2.000255,1.827784 c 0.500466,0.456636 1.268541,0.410172 1.733555,-0.07832 0.465013,-0.488506 0.447125,-1.240589 -0.05333,-1.697226 L 12.549251,6.5810986 14.416156,4.857761 c 0.500663,-0.4564299 0.51814,-1.2085257 0.05334,-1.6972262 -0.4648,-0.4887009 -1.232891,-0.5347638 -1.733555,-0.078334 L 10.735682,4.9099826 8.7354259,3.0822002 C 8.4851931,2.8538812 8.1436437,2.7584683 7.8286432,2.7688661 z"
   id="path5534"
   style="fill:#ffffff;fill-opacity:0.55135139;stroke:none" /><path
   d="M 8.4345312,3.771814 C 8.1786114,3.7796403 7.930056,3.8631833 7.7411577,4.0471643 7.3633615,4.4151256 7.3995617,5.0012877 7.8061611,5.3452438 L 9.322916,6.6433233 7.8061615,7.921735 c -0.406761,0.3438 -0.4426276,0.910305 -0.065003,1.278412 0.3776238,0.368106 1.0233217,0.402802 1.4300826,0.05901 l 1.6250929,-1.376752 1.625094,1.376751 c 0.4066,0.343957 1.030618,0.308958 1.408415,-0.05901 0.377797,-0.36796 0.363263,-0.934455 -0.04333,-1.278411 L 12.269754,6.6433243 13.786509,5.3452447 C 14.193267,5.0014445 14.207467,4.4349392 13.829842,4.0668323 13.452218,3.6987253 12.828188,3.6640291 12.421427,4.0078282 L 10.796335,5.3845796 9.1712405,4.0078285 C 8.9679406,3.8358506 8.6904511,3.7639822 8.4345312,3.771814 z"
   id="rect4761"
   style="fill:#43573b;fill-opacity:1;stroke:none" /></svg>