<?xml version="1.0" encoding="UTF-8" standalone="no"?>
<!-- Created with Inkscape (http://www.inkscape.org/) -->

<svg
   xmlns:dc="http://purl.org/dc/elements/1.1/"
   xmlns:cc="http://creativecommons.org/ns#"
   xmlns:rdf="http://www.w3.org/1999/02/22-rdf-syntax-ns#"
   xmlns:svg="http://www.w3.org/2000/svg"
   xmlns="http://www.w3.org/2000/svg"
   xmlns:xlink="http://www.w3.org/1999/xlink"
   xmlns:sodipodi="http://sodipodi.sourceforge.net/DTD/sodipodi-0.dtd"
   xmlns:inkscape="http://www.inkscape.org/namespaces/inkscape"
   version="1.0"
   width="32"
   height="32.000042"
   id="svg3506"
   inkscape:version="0.48.0 r9654"
   sodipodi:docname="firefox.svg">
  <metadata
     id="metadata53">
    <rdf:RDF>
      <cc:Work
         rdf:about="">
        <dc:format>image/svg+xml</dc:format>
        <dc:type
           rdf:resource="http://purl.org/dc/dcmitype/StillImage" />
        <dc:title />
      </cc:Work>
    </rdf:RDF>
  </metadata>
  <sodipodi:namedview
     pagecolor="#ffffff"
     bordercolor="#666666"
     borderopacity="1"
     objecttolerance="10"
     gridtolerance="10"
     guidetolerance="10"
     inkscape:pageopacity="0"
     inkscape:pageshadow="2"
     inkscape:window-width="1920"
     inkscape:window-height="1034"
     id="namedview51"
     showgrid="false"
     inkscape:zoom="1"
     inkscape:cx="9.2090863"
     inkscape:cy="23.987682"
     inkscape:window-x="0"
     inkscape:window-y="24"
     inkscape:window-maximized="1"
     inkscape:current-layer="svg3506" />
  <defs
     id="defs3508">
    <linearGradient
       id="linearGradient5060">
      <stop
         id="stop5062"
         style="stop-color:#000000;stop-opacity:1"
         offset="0" />
      <stop
         id="stop5064"
         style="stop-color:#000000;stop-opacity:0"
         offset="1" />
    </linearGradient>
    <linearGradient
       id="linearGradient5048">
      <stop
         id="stop5050"
         style="stop-color:#000000;stop-opacity:0"
         offset="0" />
      <stop
         id="stop5056"
         style="stop-color:#000000;stop-opacity:1"
         offset="0.5" />
      <stop
         id="stop5052"
         style="stop-color:#000000;stop-opacity:0"
         offset="1" />
    </linearGradient>
    <linearGradient
       id="linearGradient3319">
      <stop
         id="stop3321"
         style="stop-color:#af9b7f;stop-opacity:1"
         offset="0" />
      <stop
         id="stop3323"
         style="stop-color:#736148;stop-opacity:1"
         offset="1" />
    </linearGradient>
    <linearGradient
       id="linearGradient8967">
      <stop
         id="stop8969"
         style="stop-color:#ddcfbd;stop-opacity:1"
         offset="0" />
      <stop
         id="stop8971"
         style="stop-color:#856f50;stop-opacity:1"
         offset="1" />
    </linearGradient>
    <linearGradient
       id="linearGradient8978">
      <stop
         id="stop8980"
         style="stop-color:#4d5459;stop-opacity:0.99607843"
         offset="0" />
      <stop
         id="stop8982"
         style="stop-color:#141b1f;stop-opacity:1"
         offset="1" />
    </linearGradient>
    <linearGradient
       id="linearGradient3913">
      <stop
         id="stop3915"
         style="stop-color:#4e555a;stop-opacity:1"
         offset="0" />
      <stop
         id="stop3917"
         style="stop-color:#151c20;stop-opacity:1"
         offset="0.15977758" />
      <stop
         id="stop3919"
         style="stop-color:#9b876c;stop-opacity:1"
         offset="0.1672256" />
      <stop
         id="stop3921"
         style="stop-color:#9b876c;stop-opacity:1"
         offset="0.75216067" />
      <stop
         id="stop3923"
         style="stop-color:#9b876c;stop-opacity:1"
         offset="0.93860334" />
      <stop
         id="stop3925"
         style="stop-color:#c2c2c2;stop-opacity:1"
         offset="0.94891226" />
      <stop
         id="stop3927"
         style="stop-color:#c2c2c2;stop-opacity:1"
         offset="1" />
    </linearGradient>
    <linearGradient
       id="linearGradient2346">
      <stop
         id="stop2348"
         style="stop-color:#eeeeee;stop-opacity:1"
         offset="0" />
      <stop
         id="stop2350"
         style="stop-color:#d9d9da;stop-opacity:1"
         offset="1" />
    </linearGradient>
    <linearGradient
       x1="24.62738"
       y1="3.1234391"
       x2="24.640038"
       y2="4.882647"
       id="linearGradient3203"
       xlink:href="#linearGradient2346"
       gradientUnits="userSpaceOnUse"
       gradientTransform="matrix(0.6747109,0,0,0.9989811,0.8698393,-2.4456849)" />
    <linearGradient
       x1="5.7542129"
       y1="5.2438145"
       x2="55.495323"
       y2="0.065301567"
       id="linearGradient3205"
       xlink:href="#linearGradient3913"
       gradientUnits="userSpaceOnUse"
       gradientTransform="matrix(0.4813336,0,0,0.4852836,1.4953782,0.1447783)" />
    <linearGradient
       x1="5.4800777"
       y1="25.019028"
       x2="8.5000601"
       y2="25.019028"
       id="linearGradient3211"
       xlink:href="#linearGradient8978"
       gradientUnits="userSpaceOnUse"
       gradientTransform="matrix(0.5714285,0,0,0.6904762,1.1428573,-0.7618626)" />
    <linearGradient
       x1="16.1015"
       y1="9.8888979"
       x2="38.491451"
       y2="45.999996"
       id="linearGradient3214"
       xlink:href="#linearGradient8967"
       gradientUnits="userSpaceOnUse"
       gradientTransform="matrix(0.6587085,0,0,0.6995241,0.8127822,-1.3378195)" />
    <linearGradient
       x1="22.333973"
       y1="11.029935"
       x2="53.453438"
       y2="61.220222"
       id="linearGradient3216"
       xlink:href="#linearGradient3319"
       gradientUnits="userSpaceOnUse"
       gradientTransform="matrix(0.4739302,0,0,0.5032963,0.8342355,2.8378404e-2)" />
    <linearGradient
       x1="302.85715"
       y1="366.64789"
       x2="302.85715"
       y2="609.50507"
       id="linearGradient3222"
       xlink:href="#linearGradient5048"
       gradientUnits="userSpaceOnUse"
       gradientTransform="matrix(7.04142e-2,0,0,1.537476e-2,-1.4497047,38.629007)" />
    <radialGradient
       cx="605.71429"
       cy="486.64789"
       r="117.14286"
       fx="605.71429"
       fy="486.64789"
       id="radialGradient3224"
       xlink:href="#linearGradient5060"
       gradientUnits="userSpaceOnUse"
       gradientTransform="matrix(-2.409717e-2,0,0,1.537476e-2,21.522412,38.629039)" />
    <radialGradient
       cx="605.71429"
       cy="486.64789"
       r="117.14286"
       fx="605.71429"
       fy="486.64789"
       id="radialGradient3226"
       xlink:href="#linearGradient5060"
       gradientUnits="userSpaceOnUse"
       gradientTransform="matrix(2.409717e-2,0,0,1.537476e-2,26.477584,38.629039)" />
    <linearGradient
       id="linearGradient8838-9">
      <stop
         id="stop8840-2"
         style="stop-color:#000000;stop-opacity:1"
         offset="0" />
      <stop
         id="stop8842-6"
         style="stop-color:#000000;stop-opacity:0"
         offset="1" />
    </linearGradient>
    <linearGradient
       id="linearGradient8647">
      <stop
         style="stop-color:#8fb1dc;stop-opacity:1;"
         offset="0"
         id="stop8649" />
      <stop
         style="stop-color:#3465a4;stop-opacity:1;"
         offset="1"
         id="stop8651" />
    </linearGradient>
    <filter
       color-interpolation-filters="sRGB"
       inkscape:collect="always"
       id="filter4206">
      <feGaussianBlur
         inkscape:collect="always"
         stdDeviation="1.0589844"
         id="feGaussianBlur4208" />
    </filter>
    <linearGradient
       id="linearGradient4873-1">
      <stop
         id="stop4875-43"
         style="stop-color:#ffffff;stop-opacity:1"
         offset="0" />
      <stop
         id="stop4877-6"
         style="stop-color:#ffffff;stop-opacity:0"
         offset="1" />
    </linearGradient>
    <linearGradient
       id="linearGradient4229">
      <stop
         style="stop-color:#f57900;stop-opacity:1;"
         offset="0"
         id="stop4231" />
      <stop
         style="stop-color:#f5ad00;stop-opacity:1;"
         offset="1"
         id="stop4233" />
    </linearGradient>
    <linearGradient
       id="linearGradient4237">
      <stop
         style="stop-color:#c85a00;stop-opacity:1;"
         offset="0"
         id="stop4239" />
      <stop
         style="stop-color:#c86700;stop-opacity:1;"
         offset="1"
         id="stop4241" />
    </linearGradient>
    <linearGradient
       inkscape:collect="always"
       id="linearGradient6119-4">
      <stop
         style="stop-color: rgb(255, 241, 227); stop-opacity: 1;"
         offset="0"
         id="stop6121-1" />
      <stop
         style="stop-color: rgb(255, 241, 227); stop-opacity: 0;"
         offset="1"
         id="stop6123-4" />
    </linearGradient>
    <linearGradient
       inkscape:collect="always"
       id="linearGradient3490">
      <stop
         style="stop-color: rgb(239, 41, 41); stop-opacity: 1;"
         offset="0"
         id="stop3492" />
      <stop
         style="stop-color: rgb(239, 41, 41); stop-opacity: 0;"
         offset="1"
         id="stop3494" />
    </linearGradient>
    <linearGradient
       id="linearGradient11549">
      <stop
         id="stop11565"
         offset="0"
         style="stop-color:#fde1a2;stop-opacity:1;" />
      <stop
         style="stop-color: rgb(252, 218, 108); stop-opacity: 0;"
         offset="0.90625"
         id="stop3430" />
      <stop
         id="stop11553"
         offset="1.0000000"
         style="stop-color: rgb(255, 252, 181); stop-opacity: 1;" />
    </linearGradient>
    <linearGradient
       id="linearGradient3159">
      <stop
         id="stop3161"
         offset="0"
         style="stop-color:#fde1a2;stop-opacity:1;" />
      <stop
         style="stop-color: rgb(252, 218, 108); stop-opacity: 0;"
         offset="0.90625"
         id="stop3163" />
      <stop
         id="stop3165"
         offset="1.0000000"
         style="stop-color: rgb(255, 252, 181); stop-opacity: 1;" />
    </linearGradient>
    <linearGradient
       id="linearGradient3168">
      <stop
         id="stop3170"
         offset="0"
         style="stop-color:#fde1a2;stop-opacity:1;" />
      <stop
         style="stop-color: rgb(252, 218, 108); stop-opacity: 0;"
         offset="0.90625"
         id="stop3172" />
      <stop
         id="stop3174"
         offset="1.0000000"
         style="stop-color: rgb(255, 252, 181); stop-opacity: 1;" />
    </linearGradient>
    <linearGradient
       id="linearGradient3177">
      <stop
         id="stop3179"
         offset="0"
         style="stop-color:#fde1a2;stop-opacity:1;" />
      <stop
         style="stop-color: rgb(252, 218, 108); stop-opacity: 0;"
         offset="0.90625"
         id="stop3181" />
      <stop
         id="stop3183"
         offset="1.0000000"
         style="stop-color: rgb(255, 252, 181); stop-opacity: 1;" />
    </linearGradient>
    <linearGradient
       id="linearGradient3186">
      <stop
         id="stop3188"
         offset="0"
         style="stop-color:#fde1a2;stop-opacity:1;" />
      <stop
         style="stop-color: rgb(252, 218, 108); stop-opacity: 0;"
         offset="0.90625"
         id="stop3190" />
      <stop
         id="stop3192"
         offset="1.0000000"
         style="stop-color: rgb(255, 252, 181); stop-opacity: 1;" />
    </linearGradient>
    <linearGradient
       id="linearGradient3195">
      <stop
         id="stop3197"
         offset="0"
         style="stop-color:#fde1a2;stop-opacity:1;" />
      <stop
         style="stop-color: rgb(252, 218, 108); stop-opacity: 0;"
         offset="0.90625"
         id="stop3199" />
      <stop
         id="stop3201"
         offset="1.0000000"
         style="stop-color: rgb(255, 252, 181); stop-opacity: 1;" />
    </linearGradient>
    <radialGradient
       r="10.625"
       fy="4.625"
       fx="62.625"
       cy="4.625"
       cx="62.625"
       gradientTransform="matrix(1.4932189,0,0,0.60334289,-77.431667,22.84493)"
       gradientUnits="userSpaceOnUse"
       id="radialGradient3219"
       xlink:href="#linearGradient8838-9"
       inkscape:collect="always" />
    <radialGradient
       inkscape:collect="always"
       xlink:href="#linearGradient8647"
       id="radialGradient3457"
       gradientUnits="userSpaceOnUse"
       gradientTransform="matrix(1.7474084,0,0,1.4387438,-5.2828731,-0.94550315)"
       cx="12.465816"
       cy="5.3052077"
       fx="12.465816"
       fy="5.3052077"
       r="10.499999" />
    <linearGradient
       inkscape:collect="always"
       xlink:href="#linearGradient4873-1"
       id="linearGradient3459"
       gradientUnits="userSpaceOnUse"
       gradientTransform="matrix(1.4991345,0,0,1.4991004,-76.810173,20.466265)"
       x1="62.200409"
       y1="-12.489107"
       x2="62.200409"
       y2="-1.4615115" />
    <linearGradient
       inkscape:collect="always"
       xlink:href="#linearGradient4229"
       id="linearGradient3461"
       gradientUnits="userSpaceOnUse"
       gradientTransform="matrix(0.68979834,0,0,0.68980229,-0.59516026,-0.31298391)"
       x1="1.6875"
       y1="23.852516"
       x2="46.3125"
       y2="23.852516" />
    <linearGradient
       inkscape:collect="always"
       xlink:href="#linearGradient4237"
       id="linearGradient3463"
       gradientUnits="userSpaceOnUse"
       gradientTransform="matrix(0.68979834,0,0,0.68980229,-0.59516026,-0.31298391)"
       x1="1.6875"
       y1="23.852516"
       x2="46.3125"
       y2="23.852516" />
    <radialGradient
       inkscape:collect="always"
       xlink:href="#linearGradient6119-4"
       id="radialGradient3465"
       gradientUnits="userSpaceOnUse"
       gradientTransform="matrix(0.93444748,1.4095281,-1.3083065,0.86735731,76.343521,14.577216)"
       cx="-20.094555"
       cy="32.475872"
       fx="-20.094555"
       fy="32.475872"
       r="20.976337" />
    <linearGradient
       inkscape:collect="always"
       xlink:href="#linearGradient3490"
       id="linearGradient3467"
       gradientUnits="userSpaceOnUse"
       gradientTransform="matrix(0.68980222,0,0,0.68980222,0.24651103,-0.05906987)"
       x1="-18.198442"
       y1="23.479414"
       x2="44.828243"
       y2="12.947504" />
    <linearGradient
       inkscape:collect="always"
       xlink:href="#linearGradient11549"
       id="linearGradient3469"
       gradientUnits="userSpaceOnUse"
       gradientTransform="matrix(-0.01205988,0.02975427,-0.02552841,-0.01024129,22.993872,15.393891)"
       x1="374.50772"
       y1="352.56131"
       x2="168.51511"
       y2="535.84491" />
    <linearGradient
       inkscape:collect="always"
       xlink:href="#linearGradient11549"
       id="linearGradient3471"
       gradientUnits="userSpaceOnUse"
       gradientTransform="matrix(3.0773595e-4,0.03210395,-0.02750373,3.6170262e-4,21.78027,15.093649)"
       x1="374.50772"
       y1="352.56131"
       x2="168.51511"
       y2="535.84491" />
    <linearGradient
       inkscape:collect="always"
       xlink:href="#linearGradient11549"
       id="linearGradient3473"
       gradientUnits="userSpaceOnUse"
       gradientTransform="matrix(-0.02051141,0.02469899,-0.02122321,-0.01749745,20.545604,17.077606)"
       x1="374.50772"
       y1="352.56131"
       x2="168.51511"
       y2="535.84491" />
    <linearGradient
       inkscape:collect="always"
       xlink:href="#linearGradient11549"
       id="linearGradient3475"
       gradientUnits="userSpaceOnUse"
       gradientTransform="matrix(0.02357792,-0.02179085,0.01874103,0.02013353,13.648424,12.755454)"
       x1="374.50772"
       y1="352.56131"
       x2="168.51511"
       y2="535.84491" />
    <linearGradient
       inkscape:collect="always"
       xlink:href="#linearGradient11549"
       id="linearGradient3477"
       gradientUnits="userSpaceOnUse"
       gradientTransform="matrix(0.03134834,-0.00693113,0.00603389,0.02683613,13.844257,10.814637)"
       x1="374.50772"
       y1="352.56131"
       x2="168.51511"
       y2="535.84491" />
    <linearGradient
       inkscape:collect="always"
       xlink:href="#linearGradient11549"
       id="linearGradient3479"
       gradientUnits="userSpaceOnUse"
       gradientTransform="matrix(0.03141608,0.00661744,-0.00557346,0.02693554,15.198195,11.74016)"
       x1="374.50772"
       y1="352.56131"
       x2="168.51511"
       y2="535.84491" />
  </defs>
  <path
     inkscape:connector-curvature="0"
     style="opacity:0.3;fill:url(#radialGradient3219);fill-opacity:1;fill-rule:evenodd;stroke:none;stroke-width:0.99999988;marker:none;visibility:visible;display:inline;overflow:visible"
     id="path8836"
     d="m 31.946619,25.635394 c 0,3.540437 -7.103205,6.410528 -15.865451,6.410528 -8.7622464,0 -15.86545112,-2.870091 -15.86545112,-6.410528 0,-3.540436 7.10320472,-6.410527 15.86545112,-6.410527 8.762246,0 15.865451,2.870091 15.865451,6.410527 z" />
  <path
     style="fill:url(#radialGradient3457);fill-opacity:1;stroke:#204a87;stroke-width:1.22505963;stroke-linecap:round;stroke-linejoin:round;stroke-miterlimit:4;stroke-opacity:1;stroke-dasharray:none;stroke-dashoffset:0"
     d="m 16.488702,1.2125719 c -7.9405217,0 -14.3761722,6.4356436 -14.3761722,14.3761671 0,7.940527 6.4356505,14.398774 14.3761722,14.398773 7.940522,0 14.398783,-6.458246 14.398768,-14.398773 0,-7.9405235 -6.458246,-14.3761671 -14.398768,-14.3761671 z"
     id="path2555"
     inkscape:connector-curvature="0" />
  <path
     inkscape:connector-curvature="0"
     style="opacity:0.1;fill:#000000;fill-opacity:1;fill-rule:evenodd;stroke:none;filter:url(#filter4206)"
     d="m 44.21875,7.328125 c 4.573145,2.250552 6.788749,7.955579 7.5,13.375 -0.747725,-0.583873 -1.422354,-0.995434 -1.8125,-1.03125 0.945349,2.853931 1.351501,5.509282 1.53125,7.3125 -2.9e-5,0.0026 1.2e-4,0.02855 0,0.03125 -0.240129,1.031205 -0.558074,2.04471 -0.96875,3 -0.605191,-1.384489 -1.316265,-2.624561 -1.84375,-3.09375 -0.03413,-0.02904 -0.09242,-0.07149 -0.125,-0.09375 -0.01608,-0.01026 -0.04684,-0.02277 -0.0625,-0.03125 -0.346678,4.077818 -1.498386,7.388022 -2,8.8125 -0.0029,0.0082 -4.319353,2.6875 -6.9375,2.6875 -2.819755,10e-7 -6.124722,-2.03002 -7.144929,-3.553893 1.856753,0.719965 2.609351,0.934787 3.977358,0.934787 3.393162,0 5.767648,-3.731613 5.730071,-4.162144 -6.08e-4,-0.0056 -1.279143,-1.99059 -2.09375,-2.375 -0.01059,-0.0056 -0.05205,-0.02611 -0.0625,-0.03125 -1.703629,0.271437 -3.306888,1.26159 -5.75,1.65625 -0.0048,-0.0044 -3.22405,-1.100086 -3.5625,-2.9375 1.150591,-0.248113 2.723805,-0.30563 3.461771,0.08683 -0.598177,-1.397325 -0.970026,-2.557313 -1.430521,-3.49308 1.750108,-0.597096 4.037349,-2.917692 4.28125,-4.625 10e-7,0 -4.261447,-0.13788 -5.21875,-1.09375 -0.0039,-0.0041 -0.0253,-0.02552 -0.03125,-0.03125 -0.0069,-0.0071 -0.02925,-0.02966 -0.03125,-0.03125 0.113378,-0.830264 0.324835,-1.546396 0.59375,-2.0625 -3.1e-4,-0.0015 -9.6e-5,-0.02414 0,-0.03125 0.632179,-0.994356 1.754423,-3.933808 1.75,-3.9375 -0.01038,-0.0056 -4.279729,0.43004 -6.40625,2.6875 -3.575063,-0.144139 -5.310998,2.739778 -8.3,-3.8875 -1.624542,2.11854 -2.456865,4.888987 -1.60625,8.23125 0.0018,0.007 -1.29e-4,0.02995 0,0.03125 -0.0056,0.0057 -0.0256,0.02554 -0.03125,0.03125 2.68e-4,0.0016 8.4e-5,0.02417 0,0.03125 -0.865138,1.238773 -2.183927,4.479108 -2.1875,7.3125 0.336206,-0.262439 0.777963,-0.556233 1.28125,-0.84375 -0.02314,0.472668 -0.03125,0.937682 -0.03125,1.40625 0,11.624869 9.437632,21.062501 21.0625,21.0625 11.62487,10e-7 21.062498,-9.437631 21.0625,-21.0625 0,-9.536027 -5.550805,-17.628571 -14.25,-20.21875 l -0.34375,-0.0625 z"
     id="path1711-6"
     sodipodi:nodetypes="cccsscsscsscssscccccsssssssccssssccssscc"
     transform="matrix(0.62658982,0,0,0.62658982,-7.1728193,-1.9505139)" />
  <path
     style="opacity:0.6;fill:none;stroke:url(#linearGradient3459);stroke-width:0.80900002;stroke-miterlimit:4;stroke-opacity:1;stroke-dasharray:none"
     id="path8655"
     d="m 29.547287,15.202705 c 0,7.241064 -5.870284,13.111147 -13.110516,13.111147 -7.2408945,0 -13.1108474,-5.87015 -13.1108474,-13.111147 0,-7.2407284 5.8699529,-13.110216 13.1108474,-13.110216 7.240232,0 13.110516,5.8694876 13.110516,13.110216 l 0,0 z"
     inkscape:connector-curvature="0" />
  <path
     style="opacity:0.4;fill:#000000;fill-opacity:1;fill-rule:nonzero;stroke:none"
     id="path6534"
     d="m 16.444201,1.9805194 -1.674159,0.1916684 -1.841576,0.5031307 c 0.15687,-0.055005 0.315786,-0.1150459 0.478331,-0.1677102 l -0.21525,-0.3833376 -0.717496,0.1197931 -0.358749,0.3354205 -0.550081,0.071876 -0.502247,0.2395862 -0.239165,0.1197925 -0.07175,0.095835 -0.358747,0.071875 -0.215248,0.4552136 -0.2870003,-0.5750067 -0.095664,0.2395862 0.047838,0.6468828 -0.4544141,0.3833375 -0.2630823,0.6947999 0.5500821,0 0.2152473,-0.4552136 0.071751,-0.1677103 C 10.204682,4.2289959 10.433972,4.0381766 10.680312,3.873249 l 0.573997,0.1916692 c 0.373715,0.2543466 0.750056,0.5127148 1.12408,0.7666751 l 0.550077,-0.5031307 -0.621831,-0.2635444 -0.286998,-0.5750067 -1.05233,-0.1197932 -0.02392,-0.1197931 0.454413,0.095834 0.263084,-0.2635444 0.573997,-0.1197931 c 0.135836,-0.06618 0.269457,-0.1138457 0.40658,-0.1677103 l -0.358747,0.3354205 1.291494,0.886469 0,0.5270889 -0.502248,0.5031307 0.669664,1.3416832 0.454415,-0.2635458 0.573998,-0.8864683 C 15.57704,4.9889508 16.304358,4.6981137 17.066033,4.3524213 l -0.04784,0.3354205 0.382664,0.2635445 0.669665,-0.4552136 -0.334833,-0.3833376 -0.454416,0.2635444 -0.143498,-0.047914 c 0.03296,-0.015086 0.06256,-0.032579 0.09567,-0.047914 l 0.669668,-1.7250213 -1.45891,-0.575006 z m -6.5531393,2.5875295 0.5500803,0.3833376 0.454416,0 0,-0.4552136 -0.55008,-0.2395863 -0.4544163,0.3114623 0,0 z m 12.6996953,-0.3114623 -0.980579,0.2395863 -0.621829,0.4072965 0,0.3593786 -0.980579,0.6229232 0.191332,0.9343879 0.573998,-0.4072976 0.358747,0.4072976 0.406584,0.2395856 0.26308,-0.6948004 -0.143498,-0.4072964 0.143498,-0.2875048 0.573999,-0.5270875 0.263082,0 -0.263082,0.5750081 0,0.5270882 c 0.236585,-0.06451 0.475387,-0.089637 0.717497,-0.1197938 l -0.669664,0.4791739 -0.04784,0.2875017 -0.765331,0.6468835 -0.789247,-0.1916706 0,-0.4552129 -0.358748,0.2395863 0.167416,0.4072972 -0.573997,0 -0.310915,0.5270889 -0.382666,0.4312553 -0.69358,0.1437507 0.406582,0.4072965 0.09566,0.4072966 -0.502247,0 -0.669664,0.359379 0,1.0541768 0.310915,0 0.286999,0.311463 0.645747,-0.311463 0.239166,-0.646881 0.478331,-0.2875028 0.09567,-0.239587 0.765329,-0.191669 0.430498,0.479173 0.454416,0.2395858 -0.263084,0.52709 0.406584,-0.119794 0.215247,-0.52709 -0.526163,-0.5989648 0.215248,0 0.526165,0.431256 0.09567,0.5750058 0.454413,0.52709 0.119584,-0.766675 0.239165,-0.119794 c 0.254577,0.264747 0.455248,0.588514 0.669664,0.886469 l 0.789247,0.04793 0.454414,0.287504 -0.215248,0.311461 -0.454415,0.407298 -0.669665,0 -0.884912,-0.287503 -0.454415,0.04792 -0.334832,0.383339 -0.956663,-0.958346 -0.669663,-0.191668 -0.980579,0.119794 -0.860997,0.239585 c -0.491163,0.557806 -0.994028,1.121756 -1.458911,1.701063 l -0.550081,1.341679 0.263083,0.287505 -0.478331,0.694799 0.526164,1.221889 c 0.437825,0.496143 0.878223,0.988937 1.315411,1.485434 l 0.645747,-0.551049 0.263083,0.335422 0.693581,-0.455213 0.239165,0.263544 0.69358,0 0.406582,0.455213 -0.239166,0.814594 0.478332,0.551048 -0.02392,0.958343 0.358748,0.6948 -0.263082,0.598965 c -0.02565,0.429584 -0.04784,0.840154 -0.04784,1.269807 0.211017,0.582072 0.422575,1.162718 0.621832,1.748977 l 0.143499,0.934385 0,0.479173 0.382664,0 0.550082,-0.359379 0.669665,0 1.004495,-1.126054 -0.119583,-0.383339 0.669665,-0.598964 -0.50225,-0.551048 0.597914,-0.479171 0.573998,-0.359381 0.263083,-0.287503 -0.167416,-0.646882 c 0,-0.544607 1e-6,-1.084506 0,-1.629186 l 0.454415,-1.00626 0.573997,-0.622925 0.621831,-1.533351 0,-0.407296 c -0.309443,0.03905 -0.606045,0.07426 -0.90883,0.09584 l 0.621831,-0.622925 0.860996,-0.575006 0.454416,-0.527091 0,-0.575005 c -0.103066,-0.194713 -0.207147,-0.40426 -0.310917,-0.598969 l -0.406582,0.479172 -0.310915,-0.359378 -0.454416,-0.35938 0,-0.742717 0.526165,0.598965 0.597915,-0.07188 c 0.269736,0.245304 0.528743,0.463424 0.765329,0.742716 l 0.382675,-0.431267 c 0,-0.464282 -0.521999,-2.756303 -1.650243,-4.6958862 C 26.819818,6.7020691 24.838907,4.9274283 24.838909,4.9274283 l -0.143501,0.2635451 -0.526164,0.575006 -0.669663,-0.6947991 0.669663,0 L 24.48016,4.7357598 23.236498,4.4961736 22.59075,4.2565873 z M 8.216902,4.5680489 7.9777366,5.1909727 c 0,0 -0.4187203,0.069251 -0.5261632,0.095834 -1.3721603,1.2666652 -4.1392005,4.0141141 -4.7833137,9.1761473 0.025502,0.119682 0.4544148,0.814592 0.4544148,0.814592 l 1.0523292,0.622924 1.0523291,0.287502 0.4544148,0.551049 0.6935789,0.52709 0.4065818,-0.07188 0.2869998,0.143752 0,0.09583 -0.3826664,1.078138 -0.3109152,0.455214 0.095667,0.215627 -0.2391648,0.862511 0.8849128,1.629184 0.9088305,0.790635 0.4065805,0.575006 -0.047838,1.19793 0.2869991,0.67084 -0.2869991,1.293767 c 0,0 -0.038298,-0.01064 0,0.119793 0.038636,0.130494 1.5987442,1.008343 1.6980755,0.934385 0.09899,-0.07534 0.191332,-0.143752 0.191332,-0.143752 l -0.09566,-0.287503 0.406582,-0.383337 0.143499,-0.407298 0.645747,-0.215628 0.502248,-1.245846 -0.143499,-0.335421 0.334831,-0.527089 0.765331,-0.16771 0.382665,-0.910427 -0.09567,-1.126056 0.597915,-0.838549 0.09567,-0.86251 c -0.820372,-0.407524 -1.625244,-0.826259 -2.439493,-1.245842 l -0.406582,-0.790633 -0.741413,-0.16771 -0.4065816,-1.078138 -0.9805787,0.119792 -0.8609973,-0.622922 -0.9088298,0.790633 0,0.119794 C 6.7966867,16.85198 6.4742103,16.840398 6.2318269,16.691104 l -0.1913318,-0.575006 0,-0.622924 -0.6218305,0.07187 c 0.050038,-0.396787 0.1170257,-0.801211 0.1674143,-1.19793 l -0.3587488,0 -0.3587489,0.455213 -0.3348321,0.167711 -0.5022478,-0.287503 -0.047831,-0.622924 0.095667,-0.670841 0.7414132,-0.575007 0.597915,0 0.1195828,-0.33542 0.7414132,0.167709 0.55008,0.6948 0.095667,-1.150013 0.9566635,-0.790633 0.3348313,-0.838551 0.7174978,-0.287504 0.3826643,-0.5750068 0.9088306,-0.16771 0.454414,-0.6708409 c -0.449779,0 -0.9134645,0 -1.3632446,0 l 0.8609966,-0.4072921 0.597913,0 0.765331,-0.2635431 0.143499,0.7427156 L 12.019637,8.4253841 11.636971,8.1618396 11.732638,7.8503787 11.421723,7.5628747 11.08689,7.4670405 11.182557,7.1076618 10.919475,6.604532 10.32156,6.8441166 10.417227,6.3889039 9.723646,5.9816068 9.1735667,6.9399509 9.2214044,7.275372 8.6713244,7.5149576 8.3364924,8.2576745 8.169076,7.5628747 7.23633,7.1795371 7.0689137,6.6524475 8.3364924,5.9336897 8.8865724,5.4066001 8.9344102,4.7836762 8.6234949,4.615966 8.2169131,4.5680523 l -7.6e-6,-7e-7 z m 10.260207,1.1500148 0,0.3833348 0.215249,0.2395876 0,0.5750065 -0.119583,0.7666752 0.62183,-0.1197931 0.454416,-0.4552129 -0.406582,-0.383339 C 19.110589,6.3725963 18.976965,6.0554149 18.811942,5.7180637 l -0.334833,0 z m -0.526165,0.7666731 -0.382665,0.1197952 0.09567,0.6947982 0.502248,-0.2635465 -0.215249,-0.5510469 0,0 z m 7.007554,6.3011142 0.573997,0.670841 0.693581,1.485434 0.430497,0.479171 -0.215248,0.503132 0.382665,0.455215 c -0.175607,0.01164 -0.345671,0.02396 -0.526164,0.02396 -0.32789,-0.690214 -0.587389,-1.386283 -0.837081,-2.108357 l -0.430498,-0.479172 -0.239165,-0.86251 0.167416,-0.16771 0,-3e-6 z"
     inkscape:connector-curvature="0" />
  <path
     inkscape:connector-curvature="0"
     style="fill:url(#linearGradient3461);fill-opacity:1;fill-rule:evenodd;stroke:url(#linearGradient3463);stroke-width:1.19999671;stroke-linecap:round;stroke-linejoin:miter;stroke-miterlimit:4;stroke-opacity:1;stroke-dasharray:none;stroke-dashoffset:0"
     d="m 20.853257,1.8810294 c 3.154548,1.552436 4.682868,5.4877773 5.173488,9.2261056 -0.515779,-0.402757 -0.981137,-0.686652 -1.25026,-0.711358 0.652101,1.968649 0.932264,3.800316 1.056254,5.044179 -2e-5,0.0018 8.3e-5,0.01969 0,0.02156 -0.16564,0.711327 -0.384959,1.410445 -0.668242,2.069406 -0.41746,-0.955023 -0.907957,-1.810428 -1.271816,-2.134075 -0.02354,-0.02003 -0.06375,-0.04931 -0.08622,-0.06467 -0.01109,-0.0071 -0.03231,-0.01571 -0.04311,-0.02156 -0.239138,2.812888 -1.033584,5.096274 -1.379596,6.078884 -0.002,0.0057 -2.979483,1.853843 -4.785476,1.853843 -1.945063,1e-6 -4.224824,-1.400312 -4.928561,-2.451483 1.280786,0.496633 1.799926,0.644818 2.743576,0.644818 2.340597,0 3.978513,-2.574076 3.952593,-2.871057 -4.19e-4,-0.0039 -0.88235,-1.373114 -1.444265,-1.638281 -0.0073,-0.0039 -0.0359,-0.01801 -0.04311,-0.02156 -1.17516,0.187238 -2.281085,0.870248 -3.96634,1.142485 -0.0033,-0.003 -2.223944,-0.758842 -2.457407,-2.026294 0.793676,-0.171149 1.878877,-0.210824 2.387924,0.0599 -0.412621,-0.963878 -0.669123,-1.764041 -0.986771,-2.409535 1.207221,-0.411878 2.784957,-2.012631 2.9532,-3.190336 0,0 -2.93954,-0.09511 -3.599886,-0.7544706 -0.0027,-0.0028 -0.01745,-0.0176 -0.02156,-0.02156 -0.0048,-0.0049 -0.02018,-0.02046 -0.02156,-0.02156 0.07821,-0.5727179 0.224071,-1.0667075 0.409568,-1.4227172 -2.14e-4,-0.00103 -6.6e-5,-0.016652 0,-0.021556 0.436075,-0.6859091 1.210198,-2.7135503 1.207147,-2.716097 -0.0072,-0.00386 -2.95215,0.2966425 -4.4190209,1.8538441 C 6.8977308,7.2784646 5.7002863,9.2677972 3.638477,4.6962851 2.5178713,6.1576595 1.9437357,8.0687201 2.5304885,10.37422 c 0.00124,0.0048 -8.83e-5,0.02066 0,0.02156 -0.00386,0.0039 -0.017659,0.01762 -0.021556,0.02156 1.856e-4,0.0011 5.79e-5,0.01667 0,0.02156 -0.5967704,0.854498 -1.5064695,3.089689 -1.50893423,5.044169 0.23191443,-0.181031 0.53663833,-0.383691 0.88380413,-0.582021 -0.015962,0.326048 -0.021556,0.646816 -0.021556,0.970035 0,8.018861 6.5100638,14.528962 14.5288776,14.528961 8.018816,10e-7 14.528877,-6.5101 14.528878,-14.528961 0,-6.5779735 -3.828936,-12.1602294 -9.829626,-13.9469408 l -0.237119,-0.043113 z"
     id="path1711"
     sodipodi:nodetypes="cccsscsscsscssscccccsssssssccssssccssscc" />
  <path
     style="opacity:0.9;fill:none;stroke:url(#radialGradient3465);stroke-width:0.68980222999999996;stroke-linecap:round;stroke-linejoin:miter;stroke-miterlimit:4;stroke-opacity:0.60893902000000000;stroke-dasharray:none;stroke-dashoffset:0"
     d="m 24.743163,4.4297477 c 0.251342,0.6371779 2.209547,3.8904029 2.222871,7.5900553 0.0048,1.313029 -0.142731,0.473942 -0.85605,-0.02317 0.375102,1.965237 0.673102,3.030717 0.531109,3.704716 -0.690222,2.048607 -0.70135,2.362012 -1.427055,3.569082 -0.604629,-1.309621 -0.626617,-1.232381 -0.898562,-1.860969 -0.183132,1.311934 -1.042005,4.032668 -1.187123,4.390873 -2.354802,1.293147 -3.509914,1.870777 -5.374671,2.086317 -3.206591,0.02635 -5.658687,-2.22882 -7.175796,-4.794013 1.594454,0.522771 3.877695,1.455408 4.61085,1.442218 1.269878,0.209109 3.070445,-1.416106 3.359772,-1.941597 -0.487557,-0.749553 -0.471548,-0.597695 -0.846543,-0.937548 -0.873274,0.220056 -1.866113,0.725278 -3.444591,1.048397 -0.913172,0.145496 -4.10449,-1.681887 -3.527885,-3.457463 0.6767,-0.111468 0.992201,-0.323345 1.957042,-0.233679 -0.227681,-0.741225 -0.427437,-0.953651 -0.862553,-1.860046 0.943579,-0.295477 2.42423,-1.092035 2.916437,-2.086994 0,0 -2.316876,-0.171926 -3.444263,-1.1939908 -0.0023,-0.002 0.112962,-1.0810211 1.248764,-3.4319655 C 12.033539,6.5644738 10.722276,7.0569213 9.6590971,7.9143075 8.4234668,8.0818908 7.7808215,8.3384931 7.020135,8.4051873 5.1038451,8.3279267 4.236803,7.2113666 3.6539988,6.241785 3.1870793,7.1828123 3.0264092,7.9925249 3.343892,10.590094 c -0.00448,0.0061 -1.2853899,1.666967 -1.2873048,3.185711 1.1604095,-0.794137 0.6046731,1.193913 0.6046731,1.445072 C 2.4194784,24.412189 10.237763,30.004047 17.203687,29.487619 26.027958,28.794892 30.309653,21.621635 30.253008,15.390778 30.220335,11.796718 28.3895,6.7952917 24.743163,4.4297477 z"
     id="path5035"
     sodipodi:nodetypes="csccccccccccccccssccccccccsc"
     inkscape:connector-curvature="0" />
  <path
     inkscape:connector-curvature="0"
     style="opacity:0.75;fill:url(#linearGradient3467);fill-opacity:1;fill-rule:evenodd;stroke:none"
     d="m 23.221522,3.1339466 c 2.403062,3.0220546 3.566818,7.1572924 3.406747,10.3966904 -0.954905,5.058773 -1.750562,7.350817 -3.812291,9.712674 -0.0041,0.0079 -0.01742,0.01365 -0.02156,0.02156 -0.0076,0.0069 -0.01393,0.0147 -0.02156,0.02156 -0.0028,0.0052 0.004,0.01713 0,0.02156 -1.586797,1.75626 -3.539463,2.394569 -8.88443,2.874478 C 9.2347045,26.60267 4.7947378,22.044163 3.7103681,20.274772 6.0684638,27.156382 12.949613,29.404751 17.135815,29.146483 24.9053,28.690868 28.640807,22.623005 29.690506,17.639505 30.633092,12.617379 29.290117,6.0936327 23.221522,3.1339466 z"
     id="path2729"
     sodipodi:nodetypes="cccsssccccc" />
  <path
     inkscape:connector-curvature="0"
     style="fill:#ffffff;fill-opacity:0.675978;fill-rule:evenodd;stroke:none"
     d="m 15.248219,10.747861 c -0.66033,1.648443 -2.016829,2.245028 -2.979255,2.549616 0.209567,-0.810398 0.711573,-1.172044 0.87436,-1.344203 0.58417,-0.275386 0.669059,-0.111 2.104895,-1.205413 z"
     id="path2726"
     sodipodi:nodetypes="cccc" />
  <path
     inkscape:connector-curvature="0"
     style="fill:#2e3436;fill-opacity:1;fill-rule:evenodd;stroke:none"
     d="m 15.400372,10.630137 c -0.291112,0.865787 -0.983253,1.501142 -1.31539,1.727233 0.08429,-0.793712 -0.416208,-1.468593 -0.801208,-1.892032 0.877629,0.175837 1.235282,0.14924 2.116598,0.164799 z"
     id="rect8531"
     sodipodi:nodetypes="cccc" />
  <path
     style="opacity:0.65;fill:url(#linearGradient3469);fill-opacity:1;fill-rule:evenodd;stroke:none"
     d="M 10.140895,22.728796 C 7.7705552,21.489794 5.7153224,19.553518 6.7820366,16.154743 l 1.4112114,0.04724 c -0.076801,2.824783 0.5851558,4.306036 1.947647,6.526814 z"
     id="path1570"
     sodipodi:nodetypes="cccc"
     inkscape:connector-curvature="0" />
  <path
     style="opacity:0.65;fill:url(#linearGradient3471);fill-opacity:1;fill-rule:evenodd;stroke:none"
     d="M 12.735652,26.806629 C 10.071136,26.57427 7.4294024,25.577081 7.1072846,22.029436 l 1.3208873,-0.499003 c 1.0152323,2.637158 2.1958421,3.750017 4.3074801,5.276196 z"
     id="path1578"
     sodipodi:nodetypes="cccc"
     inkscape:connector-curvature="0" />
  <path
     style="opacity:0.65;fill:url(#linearGradient3473);fill-opacity:1;fill-rule:evenodd;stroke:none"
     d="M 6.073965,20.171531 C 4.190696,18.272338 2.8190615,15.804189 4.8658033,12.888644 l 1.3305002,0.472771 C 5.2668895,16.030027 5.4487186,17.64224 6.073965,20.171531 z"
     id="path1582"
     sodipodi:nodetypes="cccc"
     inkscape:connector-curvature="0" />
  <path
     style="opacity:0.65;fill:url(#linearGradient3475);fill-opacity:1;fill-rule:evenodd;stroke:none"
     d="m 28.401069,11.589137 c 1.617495,2.130105 2.653054,4.757035 0.241089,7.37848 L 27.385283,18.32418 c 1.271884,-2.523412 1.303394,-4.145541 1.015786,-6.735043 z"
     id="path1436"
     sodipodi:nodetypes="cccc"
     inkscape:connector-curvature="0" />
  <path
     style="opacity:0.65000006;fill:url(#linearGradient3477);fill-opacity:1;fill-rule:evenodd;stroke:none"
     d="m 27.172663,17.24537 c 0.322918,2.655063 -0.107211,5.445786 -3.511858,6.493608 l -0.761031,-1.18936 c 2.370647,-1.537964 3.215699,-2.922948 4.272889,-5.304248 z"
     id="path1440"
     sodipodi:nodetypes="cccc"
     inkscape:connector-curvature="0" />
  <path
     style="opacity:0.65;fill:url(#linearGradient3479);fill-opacity:1;fill-rule:evenodd;stroke:none"
     d="m 24.687045,23.096291 c -0.801066,2.551848 -2.344084,4.916639 -5.877796,4.466721 l -0.202648,-1.397383 c 2.793972,-0.42311 4.135091,-1.336179 6.080444,-3.069338 z"
     id="path1444"
     sodipodi:nodetypes="cccc"
     inkscape:connector-curvature="0" />
</svg>
