/* XPM */
static char *top[] = {
/* columns rows colors chars-per-pixel */
"24 24 7 1 ",
"  c black",
". c #020202",
"X c #0C0C0C",
"o c gray5",
"O c #0E0E0E",
"+ c gray8",
"@ c None",
/* pixels */
"@@@@@@@@@@@@@@@@@@@@@@@@",
"@@@@@@@@@@@@@@@@@@@@@@@@",
"@@@@@@@@@@@..@@@@@@@@@@@",
"@@@@@@@@@@....@@@@@@@@@@",
"@@@@@@@@@@X..X@@@@@@@@@@",
"@@@@@@@@@@@++@@@@@@@@@@@",
"@@@@@@@@@@@@@@@@@@@@@@@@",
"@@@@@@@@@@@@@@@@@@@@@@@@",
"@@@@@@@@@@@..@@@@@@@@@@@",
"@@@@@@@@@@.@@.@@@@@@@@@@",
"@@@@@@@@@.@@@@.@@@@@@@@@",
"@@@@@@@@.@@@@@@.@@@@@@@@",
"@@@@@@@.@@@@@@@@.@@@@@@@",
"@@@@@@.@@@@@@@@@@.@@@@@@",
"@@@@@.@@@@@@@@@@@@.@@@@@",
"@@@@@@@@@@@@@@@@@@@@@@@@",
"@@@@@@@@@@@@@@@@@@@@@@@@",
"@@@@@@@@@@@@@@@@@@@@@@@@",
"@@@@@@@@@@@@@@@@@@@@@@@@",
"@@@@@@@@@@@@@@@@@@@@@@@@",
"@@@@@@@@@@.@@@@@@@@@@@@@",
"@@@@@@@@@@O..O@@@@@@@@@@",
"@@@@@@@@@@@@@@@@@@@@@@@@",
"@@@@@@@@@@@@@@@@@@@@@@@@"
};
