/* XPM */
static char *desktop[] = {
/* columns rows colors chars-per-pixel */
"32 32 209 2 ",
"   c #000000",
".  c #171717",
"X  c #171818",
"o  c #1D2229",
"O  c #142337",
"+  c #1F2630",
"@  c #13253B",
"#  c #2B2C2E",
"$  c #202833",
"%  c #222C3A",
"&  c #2F3339",
"*  c #333333",
"=  c #34393E",
"-  c #3A3A3A",
";  c #152F51",
":  c #23395A",
">  c #1A3A63",
",  c #123678",
"<  c #7F3341",
"1  c #3A4047",
"2  c #324258",
"3  c #3C4859",
"4  c #374964",
"5  c #224473",
"6  c #284873",
"7  c #204778",
"8  c #214A7D",
"9  c #3F557C",
"0  c #424242",
"q  c #45484B",
"w  c #4C4C4D",
"e  c #424D5B",
"r  c #4D5055",
"t  c #5C5C5C",
"y  c #4C7454",
"u  c #555860",
"i  c #5E5F60",
"p  c #4B5B72",
"a  c #525D70",
"s  c #6C6C6C",
"d  c #696E74",
"f  c #797979",
"g  c #985D49",
"h  c #769A5B",
"j  c #D6A318",
"k  c #C9A35D",
"l  c #D0B379",
"z  c #163D87",
"x  c #173E88",
"c  c #19448D",
"v  c #1A4594",
"b  c #1D4A95",
"n  c #1E4B98",
"m  c #1F519D",
"M  c #234C82",
"N  c #22468B",
"B  c #244F88",
"V  c #24518C",
"C  c #2C5289",
"Z  c #355583",
"A  c #3E5682",
"S  c #3F5D88",
"D  c #254C90",
"F  c #284F94",
"G  c #214E9C",
"H  c #265390",
"J  c #2B5395",
"K  c #2F5895",
"L  c #26509A",
"P  c #28559E",
"I  c #295B9C",
"U  c #325895",
"Y  c #335C9C",
"T  c #3A649B",
"R  c #1F51A0",
"E  c #2354A3",
"W  c #2759A4",
"Q  c #2C5CA4",
"!  c #255AAB",
"~  c #295CAC",
"^  c #265EB1",
"/  c #2E62AB",
"(  c #3660A0",
")  c #3D66A2",
"_  c #3F68A4",
"`  c #3C69AB",
"'  c #2660B4",
"]  c #2B63B3",
"[  c #2E68B3",
"{  c #2B66B9",
"}  c #2D69BC",
"|  c #316AB6",
" . c #3E6EB1",
".. c #336CBB",
"X. c #3B6FBA",
"o. c #3C72BE",
"O. c #475D84",
"+. c #485D81",
"@. c #415C88",
"#. c #47608B",
"$. c #4A648F",
"%. c #42679B",
"&. c #43689B",
"*. c #546C96",
"=. c #6E7A8B",
"-. c #6F6F94",
";. c #677897",
":. c #697996",
">. c #4067A2",
",. c #426AA4",
"<. c #406DAB",
"1. c #5576A6",
"2. c #406FB2",
"3. c #4372B5",
"4. c #4A75B3",
"5. c #4D79B7",
"6. c #4273BA",
"7. c #4D79B8",
"8. c #5178B7",
"9. c #547FBC",
"0. c #2F6FC3",
"q. c #316EC2",
"w. c #3471C4",
"e. c #3B76C5",
"r. c #3F7AC6",
"t. c #3475C9",
"y. c #3679CD",
"u. c #3A79C9",
"i. c #397ED2",
"p. c #4077C2",
"a. c #447BC5",
"s. c #497EC7",
"d. c #447ECA",
"f. c #6D8082",
"g. c #64879E",
"h. c #6380A9",
"j. c #7587A1",
"k. c #7C8FA9",
"l. c #789DAD",
"z. c #6284B5",
"x. c #6F8EBD",
"c. c #708CB2",
"v. c #708FBD",
"b. c #3B82D6",
"n. c #3D85DA",
"m. c #3F88DE",
"M. c #4A81CB",
"N. c #5180C0",
"B. c #5A86C4",
"V. c #5B89C6",
"C. c #5C8CCB",
"Z. c #5F90CF",
"A. c #4F87D0",
"S. c #4089DF",
"D. c #528BD5",
"F. c #5C8FD1",
"G. c #5E91D2",
"H. c #5592DB",
"J. c #628AC5",
"K. c #6993CC",
"L. c #7394C2",
"P. c #7699C8",
"I. c #799CCB",
"U. c #6D98D0",
"Y. c #7D9FD1",
"T. c #7BA0CF",
"R. c #7DA3D2",
"E. c #428DE3",
"W. c #5897E2",
"Q. c #5B9BE5",
"!. c #868686",
"~. c #949494",
"^. c #9D9D9D",
"/. c #8085A2",
"(. c #949AA4",
"). c #979EAB",
"_. c #9BA2AE",
"`. c #9EA5B1",
"'. c #A7A7A7",
"]. c #A1A6AF",
"[. c #ACACAC",
"{. c #A0A7B4",
"}. c #A4A9B4",
"|. c #A5ADB9",
" X c #AAB1BC",
".X c #B7B7B7",
"XX c #B7B9BE",
"oX c #BCBCBC",
"OX c #80A5D7",
"+X c #83AADC",
"@X c #ADB5C2",
"#X c #B1B9C6",
"$X c #B4BDC9",
"%X c #86ADE0",
"&X c #87B0E3",
"*X c #89B3E6",
"=X c #8AB6E8",
"-X c #B8C0CA",
";X c #C3C3C3",
":X c #CCCCCC",
">X c #C6CCD4",
",X c #C8CED5",
"<X c #CDD1D6",
"1X c #D3D3D3",
"2X c #DBDBDB",
"3X c #E3E3E3",
"4X c #ECECEC",
"5X c #F2F2F2",
"6X c None",
/* pixels */
"6X6X6X6X6X6X6X6X6X6X6X6X6X6X6X6X6X6X6X6X6X6X6X6X6X6X6X6X6X6X6X6X",
"6X6X6X6X6X6X6X6X6X6X6X6X6X6X6X6X6X6X6X6X6X6X6X6X6X6X6X6X6X6X6X6X",
"6X6X6X4X5X5X5X5X5X5X5X5X5X5X5X5X5X5X5X5X5X5X5X5X5X5X5X5X4X6X6X6X",
"6X6X2X3X3X3X3X3X3X3X3X3X3X3X3X4X4X5X4X5X4X5X4X4X4X5X4X5X4X2X6X6X",
"6X6X3X3X:X].).).).).).).).).).).).).).).).).).).).).}.1X4X4X6X6X",
"6X6X3X3X}., z z x x x x x x x x 9.3.3.3.3.3.3.X.3.3.J }.4X4X6X6X",
"6X6X3X3X).z c *.F v v v v v v v K.F.G.G.K.G.G.G.C.G. ._.4X3X6X6X",
"6X6X3X2X`.z +.l l +.v v v v v v 8.K.C.G.G.F.F.C.C.C.` (..X;X^.w ",
"6X6X3X2X`.z a k k p b b v v v v F U.C.C.C.C.C.V.C.B.j.XX;X;X[.6X",
"6X6X3X2X`.z N u u N v b n n n n n J.C.C.V.V.V.B.c. X.X;X^.s # 6X",
"6X6X2X1X`.c F ;.;.F G G G G G G G 7.C.C.V.V.z.{.XX;X'.f t [.6X6X",
"6X6X2X1X}.z 9 oX[.O.G G E E E P E W K.V.V.k.XX.X.X!.r d 2X2X6X6X",
"6X6X2X1X}.z A :XoX@.P E ! ! ~ ~ ~ ~ J.V.=.oXoX~.i 4 U _.2X2X6X6X",
"6X6X1X1X|.c b $.@.Q ! ~ ~ ~ ~ ~ ~ ~ >.$ t '.d e &.4.T |.2X1X6X6X",
"6X6X1X1X|.c R E ! ~ ~ ] / ~ ] ] ^ : # . . & S 4.7.7.Y `.1X1X6X6X",
"6X6X1X<X Xv E ! ~ ~ ~ ] ] ....C 1 - . % %.5.7.4.,.>.U _.:X1X6X6X",
"6X6X:X>X Xb ! ! ~ ] [ } } / 2 - * % M 2.9.4.T >.>._ K `.:X1X6X6X",
"6X6X:X;X@Xb ! ' ' { { [ 6 q * + 5 Q K F %.T T ) ) _ Y |.:X:X6X6X",
"6X6X:X:X@Xn R ' [ { / 3 - o ; 8 M M B B T <.2.2.o.3.Q  X:X:X6X6X",
"6X6X:X;X@Xm ' ' { Z w # @ > 7 8 V Q [ q.u.s.a.p.o.X.Q #X:X:X6X6X",
"6X6X;X:X#Xm ^ ' p = O > M I [ u.i.i.y.y.t.d.p.e.o...Q @X:X:X6X6X",
"6X6X;X;X#XR ^ ' B W [ t.y.b.n.n.n.b.i.i.t.u.e.q...| W @X;X;X6X6X",
"6X6X;XoX$XR ' { } 0.t.y.i.b.n.E.S.n.b.i.y.t.w.0.} ] E #X;X;X6X6X",
"6X6XoX;X$XR ' ' 0.0.t.y.b.n.m.E.E.S.n.i.y.t.w.0.{ ' E $XoX;X6X6X",
"6X6XoX;X-X` T 1.j f.A.D.H.H.W.Q.Q.W.H.H.D.D.M.s.a.6.` $XoXoX6X6X",
"6X6XoXoX>Xx./.g h l.+X+X*X*X=X=X=X=X*X&X+X+XOXOXOXR.v.>XoXoX6X6X",
"6X6XoXoX<Xh.-.< y g.I.I.T.T.R.R.R.R.R.I.I.I.P.P.L.v.1.1XoXoX6X6X",
"6X6XoX.X:X<X>X,X>X>X,X>X,X,X,X,X,X<X,X,X,X,X,X>X>X>X1X:XoXoX6X6X",
"6X6X^.oX.X.X.X.XoX.X.X.X.XoX.X.X.XoXXX.X.X.X.X.X.XoX.X.XoX^.6X6X",
"6X6X0 ^.oXoXoXoXoX;X;X;X;X;X;X:X;X;X;X;X;X;X;XoXoXoXoXoX^.0 6X6X",
"6X6X6X6X                                                6X6X6X6X",
"6X6X6X6X6X6X6X6X6X6X6X6X6X6X6X6X6X6X6X6X6X6X6X6X6X6X6X6X6X6X6X6X"
};
