<?xml version="1.0" encoding="UTF-8" standalone="no"?>
<!-- Created with Inkscape (http://www.inkscape.org/) -->

<svg
   xmlns:dc="http://purl.org/dc/elements/1.1/"
   xmlns:cc="http://creativecommons.org/ns#"
   xmlns:rdf="http://www.w3.org/1999/02/22-rdf-syntax-ns#"
   xmlns:svg="http://www.w3.org/2000/svg"
   xmlns="http://www.w3.org/2000/svg"
   xmlns:xlink="http://www.w3.org/1999/xlink"
   xmlns:sodipodi="http://sodipodi.sourceforge.net/DTD/sodipodi-0.dtd"
   xmlns:inkscape="http://www.inkscape.org/namespaces/inkscape"
   version="1.0"
   width="96"
   height="96"
   id="svg2408"
   inkscape:version="0.47 r22583"
   sodipodi:docname="video-x-generic.svg"
   style="display:inline">
  <sodipodi:namedview
     pagecolor="#ffffff"
     bordercolor="#666666"
     borderopacity="1"
     objecttolerance="10"
     gridtolerance="10"
     guidetolerance="10"
     inkscape:pageopacity="0"
     inkscape:pageshadow="2"
     inkscape:window-width="913"
     inkscape:window-height="686"
     id="namedview76"
     showgrid="false"
     inkscape:zoom="0.63802082"
     inkscape:cx="-19.075174"
     inkscape:cy="57.429827"
     inkscape:window-x="118"
     inkscape:window-y="133"
     inkscape:window-maximized="0"
     inkscape:current-layer="layer9" />
  <defs
     id="defs2410">
    <inkscape:perspective
       sodipodi:type="inkscape:persp3d"
       inkscape:vp_x="0 : 48 : 1"
       inkscape:vp_y="0 : 1000 : 0"
       inkscape:vp_z="96 : 48 : 1"
       inkscape:persp3d-origin="48 : 32 : 1"
       id="perspective78" />
    <linearGradient
       id="linearGradient3748">
      <stop
         id="stop3751"
         style="stop-color:#ffffff;stop-opacity:1"
         offset="0" />
      <stop
         id="stop3753"
         style="stop-color:#ffffff;stop-opacity:0"
         offset="1" />
    </linearGradient>
    <linearGradient
       id="linearGradient3720">
      <stop
         id="stop3722"
         style="stop-color:#ef7e51;stop-opacity:1;"
         offset="0" />
      <stop
         id="stop3724"
         style="stop-color:#d53a16;stop-opacity:1;"
         offset="1" />
    </linearGradient>
    <linearGradient
       id="linearGradient3921">
      <stop
         id="stop3923"
         style="stop-color:#a81f08;stop-opacity:1;"
         offset="0" />
      <stop
         id="stop3925"
         style="stop-color:#d55000;stop-opacity:0;"
         offset="1" />
    </linearGradient>
    <linearGradient
       x1="45.447727"
       y1="92.539597"
       x2="45.447727"
       y2="7.0165396"
       id="ButtonShadow"
       gradientUnits="userSpaceOnUse"
       gradientTransform="scale(1.0058652,0.994169)">
      <stop
         id="stop3750"
         style="stop-color:#000000;stop-opacity:1"
         offset="0" />
      <stop
         id="stop3752"
         style="stop-color:#000000;stop-opacity:0.58823532"
         offset="1" />
    </linearGradient>
    <linearGradient
       id="linearGradient3737">
      <stop
         id="stop3739"
         style="stop-color:#ffffff;stop-opacity:1"
         offset="0" />
      <stop
         id="stop3741"
         style="stop-color:#ffffff;stop-opacity:0"
         offset="1" />
    </linearGradient>
    <filter
       color-interpolation-filters="sRGB"
       id="filter3174">
      <feGaussianBlur
         id="feGaussianBlur3176"
         stdDeviation="1.71" />
    </filter>
    <linearGradient
       x1="36.357143"
       y1="6"
       x2="36.357143"
       y2="63.893143"
       id="linearGradient3188"
       xlink:href="#linearGradient3737"
       gradientUnits="userSpaceOnUse" />
    <filter
       x="-0.192"
       y="-0.192"
       width="1.3839999"
       height="1.3839999"
       color-interpolation-filters="sRGB"
       id="filter3794">
      <feGaussianBlur
         id="feGaussianBlur3796"
         stdDeviation="5.28" />
    </filter>
    <linearGradient
       x1="48"
       y1="20.220806"
       x2="48"
       y2="138.66119"
       id="linearGradient3613"
       xlink:href="#linearGradient3737"
       gradientUnits="userSpaceOnUse" />
    <radialGradient
       cx="48"
       cy="90.171875"
       r="42"
       fx="48"
       fy="90.171875"
       id="radialGradient3619"
       xlink:href="#linearGradient3737"
       gradientUnits="userSpaceOnUse"
       gradientTransform="matrix(1.1573129,0,0,0.99590774,-7.5510206,0.19713193)" />
    <clipPath
       id="clipPath3613">
      <rect
         width="84"
         height="84"
         rx="6"
         ry="6"
         x="6"
         y="6"
         id="rect3615"
         style="fill:#ffffff;fill-opacity:1;fill-rule:nonzero;stroke:none" />
    </clipPath>
    <linearGradient
       x1="45.447727"
       y1="92.539597"
       x2="45.447727"
       y2="7.0165396"
       id="ButtonShadow-0"
       gradientUnits="userSpaceOnUse"
       gradientTransform="matrix(1.0058652,0,0,0.994169,100,0)">
      <stop
         id="stop3750-8"
         style="stop-color:#000000;stop-opacity:1"
         offset="0" />
      <stop
         id="stop3752-5"
         style="stop-color:#000000;stop-opacity:0.58823532"
         offset="1" />
    </linearGradient>
    <linearGradient
       x1="32.251034"
       y1="6.1317081"
       x2="32.251034"
       y2="90.238609"
       id="linearGradient3725"
       xlink:href="#ButtonShadow-0"
       gradientUnits="userSpaceOnUse"
       gradientTransform="matrix(1.0238095,0,0,-1.0119048,-1.1428571,98.071429)" />
    <linearGradient
       x1="32.251034"
       y1="6.1317081"
       x2="32.251034"
       y2="90.238609"
       id="linearGradient3721"
       xlink:href="#ButtonShadow-0"
       gradientUnits="userSpaceOnUse"
       gradientTransform="matrix(1,0,0,-1,0,97)" />
    <linearGradient
       x1="58.650177"
       y1="122"
       x2="58.650177"
       y2="5.4252338"
       id="ButtonColor"
       gradientUnits="userSpaceOnUse"
       gradientTransform="matrix(1.0172414,0,0,1.0172414,-1.1034483,-1.1034483)">
      <stop
         id="stop3189"
         style="stop-color:#000000;stop-opacity:1"
         offset="0" />
      <stop
         id="stop3191"
         style="stop-color:#515151;stop-opacity:1"
         offset="1" />
    </linearGradient>
    <linearGradient
       x1="48"
       y1="90"
       x2="48"
       y2="5.9877172"
       id="linearGradient3686"
       xlink:href="#ButtonColor"
       gradientUnits="userSpaceOnUse"
       gradientTransform="translate(-110,0)" />
    <linearGradient
       x1="32.251034"
       y1="6.1317081"
       x2="32.251034"
       y2="90.238609"
       id="linearGradient3702"
       xlink:href="#ButtonShadow-0"
       gradientUnits="userSpaceOnUse"
       gradientTransform="matrix(1.0238095,0,0,-1.0119048,-1.1428571,98.071429)" />
    <linearGradient
       x1="32.251034"
       y1="6.1317081"
       x2="32.251034"
       y2="90.238609"
       id="linearGradient3711"
       xlink:href="#ButtonShadow-0"
       gradientUnits="userSpaceOnUse"
       gradientTransform="matrix(1.0238095,0,0,-1.0119048,-1.1428571,98.071429)" />
    <linearGradient
       x1="32.251034"
       y1="6.1317081"
       x2="32.251034"
       y2="90.238609"
       id="linearGradient3719"
       xlink:href="#ButtonShadow-0"
       gradientUnits="userSpaceOnUse"
       gradientTransform="matrix(1.0238095,0,0,-1.0119048,-1.1428571,98.071429)" />
    <radialGradient
       cx="48"
       cy="48"
       r="28"
       fx="48"
       fy="48"
       id="radialGradient3804"
       xlink:href="#linearGradient3720"
       gradientUnits="userSpaceOnUse"
       gradientTransform="matrix(1.1428571,0,0,0.85714286,-6.8571431,3.8571432)" />
    <radialGradient
       cx="48"
       cy="48"
       r="28"
       fx="48"
       fy="48"
       id="radialGradient3832"
       xlink:href="#linearGradient3720"
       gradientUnits="userSpaceOnUse"
       gradientTransform="matrix(1.1428571,0,0,-0.85714286,-6.8571431,38.142857)" />
    <radialGradient
       cx="48"
       cy="48"
       r="28"
       fx="48"
       fy="48"
       id="radialGradient3834"
       xlink:href="#linearGradient3720"
       gradientUnits="userSpaceOnUse"
       gradientTransform="matrix(1.1428571,0,0,0.85714286,-6.8571431,57.857143)" />
    <linearGradient
       x1="48"
       y1="90"
       x2="48"
       y2="5.9877172"
       id="linearGradient3885"
       xlink:href="#ButtonColor"
       gradientUnits="userSpaceOnUse" />
    <linearGradient
       x1="48.495441"
       y1="90.434654"
       x2="48.495441"
       y2="52.387913"
       id="linearGradient2943"
       xlink:href="#linearGradient3921"
       gradientUnits="userSpaceOnUse" />
    <radialGradient
       cx="48"
       cy="44.717331"
       r="42"
       fx="48"
       fy="44.717331"
       id="radialGradient3761"
       xlink:href="#linearGradient3748"
       gradientUnits="userSpaceOnUse"
       gradientTransform="matrix(1.1428571,0,0,0.76190474,-6.8571429,5.9296527)" />
    <linearGradient
       inkscape:collect="always"
       xlink:href="#ButtonColor"
       id="linearGradient3980"
       gradientUnits="userSpaceOnUse"
       gradientTransform="translate(-110,0)"
       x1="48"
       y1="90"
       x2="48"
       y2="5.9877172" />
    <linearGradient
       inkscape:collect="always"
       xlink:href="#ButtonColor"
       id="linearGradient3983"
       gradientUnits="userSpaceOnUse"
       x1="48"
       y1="90"
       x2="48"
       y2="5.9877172" />
    <linearGradient
       inkscape:collect="always"
       xlink:href="#linearGradient3921"
       id="linearGradient3993"
       gradientUnits="userSpaceOnUse"
       x1="48.495441"
       y1="90.434654"
       x2="48.495441"
       y2="52.387913" />
    <radialGradient
       inkscape:collect="always"
       xlink:href="#linearGradient3720"
       id="radialGradient3996"
       gradientUnits="userSpaceOnUse"
       gradientTransform="matrix(1.1428571,0,0,-0.85714286,-6.8571431,38.142857)"
       cx="48"
       cy="48"
       fx="48"
       fy="48"
       r="28" />
    <radialGradient
       inkscape:collect="always"
       xlink:href="#linearGradient3720"
       id="radialGradient3999"
       gradientUnits="userSpaceOnUse"
       gradientTransform="matrix(1.1428571,0,0,0.85714286,-6.8571431,57.857143)"
       cx="48"
       cy="48"
       fx="48"
       fy="48"
       r="28" />
    <radialGradient
       inkscape:collect="always"
       xlink:href="#linearGradient3720"
       id="radialGradient4002"
       gradientUnits="userSpaceOnUse"
       gradientTransform="matrix(1.1428571,0,0,0.85714286,-6.8571431,3.8571432)"
       cx="48"
       cy="48"
       fx="48"
       fy="48"
       r="28" />
    <inkscape:perspective
       id="perspective4013"
       inkscape:persp3d-origin="0.5 : 0.33333333 : 1"
       inkscape:vp_z="1 : 0.5 : 1"
       inkscape:vp_y="0 : 1000 : 0"
       inkscape:vp_x="0 : 0.5 : 1"
       sodipodi:type="inkscape:persp3d" />
    <linearGradient
       x1="48"
       y1="20.220806"
       x2="48"
       y2="138.66119"
       id="linearGradient3613-5"
       xlink:href="#linearGradient3737-5"
       gradientUnits="userSpaceOnUse" />
    <linearGradient
       id="linearGradient3737-5">
      <stop
         id="stop3739-4"
         style="stop-color:#ffffff;stop-opacity:1"
         offset="0" />
      <stop
         id="stop3741-7"
         style="stop-color:#ffffff;stop-opacity:0"
         offset="1" />
    </linearGradient>
    <clipPath
       id="clipPath3613-6">
      <rect
         width="84"
         height="84"
         rx="6"
         ry="6"
         x="6"
         y="6"
         id="rect3615-5"
         style="fill:#ffffff;fill-opacity:1;fill-rule:nonzero;stroke:none" />
    </clipPath>
    <filter
       x="-0.192"
       y="-0.192"
       width="1.3839999"
       height="1.3839999"
       color-interpolation-filters="sRGB"
       id="filter3794-6">
      <feGaussianBlur
         id="feGaussianBlur3796-9"
         stdDeviation="5.28" />
    </filter>
    <linearGradient
       x1="36.357143"
       y1="6"
       x2="36.357143"
       y2="63.893143"
       id="linearGradient3188-3"
       xlink:href="#linearGradient3737-5"
       gradientUnits="userSpaceOnUse" />
    <linearGradient
       id="linearGradient4026">
      <stop
         id="stop4028"
         style="stop-color:#ffffff;stop-opacity:1"
         offset="0" />
      <stop
         id="stop4030"
         style="stop-color:#ffffff;stop-opacity:0"
         offset="1" />
    </linearGradient>
    <radialGradient
       cx="48"
       cy="90.171875"
       r="42"
       fx="48"
       fy="90.171875"
       id="radialGradient3619-7"
       xlink:href="#linearGradient3737-5"
       gradientUnits="userSpaceOnUse"
       gradientTransform="matrix(1.1573129,0,0,0.99590774,-7.5510206,0.19713193)" />
    <linearGradient
       id="linearGradient4033">
      <stop
         id="stop4035"
         style="stop-color:#ffffff;stop-opacity:1"
         offset="0" />
      <stop
         id="stop4037"
         style="stop-color:#ffffff;stop-opacity:0"
         offset="1" />
    </linearGradient>
    <radialGradient
       cx="48"
       cy="44.717331"
       r="42"
       fx="48"
       fy="44.717331"
       id="radialGradient3761-4"
       xlink:href="#linearGradient3748-5"
       gradientUnits="userSpaceOnUse"
       gradientTransform="matrix(1.1428571,0,0,0.76190474,-6.8571429,5.9296527)" />
    <linearGradient
       id="linearGradient3748-5">
      <stop
         id="stop3751-2"
         style="stop-color:#ffffff;stop-opacity:1"
         offset="0" />
      <stop
         id="stop3753-5"
         style="stop-color:#ffffff;stop-opacity:0"
         offset="1" />
    </linearGradient>
    <radialGradient
       r="42"
       fy="44.717331"
       fx="48"
       cy="44.717331"
       cx="48"
       gradientTransform="matrix(1.1428571,0,0,0.76190474,-6.8571429,5.9296527)"
       gradientUnits="userSpaceOnUse"
       id="radialGradient4048"
       xlink:href="#linearGradient3748-5"
       inkscape:collect="always" />
    <radialGradient
       inkscape:collect="always"
       xlink:href="#linearGradient3720"
       id="radialGradient4116"
       gradientUnits="userSpaceOnUse"
       gradientTransform="matrix(1.1428571,0,0,0.85714286,-6.8571431,3.8571432)"
       cx="48"
       cy="48"
       fx="48"
       fy="48"
       r="28" />
    <radialGradient
       inkscape:collect="always"
       xlink:href="#linearGradient3720"
       id="radialGradient4119"
       gradientUnits="userSpaceOnUse"
       gradientTransform="matrix(1.1428571,0,0,0.85714286,-116.85714,3.8571432)"
       cx="48"
       cy="48"
       fx="48"
       fy="48"
       r="28" />
    <linearGradient
       inkscape:collect="always"
       xlink:href="#ButtonColor"
       id="linearGradient4121"
       gradientUnits="userSpaceOnUse"
       gradientTransform="translate(-110,0)"
       x1="48"
       y1="90"
       x2="48"
       y2="5.9877172" />
    <linearGradient
       inkscape:collect="always"
       xlink:href="#ButtonColor"
       id="linearGradient4124"
       gradientUnits="userSpaceOnUse"
       x1="48"
       y1="90"
       x2="48"
       y2="5.9877172" />
    <inkscape:perspective
       id="perspective4134"
       inkscape:persp3d-origin="0.5 : 0.33333333 : 1"
       inkscape:vp_z="1 : 0.5 : 1"
       inkscape:vp_y="0 : 1000 : 0"
       inkscape:vp_x="0 : 0.5 : 1"
       sodipodi:type="inkscape:persp3d" />
    <linearGradient
       inkscape:collect="always"
       xlink:href="#ButtonColor-7"
       id="linearGradient4124-4"
       gradientUnits="userSpaceOnUse"
       x1="48"
       y1="90"
       x2="48"
       y2="5.9877172" />
    <linearGradient
       x1="58.650177"
       y1="122"
       x2="58.650177"
       y2="5.4252338"
       id="ButtonColor-7"
       gradientUnits="userSpaceOnUse"
       gradientTransform="matrix(1.0172414,0,0,1.0172414,-1.1034483,-1.1034483)">
      <stop
         id="stop3189-4"
         style="stop-color:#000000;stop-opacity:1"
         offset="0" />
      <stop
         id="stop3191-4"
         style="stop-color:#515151;stop-opacity:1"
         offset="1" />
    </linearGradient>
    <linearGradient
       y2="5.9877172"
       x2="48"
       y1="90"
       x1="48"
       gradientUnits="userSpaceOnUse"
       id="linearGradient4143"
       xlink:href="#ButtonColor-7"
       inkscape:collect="always" />
    <linearGradient
       gradientTransform="matrix(0.56904514,0,0,0.58994208,18.57573,28.898855)"
       gradientUnits="userSpaceOnUse"
       xlink:href="#linearGradient3694"
       id="linearGradient3736"
       y2="12.797539"
       x2="62.336792"
       y1="79.015236"
       x1="62.336792" />
    <linearGradient
       id="linearGradient3694">
      <stop
         offset="0"
         style="stop-color:#e6e6e6;stop-opacity:1"
         id="stop3696" />
      <stop
         offset="1"
         style="stop-color:#f5f5f5;stop-opacity:1"
         id="stop3698" />
    </linearGradient>
    <radialGradient
       gradientTransform="matrix(1.4018647,1.2754473e-8,-1.1111112e-8,1.2212402,-19.289505,-25.867403)"
       gradientUnits="userSpaceOnUse"
       xlink:href="#linearGradient3688"
       id="radialGradient3833"
       fy="85.131531"
       fx="48"
       r="36"
       cy="85.131531"
       cx="48" />
    <linearGradient
       id="linearGradient3688">
      <stop
         offset="0"
         style="stop-color:#b30707;stop-opacity:1"
         id="stop3690" />
      <stop
         offset="1"
         style="stop-color:#e42c0d;stop-opacity:1"
         id="stop3692" />
    </linearGradient>
    <linearGradient
       gradientTransform="matrix(1.0238095,0,0,1.0119048,-1.1428571,-98.071429)"
       gradientUnits="userSpaceOnUse"
       xlink:href="#ButtonShadow-0-1"
       id="linearGradient3071"
       y2="90.238609"
       x2="32.251034"
       y1="6.1317081"
       x1="32.251034" />
    <linearGradient
       gradientTransform="translate(0,-97)"
       gradientUnits="userSpaceOnUse"
       xlink:href="#ButtonShadow-0-1"
       id="linearGradient3721-2"
       y2="90.238609"
       x2="32.251034"
       y1="6.1317081"
       x1="32.251034" />
    <linearGradient
       gradientTransform="matrix(1.0238095,0,0,1.0119048,-1.1428571,-98.071429)"
       gradientUnits="userSpaceOnUse"
       xlink:href="#ButtonShadow-0-1"
       id="linearGradient3725-3"
       y2="90.238609"
       x2="32.251034"
       y1="6.1317081"
       x1="32.251034" />
    <linearGradient
       gradientTransform="matrix(1.0238095,0,0,1.0119048,-1.1428571,-98.071429)"
       gradientUnits="userSpaceOnUse"
       xlink:href="#ButtonShadow-0-1"
       id="linearGradient3772"
       y2="90.238609"
       x2="32.251034"
       y1="6.1317081"
       x1="32.251034" />
    <linearGradient
       gradientTransform="matrix(1.0238095,0,0,1.0119048,-1.1428571,-98.071429)"
       gradientUnits="userSpaceOnUse"
       xlink:href="#ButtonShadow-0-1"
       id="linearGradient3780"
       y2="90.238609"
       x2="32.251034"
       y1="6.1317081"
       x1="32.251034" />
    <linearGradient
       gradientTransform="matrix(1.0058652,0,0,0.994169,100,0)"
       gradientUnits="userSpaceOnUse"
       id="ButtonShadow-0-1"
       y2="7.0165396"
       x2="45.447727"
       y1="92.539597"
       x1="45.447727">
      <stop
         offset="0"
         style="stop-color:#000000;stop-opacity:1"
         id="stop3750-8-0" />
      <stop
         offset="1"
         style="stop-color:#000000;stop-opacity:0.58823532"
         id="stop3752-5-6" />
    </linearGradient>
    <linearGradient
       gradientUnits="userSpaceOnUse"
       xlink:href="#linearGradient3865"
       id="linearGradient3871"
       y2="69.410355"
       x2="31.642857"
       y1="25.779018"
       x1="31.642857" />
    <radialGradient
       gradientUnits="userSpaceOnUse"
       xlink:href="#linearGradient3299"
       id="radialGradient4379"
       fy="14.9375"
       fx="11.3125"
       r="1.4375"
       cy="14.9375"
       cx="11.3125" />
    <radialGradient
       gradientUnits="userSpaceOnUse"
       xlink:href="#linearGradient3299"
       id="radialGradient4377"
       fy="14.9375"
       fx="11.3125"
       r="1.4375"
       cy="14.9375"
       cx="11.3125" />
    <radialGradient
       gradientUnits="userSpaceOnUse"
       xlink:href="#linearGradient3299"
       id="radialGradient4375"
       fy="14.9375"
       fx="11.3125"
       r="1.4375"
       cy="14.9375"
       cx="11.3125" />
    <linearGradient
       gradientTransform="matrix(0.81330712,0,0,0.81132563,3.9935431,2.0281849)"
       gradientUnits="userSpaceOnUse"
       xlink:href="#linearGradient3289"
       id="linearGradient4373"
       y2="24.5"
       x2="19.25"
       y1="9.9419422"
       x1="13.125" />
    <linearGradient
       gradientTransform="matrix(0.81330712,0,0,0.81132563,3.9935431,2.0281849)"
       gradientUnits="userSpaceOnUse"
       xlink:href="#linearGradient3273"
       id="linearGradient4371"
       y2="24"
       x2="16"
       y1="10.441942"
       x1="11" />
    <linearGradient
       gradientTransform="matrix(1,0,0,1.25,0,4.4017878)"
       gradientUnits="userSpaceOnUse"
       xlink:href="#linearGradient3260"
       id="linearGradient4326"
       y2="11.924657"
       x2="48"
       y1="16"
       x1="48" />
    <linearGradient
       gradientTransform="translate(0,-0.67856979)"
       gradientUnits="userSpaceOnUse"
       xlink:href="#linearGradient4314"
       id="linearGradient4320"
       y2="20.329885"
       x2="50.464287"
       y1="16.035713"
       x1="50.464287" />
    <linearGradient
       gradientTransform="matrix(1,0,0,1.25,0,-4.5982122)"
       gradientUnits="userSpaceOnUse"
       xlink:href="#linearGradient3260"
       id="linearGradient4310"
       y2="11.924657"
       x2="48"
       y1="16"
       x1="48" />
    <linearGradient
       gradientTransform="matrix(0.72413795,0,0,0.75,1.6551725,4.5)"
       gradientUnits="userSpaceOnUse"
       xlink:href="#linearGradient3260"
       id="linearGradient4262"
       y2="34.001266"
       x2="43.476658"
       y1="26"
       x1="43.476658" />
    <linearGradient
       gradientUnits="userSpaceOnUse"
       id="linearGradient3260">
      <stop
         offset="0"
         style="stop-color:#000000;stop-opacity:1"
         id="stop3262" />
      <stop
         offset="0.2"
         style="stop-color:#000000;stop-opacity:0.3548387"
         id="stop3266" />
      <stop
         offset="0.55254942"
         style="stop-color:#000000;stop-opacity:0"
         id="stop3268" />
      <stop
         offset="1"
         style="stop-color:#000000;stop-opacity:0"
         id="stop3264" />
    </linearGradient>
    <linearGradient
       id="linearGradient3289">
      <stop
         offset="0"
         style="stop-color:#919191;stop-opacity:1"
         id="stop3291" />
      <stop
         offset="1"
         style="stop-color:#232323;stop-opacity:1"
         id="stop3293" />
    </linearGradient>
    <linearGradient
       id="linearGradient3273">
      <stop
         offset="0"
         style="stop-color:#5d5d5d;stop-opacity:1"
         id="stop3275" />
      <stop
         offset="1"
         style="stop-color:#171717;stop-opacity:1"
         id="stop3277" />
    </linearGradient>
    <linearGradient
       id="linearGradient3299">
      <stop
         offset="0"
         style="stop-color:#dfdfdf;stop-opacity:1"
         id="stop3301" />
      <stop
         offset="1"
         style="stop-color:#434343;stop-opacity:1"
         id="stop3303" />
    </linearGradient>
    <linearGradient
       id="linearGradient3187">
      <stop
         offset="0"
         style="stop-color:#282828;stop-opacity:1"
         id="stop3189-3" />
      <stop
         offset="1"
         style="stop-color:#5a5a5a;stop-opacity:1"
         id="stop3191-6" />
    </linearGradient>
    <linearGradient
       gradientUnits="userSpaceOnUse"
       xlink:href="#linearGradient3187"
       id="linearGradient3617"
       y2="5.9877172"
       x2="48"
       y1="90"
       x1="48" />
    <clipPath
       id="clipPath3613-4">
      <rect
         style="fill:#ffffff;fill-opacity:1;fill-rule:nonzero;stroke:none"
         id="rect3615-50"
         y="6"
         x="6"
         ry="6"
         rx="6"
         height="84"
         width="84" />
    </clipPath>
    <radialGradient
       gradientTransform="matrix(1.1573129,0,0,0.99590774,-7.5510206,0.19713193)"
       gradientUnits="userSpaceOnUse"
       xlink:href="#linearGradient3737-6"
       id="radialGradient3619-8"
       fy="90.171875"
       fx="48"
       r="42"
       cy="90.171875"
       cx="48" />
    <linearGradient
       gradientUnits="userSpaceOnUse"
       xlink:href="#linearGradient3737-6"
       id="linearGradient3613-7"
       y2="138.66119"
       x2="48"
       y1="20.220806"
       x1="48" />
    <filter
       id="filter3794-9"
       color-interpolation-filters="sRGB"
       height="1.3839999"
       width="1.3839999"
       y="-0.192"
       x="-0.192">
      <feGaussianBlur
         stdDeviation="5.28"
         id="feGaussianBlur3796-4" />
    </filter>
    <linearGradient
       gradientUnits="userSpaceOnUse"
       xlink:href="#linearGradient3737-6"
       id="linearGradient3188-1"
       y2="63.893143"
       x2="36.357143"
       y1="6"
       x1="36.357143" />
    <filter
       id="filter3174-9"
       color-interpolation-filters="sRGB">
      <feGaussianBlur
         stdDeviation="1.71"
         id="feGaussianBlur3176-3" />
    </filter>
    <linearGradient
       id="linearGradient3737-6">
      <stop
         offset="0"
         style="stop-color:#ffffff;stop-opacity:1"
         id="stop3739-1" />
      <stop
         offset="1"
         style="stop-color:#ffffff;stop-opacity:0"
         id="stop3741-2" />
    </linearGradient>
    <linearGradient
       gradientTransform="scale(1.0058652,0.994169)"
       gradientUnits="userSpaceOnUse"
       id="ButtonShadow-9"
       y2="7.0165396"
       x2="45.447727"
       y1="92.539597"
       x1="45.447727">
      <stop
         offset="0"
         style="stop-color:#000000;stop-opacity:1"
         id="stop3750-7" />
      <stop
         offset="1"
         style="stop-color:#000000;stop-opacity:0.58823532"
         id="stop3752-3" />
    </linearGradient>
    <linearGradient
       id="linearGradient4314">
      <stop
         offset="0"
         style="stop-color:#ffffff;stop-opacity:1"
         id="stop4316" />
      <stop
         offset="0.30000001"
         style="stop-color:#ffffff;stop-opacity:0.49803922"
         id="stop4322" />
      <stop
         offset="1"
         style="stop-color:#ffffff;stop-opacity:0"
         id="stop4318" />
    </linearGradient>
    <linearGradient
       id="linearGradient3865">
      <stop
         offset="0"
         style="stop-color:#f6e2a9;stop-opacity:1"
         id="stop3867" />
      <stop
         offset="1"
         style="stop-color:#f6e3a9;stop-opacity:0"
         id="stop3869" />
    </linearGradient>
    <inkscape:perspective
       id="perspective3020"
       inkscape:persp3d-origin="48 : 32 : 1"
       inkscape:vp_z="96 : 48 : 1"
       inkscape:vp_y="0 : 1000 : 0"
       inkscape:vp_x="0 : 48 : 1"
       sodipodi:type="inkscape:persp3d" />
    <linearGradient
       inkscape:collect="always"
       xlink:href="#linearGradient3737-6"
       id="linearGradient3172"
       gradientUnits="userSpaceOnUse"
       x1="36.357143"
       y1="6"
       x2="36.357143"
       y2="63.893143"
       gradientTransform="translate(-163.81543,-37.175266)" />
    <linearGradient
       inkscape:collect="always"
       xlink:href="#linearGradient3737-6"
       id="linearGradient3225"
       gradientUnits="userSpaceOnUse"
       x1="48"
       y1="20.220806"
       x2="48"
       y2="138.66119" />
    <radialGradient
       inkscape:collect="always"
       xlink:href="#linearGradient3737-6"
       id="radialGradient3229"
       gradientUnits="userSpaceOnUse"
       gradientTransform="matrix(1.1573129,0,0,0.99590774,-171.36645,-36.978134)"
       cx="48"
       cy="90.171875"
       fx="48"
       fy="90.171875"
       r="42" />
    <linearGradient
       inkscape:collect="always"
       xlink:href="#linearGradient3865"
       id="linearGradient3249"
       gradientUnits="userSpaceOnUse"
       x1="31.642857"
       y1="25.779018"
       x2="31.642857"
       y2="69.410355"
       gradientTransform="translate(-163.81543,-37.175266)" />
    <radialGradient
       inkscape:collect="always"
       xlink:href="#linearGradient3688"
       id="radialGradient3252"
       gradientUnits="userSpaceOnUse"
       gradientTransform="matrix(1.4018647,1.2754473e-8,-1.1111112e-8,1.2212402,-183.10493,-63.042669)"
       cx="48"
       cy="85.131531"
       fx="48"
       fy="85.131531"
       r="36" />
    <linearGradient
       inkscape:collect="always"
       xlink:href="#linearGradient3187"
       id="linearGradient3255"
       gradientUnits="userSpaceOnUse"
       x1="48"
       y1="90"
       x2="48"
       y2="5.9877172"
       gradientTransform="translate(-163.81543,-37.175266)" />
    <linearGradient
       inkscape:collect="always"
       xlink:href="#ButtonShadow-0-1"
       id="linearGradient3268"
       gradientUnits="userSpaceOnUse"
       gradientTransform="translate(-163.81543,-59.824734)"
       x1="32.251034"
       y1="6.1317081"
       x2="32.251034"
       y2="90.238609" />
    <linearGradient
       inkscape:collect="always"
       xlink:href="#ButtonShadow-0-1"
       id="linearGradient3271"
       gradientUnits="userSpaceOnUse"
       gradientTransform="matrix(1.0238095,0,0,1.0119048,-164.95829,-60.896163)"
       x1="32.251034"
       y1="6.1317081"
       x2="32.251034"
       y2="90.238609" />
    <linearGradient
       inkscape:collect="always"
       xlink:href="#ButtonShadow-0-1"
       id="linearGradient3274"
       gradientUnits="userSpaceOnUse"
       gradientTransform="matrix(1.0238095,0,0,-1.0119048,-164.95829,60.896163)"
       x1="32.251034"
       y1="6.1317081"
       x2="32.251034"
       y2="90.238609" />
    <linearGradient
       inkscape:collect="always"
       xlink:href="#ButtonShadow-0-1"
       id="linearGradient3277"
       gradientUnits="userSpaceOnUse"
       gradientTransform="matrix(1.0238095,0,0,-1.0119048,-164.95829,60.896163)"
       x1="32.251034"
       y1="6.1317081"
       x2="32.251034"
       y2="90.238609" />
    <linearGradient
       inkscape:collect="always"
       xlink:href="#ButtonShadow-0-1"
       id="linearGradient3280"
       gradientUnits="userSpaceOnUse"
       gradientTransform="matrix(1.0238095,0,0,-1.0119048,-164.95829,60.896163)"
       x1="32.251034"
       y1="6.1317081"
       x2="32.251034"
       y2="90.238609" />
    <linearGradient
       inkscape:collect="always"
       xlink:href="#ButtonShadow-9"
       id="linearGradient3285"
       gradientUnits="userSpaceOnUse"
       gradientTransform="matrix(1.0058652,0,0,0.994169,-163.81543,-37.175266)"
       x1="45.447727"
       y1="92.539597"
       x2="45.447727"
       y2="7.0165396" />
    <linearGradient
       inkscape:collect="always"
       xlink:href="#linearGradient3737-6"
       id="linearGradient3295"
       gradientUnits="userSpaceOnUse"
       x1="48"
       y1="20.220806"
       x2="48"
       y2="138.66119" />
    <linearGradient
       inkscape:collect="always"
       xlink:href="#linearGradient3694"
       id="linearGradient3297"
       gradientUnits="userSpaceOnUse"
       gradientTransform="matrix(0.56904514,0,0,0.58994208,-145.2397,-8.276411)"
       x1="62.336792"
       y1="79.015236"
       x2="62.336792"
       y2="12.797539" />
  </defs>
  <metadata
     id="metadata2413">
    <rdf:RDF>
      <cc:Work
         rdf:about="">
        <dc:format>image/svg+xml</dc:format>
        <dc:type
           rdf:resource="http://purl.org/dc/dcmitype/StillImage" />
        <dc:title></dc:title>
      </cc:Work>
    </rdf:RDF>
  </metadata>
  <g
     id="layer2"
     style="display:none">
    <path
       d="M 11,7 C 7.676,7 5,9.676 5,13 l 0,73 c 0,3.324 2.676,6 6,6 l 74,0 c 3.324,0 6,-2.676 6,-6 L 91,13 C 91,9.676 88.324,7 85,7 L 11,7 z m -1,4 6,0 0,4 -6,0 0,-4 z m 70,0 6,0 0,4 -6,0 0,-4 z m -70,8 6,0 0,4 -6,0 0,-4 z m 70,0 6,0 0,4 -6,0 0,-4 z m -70,8 6,0 0,4 -6,0 0,-4 z m 70,0 6,0 0,4 -6,0 0,-4 z m -70,8 6,0 0,4 -6,0 0,-4 z m 70,0 6,0 0,4 -6,0 0,-4 z m -70,8 6,0 0,4 -6,0 0,-4 z m 70,0 6,0 0,4 -6,0 0,-4 z m -70,8 6,0 0,4 -6,0 0,-4 z m 70,0 6,0 0,4 -6,0 0,-4 z m -70,8 6,0 0,4 -6,0 0,-4 z m 70,0 6,0 0,4 -6,0 0,-4 z m -70,8 6,0 0,4 -6,0 0,-4 z m 70,0 6,0 0,4 -6,0 0,-4 z m -70,8 6,0 0,4 -6,0 0,-4 z m 70,0 6,0 0,4 -6,0 0,-4 z m -70,8 6,0 0,4 -6,0 0,-4 z m 70,0 6,0 0,4 -6,0 0,-4 z"
       inkscape:connector-curvature="0"
       id="rect3745"
       style="opacity:0.9;fill:url(#ButtonShadow);fill-opacity:1;fill-rule:nonzero;stroke:none;filter:url(#filter3174)" />
  </g>
  <g
     id="layer3"
     style="display:inline">
    <path
       d="M 12,4 C 6.4912778,4 2,8.4912778 2,14 l 0,71 c 0,5.508722 4.4912778,10 10,10 l 72,0 c 5.508722,0 10,-4.491278 10,-10 L 94,14 C 94,8.4912778 89.508722,4 84,4 L 12,4 z"
       id="path3717"
       style="opacity:0.07999998;fill:url(#linearGradient3719);fill-opacity:1;fill-rule:nonzero;stroke:none;display:inline" />
    <path
       d="M 12,5.03125 C 7.053585,5.03125 3.03125,9.053585 3.03125,14 l 0,71 c 0,4.946415 4.022335,8.96875 8.96875,8.96875 l 72,0 c 4.946415,0 8.96875,-4.022335 8.96875,-8.96875 l 0,-71 C 92.96875,9.053585 88.946415,5.03125 84,5.03125 l -72,0 z m -0.03125,7.9375 2.0625,0 0,0.0625 -2.0625,0 0,-0.0625 z m 70,0 2.0625,0 0,0.0625 -2.0625,0 0,-0.0625 z m -70,8 2.0625,0 0,0.0625 -2.0625,0 0,-0.0625 z m 70,0 2.0625,0 0,0.0625 -2.0625,0 0,-0.0625 z m -70,8 2.0625,0 0,0.0625 -2.0625,0 0,-0.0625 z m 70,0 2.0625,0 0,0.0625 -2.0625,0 0,-0.0625 z m -70,8 2.0625,0 0,0.0625 -2.0625,0 0,-0.0625 z m 70,0 2.0625,0 0,0.0625 -2.0625,0 0,-0.0625 z m -70,8 2.0625,0 0,0.0625 -2.0625,0 0,-0.0625 z m 70,0 2.0625,0 0,0.0625 -2.0625,0 0,-0.0625 z m -70,8 2.0625,0 0,0.0625 -2.0625,0 0,-0.0625 z m 70,0 2.0625,0 0,0.0625 -2.0625,0 0,-0.0625 z m -70,8 2.0625,0 0,0.0625 -2.0625,0 0,-0.0625 z m 70,0 2.0625,0 0,0.0625 -2.0625,0 0,-0.0625 z m -70,8 2.0625,0 0,0.0625 -2.0625,0 0,-0.0625 z m 70,0 2.0625,0 0,0.0625 -2.0625,0 0,-0.0625 z m -70,8 2.0625,0 0,0.0625 -2.0625,0 0,-0.0625 z m 70,0 2.0625,0 0,0.0625 -2.0625,0 0,-0.0625 z m -70,8 2.0625,0 0,0.0625 -2.0625,0 0,-0.0625 z m 70,0 2.0625,0 0,0.0625 -2.0625,0 0,-0.0625 z"
       id="path3709"
       style="opacity:0.1;fill:url(#linearGradient3711);fill-opacity:1;fill-rule:nonzero;stroke:none;display:inline" />
    <path
       d="M 12,6 C 7.5798064,6 4,9.5798064 4,14 l 0,71 c 0,4.420194 3.5798064,8 8,8 l 72,0 c 4.420194,0 8,-3.579806 8,-8 L 92,14 C 92,9.5798064 88.420194,6 84,6 L 12,6 z m -1,6 4,0 0,2 -4,0 0,-2 z m 70,0 4,0 0,2 -4,0 0,-2 z m -70,8 4,0 0,2 -4,0 0,-2 z m 70,0 4,0 0,2 -4,0 0,-2 z m -70,8 4,0 0,2 -4,0 0,-2 z m 70,0 4,0 0,2 -4,0 0,-2 z m -70,8 4,0 0,2 -4,0 0,-2 z m 70,0 4,0 0,2 -4,0 0,-2 z m -70,8 4,0 0,2 -4,0 0,-2 z m 70,0 4,0 0,2 -4,0 0,-2 z m -70,8 4,0 0,2 -4,0 0,-2 z m 70,0 4,0 0,2 -4,0 0,-2 z m -70,8 4,0 0,2 -4,0 0,-2 z m 70,0 4,0 0,2 -4,0 0,-2 z m -70,8 4,0 0,2 -4,0 0,-2 z m 70,0 4,0 0,2 -4,0 0,-2 z m -70,8 4,0 0,2 -4,0 0,-2 z m 70,0 4,0 0,2 -4,0 0,-2 z m -70,8 4,0 0,2 -4,0 0,-2 z m 70,0 4,0 0,2 -4,0 0,-2 z"
       id="path3700"
       style="opacity:0.2;fill:url(#linearGradient3702);fill-opacity:1;fill-rule:nonzero;stroke:none;display:inline" />
    <path
       d="M 12,7 C 8.122,7 5,10.122 5,14 l 0,71 c 0,3.878 3.122,7 7,7 l 72,0 c 3.878,0 7,-3.122 7,-7 L 91,14 C 91,10.122 87.878,7 84,7 L 12,7 z m -2,4 6,0 0,4 -6,0 0,-4 z m 70,0 6,0 0,4 -6,0 0,-4 z m -70,8 6,0 0,4 -6,0 0,-4 z m 70,0 6,0 0,4 -6,0 0,-4 z m -70,8 6,0 0,4 -6,0 0,-4 z m 70,0 6,0 0,4 -6,0 0,-4 z m -70,8 6,0 0,4 -6,0 0,-4 z m 70,0 6,0 0,4 -6,0 0,-4 z m -70,8 6,0 0,4 -6,0 0,-4 z m 70,0 6,0 0,4 -6,0 0,-4 z m -70,8 6,0 0,4 -6,0 0,-4 z m 70,0 6,0 0,4 -6,0 0,-4 z m -70,8 6,0 0,4 -6,0 0,-4 z m 70,0 6,0 0,4 -6,0 0,-4 z m -70,8 6,0 0,4 -6,0 0,-4 z m 70,0 6,0 0,4 -6,0 0,-4 z m -70,8 6,0 0,4 -6,0 0,-4 z m 70,0 6,0 0,4 -6,0 0,-4 z m -70,8 6,0 0,4 -6,0 0,-4 z m 70,0 6,0 0,4 -6,0 0,-4 z"
       inkscape:connector-curvature="0"
       id="rect3723"
       style="opacity:0.3;fill:url(#linearGradient3725);fill-opacity:1;fill-rule:nonzero;stroke:none;display:inline" />
    <path
       d="M 12,7 C 8.676,7 6,9.676 6,13 l 0,72 c 0,3.324 2.676,6 6,6 l 72,0 c 3.324,0 6,-2.676 6,-6 L 90,13 C 90,9.676 87.324,7 84,7 L 12,7 z m -2,4 6,0 0,4 -6,0 0,-4 z m 70,0 6,0 0,4 -6,0 0,-4 z m -70,8 6,0 0,4 -6,0 0,-4 z m 70,0 6,0 0,4 -6,0 0,-4 z m -70,8 6,0 0,4 -6,0 0,-4 z m 70,0 6,0 0,4 -6,0 0,-4 z m -70,8 6,0 0,4 -6,0 0,-4 z m 70,0 6,0 0,4 -6,0 0,-4 z m -70,8 6,0 0,4 -6,0 0,-4 z m 70,0 6,0 0,4 -6,0 0,-4 z m -70,8 6,0 0,4 -6,0 0,-4 z m 70,0 6,0 0,4 -6,0 0,-4 z m -70,8 6,0 0,4 -6,0 0,-4 z m 70,0 6,0 0,4 -6,0 0,-4 z m -70,8 6,0 0,4 -6,0 0,-4 z m 70,0 6,0 0,4 -6,0 0,-4 z m -70,8 6,0 0,4 -6,0 0,-4 z m 70,0 6,0 0,4 -6,0 0,-4 z m -70,8 6,0 0,4 -6,0 0,-4 z m 70,0 6,0 0,4 -6,0 0,-4 z"
       inkscape:connector-curvature="0"
       id="rect3716"
       style="opacity:0.45;fill:url(#linearGradient3721);fill-opacity:1;fill-rule:nonzero;stroke:none;display:inline" />
  </g>
  <rect
     style="fill:url(#radialGradient4002);fill-opacity:1;stroke:none"
     id="rect3796"
     y="24"
     x="20"
     ry="2.0999999"
     rx="2"
     height="48"
     width="56" />
  <path
     style="fill:url(#radialGradient3999);fill-opacity:1;stroke:none"
     id="rect3822"
     inkscape:connector-curvature="0"
     d="m 22,78 c -1.108,0 -2,0.93035 -2,2.09375 L 20,90 76,90 76,80.09375 C 76,78.93035 75.108,78 74,78 l -52,0 z" />
  <path
     style="fill:url(#radialGradient3996);fill-opacity:1;stroke:none"
     id="path3830"
     inkscape:connector-curvature="0"
     d="m 22,18 c -1.108,0 -2,-0.93035 -2,-2.09375 L 20,6 76,6 76,15.90625 C 76,17.06965 75.108,18 74,18 l -52,0 z" />
  <path
     style="opacity:0.7;fill:url(#linearGradient3993);fill-opacity:1;stroke:none"
     id="rect3912"
     inkscape:connector-curvature="0"
     d="m 20,48 0,21.90625 C 20,71.06965 20.892,72 22,72 l 52,0 c 1.108,0 2,-0.93035 2,-2.09375 L 76,48 20,48 z m 2,30 c -1.108,0 -2,0.93035 -2,2.09375 L 20,90 76,90 76,80.09375 C 76,78.93035 75.108,78 74,78 l -52,0 z" />
  <g
     inkscape:groupmode="layer"
     id="layer9"
     inkscape:label="Layer"
     style="display:inline">
    <g
       id="layer5"
       style="display:inline">
      <rect
         width="66"
         height="66"
         rx="12"
         ry="12"
         x="15"
         y="15"
         clip-path="url(#clipPath3613-6)"
         id="rect3171"
         style="opacity:0.1;fill:url(#linearGradient3613-5);fill-opacity:1;fill-rule:nonzero;stroke:#ffffff;stroke-width:0.5;stroke-linecap:round;stroke-linejoin:miter;stroke-miterlimit:4;stroke-opacity:1;stroke-dasharray:none;stroke-dashoffset:0;filter:url(#filter3794-6)" />
      <path
         d="M 12,6 C 8.676,6 6,8.676 6,12 l 0,2 0,68 0,2 c 0,0.334721 0.04135,0.6507 0.09375,0.96875 0.0487,0.295596 0.09704,0.596915 0.1875,0.875 0.00988,0.03038 0.020892,0.0636 0.03125,0.09375 0.098865,0.287771 0.2348802,0.547452 0.375,0.8125 0.1445918,0.273507 0.3156161,0.535615 0.5,0.78125 0.1843839,0.245635 0.3737765,0.473472 0.59375,0.6875 0.439947,0.428056 0.94291,0.814526 1.5,1.09375 0.278545,0.139612 0.5734731,0.246947 0.875,0.34375 -0.2562018,-0.100222 -0.4867109,-0.236272 -0.71875,-0.375 -0.00741,-0.0044 -0.023866,0.0045 -0.03125,0 -0.031933,-0.0193 -0.062293,-0.04251 -0.09375,-0.0625 -0.120395,-0.0767 -0.2310226,-0.163513 -0.34375,-0.25 -0.1061728,-0.0808 -0.2132809,-0.161112 -0.3125,-0.25 C 8.4783201,88.557317 8.3087904,88.373362 8.15625,88.1875 8.0486711,88.057245 7.9378561,87.922215 7.84375,87.78125 7.818661,87.74287 7.805304,87.69538 7.78125,87.65625 7.716487,87.553218 7.6510225,87.451733 7.59375,87.34375 7.4927417,87.149044 7.3880752,86.928049 7.3125,86.71875 7.30454,86.69694 7.288911,86.6782 7.28125,86.65625 7.2494249,86.5643 7.2454455,86.469419 7.21875,86.375 7.1884177,86.268382 7.1483606,86.171969 7.125,86.0625 7.0521214,85.720988 7,85.364295 7,85 L 7,83 7,15 7,13 C 7,10.218152 9.2181517,8 12,8 l 2,0 68,0 2,0 c 2.781848,0 5,2.218152 5,5 l 0,2 0,68 0,2 c 0,0.364295 -0.05212,0.720988 -0.125,1.0625 -0.04415,0.206893 -0.08838,0.397658 -0.15625,0.59375 -0.0077,0.02195 -0.0233,0.04069 -0.03125,0.0625 -0.06274,0.173739 -0.138383,0.367449 -0.21875,0.53125 -0.04158,0.0828 -0.07904,0.169954 -0.125,0.25 -0.0546,0.09721 -0.126774,0.18835 -0.1875,0.28125 -0.09411,0.140965 -0.204921,0.275995 -0.3125,0.40625 -0.143174,0.17445 -0.303141,0.346998 -0.46875,0.5 -0.01117,0.0102 -0.01998,0.02115 -0.03125,0.03125 -0.138386,0.125556 -0.285091,0.234436 -0.4375,0.34375 -0.102571,0.07315 -0.204318,0.153364 -0.3125,0.21875 -0.0074,0.0045 -0.02384,-0.0044 -0.03125,0 -0.232039,0.138728 -0.462548,0.274778 -0.71875,0.375 0.301527,-0.0968 0.596455,-0.204138 0.875,-0.34375 0.55709,-0.279224 1.060053,-0.665694 1.5,-1.09375 0.219973,-0.214028 0.409366,-0.441865 0.59375,-0.6875 0.184384,-0.245635 0.355408,-0.507743 0.5,-0.78125 0.14012,-0.265048 0.276135,-0.524729 0.375,-0.8125 0.01041,-0.03078 0.02133,-0.06274 0.03125,-0.09375 0.09046,-0.278085 0.1388,-0.579404 0.1875,-0.875 C 89.95865,84.6507 90,84.334721 90,84 l 0,-2 0,-68 0,-2 C 90,8.676 87.324,6 84,6 L 12,6 z"
         inkscape:connector-curvature="0"
         id="rect3728"
         style="opacity:0.25;fill:url(#linearGradient3188-3);fill-opacity:1;fill-rule:nonzero;stroke:none" />
      <path
         d="M 12,90 C 8.676,90 6,87.324 6,84 L 6,82 6,14 6,12 c 0,-0.334721 0.04135,-0.6507 0.09375,-0.96875 0.0487,-0.295596 0.09704,-0.596915 0.1875,-0.875 C 6.29113,10.12587 6.302142,10.09265 6.3125,10.0625 6.411365,9.774729 6.5473802,9.515048 6.6875,9.25 6.8320918,8.976493 7.0031161,8.714385 7.1875,8.46875 7.3718839,8.223115 7.5612765,7.995278 7.78125,7.78125 8.221197,7.353194 8.72416,6.966724 9.28125,6.6875 9.559795,6.547888 9.8547231,6.440553 10.15625,6.34375 9.9000482,6.443972 9.6695391,6.580022 9.4375,6.71875 c -0.00741,0.0044 -0.023866,-0.0045 -0.03125,0 -0.031933,0.0193 -0.062293,0.04251 -0.09375,0.0625 -0.120395,0.0767 -0.2310226,0.163513 -0.34375,0.25 -0.1061728,0.0808 -0.2132809,0.161112 -0.3125,0.25 C 8.4783201,7.442683 8.3087904,7.626638 8.15625,7.8125 8.0486711,7.942755 7.9378561,8.077785 7.84375,8.21875 7.818661,8.25713 7.805304,8.30462 7.78125,8.34375 7.716487,8.446782 7.6510225,8.548267 7.59375,8.65625 7.4927417,8.850956 7.3880752,9.071951 7.3125,9.28125 7.30454,9.30306 7.288911,9.3218 7.28125,9.34375 7.2494249,9.4357 7.2454455,9.530581 7.21875,9.625 7.1884177,9.731618 7.1483606,9.828031 7.125,9.9375 7.0521214,10.279012 7,10.635705 7,11 l 0,2 0,68 0,2 c 0,2.781848 2.2181517,5 5,5 l 2,0 68,0 2,0 c 2.781848,0 5,-2.218152 5,-5 l 0,-2 0,-68 0,-2 C 89,10.635705 88.94788,10.279012 88.875,9.9375 88.83085,9.730607 88.78662,9.539842 88.71875,9.34375 88.71105,9.3218 88.69545,9.30306 88.6875,9.28125 88.62476,9.107511 88.549117,8.913801 88.46875,8.75 88.42717,8.6672 88.38971,8.580046 88.34375,8.5 88.28915,8.40279 88.216976,8.31165 88.15625,8.21875 88.06214,8.077785 87.951329,7.942755 87.84375,7.8125 87.700576,7.63805 87.540609,7.465502 87.375,7.3125 87.36383,7.3023 87.35502,7.29135 87.34375,7.28125 87.205364,7.155694 87.058659,7.046814 86.90625,6.9375 86.803679,6.86435 86.701932,6.784136 86.59375,6.71875 c -0.0074,-0.0045 -0.02384,0.0044 -0.03125,0 -0.232039,-0.138728 -0.462548,-0.274778 -0.71875,-0.375 0.301527,0.0968 0.596455,0.204138 0.875,0.34375 0.55709,0.279224 1.060053,0.665694 1.5,1.09375 0.219973,0.214028 0.409366,0.441865 0.59375,0.6875 0.184384,0.245635 0.355408,0.507743 0.5,0.78125 0.14012,0.265048 0.276135,0.524729 0.375,0.8125 0.01041,0.03078 0.02133,0.06274 0.03125,0.09375 0.09046,0.278085 0.1388,0.579404 0.1875,0.875 C 89.95865,11.3493 90,11.665279 90,12 l 0,2 0,68 0,2 c 0,3.324 -2.676,6 -6,6 l -72,0 z"
         inkscape:connector-curvature="0"
         id="path3615"
         style="opacity:0.15;fill:url(#radialGradient3619-7);fill-opacity:1;fill-rule:nonzero;stroke:none" />
      <path
         d="M 12,6 C 8.676,6 6,8.676 6,12 L 6,58.375 C 8.8979865,56.836504 11.906015,55.371075 15.0625,54 L 10,54 l 0,-4 6,0 0,3.59375 C 36.054591,45.059076 60.988764,40 88,40 c 0.669441,0 1.333162,0.02506 2,0.03125 L 90,12 C 90,8.676 87.324,6 84,6 L 12,6 z m -2,4 6,0 0,4 -6,0 0,-4 z m 70,0 6,0 0,4 -6,0 0,-4 z m -70,8 6,0 0,4 -6,0 0,-4 z m 70,0 6,0 0,4 -6,0 0,-4 z m -70,8 6,0 0,4 -6,0 0,-4 z m 70,0 6,0 0,4 -6,0 0,-4 z m -70,8 6,0 0,4 -6,0 0,-4 z m 70,0 6,0 0,4 -6,0 0,-4 z m -70,8 6,0 0,4 -6,0 0,-4 z"
         id="path3757"
         style="opacity:0.4;fill:url(#radialGradient4048);fill-opacity:1;fill-rule:nonzero;stroke:none;display:inline" />
    </g>
    <path
       style="fill:url(#linearGradient4143);fill-opacity:1;fill-rule:nonzero;stroke:none;display:inline"
       d="M 12,6 C 8.676,6 6,8.676 6,12 l 0,72 c 0,3.324 2.676,6 6,6 l 8,0 0,-9.90625 C 20,78.93035 20.892,78 22,78 l 52,0 c 1.108,0 2,0.93035 2,2.09375 L 76,90 l 8,0 c 3.324,0 6,-2.676 6,-6 L 90,12 C 90,8.676 87.324,6 84,6 l -8,0 0,9.90625 C 76,17.06965 75.108,18 74,18 l -52,0 c -1.108,0 -2,-0.93035 -2,-2.09375 L 20,6 12,6 z m -2,4 6,0 0,4 -6,0 0,-4 z m 70,0 6,0 0,4 -6,0 0,-4 z m -70,8 6,0 0,4 -6,0 0,-4 z m 70,0 6,0 0,4 -6,0 0,-4 z m -58,6 52,0 c 1.108,0 2,0.93035 2,2.09375 L 76,48 76,69.90625 C 76,71.06965 75.108,72 74,72 l -52,0 c -0.684055,0 -1.295929,-0.359297 -1.65625,-0.90625 -0.0048,-0.0074 0.0047,-0.02375 0,-0.03125 -0.138443,-0.215523 -0.25785,-0.455822 -0.3125,-0.71875 -0.0019,-0.0097 0.0018,-0.02145 0,-0.03125 C 20.0047,70.175549 20,70.051675 20,69.90625 L 20,48 20,26.09375 C 20,24.93035 20.892,24 22,24 z m -12,2 6,0 0,4 -6,0 0,-4 z m 70,0 6,0 0,4 -6,0 0,-4 z m -70,8 6,0 0,4 -6,0 0,-4 z m 70,0 6,0 0,4 -6,0 0,-4 z m -70,8 6,0 0,4 -6,0 0,-4 z m 70,0 6,0 0,4 -6,0 0,-4 z m -70,8 6,0 0,4 -6,0 0,-4 z m 70,0 6,0 0,4 -6,0 0,-4 z m -70,8 6,0 0,4 -6,0 0,-4 z m 70,0 6,0 0,4 -6,0 0,-4 z m -70,8 6,0 0,4 -6,0 0,-4 z m 70,0 6,0 0,4 -6,0 0,-4 z m -70,8 6,0 0,4 -6,0 0,-4 z m 70,0 6,0 0,4 -6,0 0,-4 z m -70,8 6,0 0,4 -6,0 0,-4 z m 70,0 6,0 0,4 -6,0 0,-4 z"
       id="rect3684" />
  </g>
  <rect
     style="opacity:0.9;fill:url(#linearGradient3285);fill-opacity:1;fill-rule:nonzero;stroke:none;display:none;filter:url(#filter3174-9)"
     id="rect3745-1"
     y="-30.175266"
     x="-158.81543"
     ry="6"
     rx="6"
     height="85"
     width="86" />
  <g
     id="g3290"
     transform="translate(163.81085,29.160554)">
    <path
       d="m -100.06543,-2.050266 c -6.72318,-0.227927 -13.0268,3.809899 -16.54624,9.386851 -2.35519,3.470814 -3.57617,7.514627 -4.72779,11.500837 -1.35279,3.897916 -3.42212,8.138396 -7.43731,9.838883 -0.99402,0.573691 -2.13977,0.266565 -3.16366,0.460929 -0.943,0.352073 -0.93995,1.435863 -0.875,2.282051 0.022,2.413669 -0.0432,4.847925 0.0312,7.249199 0.22868,0.923245 1.29917,1.15911 2.14606,1.042149 5.81389,0.03215 11.23171,-3.316576 14.47789,-8.025527 1.6482,-2.295656 2.89587,-4.860081 3.8448,-7.516622 2.86194,-0.02163 5.74418,0.04275 8.59375,-0.03125 0.8848,-0.198272 1.17114,-1.173217 1.03125,-1.990117 -0.0216,-2.511059 0.0428,-5.042438 -0.0312,-7.541133 -0.19827,-0.884804 -1.17322,-1.171142 -1.99012,-1.03125 -1.02412,0 -2.04825,0 -3.07238,0 1.24095,-3.115041 4.52751,-5.208176 7.875,-5.03125 0.853995,-0.190624 1.250889,-1.088485 1.09375,-1.913639 -0.02189,-2.557329 0.04311,-5.135169 -0.03125,-7.680111 -0.152867,-0.529787 -0.644325,-0.99354 -1.21875,-1 z"
       inkscape:connector-curvature="0"
       id="path3865"
       style="opacity:0.1;fill:#ffffff;fill-opacity:1;stroke:none" />
    <path
       d="m -100.12793,-1.300266 c 0,0 -3.68884,-0.292416 -7.96875,1.84375 -4.27991,2.136166 -9.20538,6.729109 -11.8125,16.25 -2.02327,7.38875 -4.95346,10.56687 -7.3125,11.96875 -1.17952,0.70094 -2.22638,0.97692 -2.96875,1.0625 -0.74237,0.08558 -1.125,0 -1.125,0 a 0.63438363,0.63438363 0 0 0 -0.75,0.625 l 0,7.84375 a 0.63438363,0.63438363 0 0 0 0.5625,0.625 c 0,0 3.35937,0.410382 7.375,-1.40625 3.93789,-1.781464 8.4931,-5.788514 11.3125,-14.09375 l 8.75,0 a 0.63438363,0.63438363 0 0 0 0.625,-0.625 l 0,-7.84375 a 0.63438363,0.63438363 0 0 0 -0.625,-0.625 l -5,0 c 0.24419,-0.673034 0.65877,-1.65475 1.5625,-2.84375 1.38418,-1.821104 3.5984,-3.622238 7.3125,-3.6875 a 0.63438363,0.63438363 0 0 0 0.625,-0.625 l 0,-7.84375 a 0.63438363,0.63438363 0 0 0 -0.5625,-0.625 z"
       id="path3859"
       style="opacity:0.2;fill:#ffffff;fill-opacity:1;stroke:none" />
    <path
       d="m -100.20482,-0.675686 0,7.850903 c -7.83852,0.137735 -9.76493,7.782037 -9.76493,7.782037 l 5.9121,0 0,7.850904 -9.16708,0 c -5.51354,17.010291 -18.20131,15.495205 -18.20131,15.495205 l 0,-7.850904 c 0,0 8.05117,1.493552 12.15635,-13.498046 5.13519,-18.753121 19.06487,-17.630099 19.06487,-17.630099 z"
       inkscape:connector-curvature="0"
       id="path3727"
       style="fill:url(#linearGradient3297);fill-opacity:1;stroke:none" />
  </g>
</svg>
