/* XPM */
static char *desktop[] = {
/* columns rows colors chars-per-pixel */
"22 22 219 2 ",
"   c #000000",
".  c #091A39",
"X  c #222222",
"o  c #282828",
"O  c #2B2F34",
"+  c #2D3139",
"@  c #3F3F3F",
"#  c #1F334D",
"$  c #1C3353",
"%  c #193156",
"&  c #212F47",
"*  c #22324A",
"=  c #343940",
"-  c #0B2E71",
";  c #0B3075",
":  c #183A78",
">  c #3F4144",
",  c #1F417F",
"<  c #2C4363",
"1  c #254575",
"2  c #234779",
"3  c #395275",
"4  c #3B557B",
"5  c #404040",
"6  c #42464A",
"7  c #404C5E",
"8  c #4D5055",
"9  c #525252",
"0  c #5E5E5E",
"q  c #43567B",
"w  c #626263",
"e  c #66686A",
"r  c #666C73",
"t  c #747474",
"y  c #727479",
"u  c #7A7A7A",
"i  c #FF2A2A",
"p  c #579B2B",
"a  c #FFCC00",
"s  c #D1A85F",
"d  c #D9B97D",
"f  c #0F3B8C",
"g  c #103C8D",
"h  c #103D8F",
"j  c #113E8F",
"k  c #103D90",
"l  c #1F4A8A",
"z  c #124092",
"x  c #164394",
"c  c #144396",
"v  c #144495",
"b  c #154698",
"n  c #164799",
"m  c #17489A",
"M  c #17499B",
"N  c #1B4D9D",
"B  c #194C9F",
"V  c #1A4C9E",
"C  c #1B4D9E",
"Z  c #1A4C9F",
"A  c #2D5187",
"S  c #315385",
"D  c #36568B",
"F  c #245595",
"G  c #275897",
"H  c #21569F",
"J  c #25579C",
"K  c #1B4FA2",
"L  c #1C50A2",
"P  c #1D51A2",
"I  c #1C50A3",
"U  c #1F54A3",
"Y  c #1C51A4",
"T  c #1D52A4",
"R  c #1D52A5",
"E  c #1E53A6",
"W  c #1F55A8",
"Q  c #2156A7",
"!  c #2556A4",
"~  c #2E5CA6",
"^  c #2158AA",
"/  c #2159AC",
"(  c #235BAE",
")  c #245DB0",
"_  c #2B60AF",
"`  c #3D65A5",
"'  c #3561A9",
"]  c #3C66AA",
"[  c #3B6BAE",
"{  c #2964B3",
"}  c #2863B7",
"|  c #2A66BA",
" . c #2F67B8",
".. c #2E6AB8",
"X. c #3465B0",
"o. c #3B69B0",
"O. c #386CB7",
"+. c #3E6EB6",
"@. c #306EBC",
"#. c #3D71BD",
"$. c #44689B",
"%. c #466CAD",
"&. c #4C71A5",
"*. c #5B7BA7",
"=. c #5178AE",
"-. c #527FBE",
";. c #2F6EC3",
":. c #2F6FC3",
">. c #3370C2",
",. c #3273C7",
"<. c #3774C5",
"1. c #3A73C1",
"2. c #3274C8",
"3. c #3476CB",
"4. c #3577CC",
"5. c #3578CD",
"6. c #367ACF",
"7. c #377BD0",
"8. c #397FD4",
"9. c #467BC4",
"0. c #7D899A",
"q. c #5382BF",
"w. c #5F83BC",
"e. c #6083BC",
"r. c #6085BE",
"t. c #6086BF",
"y. c #3A80D5",
"u. c #3A81D6",
"i. c #3F87DD",
"p. c #3F88DD",
"a. c #5482C0",
"s. c #5083C6",
"d. c #5685C5",
"f. c #5487CA",
"g. c #5588CB",
"h. c #5589CC",
"j. c #578ACC",
"k. c #588BCD",
"l. c #5A8BCC",
"z. c #5B8CCC",
"x. c #638AC4",
"c. c #688CC3",
"v. c #658DC8",
"b. c #6790CA",
"n. c #6791CB",
"m. c #6A93CC",
"M. c #6994CF",
"N. c #7698C9",
"B. c #789ACC",
"V. c #6B96D0",
"C. c #6B96D1",
"Z. c #6D9AD6",
"A. c #6E9BD6",
"S. c #6E9CD6",
"D. c #6E9CD7",
"F. c #71A0DC",
"G. c #71A1DC",
"H. c #72A1DC",
"J. c #72A1DD",
"K. c #74A4DF",
"L. c #74A4E0",
"P. c #75A7E3",
"I. c #7AADE9",
"U. c #7AAEEA",
"Y. c #878787",
"T. c #898989",
"R. c #8D8D8D",
"E. c #8F8F8F",
"W. c #848991",
"Q. c #939393",
"!. c #939495",
"~. c #949494",
"^. c #98999A",
"/. c #9A9A9A",
"(. c #9E9E9E",
"). c #8F98A3",
"_. c #A1A3A5",
"`. c #A3A4A6",
"'. c #A4A4A4",
"]. c #A5A5A5",
"[. c #A9A9A9",
"{. c #AEAEAE",
"}. c #B0B0B0",
"|. c #B1B1B1",
" X c #B3B3B3",
".X c #B4B4B4",
"XX c #B9B9B9",
"oX c #BDBDBD",
"OX c #BEBEBE",
"+X c #BFBFBF",
"@X c #83A5D7",
"#X c #89ABD8",
"$X c #C2C2C2",
"%X c #C3C3C3",
"&X c #C3C3C4",
"*X c #C4C4C4",
"=X c #C5C5C6",
"-X c #C6C6C6",
";X c #C7C7C7",
":X c #C9C9C9",
">X c #CCCCCC",
",X c #CECECE",
"<X c #D1D1D1",
"1X c #D3D3D3",
"2X c #D6D6D6",
"3X c #D7D7D7",
"4X c #D8D8D8",
"5X c #D9D9D9",
"6X c #DBDBDB",
"7X c #DDDDDD",
"8X c #DEDEDE",
"9X c #E3E3E3",
"0X c #E2E3E4",
"qX c #E5E5E5",
"wX c #E6E6E6",
"eX c #EBEBEB",
"rX c #F3F3F3",
"tX c #F8F8F8",
"yX c None",
/* pixels */
"yXyXyXyXyXyXyXyXyXyXyXyXyXyXyXyXyXyXyXyXyXyX",
"yXyXrXtXtXtXtXtXtXtXtXtXtXtXtXtXtXtXtXrXyXyX",
"yXeX=X!.~.~.~.~.~.~.~.~.~.~.~.~.~.~.~.=XeXyX",
"yXqX^.: ; ; ; ; ; ; ; ; ; ; ; ; ; ; : ^.qXyX",
"yX7X(.; f g g g g g g #Xk.k.h.h.f.s.; Q.3XyX",
"yX6X].; g d d k k g k N.k.z.l.l.k.q.q =X|.X ",
"yX6X].; g s s g k g k %.m.d.d.q.*.).`.Q.9 yX",
"yX2X{.; g g k k k k g x B.-.=.0._.].w o u yX",
"yX1X X; f f z z v n m n c.&.W.|.t O . /.1XyX",
"yX<XXX; f {.{.m Z L L Z 4 y R.> & D - XX1XyX",
"yX,XOX; z T.T.Y W ^ l 7 0 + * S ` ] ; OX>XyX",
"yX>X%X; v B U / H < e = % $.[ +.o.' ; &X>XyX",
"yX:X:X; n U W 2 r > % N { 9.#.O.' ~ ; :X:XyX",
"yX;X,X; Z U 3 8 $ J @.5.,.<.1. .{ ! ; ,X;XyX",
"yX%X1X; N A 2 J @.6.u.8.5.2.>.} ( I - 1X=XyX",
"yX$X6X; P @Xp @.5.u.p.h.u.5.:.| ) R ; 6X$XyX",
"yXOX7X; t.i a A.H.P.U.U.P.H.A.V.v.d.- 8X+XyX",
"yXOX9X; w.x.b.V.S.H.K.K.H.D.V.m.c.e.- 9XOXyX",
"yX.X0X, ; ; ; ; ; ; ; ; ; ; ; ; - - l 9X.XyX",
"yXE.*X0XwXwXqXqXwXwXwXwXqXwXwXwXwXwX9X$XE.yX",
"yX5 T./././././././././././.^.^./././.Y.5 yX",
"yXyXyX                                yXyXyX"
};
