/* XPM */
static char *font[] = {
/* columns rows colors chars-per-pixel */
"24 24 112 2 ",
"   c #000000",
".  c #2D4978",
"X  c #2E4A79",
"o  c #304C7B",
"O  c #334F7E",
"+  c #676767",
"@  c #365281",
"#  c #395584",
"$  c #3C5887",
"%  c #3F5B8A",
"&  c #435D88",
"*  c #435D8A",
"=  c #445E8A",
"-  c #425E8D",
";  c #48618C",
":  c #51678B",
">  c #456190",
",  c #4B6590",
"<  c #486493",
"1  c #4B6694",
"2  c #4B6796",
"3  c #4F6892",
"4  c #4E6894",
"5  c #4E6A99",
"6  c #556F9B",
"7  c #516D9C",
"8  c #526E9D",
"9  c #54709F",
"0  c #5C7298",
"q  c #5C7399",
"w  c #5C759E",
"e  c #687C9D",
"r  c #647BA1",
"t  c #677EA5",
"y  c #6F85AB",
"u  c #7183A2",
"i  c #7587A5",
"p  c #7387A8",
"a  c #758BAF",
"s  c #768BAF",
"d  c #7B8EAD",
"f  c #7B8EAE",
"g  c #8393AD",
"h  c #8395B2",
"j  c #8897B0",
"k  c #8899B5",
"l  c #94A2BB",
"z  c #97A4BA",
"x  c #97A5BE",
"c  c #9BA9C0",
"v  c #98A8C2",
"b  c #A3AFC4",
"n  c #A5B0C3",
"m  c #A6B1C2",
"M  c #BAC3D0",
"N  c #B9C3D3",
"B  c #BAC3D2",
"V  c #BCC4D1",
"C  c #C5C7CA",
"Z  c #C3C7CF",
"A  c #CBCBCB",
"S  c #C4CAD5",
"D  c #C4CBD6",
"F  c #C4CBD8",
"G  c #CDD3DE",
"H  c #D0D0D0",
"J  c #D1D1D1",
"K  c #D2D2D2",
"L  c #D3D3D3",
"P  c #D4D4D4",
"I  c #D5D5D5",
"U  c #D6D6D6",
"Y  c #D7D7D7",
"T  c #D8D9DB",
"R  c #DBDBDB",
"E  c #DDDDDD",
"W  c #DEDEDE",
"Q  c #D5DAE3",
"!  c #DADDE4",
"~  c #DADEE4",
"^  c #DCDFE4",
"/  c #DCE0E5",
"(  c #E1E1E1",
")  c #E3E3E3",
"_  c #E0E2E6",
"`  c #E2E4E6",
"'  c #E5E5E5",
"]  c #E6E6E6",
"[  c #E7E7E7",
"{  c #E4E6E8",
"}  c #E8E8E8",
"|  c #E9E9E9",
" . c #EAEAEA",
".. c #EBEBEB",
"X. c #EBECEE",
"o. c #ECECEC",
"O. c #EDEDED",
"+. c #ECEDEE",
"@. c #EDEDEE",
"#. c #EEEEEE",
"$. c #EFEFEF",
"%. c #F0F0F0",
"&. c #F1F1F1",
"*. c #F1F1F2",
"=. c #F2F2F2",
"-. c #F3F3F3",
";. c #F4F4F4",
":. c #F5F5F5",
">. c #F6F6F6",
",. c #F9F9F9",
"<. c #FBFBFB",
"1. c None",
/* pixels */
"1.1.1.1.1.1.1.1.1.1.1.1.1.1.1.1.1.1.1.1.1.1.1.1.",
"1.1.1.1.1.1.1.1.1.1.1.1.1.1.1.1.1.1.1.1.1.1.1.1.",
"1.1.1.>.<.<.<.<.<.<.<.<.<.<.<.<.<.<.<.<.>.1.1.1.",
"1.1.$.>.=.>.=.>.>.>.>.>.=.>.>.>.>.=...>.>.$.1.1.",
"1.1.>.=.>.=.>.=.>.=.=.>.>.=.>.=.>.=.[ =.=.>.1.1.",
"1.1.=.=.>.=.=.>.=.=.[ E U k 9 m U U A [ $.=.1.1.",
"1.1.=.=.=.>.=.=.>.=.>.=.Q 8 8 v =.>.R =.=.=.1.1.",
"1.1.=.=.=.=.=.>.-.-.-.=.s y 5 s >.=.U =.=.=.1.1.",
"1.1.$.=.%.=.=.=.=.=.=.N t G 2 6 %.=.U %.=.%.1.1.",
"1.1.$.%.%.$.%.=.=.=.$.w F X.2 < ^ =.P =.%.$.1.1.",
"1.1.$.$.=.) =.%.=.=.x f =.%.r > B =.U =.%.$.1.1.",
"1.1.$.%.%.R $.=.%.~ 4 ^ %.=.h - x =.H $.$.$.1.1.",
"1.1.$.$.%.H =.%.=.f l %.$.=.b % p $.H $.$...1.1.",
"1.1.....%.H %.$.D ; ^ ` ` { M $ 3 =.U $.$.$.1.1.",
"1.1.$...$.H $.$.q = = = = = = # # _ H $.....1.1.",
"1.1.....$.H $.b 0 $.o.$.$.$.$.; @ V H $.....1.1.",
"1.1.......H { = S O.O.O.O.O.o.e O z J o.o.o.1.1.",
"1.1.[ ....A g i o.o.o.o.o.o.o.j o u P  .} } 1.1.",
"1.1.[ ( Z . X X ; J H A J C . . . . . R ) [ 1.1.",
"1.1.....} U ........$... . . . . . .W  .....1.1.",
"1.1.H ..[ R [ } [ [ [ [ [ [ [ [ } [ ( [ [ H 1.1.",
"1.1.+ H $...o.$.$.$.$...$.$.$.$.$.$. .$.H + 1.1.",
"1.1.1.1.                                1.1.1.1.",
"1.1.1.1.1.1.1.1.1.1.1.1.1.1.1.1.1.1.1.1.1.1.1.1."
};
