/* XPM */
static char *bluefish[] = {
/* columns rows colors chars-per-pixel */
"24 24 177 2 ",
"   c #000000",
".  c #1E2D27",
"X  c #1E303D",
"o  c #1F334A",
"O  c #1D3350",
"+  c #1F395F",
"@  c #263646",
"#  c #2A3C47",
"$  c #20334C",
"%  c #213857",
"&  c #203A5F",
"*  c #203F6C",
"=  c #2D404E",
"-  c #344B51",
";  c #3B5155",
":  c #3D5758",
">  c #22406C",
",  c #2E4869",
"<  c #224374",
"1  c #23467A",
"2  c #24497E",
"3  c #37567B",
"4  c #405F53",
"5  c #456558",
"6  c #496D5E",
"7  c #485E62",
"8  c #486562",
"9  c #4B6E60",
"0  c #516E6F",
"q  c #4E7063",
"w  c #567F6D",
"e  c #5B7B6E",
"r  c #44657A",
"t  c #5C7773",
"y  c #5E7C75",
"u  c #54737A",
"i  c #627E79",
"p  c #777777",
"a  c #5C8474",
"s  c #5F8876",
"d  c #618077",
"f  c #658C7C",
"g  c #688E7E",
"h  c #254C83",
"j  c #2D5385",
"k  c #26518A",
"l  c #2A558E",
"z  c #375B87",
"x  c #385F80",
"c  c #30578A",
"v  c #295795",
"b  c #2A5995",
"n  c #2C5C9C",
"m  c #355C91",
"M  c #376199",
"N  c #3F689D",
"B  c #2C5FA0",
"V  c #2C62A5",
"C  c #2D66AB",
"Z  c #2E68AE",
"A  c #3468A8",
"S  c #3C6DAB",
"D  c #2F6CB4",
"F  c #326FB6",
"G  c #306FB8",
"H  c #3172BC",
"J  c #3C77B8",
"K  c #466688",
"L  c #4D6E8B",
"P  c #5F7D81",
"I  c #52738B",
"U  c #446B9D",
"Y  c #467097",
"T  c #44709D",
"R  c #597C9A",
"E  c #777E86",
"W  c #426CA0",
"Q  c #4972A3",
"!  c #4070AA",
"~  c #4A75AB",
"^  c #4C78AD",
"/  c #5C7DA7",
"(  c #597FAC",
")  c #457DBD",
"_  c #517DB2",
"`  c #3175C2",
"'  c #5F8085",
"]  c #6B8E81",
"[  c #668288",
"{  c #6B8E8A",
"}  c #6B9080",
"|  c #729686",
" . c #739B8A",
".. c #7A9D8E",
"X. c #6F8298",
"o. c #6D919C",
"O. c #7D9F90",
"+. c #76A08E",
"@. c #7AA191",
"#. c #5A83AE",
"$. c #5686BC",
"%. c #5886BC",
"&. c #5788B9",
"*. c #5C89BF",
"=. c #6381A9",
"-. c #658CAD",
";. c #708AA8",
":. c #6A92A6",
">. c #7497A1",
",. c #6489B7",
"<. c #698CB6",
"1. c #6C99BE",
"2. c #739BB4",
"3. c #779ABA",
"4. c #77A0B5",
"5. c #7FA8BA",
"6. c #5C8CC2",
"7. c #588FCB",
"8. c #608DC1",
"9. c #6291C3",
"0. c #6495C9",
"q. c #699ACE",
"w. c #6C9ED2",
"e. c #77A2C9",
"r. c #74A6DA",
"t. c #77A9DB",
"y. c #7CACDD",
"u. c #828F9F",
"i. c #8B939E",
"p. c #9F9F9F",
"a. c #82A395",
"s. c #87A79A",
"d. c #84A99B",
"f. c #8BAA9E",
"g. c #8CAAA0",
"h. c #80A9AD",
"j. c #91AFA2",
"k. c #8DB4A5",
"l. c #8AB4AF",
"z. c #90B7A7",
"x. c #90B8A7",
"c. c #94BAAA",
"v. c #9ABBAD",
"b. c #9DA6B1",
"n. c #98A8B6",
"m. c #87B3BC",
"M. c #8AB4BC",
"N. c #92B6B3",
"B. c #9BBFB0",
"V. c #A6A8AA",
"C. c #AEAEAE",
"Z. c #A1BEB2",
"A. c #B1B1B1",
"S. c #BCBDBD",
"D. c #9DC0B2",
"F. c #A5C1B6",
"G. c #A7C6B9",
"H. c #A9C5B9",
"J. c #ADCABE",
"K. c #8EB1C3",
"L. c #94B1D5",
"P. c #AABACE",
"I. c #AECDC0",
"U. c #B1CCC1",
"Y. c #B0CACA",
"T. c #B4D1C5",
"R. c #BDD4CB",
"E. c #CDCDCD",
"W. c #C0D7CE",
"Q. c #D1E2DB",
"!. c #C8D5E6",
"~. c #D3DBE5",
"^. c #E6E6E6",
"/. c #E8E8E8",
"(. c #E5EBF4",
"). c #F3F6FA",
"_. c None",
/* pixels */
"_._._._._._._._._._._._._._._._._._._._._._._._.",
"_._._._._._._._._._._._._._._._._._._._._._._._.",
"_._._.G.J.T.Q.Q.Q.Q.I.I.I.I.Q.Q.Q.Q.T.I.G._._._.",
"_._.v.c.x.c.G.W.W.W.D.c.c.D.W.R.W.J.c.l.m.v._._.",
"_._.z.k.z.c.c.R.Y.K.3.h.c.G.R.W.R.c.m.t.:.c._._.",
"_._.c.k.h.1.&.J G F 6.0.$.2.R.W.F.N.y.r.' k._._.",
"_._.U.N.q.7.H ` H ) w.w.8._ -.J.v.5.y.w.g.I._._.",
"_._.J.3.6.G H ` ` 6.6.9.%.^ b U g.e.t.q.U.I._._.",
"_._.H.b.*.G H ` ` L.(.).!.,.N b Y L.r.6.I.F._._.",
"_._.Z.[ D G G H G ~.^.^.p V.=.v l _ w.#.F.Z._._.",
"_._.+.X.Z D D G G P.E.E.p.S./ l k h 8.I g.@._._.",
"_._.+.K C C Z F D <.A.A.C.b.N k h h U u @..._._.",
"_._...3 V C C C C A ;.i.u.#.j h h 2 m { +. ._._.",
"_._. .r B V V V V V m N S j 2 2 2 < U o.@. ._._.",
"_._.f.[ B B B B B n v k h h h 2 < < ^ R z.f._._.",
"_._.s.4.0.S n b n S $.6.h h 2 1 < $ 3 ~ o.s._._.",
"_._.a.I #._ _ _ _ _ *.M h 1 1 < % i 7 @ P a._._.",
"_._...0 U Q Q ~ ^ ~ c 2 1 1 * % y  . .] ] O._._.",
"_._.f a # , z m j 2 1 1 < * o i ..| | } f f _._.",
"_._.a s a 8 - o * > > + o @ t O...] f f a a _._.",
"_._.5 w a a ] d ; # X # : d | | | g s a a 5 _._.",
"_._.. 5 9 q e e e e 6 9 6 9 e e e e q 6 : . _._.",
"_._._._.                                _._._._.",
"_._._._._._._._._._._._._._._._._._._._._._._._."
};
