/* XPM */
static char *gtk_recordmydesktop[] = {
/* columns rows colors chars-per-pixel */
"24 24 127 2 ",
"   c #000000",
".  c #3C460C",
"X  c #69791D",
"o  c #6B7B21",
"O  c #73851A",
"+  c #76891D",
"@  c #788B1F",
"#  c #728327",
"$  c #778924",
"%  c #798D22",
"&  c #77882F",
"*  c #788A2F",
"=  c #7C9126",
"-  c #7E952A",
";  c #758D34",
":  c #798E37",
">  c #778F38",
",  c #7B9234",
"<  c #7C933D",
"1  c #80941C",
"2  c #859A1F",
"3  c #80932E",
"4  c #80992D",
"5  c #829533",
"6  c #849C31",
"7  c #8A9D36",
"8  c #849639",
"9  c #859B3C",
"0  c #899D3C",
"q  c #94A922",
"w  c #85A035",
"e  c #8EA234",
"r  c #86A239",
"t  c #8AA43A",
"y  c #8AA83D",
"u  c #90A03C",
"i  c #94AA3B",
"p  c #9AAF3B",
"a  c #A7C02A",
"s  c #ADC72C",
"d  c #AEC82F",
"f  c #ACC731",
"g  c #AFC932",
"h  c #ACC73B",
"j  c #AFC93C",
"k  c #B0CA36",
"l  c #B2CB3E",
"z  c #839B46",
"x  c #889C44",
"c  c #899F4C",
"v  c #919F42",
"b  c #8FA245",
"n  c #8AA24E",
"m  c #94AA44",
"M  c #98AD44",
"N  c #96A849",
"B  c #99AD4D",
"V  c #9FB444",
"C  c #9DB44A",
"Z  c #8EA651",
"A  c #90A551",
"S  c #95AB57",
"D  c #99AE57",
"F  c #99AB5D",
"G  c #9AB252",
"H  c #9DB35C",
"J  c #A3B84D",
"K  c #A0AF56",
"L  c #A4B653",
"P  c #A5BB54",
"I  c #A7B65B",
"U  c #A8B65E",
"Y  c #A5BA5C",
"T  c #A8BC5D",
"R  c #A4BC60",
"E  c #ACBE64",
"W  c #A0B168",
"Q  c #ADBF73",
"!  c #ACC743",
"~  c #AFC943",
"^  c #ACC54D",
"/  c #AFC94C",
"(  c #B4CC43",
")  c #B4CC4B",
"_  c #B8CF4A",
"`  c #BAD04E",
"'  c #ACC753",
"]  c #AFC954",
"[  c #ADC55C",
"{  c #AFC95D",
"}  c #B1C755",
"|  c #B7CE51",
" . c #B8CE56",
".. c #B1C65C",
"X. c #B7CE5C",
"o. c #B8CE5B",
"O. c #BAD057",
"+. c #ACC564",
"@. c #AFC862",
"#. c #ACC668",
"$. c #AFC96A",
"%. c #B4C366",
"&. c #B6CD64",
"*. c #B9CE63",
"=. c #B2CA6C",
"-. c #B9CE6B",
";. c #BCD162",
":. c #BCD06B",
">. c #B1C570",
",. c #B6CC73",
"<. c #B9CF72",
"1. c #B5C778",
"2. c #B4C87A",
"3. c #BACB7C",
"4. c #BBD170",
"5. c #BDD07F",
"6. c #C1D562",
"7. c #C2D473",
"8. c #C7D976",
"9. c #C4D57C",
"0. c #C8D978",
"q. c #BBCE84",
"w. c #BDD089",
"e. c #C1D383",
"r. c #C1D58E",
"t. c #C8D98E",
"y. c None",
/* pixels */
"y.y.y.y.y.y.y.y.y.y.y.y.y.y.y.y.y.y.y.y.y.y.y.y.",
"y.y.y.y.y.y.y.y.y.y.y.y.y.y.y.y.y.y.y.y.y.y.y.y.",
"y.y.y.w.w.r.r.w.r.w.r.w.w.w.r.r.w.w.w.w.w.y.y.y.",
"y.y.2.$.$.$.=.$.=.$.Z z z > > z z n +.#.,.2.y.y.",
"y.y.$.+.$.$.,.=.Z > r y n y y y y r , b @.=.y.y.",
"y.y.{ @.=.=.E < H w.w.r.w.2.G y t t y w > G y.y.",
"y.y.[ @.=.=.n w.q.D H $.,.<.w.2.y r r r r , y.y.",
"y.y.[ { &.G Q : > S n ; < +.<.:.w.r w w w w y.y.",
"y.y.' { G W 8 q.t.5.e.t.1., T -.-.>.6 6 w 6 y.y.",
"y.y.' ] R , 5.-.T x T -.:.1., &.-.4.N 6 w - y.y.",
"y.y.^ ] I Y -.0 F 3.F 0 &.-.B P &.&.C 4 - 6 y.y.",
"y.y.^ ] M T ..x :.;.:.b [ &.L C *.o.P 4 - - y.y.",
"y.y.! ] i C *.7 X.*.*.7 &.*.m J *.X.C 4 = 3 y.y.",
"y.y.! / J 7 o.E & 8 & E o.o.3 ..o.o.t = = 3 y.y.",
"y.y.j ! o.5 M o.e.3.e.6.o.0 N o.o.o.4 % % % y.y.",
"y.y.j ~ ) -.$ 5 }  . .^ * 5 :.O. .e + % @ @ y.y.",
"y.y.h j ) | 7.H o o X o E 7.` O.V o + + + + y.y.",
"y.y.h j ( ) | } 0.7.9.0.O._ _ 3 X + + + e *.y.y.",
"y.y.f g l ( ) | L 3 e p 7 $ X X + O O I  .g y.y.",
"y.y.a f k l l l ( *.U v 5 + + u I %.6.l g a y.y.",
"y.y.2 a s s g g k k f k _ 6.6.` k d d s a 2 y.y.",
"y.y.. 1 q q q q q q q q q q q q q q q q 1 . y.y.",
"y.y.y.y.                                y.y.y.y.",
"y.y.y.y.y.y.y.y.y.y.y.y.y.y.y.y.y.y.y.y.y.y.y.y."
};
