/* XPM */
static char *browser[] = {
/* columns rows colors chars-per-pixel */
"22 22 132 2 ",
"   c #000000",
".  c #0C2A46",
"X  c #174B7D",
"o  c #1B5A94",
"O  c #1E5F9D",
"+  c #295681",
"@  c #2A5986",
"#  c #1E619D",
"$  c #3B6085",
"%  c #37638C",
"&  c #27659F",
"*  c #1F64A6",
"=  c #1F65A8",
"-  c #2367A5",
";  c #2F6CA7",
":  c #2269AC",
">  c #286DAF",
",  c #246FB7",
"<  c #2E71B1",
"1  c #2572BB",
"2  c #2A75BC",
"3  c #3374B2",
"4  c #3C7AB5",
"5  c #357CBE",
"6  c #3D7DBA",
"7  c #56738E",
"8  c #436D94",
"9  c #42709B",
"0  c #4A739A",
"q  c #537595",
"w  c #5F7D97",
"e  c #507598",
"r  c #5E7D9A",
"t  c #497CAA",
"y  c #2676C0",
"u  c #2977C1",
"i  c #277AC7",
"p  c #2C7AC5",
"a  c #2D7ECA",
"s  c #327EC6",
"d  c #317FC9",
"f  c #5F809F",
"g  c #5383AF",
"h  c #5B82AC",
"j  c #4680B3",
"k  c #4584BF",
"l  c #5485B4",
"z  c #5F8BB3",
"x  c #6D8BA6",
"c  c #6D8CAA",
"v  c #6492BC",
"b  c #7596B4",
"n  c #7095B8",
"m  c #7B9EBF",
"M  c #2E80CA",
"N  c #3C82C5",
"B  c #3382CC",
"V  c #3B85CD",
"C  c #3F88CC",
"Z  c #3987D0",
"A  c #3D89D1",
"S  c #4D8AC3",
"D  c #4186C9",
"F  c #448ACD",
"G  c #4A8ECF",
"H  c #568FC6",
"J  c #518FCB",
"K  c #4F91CE",
"L  c #5D92C3",
"P  c #438DD3",
"I  c #4690D6",
"U  c #4B92D4",
"Y  c #4A93D8",
"T  c #5093D2",
"R  c #5B97D0",
"E  c #5698D5",
"W  c #5D98D2",
"Q  c #5299DC",
"!  c #599EDF",
"~  c #6898C5",
"^  c #6A9ACA",
"/  c #749DC3",
"(  c #629DD4",
")  c #609EDA",
"_  c #71A1CF",
"`  c #7DA6CE",
"'  c #6FA2D2",
"]  c #64A1DD",
"[  c #6EA5D9",
"{  c #6CA8DF",
"}  c #78A6D1",
"|  c #75ABDC",
" . c #79ACDB",
".. c #5A9EE0",
"X. c #63A4E3",
"o. c #6CA9E4",
"O. c #77AEE2",
"+. c #79AEE0",
"@. c #7DB2E3",
"#. c #899EB1",
"$. c #8DA5BB",
"%. c #97A7B6",
"&. c #80A1C1",
"*. c #81A6CA",
"=. c #84A9CD",
"-. c #8EACC9",
";. c #90AECC",
":. c #86B4DF",
">. c #94B6D4",
",. c #9ABDDE",
"<. c #AABCCD",
"1. c #82B6E6",
"2. c #89B7E2",
"3. c #8BB9E4",
"4. c #8FBDE9",
"5. c #90BFEB",
"6. c #B3C5D7",
"7. c #BEC8D3",
"8. c #94C2ED",
"9. c #C3CDD6",
"0. c #C9D2DC",
"q. c #C8D5E1",
"w. c #D0D9E3",
"e. c #D8DFE5",
"r. c #DAE1E7",
"t. c #DCE3EA",
"y. c #E2E5E8",
"u. c #E4E9EE",
"i. c #ECEFF1",
"p. c #EFF1F5",
"a. c #FFFFFF",
"s. c None",
/* pixels */
"s.s.s.s.s.s.s.s.s.s.s.s.s.s.s.s.s.s.s.s.s.s.",
"s.s.3.5.4.4.8.8.@.[ [  .8.8.8.8.8.8.8.4.s.s.",
"s.O.I Q ..P P o.o.p 2 S o.X.X.X.X.! X.o.O.s.",
"s.I P P A ) E ) 1.2 l &.O.X.X.o.B B Y Y Y s.",
"s.Z B a F @.[ 3.1.3 <.<.` ] X.E V p V B B s.",
"s.M d a ! O.N 3.X./ t.t.H { @.D 2.s p B B s.",
"s.B a p 2  .1 1  .v a.a.v ,.:.W J p p p B s.",
"s.d p u u 1 , _ -.0.a.a.q.=.6 , 1 2 B p d s.",
"s.B p y 1 1 k / p.a.a.a.a.p.z } J R J T a s.",
"s.U p 2 , : *.q.a.r.r q 0.a.0.m >.,.2 p p s.",
"s.U H j 6.u.a.a.a.c 4 6 x a.a.a.t.;.l 2 F s.",
"s.P 4 f %.y.a.a.a.n D F b a.a.a.e.#.e ; P s.",
"s.P N 4 t w 7 9.a.r.~ L w.a.7.$ X o - S P s.",
"s.A A V C ^ # @ i.a.a.a.a.i.0 l : 1 s U A s.",
"s.Z Z Z V ] 5 O + 7.a.a.9.% 3 _ 1 p G P Z s.",
"s.B B Z B V | 1 * 8 a.a.0 < N [ p p U V B s.",
"s.B B B d B W p 2 h r.r.& s B U B D B B B s.",
"s.M a a a B U a ( < $.$.> p a a P B M a a s.",
"s.p a a a a C P B , 9 9 2 a a a p a a a p s.",
"s.O y i i p a a i y # # 1 p i i a i i 1 O s.",
"s.. o = = = = = = = O O = = = = = = = o . s.",
"s.s.s.                                s.s.s."
};
