/* XPM */
static char *gnome_activity_journal[] = {
/* columns rows colors chars-per-pixel */
"22 22 237 2 ",
"   c #000000",
".  c #0E2E3B",
"X  c #0E2F3B",
"o  c #1E657A",
"O  c #206882",
"+  c #23728D",
"@  c #24738D",
"#  c #24738E",
"$  c #2C7892",
"%  c #2D7B95",
"&  c #2D7C96",
"*  c #2F819D",
"=  c #2E839F",
"-  c #2984A3",
";  c #2A86A4",
":  c #2D8AA9",
">  c #2F8DAB",
",  c #2E8DAD",
"<  c #2F8FAF",
"1  c #3289A6",
"2  c #3E89A2",
"3  c #3B8BA6",
"4  c #308BAA",
"5  c #318CAB",
"6  c #338CAA",
"7  c #328DAB",
"8  c #338DAB",
"9  c #3390AF",
"0  c #3590AD",
"q  c #3A93AF",
"w  c #3292B1",
"e  c #3793B2",
"r  c #3394B4",
"t  c #3597B6",
"y  c #3D95B1",
"u  c #3F94B0",
"i  c #3F95B1",
"p  c #3C95B2",
"a  c #3A96B4",
"s  c #3B98B7",
"d  c #3799B9",
"f  c #389BBB",
"g  c #3C9AB9",
"h  c #3E9BBB",
"j  c #3A9DBE",
"k  c #3E9CBC",
"l  c #3F9DBD",
"z  c #3F9EBE",
"x  c #4C889B",
"c  c #548EA2",
"v  c #5297AD",
"b  c #5C9AAF",
"n  c #4098B5",
"m  c #4399B5",
"M  c #479AB5",
"N  c #469AB6",
"B  c #479BB7",
"V  c #489BB7",
"C  c #4A9BB6",
"Z  c #4E9DB7",
"A  c #439BB8",
"S  c #479CB8",
"D  c #449DBA",
"F  c #459EBB",
"G  c #469FBC",
"H  c #4A9EB9",
"J  c #4B9EB9",
"K  c #4B9EBA",
"L  c #4B9FBB",
"P  c #4C9EB9",
"I  c #4E9FBB",
"U  c #579AB0",
"Y  c #579CB4",
"T  c #6195A6",
"R  c #6F9EAD",
"E  c #4FA0BB",
"W  c #49A0BD",
"Q  c #4BA0BC",
"!  c #48A1BF",
"~  c #4CA0BC",
"^  c #50A2BF",
"/  c #60A7BF",
"(  c #6CA7BB",
")  c #70A1B1",
"_  c #75A2B2",
"`  c #79A5B4",
"'  c #77A7B8",
"]  c #3B9FC0",
"[  c #3DA1C3",
"{  c #3FA3C5",
"}  c #41A0C0",
"|  c #42A1C1",
" . c #42A2C2",
".. c #44A3C4",
"X. c #44A4C5",
"o. c #46A7C7",
"O. c #49A2C0",
"+. c #4CA6C4",
"@. c #40A5C8",
"#. c #41A7CA",
"$. c #47A9CA",
"%. c #42A9CC",
"&. c #47ABCD",
"*. c #46ACCF",
"=. c #4DA8C8",
"-. c #4FABCA",
";. c #48AACC",
":. c #4EAECF",
">. c #52A7C2",
",. c #52A6C3",
"<. c #53A7C3",
"1. c #54A6C3",
"2. c #54A8C3",
"3. c #53A8C4",
"4. c #54A8C4",
"5. c #55A9C6",
"6. c #55AAC7",
"7. c #56ABC8",
"8. c #56ACC9",
"9. c #57ACCA",
"0. c #57ADCB",
"q. c #50ADCC",
"w. c #50AECE",
"e. c #59AFCB",
"r. c #59AFCC",
"t. c #59AFCD",
"y. c #57B0CE",
"u. c #59B0CD",
"i. c #5AB0CD",
"p. c #58B1CE",
"a. c #5AB0CF",
"s. c #5AB2CF",
"d. c #5DB1CD",
"f. c #48AFD1",
"g. c #4CAED0",
"h. c #4DAFD1",
"j. c #4BB0D2",
"k. c #4EB0D1",
"l. c #4CB1D2",
"z. c #4DB1D2",
"x. c #4EB1D2",
"c. c #4FB2D2",
"v. c #50B0D2",
"b. c #53B2D2",
"n. c #57B1D0",
"m. c #55B2D1",
"M. c #55B2D3",
"N. c #56B2D3",
"B. c #58B3D2",
"V. c #5DB3D0",
"C. c #5FB4D1",
"Z. c #60B1CD",
"A. c #64B3CE",
"S. c #6FB5CD",
"D. c #7DBACF",
"F. c #62B4D0",
"G. c #61B7D5",
"H. c #66B8D3",
"J. c #6ABBD5",
"K. c #6DBCD6",
"L. c #6FBED9",
"P. c #75C3DE",
"I. c #76C4DE",
"U. c #76C4DF",
"Y. c #81AEBC",
"T. c #85AFBC",
"R. c #80BBCF",
"E. c #99B7C1",
"W. c #9FBAC3",
"Q. c #95BBC8",
"!. c #96BECA",
"~. c #93BFCE",
"^. c #80BDD3",
"/. c #83BED3",
"(. c #97C1CF",
"). c #89C0D2",
"_. c #8EC3D4",
"`. c #86C5D9",
"'. c #8BC8DC",
"]. c #A4CFDD",
"[. c #A4CFDE",
"{. c #ABCDD9",
"}. c #B7CCD3",
"|. c #B3CCD4",
" X c #B6CED6",
".X c #B9CDD3",
"XX c #BBCFD5",
"oX c #BFD1D6",
"OX c #B6D0D9",
"+X c #BBD2D9",
"@X c #BDD2D8",
"#X c #BCD4DB",
"$X c #BFD4DB",
"%X c #96CFE3",
"&X c #A5D5E6",
"*X c #A9D5E3",
"=X c #B2D5E1",
"-X c #C2D4DA",
";X c #CAD8DD",
":X c #CADADF",
">X c #CBDADF",
",X c #C9DEE5",
"<X c #D0DEE3",
"1X c #C5E2EB",
"2X c #C8E0E8",
"3X c #CBE1E8",
"4X c #CCE2E9",
"5X c #D1E6ED",
"6X c #D6E7EC",
"7X c #DAE5E9",
"8X c #D9E5EA",
"9X c #DDE7EA",
"0X c #DCE8EC",
"qX c #DBEAF0",
"wX c #DCECF1",
"eX c #E2EBED",
"rX c #E2EBEF",
"tX c #E5ECEE",
"yX c #E2EDF1",
"uX c #ECF1F3",
"iX c #E9F2F5",
"pX c #E9F2F6",
"aX c #EDF2F4",
"sX c #EFF5F6",
"dX c #F0F4F5",
"fX c #F2F6F8",
"gX c #F5F8F9",
"hX c #F5F9FB",
"jX c #F7F9FA",
"kX c #FBFCFC",
"lX c #FCFDFD",
"zX c #FDFDFD",
"xX c #FDFDFE",
"cX c #FDFEFE",
"vX c #FEFEFF",
"bX c #FFFFFF",
"nX c None",
/* pixels */
"nXnXnXnXnXnXnXnXnXnXnXnXnXnXnXnXnXnXnXnXnXnX",
"nXnXL.P.U.U.U.U.U.U.U.U.U.U.U.U.U.P.P.L.nXnX",
"nXF.c.f.c.l.c.v.c.c.c.g.c.c.c.c.c.l.l.v.F.nX",
"nXg.*.g.v.v.M.m.%X1XpXhXwX&XG.v.m.v.f.*.g.nX",
"nX%.&.:.m.B.L.5XlXlX>XE.E.,XuXJ.B.m.:.&.%.nX",
"nX#.;.q.m.C.yXlXjX` I t.a.I _ 6XH.m.q.;.#.nX",
"nX@.$.q.t.=XlXlXT.s.s.V.*Xs.e.Y.qX'.s.$.#.nX",
"nX@.o.-.d.lXlXtX1.t.t.`.!.t.t.<.0XlX,Xo.{ nX",
"nX[ ..-.^.lXlX#Xe.7.d.lXlXA.e.7. XlX9X..[ nX",
"nX]  .+.{.lXlX$X7.7.3.}.XX2.9.7.OXzX'  .] nX",
"nXj  .S.lXlXlXyX5.5.7.Z ,XR.7.5.0X#X! } j nX",
"nXf G (.lXlXlXlX_.3.3.<.) (.1./.lXQ.! z g nX",
"nXd h U aXlXlXlXgX/.<.5.^ Y ^.sXlX( Q k d nX",
"nXt g F 2 <XlXlXlXlX4X[.].3XlXlX-XL ! g t nX",
"nXr g D Q $XlXlXlXlXlXlXlXlXlXlXb L D s r nX",
"nXw a A I  XlXlXlXlXlXlXlXlXkXR I L A a w nX",
"nX< e n B 8XlXlXlXlXlXlXlXdXT C C S n e < nX",
"nX< 9 p / lXlXlXlXlXlXlXXXc M C B n p 9 < nX",
"nX; > 0 v oXuXjXuX;XW.x 3 n n n p q 0 > ; nX",
"nXO - : : = % $ % = 1 8 8 8 1 6 6 4 : - O nX",
"nXX o @ @ @ @ @ @ # # # # @ @ @ @ @ + o X nX",
"nXnXnX                                nXnXnX"
};
