/* XPM */
static char *googleearth[] = {
/* columns rows colors chars-per-pixel */
"22 22 185 2 ",
"   c #000000",
".  c #0E0B16",
"X  c #1D1531",
"o  c #221C36",
"O  c #221B39",
"+  c #182337",
"@  c #1B283F",
"#  c #212134",
"$  c #262139",
"%  c #172C45",
"&  c #14324D",
"*  c #163450",
"=  c #1A3450",
"-  c #1A3955",
";  c #1E3D58",
":  c #2D2444",
">  c #202B41",
",  c #2F274B",
"<  c #30264B",
"1  c #342B4D",
"2  c #2C374B",
"3  c #303046",
"4  c #363249",
"5  c #352C50",
"6  c #382E54",
"7  c #263751",
"8  c #273B55",
"9  c #2C3A53",
"0  c #3D3456",
"q  c #313E54",
"w  c #3E3950",
"e  c #3E3559",
"r  c #463D5E",
"t  c #453A60",
"y  c #4A3F65",
"u  c #23415D",
"i  c #1D476C",
"p  c #234460",
"a  c #2B4F6E",
"s  c #31516E",
"d  c #3B506B",
"f  c #214F77",
"g  c #2A4C70",
"h  c #2E5272",
"j  c #23527B",
"k  c #33597A",
"l  c #3D5D7C",
"z  c #4D4464",
"x  c #50456A",
"c  c #574E6D",
"v  c #42506B",
"b  c #564A70",
"n  c #435A75",
"m  c #5C5075",
"M  c #5B5876",
"N  c #525F7A",
"B  c #61557B",
"V  c #62587A",
"C  c #235580",
"Z  c #265B87",
"A  c #2A5986",
"S  c #305E85",
"D  c #3B6182",
"F  c #296190",
"G  c #2C6799",
"H  c #2F6C9E",
"J  c #366791",
"K  c #376B97",
"L  c #3B6C95",
"P  c #3D6C98",
"I  c #3B719E",
"U  c #306FA3",
"Y  c #3B74A3",
"T  c #3274AC",
"R  c #3878AD",
"E  c #3479B2",
"W  c #387DB7",
"Q  c #665B81",
"!  c #466481",
"~  c #4E6681",
"^  c #41678F",
"/  c #5D6E8B",
"(  c #446F95",
")  c #497294",
"_  c #5B7395",
"`  c #5A7897",
"'  c #5E7499",
"]  c #5C7D9C",
"[  c #6C6086",
"{  c #72658C",
"}  c #756B8E",
"|  c #756B92",
" . c #7D6F97",
".. c #617393",
"X. c #627F9D",
"o. c #7D7196",
"O. c #4C7AA1",
"+. c #417DAE",
"@. c #4A7EAA",
"#. c #527DA2",
"$. c #597EA5",
"%. c #457FB1",
"&. c #807495",
"*. c #81749C",
"=. c #86799F",
"-. c #887D9E",
";. c #8B7DA3",
":. c #3B80B9",
">. c #65829F",
",. c #4480B2",
"<. c #4C84B4",
"1. c #4183BA",
"2. c #5084B0",
"3. c #5588B3",
"4. c #5C8BB3",
"5. c #5990BF",
"6. c #6482A0",
"7. c #648CAF",
"8. c #738DAB",
"9. c #7590AD",
"0. c #7893AE",
"q. c #628CB1",
"w. c #6091BB",
"e. c #6E99BF",
"r. c #7993B0",
"t. c #7B9BB8",
"y. c #4C8DC2",
"u. c #4C90C5",
"i. c #5591C3",
"p. c #5A93C1",
"a. c #5598CB",
"s. c #5A9CCF",
"d. c #6498C3",
"f. c #5DA0D1",
"g. c #6FA2CD",
"h. c #65A5D4",
"j. c #66A8D7",
"k. c #70B1DE",
"l. c #76B6E2",
"z. c #79B9E5",
"x. c #8E81A6",
"c. c #8F81A8",
"v. c #9082A6",
"b. c #9184AA",
"n. c #998EAE",
"m. c #809CBC",
"M. c #A99DBD",
"N. c #83A0BF",
"B. c #89A2BC",
"V. c #84A5C2",
"C. c #8BA8C2",
"Z. c #84ABCC",
"A. c #94ACC2",
"S. c #94ADC9",
"D. c #9CB2CC",
"F. c #81AED3",
"G. c #9BBDD9",
"H. c #AEA3C2",
"J. c #A1B7CE",
"K. c #A5BACE",
"L. c #A7BBD2",
"P. c #AABED1",
"I. c #80BFEA",
"U. c #AEC0D3",
"Y. c #B2C3D6",
"T. c #B5C6D9",
"R. c #BCCBDB",
"E. c #98C3E3",
"W. c #92CDF3",
"Q. c #B2CEE5",
"!. c #BBD2E5",
"~. c #C3D1DF",
"^. c #C0D5E6",
"/. c #CCD7E4",
"(. c #C6D8E7",
"). c #C9D8E4",
"_. c #D1DEE8",
"`. c #CFE6F6",
"'. c #D0E3F1",
"]. c #EAEEF1",
"[. c #EFF3F6",
"{. c #F1F4F6",
"}. c #F6F9FB",
"|. c #FAFAFA",
" X c None",
/* pixels */
" X X X X X X X X X X X X X X X X X X X X X X",
" X XM.H.H.H.H.H.H.H.H.H.H.H.H.H.H.H.H.M. X X",
" Xn.b.v.b.b.c.c.b.c.x.x.x.b.b.b.b.b.x.b.n. X",
" X;.;.c.c.b.c.| ' r.S.B.8...} b.b.v.;.;.c. X",
" X*.=.;.x.-._ q.,.2.3.4.B.R.B./ ;.x.;.=.*. X",
" X .*.=.&.$.!.|.[.G.:.R H 2.K.U.~ &.=.*. . X",
" X|  .o...].|.|.|.|.!.:.:.2.6.U.J.N &.o.|  X",
" X{ | M ).^.Q.'.}.|.|.!.5.<.) ] L.8.M } {  X",
" X[ [ / g.g.h.l.W.`.|.|.(.3.K S 6.D.v [ [  X",
" XQ V ^ <.5.s.k.W.k.E.{.|._.7.) k s 8 V Q  X",
" XV c L +.W u.f.h.j.a.F.).[.).] h u = c V  X",
" Xm z A Y ,.i.u.u.1.:.5.e.V.T.U.` u = z m  X",
" Xb z g F Y 5.e.1.R T U I J ) >.8.t.n x b  X",
" Xx z 7 ( t.7.4.4.,.G F Z j l a u * 9 z x  X",
" Xz z 3 B.~./.U.t.L Z C f i a u ; & 4 z y  X",
" Xt z r q K.T.R.R.T.A.0.` l ! ` 6.9 r z t  X",
" Xe t z w d S.J.6.r.B.S.S.N.9.X.d w y r e  X",
" X6 e t r 3 2 ` * = & * - & & > 4 r t e 6  X",
" X, 5 0 0 r 4 o + % & & % @ $ 4 e e 0 5 ,  X",
" XO : < < 1 1 < $ $ o o $ : : 1 1 1 , : O  X",
" X. X O O O O O O O O o O O O O O O O X .  X",
" X X X                                 X X X"
};
