/* XPM */
static char *xchat[] = {
/* columns rows colors chars-per-pixel */
"22 22 104 2 ",
"   c #000000",
".  c #273A08",
"X  c #527316",
"o  c #537910",
"O  c #55741A",
"+  c #687E3C",
"@  c #5B8215",
"#  c #5F8A13",
"$  c #5F851A",
"%  c #62861E",
"&  c #678E1C",
"*  c #69911C",
"=  c #6E991C",
"-  c #709C1D",
";  c #6EA017",
":  c #6FA018",
">  c #73A51B",
",  c #77A91B",
"<  c #79AC1D",
"1  c #7DB01F",
"2  c #658921",
"3  c #688C22",
"4  c #6C9322",
"5  c #6F922B",
"6  c #739C23",
"7  c #74972F",
"8  c #749A2A",
"9  c #799F2A",
"0  c #6B833D",
"q  c #6F8B38",
"w  c #76A222",
"e  c #79A624",
"r  c #7CAD23",
"t  c #7DA62A",
"y  c #7FA92A",
"u  c #7EB023",
"i  c #7EA635",
"p  c #7EA338",
"a  c #74894B",
"s  c #80AD26",
"d  c #80A72F",
"f  c #82AC2D",
"g  c #82B425",
"h  c #85B826",
"j  c #85B42B",
"k  c #89B52F",
"l  c #86B828",
"z  c #8ABA2D",
"x  c #84AB32",
"c  c #83AC3B",
"v  c #85B231",
"b  c #8AB433",
"n  c #8DBA32",
"m  c #86B139",
"M  c #8CB63A",
"N  c #8EB93C",
"B  c #90BF33",
"V  c #91BC3C",
"C  c #8DC02C",
"Z  c #93C433",
"A  c #99CC36",
"S  c #9CCC3B",
"D  c #9ED236",
"F  c #A1D43A",
"G  c #A5D83C",
"H  c #A9DD3E",
"J  c #8CAC4D",
"K  c #8EB444",
"L  c #8FBA41",
"P  c #8FB24B",
"I  c #91BA43",
"U  c #96BC49",
"Y  c #90AE55",
"T  c #9AB95C",
"R  c #8A9F63",
"E  c #8C9A6F",
"W  c #8E9D70",
"Q  c #A4BC75",
"!  c #9DC940",
"~  c #A0CE42",
"^  c #A3D440",
"/  c #AADC42",
"(  c #ADDD48",
")  c #B5DF5C",
"_  c #AEE242",
"`  c #AFE148",
"'  c #B1E444",
"]  c #B1E24A",
"[  c #C0E76E",
"{  c #C5EC73",
"}  c #A6B684",
"|  c #ABB499",
" . c #ACC180",
".. c #B4C496",
"X. c #BBD090",
"o. c #D4DEBF",
"O. c #D0D5C7",
"+. c #D4DBC5",
"@. c #DADED3",
"#. c #DFE5D2",
"$. c #EBECEA",
"%. c #F5F5F5",
"&. c #FAFAFA",
"*. c None",
/* pixels */
"*.*.*.*.*.*.*.*.*.*.*.*.*.*.*.*.*.*.*.*.*.*.",
"*.*.[ { { { { { { { { { { { { { { { { [ *.*.",
"*.) ] ' ' _ ' ' ' ' ' ' ' ' ' ' ' ' ' ] ) *.",
"*.' H H / _ / ( ] ] ] ] ] ` ` ( _ H H / ] *.",
"*.H H H / / ( ! M x d d b V S ( / / H G H *.",
"*.G G / / ! d 9 f k b B n k f b ^ / G G G *.",
"*.F F ^ ! 8 t j k U &.V X.+.B b f ~ G F F *.",
"*.D F S 8 t f j M Q @.B +.} B C k f ~ F F *.",
"*.A S x 6 s d Q &.&.&.&.&.&.#.z z f B S A *.",
"*.A S 8 6 t t 7 + $.E W $.0 q z k j f S A *.",
"*.A S 2 6 w e K T &.Y ..O.U k j l l w S A *.",
"*.Z Z 5 6 6 9 %.%.%.%.%.%.%.P s j r i Z C *.",
"*.C Z p & 6 6 X | | O $.a O > s r w v Z C *.",
"*.z z V % * - 6 @.R J $.6 r r s e 6 V n C *.",
"*.l l z N 2 * = X * * O - > > 6 * L z l h *.",
"*.g g h k I 2 * = = - - - = * 8 N z h g g *.",
"*.1 1 u g v 8 # $ $ $ $ 4 7 m N u u 1 1 1 *.",
"*.< < 1 u e @ @ i L L L M v u u u u < < < *.",
"*.: , , > 8 p m u r r 1 < < < < e , , < , *.",
"*.@ : > > > e > > > > : > > : > > ; ; ; @ *.",
"*.. o & # # # # # # # & # # # # # # # o . *.",
"*.*.*.                                *.*.*."
};
