<?xml version="1.0" encoding="UTF-8" standalone="no"?>
<!-- Created with Inkscape (http://www.inkscape.org/) -->

<svg
   xmlns:dc="http://purl.org/dc/elements/1.1/"
   xmlns:cc="http://creativecommons.org/ns#"
   xmlns:rdf="http://www.w3.org/1999/02/22-rdf-syntax-ns#"
   xmlns:svg="http://www.w3.org/2000/svg"
   xmlns="http://www.w3.org/2000/svg"
   version="1.1"
   width="22"
   height="22"
   id="svg2985">
  <defs
     id="defs2987">
    <marker
       refX="0"
       refY="0"
       orient="auto"
       id="TriangleOutM"
       style="overflow:visible">
      <path
         d="m 5.77,0 -8.65,5 0,-10 8.65,5 z"
         transform="scale(0.4,0.4)"
         id="path3933"
         style="fill-rule:evenodd;stroke:#000000;stroke-width:1pt;marker-start:none" />
    </marker>
    <marker
       refX="0"
       refY="0"
       orient="auto"
       id="Arrow2Mend"
       style="overflow:visible">
      <path
         d="M 8.7185878,4.0337352 -2.2072895,0.01601326 8.7185884,-4.0017078 c -1.7454984,2.3720609 -1.7354408,5.6174519 -6e-7,8.035443 z"
         transform="scale(-0.6,-0.6)"
         id="path3814"
         style="font-size:12px;fill-rule:evenodd;stroke-width:0.625;stroke-linejoin:round" />
    </marker>
    <marker
       refX="0"
       refY="0"
       orient="auto"
       id="Arrow1Send"
       style="overflow:visible">
      <path
         d="M 0,0 5,-5 -12.5,0 5,5 0,0 z"
         transform="matrix(-0.2,0,0,-0.2,-1.2,0)"
         id="path3802"
         style="fill-rule:evenodd;stroke:#000000;stroke-width:1pt;marker-start:none" />
    </marker>
    <marker
       refX="0"
       refY="0"
       orient="auto"
       id="Arrow1Lend"
       style="overflow:visible">
      <path
         d="M 0,0 5,-5 -12.5,0 5,5 0,0 z"
         transform="matrix(-0.8,0,0,-0.8,-10,0)"
         id="path3790"
         style="fill-rule:evenodd;stroke:#000000;stroke-width:1pt;marker-start:none" />
    </marker>
  </defs>
  <metadata
     id="metadata2990">
    <rdf:RDF>
      <cc:Work
         rdf:about="">
        <dc:format>image/svg+xml</dc:format>
        <dc:type
           rdf:resource="http://purl.org/dc/dcmitype/StillImage" />
        <dc:title></dc:title>
      </cc:Work>
    </rdf:RDF>
  </metadata>
  <g
     transform="translate(0,6)"
     id="layer1">
    <path
       d="M 5.5,2 C 4.686297,2 4,2.6862972 4,3.5 L 4,4.1875 C 3.057041,4.3842605 2.344717,5.0445187 2.15625,6 L 1.5,6 C 0.686297,6 0,6.6862972 0,7.5 0,7.8821755 0.161369,8.23194 0.40625,8.5 0.161369,8.76806 0,9.117825 0,9.5 0,9.882175 0.161369,10.23194 0.40625,10.5 0.161369,10.76806 0,11.117825 0,11.5 c 0,0.382175 0.161369,0.73194 0.40625,1 C 0.161369,12.76806 0,13.117825 0,13.5 0,14.313703 0.686297,15 1.5,15 l 0.65625,0 C 2.344717,15.955481 3.057041,16.61574 4,16.8125 L 4,17.5 C 4,18.313703 4.686297,19 5.5,19 5.882175,19 6.23194,18.838631 6.5,18.59375 6.76806,18.838631 7.117825,19 7.5,19 7.882175,19 8.23194,18.838631 8.5,18.59375 8.76806,18.838631 9.117825,19 9.5,19 c 0.382175,0 0.73194,-0.161369 1,-0.40625 C 10.76806,18.838631 11.117825,19 11.5,19 12.313703,19 13,18.313703 13,17.5 l 0,-0.6875 C 13.942959,16.61574 14.655283,15.955481 14.84375,15 L 15.5,15 c 0.813703,0 1.5,-0.686297 1.5,-1.5 0,-0.382175 -0.161369,-0.73194 -0.40625,-1 C 16.838631,12.23194 17,11.882175 17,11.5 17,11.117825 16.838631,10.76806 16.59375,10.5 16.838631,10.23194 17,9.882175 17,9.5 17,9.117825 16.838631,8.76806 16.59375,8.5 16.838631,8.23194 17,7.8821755 17,7.5 17,6.6862972 16.313703,6 15.5,6 L 14.84375,6 C 14.655283,5.0445187 13.942959,4.3842605 13,4.1875 L 13,3.5 C 13,2.6862972 12.313703,2 11.5,2 11.117825,2 10.76806,2.161369 10.5,2.40625 10.23194,2.161369 9.882175,2 9.5,2 9.117825,2 8.76806,2.161369 8.5,2.40625 8.23194,2.161369 7.882175,2 7.5,2 7.117825,2 6.76806,2.161369 6.5,2.40625 6.23194,2.161369 5.882175,2 5.5,2 z m 0,1 C 5.777,3 6,3.223 6,3.5 l 0,1 1,0 0,-1 C 7,3.223 7.223,3 7.5,3 7.777,3 8,3.223 8,3.5 l 0,1 0.5,0 0.5,0 0,-1 C 9,3.223 9.223,3 9.5,3 9.777,3 10,3.223 10,3.5 l 0,1 1,0 0,-1 C 11,3.223 11.223,3 11.5,3 11.777,3 12,3.223 12,3.5 L 12,5 12.5625,5 C 13.344028,5 14,5.6238265 14,6.40625 L 14,7 15.5,7 C 15.777,7 16,7.223 16,7.5 16,7.777 15.777,8 15.5,8 l -1,0 0,1 1,0 C 15.777,9 16,9.223 16,9.5 16,9.777 15.777,10 15.5,10 l -1,0 0,1 1,0 c 0.277,0 0.5,0.223 0.5,0.5 0,0.277 -0.223,0.5 -0.5,0.5 l -1,0 0,1 1,0 c 0.277,0 0.5,0.223 0.5,0.5 0,0.277 -0.223,0.5 -0.5,0.5 l -1.5,0 0,0.59375 C 14,15.376174 13.344028,16 12.5625,16 L 12,16 12,17.5 C 12,17.777 11.777,18 11.5,18 11.223,18 11,17.777 11,17.5 l 0,-1 -1,0 0,1 C 10,17.777 9.777,18 9.5,18 9.223,18 9,17.777 9,17.5 l 0,-1 -0.5,0 -0.5,0 0,1 C 8,17.777 7.777,18 7.5,18 7.223,18 7,17.777 7,17.5 l 0,-1 -1,0 0,1 C 6,17.777 5.777,18 5.5,18 5.223,18 5,17.777 5,17.5 L 5,16 4.4375,16 C 3.655972,16 3,15.376174 3,14.59375 L 3,14 1.5,14 C 1.223,14 1,13.777 1,13.5 1,13.223 1.223,13 1.5,13 l 1,0 0,-1 -1,0 C 1.223,12 1,11.777 1,11.5 1,11.223 1.223,11 1.5,11 l 1,0 0,-1 -1,0 C 1.223,10 1,9.777 1,9.5 1,9.223 1.223,9 1.5,9 l 1,0 0,-1 -1,0 C 1.223,8 1,7.777 1,7.5 1,7.223 1.223,7 1.5,7 L 3,7 3,6.40625 C 3,5.6238265 3.655972,5 4.4375,5 L 5,5 5,3.5 C 5,3.223 5.223,3 5.5,3 z"
       transform="translate(0,-6)"
       id="path3942"
       style="font-size:medium;font-style:normal;font-variant:normal;font-weight:normal;font-stretch:normal;text-indent:0;text-align:start;text-decoration:none;line-height:normal;letter-spacing:normal;word-spacing:normal;text-transform:none;direction:ltr;block-progression:tb;writing-mode:lr-tb;text-anchor:start;baseline-shift:baseline;opacity:0.6;color:#000000;fill:#eae3d0;fill-opacity:1;fill-rule:nonzero;stroke:none;stroke-width:2;marker:none;visibility:visible;display:inline;overflow:visible;enable-background:accumulate;font-family:Sans;-inkscape-font-specification:Sans" />
    <path
       d="M 5.5,-3 C 5.223,-3 5,-2.777 5,-2.5 L 5,-1 4.4375,-1 C 3.655972,-1 3,-0.3761736 3,0.40625 L 3,1 1.5,1 C 1.223,1 1,1.223 1,1.5 1,1.777 1.223,2 1.5,2 L 3,2 3,3 1.5,3 C 1.223,3 1,3.223 1,3.5 1,3.777 1.223,4 1.5,4 L 3,4 3,5 1.5,5 C 1.223,5 1,5.223 1,5.5 1,5.777 1.223,6 1.5,6 L 3,6 3,7 1.5,7 C 1.223,7 1,7.223 1,7.5 1,7.777 1.223,8 1.5,8 L 3,8 3,8.59375 C 3,9.376174 3.655972,10 4.4375,10 L 5,10 5,11.5 C 5,11.777 5.223,12 5.5,12 5.777,12 6,11.777 6,11.5 L 6,10 7,10 7,11.5 C 7,11.777 7.223,12 7.5,12 7.777,12 8,11.777 8,11.5 L 8,10 8.5,10 9,10 9,11.5 C 9,11.777 9.223,12 9.5,12 9.777,12 10,11.777 10,11.5 l 0,-1.5 1,0 0,1.5 c 0,0.277 0.223,0.5 0.5,0.5 0.277,0 0.5,-0.223 0.5,-0.5 l 0,-1.5 0.5625,0 C 13.344028,10 14,9.376174 14,8.59375 L 14,8 15.5,8 C 15.777,8 16,7.777 16,7.5 16,7.223 15.777,7 15.5,7 L 14,7 14,6 15.5,6 C 15.777,6 16,5.777 16,5.5 16,5.223 15.777,5 15.5,5 L 14,5 14,4 15.5,4 C 15.777,4 16,3.777 16,3.5 16,3.223 15.777,3 15.5,3 L 14,3 14,2 15.5,2 C 15.777,2 16,1.777 16,1.5 16,1.223 15.777,1 15.5,1 L 14,1 14,0.40625 C 14,-0.3761736 13.344028,-1 12.5625,-1 L 12,-1 12,-2.5 C 12,-2.777 11.777,-3 11.5,-3 11.223,-3 11,-2.777 11,-2.5 l 0,1.5 -1,0 0,-1.5 C 10,-2.777 9.777,-3 9.5,-3 9.223,-3 9,-2.777 9,-2.5 L 9,-1 8.5,-1 8,-1 8,-2.5 C 8,-2.777 7.777,-3 7.5,-3 7.223,-3 7,-2.777 7,-2.5 L 7,-1 6,-1 6,-2.5 C 6,-2.777 5.777,-3 5.5,-3 z M 4.4375,0 8.5,0 12.5625,0 C 12.827416,0 13,0.1814009 13,0.40625 l 0,8.1875 C 13,8.818599 12.827416,9 12.5625,9 L 11.5,9 8.5,9 5.5,9 4.4375,9 C 4.172584,9 4,8.818599 4,8.59375 L 4,0.40625 C 4,0.1814009 4.172584,0 4.4375,0 z"
       id="rect3025"
       style="font-size:medium;font-style:normal;font-variant:normal;font-weight:normal;font-stretch:normal;text-indent:0;text-align:start;text-decoration:none;line-height:normal;letter-spacing:normal;word-spacing:normal;text-transform:none;direction:ltr;block-progression:tb;writing-mode:lr-tb;text-anchor:start;baseline-shift:baseline;color:#000000;fill:#3a3935;fill-opacity:1;stroke:none;stroke-width:0.99999994;marker:none;visibility:visible;display:inline;overflow:visible;enable-background:accumulate;font-family:Sans;-inkscape-font-specification:Sans" />
    <rect
       width="4.9999995"
       height="4.9999995"
       rx="1.0000005"
       ry="1.0000005"
       x="6"
       y="2"
       id="rect3023"
       style="fill:#333333;fill-opacity:1;stroke:none" />
    <path
       d="m 6,-1.5 0,0.5 1,0 0,-0.5 -1,0 z m 2,0 0,0.5 0.5,0 0.5,0 0,-0.5 -0.5,0 -0.5,0 z m 2,0 0,0.5 1,0 0,-0.5 -1,0 z M 4.4375,0 C 4.172584,0 4,0.1814009 4,0.40625 l 0,8.1875 C 4,8.818599 4.172584,9 4.4375,9 L 5.5,9 l 3,0 3,0 1.0625,0 C 12.827416,9 13,8.818599 13,8.59375 l 0,-8.1875 C 13,0.1814009 12.827416,0 12.5625,0 L 8.5,0 4.4375,0 z m 0.4375,0.5 3.625,0 3.625,0 c 0.245439,0 0.375,0.1507695 0.375,0.3125 l 0,7.375 C 12.5,8.349231 12.370439,8.5 12.125,8.5 L 8.5,8.5 4.875,8.5 C 4.629561,8.5 4.5,8.349231 4.5,8.1875 l 0,-7.375 C 4.5,0.6507695 4.629561,0.5 4.875,0.5 z M 2.5,2 2.5,3 3,3 3,2 2.5,2 z M 14,2 14,3 14.5,3 14.5,2 14,2 z M 2.5,4 2.5,5 3,5 3,4 2.5,4 z M 14,4 14,5 14.5,5 14.5,4 14,4 z M 2.5,6 2.5,7 3,7 3,6 2.5,6 z m 11.5,0 0,1 0.5,0 0,-1 -0.5,0 z m -8,4 0,0.5 1,0 0,-0.5 -1,0 z m 2,0 0,0.5 0.5,0 0.5,0 L 9,10 8.5,10 8,10 z m 2,0 0,0.5 1,0 0,-0.5 -1,0 z"
       id="path3042"
       style="opacity:0.3;fill:#000000;fill-opacity:1;stroke:none" />
  </g>
</svg>
