/* XPM */
static char *top[] = {
/* columns rows colors chars-per-pixel */
"48 48 176 2 ",
"   c black",
".  c #060606",
"X  c #2D2D2D",
"o  c gray18",
"O  c #2F2F2F",
"+  c gray21",
"@  c #373737",
"#  c gray22",
"$  c #393939",
"%  c #3C3C3C",
"&  c gray24",
"*  c #3E3E3E",
"=  c #3F3F3F",
"-  c #414141",
";  c gray26",
":  c #434343",
">  c #444444",
",  c gray27",
"<  c #464646",
"1  c gray28",
"2  c #484848",
"3  c #494949",
"4  c gray29",
"5  c #4B4B4B",
"6  c #4C4C4C",
"7  c gray30",
"8  c #4E4E4E",
"9  c gray31",
"0  c #505050",
"q  c #515151",
"w  c gray32",
"e  c #535353",
"r  c gray33",
"t  c #555555",
"y  c #565656",
"u  c gray34",
"i  c #585858",
"p  c gray35",
"a  c #5A5A5A",
"s  c #5B5B5B",
"d  c gray36",
"f  c #5D5D5D",
"g  c gray37",
"h  c #5F5F5F",
"j  c #606060",
"k  c gray38",
"l  c #626262",
"z  c gray39",
"x  c #656565",
"c  c #686868",
"v  c DimGray",
"b  c #6A6A6A",
"n  c gray42",
"m  c #6C6C6C",
"M  c #6D6D6D",
"N  c gray43",
"B  c #6F6F6F",
"V  c gray45",
"C  c gray49",
"Z  c #7E7E7E",
"A  c gray50",
"S  c #808080",
"D  c #818181",
"F  c gray51",
"G  c #838383",
"H  c #848484",
"J  c gray53",
"K  c #888888",
"L  c #898989",
"P  c gray54",
"I  c #8B8B8B",
"U  c gray55",
"Y  c #8D8D8D",
"T  c #8E8E8E",
"R  c gray56",
"E  c #909090",
"W  c gray57",
"Q  c #929292",
"!  c #939393",
"~  c gray58",
"^  c #959595",
"/  c gray59",
"(  c #979797",
")  c #989898",
"_  c gray60",
"`  c #9A9A9A",
"'  c #9B9B9B",
"]  c gray61",
"[  c #9D9D9D",
"{  c gray62",
"}  c #9F9F9F",
"|  c #A0A0A0",
" . c gray63",
".. c #A2A2A2",
"X. c gray64",
"o. c #A4A4A4",
"O. c #A5A5A5",
"+. c gray65",
"@. c #A7A7A7",
"#. c gray66",
"$. c #A9A9A9",
"%. c #AAAAAA",
"&. c gray67",
"*. c #ACACAC",
"=. c gray68",
"-. c #AEAEAE",
";. c #AFAFAF",
":. c gray69",
">. c #B1B1B1",
",. c #B2B2B2",
"<. c gray70",
"1. c #B4B4B4",
"2. c gray71",
"3. c #B6B6B6",
"4. c #B7B7B7",
"5. c gray72",
"6. c #B9B9B9",
"7. c gray73",
"8. c #BBBBBB",
"9. c #BCBCBC",
"0. c gray74",
"q. c gray",
"w. c gray75",
"e. c #C0C0C0",
"r. c #C1C1C1",
"t. c gray76",
"y. c #C3C3C3",
"u. c gray77",
"i. c #C5C5C5",
"p. c #C6C6C6",
"a. c gray78",
"s. c #C8C8C8",
"d. c gray79",
"f. c #CACACA",
"g. c #CBCBCB",
"h. c gray80",
"j. c #CDCDCD",
"k. c #CECECE",
"l. c gray81",
"z. c #D0D0D0",
"x. c gray82",
"c. c #D2D2D2",
"v. c LightGray",
"b. c gray83",
"n. c #D5D5D5",
"m. c gray84",
"M. c #D7D7D7",
"N. c #D8D8D8",
"B. c gray85",
"V. c #DADADA",
"C. c gray86",
"Z. c gainsboro",
"A. c #DDDDDD",
"S. c gray87",
"D. c #DFDFDF",
"F. c gray88",
"G. c #E1E1E1",
"H. c #E2E2E2",
"J. c gray89",
"K. c #E4E4E4",
"L. c gray90",
"P. c #E6E6E6",
"I. c #E7E7E7",
"U. c gray91",
"Y. c #E9E9E9",
"T. c #EAEAEA",
"R. c gray92",
"E. c #ECECEC",
"W. c gray93",
"Q. c #EEEEEE",
"!. c #EFEFEF",
"~. c gray94",
"^. c #F1F1F1",
"/. c gray95",
"(. c #F3F3F3",
"). c None",
/* pixels */
").).).).).).).).).).).).).).).).).).).).).).).).).).).).).).).).).).).).).).).).).).).).).).).).",
").).).).).).).).).).).).).).).).).).).).).).).).).).).).).).).).).).).).).).).).).).).).).).).).",
").).).).).).).).).).).).).).).).).).).).).).).).).).).).).).).).).).).).).).).).).).).).).).).).",
").).).).d.C.L.L.D.L.D.C.L.D.D.D.L.D.n.C.n.c.c.l.l.l.l.d.d.d.d.c.d.d.l.l.d.c.c.l.C.n.c.e.).).).).",
").).).e.L.D.J.C.D.c.C.C.c.n.n.l.n.C.n.l.a.w.7.2.2.2.2.7.7.e.e.7.7.e.w.7.e.w.e.l.d.c.l.n.,.).).).",
").).).D.L.J.C.J.n.C.n.n.C.c.n.C.c.l.c.n.l.e.w.2.2.7.7.w.w.2.2.7.w.2.7.e.7.a.a.d.c.d.n.d.l.).).).",
").).).Q.L.J.J.C.J.n.C.n.l.n.l.l.n.c.l.d.d.e.e.7.w.7.2.,.,.2.w.7.2.7.7.2.a.w.a.d.d.c.d.c.n.).).).",
").).).^.Y.Y.J.L.C.J.n.n.n.l.n.c.l.c.c.d.a.w.G * * C ,.,.2.7.,.;.7.2.,.w.7.a.a.l.l.d.c.l.C.).).).",
").).).Y.Q.L.Y.J.L.C.D.n.n.n.l.c.c.d.l.l.l.,.X + + X X.,.2.;.,.2.,.;.7.2.a.e.d.d.l.l.l.l.C.).).).",
").).).Q.Y.Q.Q.Q.J.L.C.D.c.c.c.d.l.c.l.d.a.C $ * * + V ;.;.;.,.;.,.2.2.a.e.l.a.d.d.l.d.c.c.).).).",
").).).Q.Y.Q.Y.Q.Q.L.L.D.C.c.l.c.d.d.l.d.a.,.* * - * X.$.;.,.$.;.;.,.e.w.d.a.l.a.l.d.l.d.n.).).).",
").).).Y.Y.Y.Q.Q.Q.Q.L.J.D.C.c.d.l.l.d.d.a.w.' j h / $.;.$.$.$.;.;.w.7.d.e.l.a.l.a.d.a.d.c.).).).",
").).).Q.L.Q.Y.Q.Q.Q.Q.Y.L.D.n.c.a.a.d.a.e.e.7.7.2.$.O.O.$.$.$.$.2.7.a.e.d.a.d.a.d.a.a.d.l.).).).",
").).).Q.L.Y.Q.Y.Q.Q.Q.Q.Q.L.D.c.l.a.d.a.a.w.,.O.O.O.O.X.O.O.O.2.7.e.w.d.e.a.d.a.d.a.d.e.l.).).).",
").).).Q.Y.Y.Y.Y.Y.Q.Q.^.Q.Q.L.D.l.l.e.a.a.w.,./ ! X.X.X.X.O.;.2.e.w.d.e.a.a.e.d.w.a.e.a.c.).).).",
").).).Y.Y.Y.Y.Q.Q.Q.Q.Q.^.^.^.L.C.l.d.e.e.e.O.$ + ! X.{ { $.,.w.w.a.e.e.a.w.a.e.e.a.a.d.c.).).).",
").).).Y.L.Y.Y.Q.Q.Q.Q.Q.Q.^.^.^.L.D.d.a.e.;.* * * $ R { X.;.7.w.e.e.e.a.7.e.a.e.l.a.a.a.c.).).).",
").).).Q.L.Y.Y.Y.Y.Y.Q.^.^.^.^.^.^.Y.C.d.,.- - 1 1 * + ! $.7.w.e.w.w.e.w.e.d.e.d.a.d.l.l.n.).).).",
").).).Q.Y.L.Y.Y.Q.Q.Y.Q.Q.^.^.^.^.^.Y.a.1 - 6 1 - 1 * * O.7.7.w.w.e.e.e.d.a.d.n.l.l.c.c.C.).).).",
").).).Y.L.Y.Y.Q.Y.Q.Q.Q.^.Q.^.^.(.^.D.6 4 0 6 4 1 1 4 - - ;.w.7.e.a.d.l.n.c.n.n.C.D.D.C.J.).).).",
").).).L.Y.L.Y.Y.Y.Q.Q.Q.Q.^.^.^.^.D.0 0 a r 0 6 4 4 0 6 1 1 ,.d.c.c.C.D.D.J.J.J.D.D.D.J.J.).).).",
").).).Y.Y.L.L.Q.Q.Y.Q.Q.Q.Q.^.^.D.6 0 a a h r 6 4 6 0 0 r 6 4 l.L.L.L.Y.L.Y.Y.Y.Y.Y.Y.L.Y.).).).",
").).).L.Y.Y.Y.Y.Y.Y.Q.Q.Q.^.Q.D.0 0 h h h h h a 0 a a h a h 0 0 D.Q.Q.Q.Q.Q.Q.Y.Y.Y.L.Y.Y.).).).",
").).).Y.L.Y.L.Y.Q.Y.Q.Y.Q.Q.C.0 r h h h h a r 0 a h h h h h h r 0 C.Q.Q.Q.Y.Y.Y.Y.L.L.L.L.).).).",
").).).L.L.L.L.Y.L.L.Y.L.Y.c.6 r a a r a r 0 0 0 0 h j j j j j j r r C.Q.Y.Q.Y.Y.Y.L.J.J.L.).).).",
").).).J.D.C.C.D.C.D.D.n.a.6 0 a a a r r 0 4 r 0 0 r r h j j j j j r 0 C.Y.Y.Y.Y.Y.L.L.J.L.).).).",
").).).C.C.n.n.c.l.l.d.a.c 6 r r r r r 0 H - r 0 0 r 4 ' j j j x x j a H Y.Y.Y.L.L.L.J.D.L.).).).",
").).).c.a.e.d.a.e.e.2.7.;.h r a r r 6 G O.1 r 0 0 r 1 w.{ j j x j x c l.Q.L.Y.L.L.L.J.J.J.).).).",
").).).d.e.w.7.2.2.2.,.;.$.;.j r r 0 H X.$.1 0 0 0 r 1 ;.e.' h x x m n.Y.Y.L.L.L.J.J.D.D.J.).).).",
").).).w.,.,.,.,.;.$.$.$.$.$.O.a 0 H { O.$.1 r 0 0 r 1 $.;.a.' h V n.Q.Y.Y.Y.L.L.J.J.D.D.J.).).).",
").).).7.,.,.$.$.$.$.O.O.O.{ ' O.{ { X.O.O.4 r 0 r r 1 $.$.,.e.e.n.Y.Q.Y.Y.L.J.J.J.J.D.D.D.).).).",
").).).2.O.O.O.O.O.O.X.X./ ' ! / / ' O.O.$.4 r r r a 4 O.O.O.,.w.d.D.L.L.Y.L.J.J.D.D.D.C.D.).).).",
").).).;.X.X.X.X.X.{ { / / ! / / / X.X.X.O.1 r r r a 4 O.X.X.O.,.w.d.C.J.L.J.J.J.D.D.C.C.D.).).).",
").).).$.X.X.X.{ { ' ! ! ! ! R / ' X.X.X.{ 4 r r a r 1 X.X.X.O.O.;.w.a.n.D.L.J.J.D.D.C.C.C.).).).",
").).).$.{ X.{ { / ! ! ! ! ! ! / { X.{ X.{ 4 r a r a 4 X.X.{ X.{ $.;.w.e.c.C.J.D.D.C.C.C.C.).).).",
").).).O.{ ' / ! / ! ! ! R ! ! { { { { { ' 4 a r a r 4 { { { { { { $.;.w.e.l.c.D.C.C.n.n.C.).).).",
").).).O.' / ! R R ! ! R R R ' ' ' { ' ' / c a a a a c ' ' { { ' { X.$.;.7.w.d.c.C.C.n.C.n.).).).",
").).).X.R ! R ! R R R R ! / / ' ' ' ' ' ! ' $.O.$.$.{ ' ' ' ' ' ' ' X.O.;.2.w.a.d.n.n.c.n.).).).",
").).)./ ! R R R R R K ! ! / ' / ' ' ' / ! G C G C C K ! / { / ' ' ' / X.X.;.,.7.a.a.c.c.n.).).).",
").).).X.K ! K ! K R R R ! / / ' / / / ! K G G G H G K ! ! / ' / / / / ' X.{ ;.,.2.e.e.d.c.).).).",
").).).K / K ! K R R R ! ! / / / / / ' ! K H G G G H H ! / / / / / ! / ' / O.{ $.,.,.e.w.$.).).).",
").).).j ! ! K R H R ! R ! / ! ! / / ! R H C C C C C C K ! / / R ! / ! ! ' / X.X.O.,.;.e.m ).).).",
").).).- x K { ! ' { ' { X.{ X.X.X.{ X.{ ' / / ' / ' ' ' { { X.O.{ { O.X.' O.O.O.;.;.X.m * ).).).",
").).).X - 4 0 r r a a a a a a h a h h j j j j j j h h h h h h h a a a a a a a r r 0 4 * + ).).).",
").).).. X * - 1 1 4 4 4 4 4 4 4 6 6 6 0 6 0 0 0 0 0 6 0 6 6 0 6 4 6 4 4 4 1 4 4 1 - * X   ).).).",
").).).).).                                                                            ).).).).).",
").).).).).).).).).).).).).).).).).).).).).).).).).).).).).).).).).).).).).).).).).).).).).).).).",
").).).).).).).).).).).).).).).).).).).).).).).).).).).).).).).).).).).).).).).).).).).).).).).)."
};
