<?xml version="1.0" encoding="UTF-8" standalone="no"?>
<!-- Created with Inkscape (http://www.inkscape.org/) -->

<svg
   xmlns:dc="http://purl.org/dc/elements/1.1/"
   xmlns:cc="http://creativecommons.org/ns#"
   xmlns:rdf="http://www.w3.org/1999/02/22-rdf-syntax-ns#"
   xmlns:svg="http://www.w3.org/2000/svg"
   xmlns="http://www.w3.org/2000/svg"
   xmlns:xlink="http://www.w3.org/1999/xlink"
   xmlns:sodipodi="http://sodipodi.sourceforge.net/DTD/sodipodi-0.dtd"
   xmlns:inkscape="http://www.inkscape.org/namespaces/inkscape"
   version="1.0"
   width="16"
   height="16"
   id="svg3506"
   inkscape:version="0.48.0 r9654"
   sodipodi:docname="firefox.svg">
  <metadata
     id="metadata77">
    <rdf:RDF>
      <cc:Work
         rdf:about="">
        <dc:format>image/svg+xml</dc:format>
        <dc:type
           rdf:resource="http://purl.org/dc/dcmitype/StillImage" />
        <dc:title />
      </cc:Work>
    </rdf:RDF>
  </metadata>
  <sodipodi:namedview
     pagecolor="#ffffff"
     bordercolor="#666666"
     borderopacity="1"
     objecttolerance="10"
     gridtolerance="10"
     guidetolerance="10"
     inkscape:pageopacity="0"
     inkscape:pageshadow="2"
     inkscape:window-width="1920"
     inkscape:window-height="1034"
     id="namedview75"
     showgrid="false"
     inkscape:zoom="1"
     inkscape:cx="9.1552857"
     inkscape:cy="10.710921"
     inkscape:window-x="0"
     inkscape:window-y="24"
     inkscape:window-maximized="1"
     inkscape:current-layer="svg3506" />
  <defs
     id="defs3508">
    <linearGradient
       id="linearGradient4033">
      <stop
         style="stop-color:#ffffff;stop-opacity:1;"
         offset="0"
         id="stop4035" />
      <stop
         style="stop-color:#000000;stop-opacity:0;"
         offset="1"
         id="stop4037" />
    </linearGradient>
    <linearGradient
       id="linearGradient3266">
      <stop
         id="stop3268"
         style="stop-color:#4e555a;stop-opacity:1"
         offset="0" />
      <stop
         id="stop3270"
         style="stop-color:#151c20;stop-opacity:1"
         offset="0.12283489" />
      <stop
         id="stop3272"
         style="stop-color:#9b876c;stop-opacity:1"
         offset="0.1449001" />
      <stop
         id="stop3274"
         style="stop-color:#9b876c;stop-opacity:1"
         offset="0.75216067" />
      <stop
         id="stop3276"
         style="stop-color:#9b876c;stop-opacity:1"
         offset="0.89876771" />
      <stop
         id="stop3278"
         style="stop-color:#c2c2c2;stop-opacity:1"
         offset="0.91783166" />
      <stop
         id="stop3280"
         style="stop-color:#c2c2c2;stop-opacity:1"
         offset="1" />
    </linearGradient>
    <linearGradient
       id="linearGradient3198">
      <stop
         id="stop3200"
         style="stop-color:#ffffff;stop-opacity:1"
         offset="0" />
      <stop
         id="stop3202"
         style="stop-color:#ffffff;stop-opacity:0"
         offset="1" />
    </linearGradient>
    <radialGradient
       cx="605.71429"
       cy="486.64789"
       r="117.14286"
       fx="605.71429"
       fy="486.64789"
       id="radialGradient3873"
       xlink:href="#linearGradient5060"
       gradientUnits="userSpaceOnUse"
       gradientTransform="matrix(2.409717e-2,0,0,1.537476e-2,26.477584,38.629039)" />
    <linearGradient
       id="linearGradient5060">
      <stop
         id="stop5062"
         style="stop-color:#000000;stop-opacity:1"
         offset="0" />
      <stop
         id="stop5064"
         style="stop-color:#000000;stop-opacity:0"
         offset="1" />
    </linearGradient>
    <radialGradient
       cx="605.71429"
       cy="486.64789"
       r="117.14286"
       fx="605.71429"
       fy="486.64789"
       id="radialGradient3586"
       xlink:href="#linearGradient5060"
       gradientUnits="userSpaceOnUse"
       gradientTransform="matrix(-2.409717e-2,0,0,1.537476e-2,21.522412,38.629039)" />
    <linearGradient
       id="linearGradient5048">
      <stop
         id="stop5050"
         style="stop-color:#000000;stop-opacity:0"
         offset="0" />
      <stop
         id="stop5056"
         style="stop-color:#000000;stop-opacity:1"
         offset="0.5" />
      <stop
         id="stop5052"
         style="stop-color:#000000;stop-opacity:0"
         offset="1" />
    </linearGradient>
    <linearGradient
       x1="302.85715"
       y1="366.64789"
       x2="302.85715"
       y2="609.50507"
       id="linearGradient3584"
       xlink:href="#linearGradient5048"
       gradientUnits="userSpaceOnUse"
       gradientTransform="matrix(7.04142e-2,0,0,1.537476e-2,-1.4497047,38.629007)" />
    <linearGradient
       id="linearGradient3319">
      <stop
         id="stop3321"
         style="stop-color:#af9b7f;stop-opacity:1"
         offset="0" />
      <stop
         id="stop3323"
         style="stop-color:#736148;stop-opacity:1"
         offset="1" />
    </linearGradient>
    <linearGradient
       x1="22.333973"
       y1="11.029935"
       x2="53.453438"
       y2="61.220222"
       id="linearGradient2878"
       xlink:href="#linearGradient3319"
       gradientUnits="userSpaceOnUse"
       gradientTransform="matrix(0.2335733,0,0,0.2514497,1.0113593,31.626064)" />
    <linearGradient
       id="linearGradient8967">
      <stop
         id="stop8969"
         style="stop-color:#ddcfbd;stop-opacity:1"
         offset="0" />
      <stop
         id="stop8971"
         style="stop-color:#856f50;stop-opacity:1"
         offset="1" />
    </linearGradient>
    <linearGradient
       x1="16.1015"
       y1="9.8888979"
       x2="38.491451"
       y2="45.999996"
       id="linearGradient2876"
       xlink:href="#linearGradient8967"
       gradientUnits="userSpaceOnUse"
       gradientTransform="matrix(0.3246402,0,0,0.3494863,1.0007861,30.943503)" />
    <linearGradient
       id="linearGradient8978">
      <stop
         id="stop8980"
         style="stop-color:#4d5459;stop-opacity:0.99607843"
         offset="0" />
      <stop
         id="stop8982"
         style="stop-color:#141b1f;stop-opacity:1"
         offset="1" />
    </linearGradient>
    <linearGradient
       x1="5.4800777"
       y1="25.019028"
       x2="8.5000601"
       y2="25.019028"
       id="linearGradient2873"
       xlink:href="#linearGradient8978"
       gradientUnits="userSpaceOnUse"
       gradientTransform="matrix(0.285718,0,0,0.3491879,0.8898079,30.952318)" />
    <linearGradient
       id="linearGradient3913">
      <stop
         id="stop3915"
         style="stop-color:#4e555a;stop-opacity:1"
         offset="0" />
      <stop
         id="stop3917"
         style="stop-color:#151c20;stop-opacity:1"
         offset="0.15977758" />
      <stop
         id="stop3919"
         style="stop-color:#9b876c;stop-opacity:1"
         offset="0.1672256" />
      <stop
         id="stop3921"
         style="stop-color:#9b876c;stop-opacity:1"
         offset="0.75216067" />
      <stop
         id="stop3923"
         style="stop-color:#9b876c;stop-opacity:1"
         offset="0.93860334" />
      <stop
         id="stop3925"
         style="stop-color:#c2c2c2;stop-opacity:1"
         offset="0.94891226" />
      <stop
         id="stop3927"
         style="stop-color:#c2c2c2;stop-opacity:1"
         offset="1" />
    </linearGradient>
    <linearGradient
       x1="5.7542129"
       y1="5.2438145"
       x2="55.495323"
       y2="0.065301567"
       id="linearGradient2867"
       xlink:href="#linearGradient3913"
       gradientUnits="userSpaceOnUse"
       gradientTransform="matrix(0.23724,0,0,0.2433387,1.0027589,31.669492)" />
    <linearGradient
       id="linearGradient2346">
      <stop
         id="stop2348"
         style="stop-color:#eeeeee;stop-opacity:1"
         offset="0" />
      <stop
         id="stop2350"
         style="stop-color:#d9d9da;stop-opacity:1"
         offset="1" />
    </linearGradient>
    <linearGradient
       x1="24.62738"
       y1="3.1234391"
       x2="24.640038"
       y2="4.882647"
       id="linearGradient2865"
       xlink:href="#linearGradient2346"
       gradientUnits="userSpaceOnUse"
       gradientTransform="matrix(0.3325521,0,0,0.5009252,0.6944427,30.370541)" />
    <linearGradient
       x1="28.25223"
       y1="4.0340509"
       x2="40.977692"
       y2="24.620178"
       id="linearGradient3204"
       xlink:href="#linearGradient3198"
       gradientUnits="userSpaceOnUse"
       gradientTransform="matrix(0.3333377,0,0,0.3333157,0.3183719,31.682439)" />
    <linearGradient
       x1="302.85715"
       y1="366.64789"
       x2="302.85715"
       y2="609.50507"
       id="linearGradient3223"
       xlink:href="#linearGradient5048"
       gradientUnits="userSpaceOnUse"
       gradientTransform="matrix(7.04142e-2,0,0,1.537476e-2,-1.4497047,38.629007)" />
    <radialGradient
       cx="605.71429"
       cy="486.64789"
       r="117.14286"
       fx="605.71429"
       fy="486.64789"
       id="radialGradient3225"
       xlink:href="#linearGradient5060"
       gradientUnits="userSpaceOnUse"
       gradientTransform="matrix(-2.409717e-2,0,0,1.537476e-2,21.522412,38.629039)" />
    <radialGradient
       cx="605.71429"
       cy="486.64789"
       r="117.14286"
       fx="605.71429"
       fy="486.64789"
       id="radialGradient3227"
       xlink:href="#linearGradient5060"
       gradientUnits="userSpaceOnUse"
       gradientTransform="matrix(2.409717e-2,0,0,1.537476e-2,26.477584,38.629039)" />
    <linearGradient
       x1="16.1015"
       y1="9.8888979"
       x2="38.491451"
       y2="45.999996"
       id="linearGradient3229"
       xlink:href="#linearGradient8967"
       gradientUnits="userSpaceOnUse"
       gradientTransform="matrix(0.3246402,0,0,0.3494863,1.0007861,30.943503)" />
    <linearGradient
       x1="22.333973"
       y1="11.029935"
       x2="53.453438"
       y2="61.220222"
       id="linearGradient3231"
       xlink:href="#linearGradient3319"
       gradientUnits="userSpaceOnUse"
       gradientTransform="matrix(0.2335733,0,0,0.2514497,1.0113593,31.626064)" />
    <linearGradient
       x1="5.4800777"
       y1="25.019028"
       x2="8.5000601"
       y2="25.019028"
       id="linearGradient3233"
       xlink:href="#linearGradient8978"
       gradientUnits="userSpaceOnUse"
       gradientTransform="matrix(0.285718,0,0,0.3491879,0.8898079,30.952318)" />
    <linearGradient
       x1="28.25223"
       y1="4.0340509"
       x2="40.977692"
       y2="24.620178"
       id="linearGradient3235"
       xlink:href="#linearGradient3198"
       gradientUnits="userSpaceOnUse"
       gradientTransform="matrix(0.3333377,0,0,0.3333157,0.3183719,31.682439)" />
    <linearGradient
       x1="24.62738"
       y1="3.1234391"
       x2="24.640038"
       y2="4.882647"
       id="linearGradient3237"
       xlink:href="#linearGradient2346"
       gradientUnits="userSpaceOnUse"
       gradientTransform="matrix(0.3325521,0,0,0.5009252,0.6944427,30.370541)" />
    <linearGradient
       x1="5.7542129"
       y1="5.2438145"
       x2="55.495323"
       y2="0.065301567"
       id="linearGradient3239"
       xlink:href="#linearGradient3913"
       gradientUnits="userSpaceOnUse"
       gradientTransform="matrix(0.23724,0,0,0.2433387,1.0027589,31.669492)" />
    <linearGradient
       x1="24.62738"
       y1="3.1234391"
       x2="24.640038"
       y2="4.882647"
       id="linearGradient3245"
       xlink:href="#linearGradient2346"
       gradientUnits="userSpaceOnUse"
       gradientTransform="matrix(0.3224214,0,0,0.9989825,0.7698118,-2.4457335)" />
    <linearGradient
       x1="5.7542129"
       y1="5.2438145"
       x2="55.495323"
       y2="0.065301567"
       id="linearGradient3247"
       xlink:href="#linearGradient3266"
       gradientUnits="userSpaceOnUse"
       gradientTransform="matrix(0.2300129,0,0,0.4852842,1.0687356,0.1447318)" />
    <linearGradient
       x1="28.25223"
       y1="4.0340509"
       x2="40.977692"
       y2="24.620178"
       id="linearGradient3250"
       xlink:href="#linearGradient3198"
       gradientUnits="userSpaceOnUse"
       gradientTransform="matrix(0.2864103,0,0,0.27442,0.9186109,2.2437301)" />
    <linearGradient
       x1="5.4800777"
       y1="25.019028"
       x2="8.5000601"
       y2="25.019028"
       id="linearGradient3255"
       xlink:href="#linearGradient8978"
       gradientUnits="userSpaceOnUse"
       gradientTransform="matrix(0.285718,0,0,0.357143,0.5714098,-0.428572)" />
    <linearGradient
       x1="16.1015"
       y1="9.8888979"
       x2="38.491451"
       y2="45.999996"
       id="linearGradient3258"
       xlink:href="#linearGradient8967"
       gradientUnits="userSpaceOnUse"
       gradientTransform="matrix(0.3147498,0,0,0.324524,0.7431131,0.7246387)" />
    <linearGradient
       x1="22.333973"
       y1="11.029935"
       x2="53.453438"
       y2="61.220222"
       id="linearGradient3260"
       xlink:href="#linearGradient3319"
       gradientUnits="userSpaceOnUse"
       gradientTransform="matrix(0.2264573,0,0,0.2334897,0.7533642,1.3584473)" />
    <radialGradient
       r="10.625"
       fy="4.625"
       fx="62.625"
       cy="4.625"
       cx="62.625"
       gradientTransform="matrix(1.013913,0,0,0.40967687,-52.604152,15.538961)"
       gradientUnits="userSpaceOnUse"
       id="radialGradient4105"
       xlink:href="#linearGradient8838-9"
       inkscape:collect="always" />
    <linearGradient
       id="linearGradient8838-9">
      <stop
         id="stop8840-2"
         style="stop-color:#000000;stop-opacity:1"
         offset="0" />
      <stop
         id="stop8842-6"
         style="stop-color:#000000;stop-opacity:0"
         offset="1" />
    </linearGradient>
    <radialGradient
       inkscape:collect="always"
       xlink:href="#linearGradient8647"
       id="radialGradient4080"
       gradientUnits="userSpaceOnUse"
       gradientTransform="matrix(0.83466688,0,0,0.69973016,-2.0298049,-0.59689226)"
       cx="12.465816"
       cy="5.3052077"
       fx="12.465816"
       fy="5.3052077"
       r="10.499999" />
    <linearGradient
       id="linearGradient8647">
      <stop
         style="stop-color:#8fb1dc;stop-opacity:1;"
         offset="0"
         id="stop8649" />
      <stop
         style="stop-color:#3465a4;stop-opacity:1;"
         offset="1"
         id="stop8651" />
    </linearGradient>
    <filter
       color-interpolation-filters="sRGB"
       inkscape:collect="always"
       id="filter4206">
      <feGaussianBlur
         inkscape:collect="always"
         stdDeviation="1.0589844"
         id="feGaussianBlur4208" />
    </filter>
    <linearGradient
       y2="-1.4615115"
       x2="62.200409"
       y1="-12.489107"
       x1="62.200409"
       gradientTransform="matrix(0.72981747,0,0,0.72980083,-37.015306,9.9601314)"
       gradientUnits="userSpaceOnUse"
       id="linearGradient3130"
       xlink:href="#linearGradient4873-1"
       inkscape:collect="always" />
    <linearGradient
       id="linearGradient4873-1">
      <stop
         id="stop4875-43"
         style="stop-color:#ffffff;stop-opacity:1"
         offset="0" />
      <stop
         id="stop4877-6"
         style="stop-color:#ffffff;stop-opacity:0"
         offset="1" />
    </linearGradient>
    <linearGradient
       gradientTransform="matrix(0.33427279,0,0,0.33860194,-0.02254857,-0.32651218)"
       inkscape:collect="always"
       xlink:href="#linearGradient4229"
       id="linearGradient4235"
       x1="1.6875"
       y1="23.852516"
       x2="46.3125"
       y2="23.852516"
       gradientUnits="userSpaceOnUse" />
    <linearGradient
       id="linearGradient4229">
      <stop
         style="stop-color:#f57900;stop-opacity:1;"
         offset="0"
         id="stop4231" />
      <stop
         style="stop-color:#f5ad00;stop-opacity:1;"
         offset="1"
         id="stop4233" />
    </linearGradient>
    <linearGradient
       gradientTransform="matrix(0.33427279,0,0,0.33860194,-0.02254857,-0.32651218)"
       inkscape:collect="always"
       xlink:href="#linearGradient4237"
       id="linearGradient4243"
       x1="1.6875"
       y1="23.852516"
       x2="46.3125"
       y2="23.852516"
       gradientUnits="userSpaceOnUse" />
    <linearGradient
       id="linearGradient4237">
      <stop
         style="stop-color:#c85a00;stop-opacity:1;"
         offset="0"
         id="stop4239" />
      <stop
         style="stop-color:#c86700;stop-opacity:1;"
         offset="1"
         id="stop4241" />
    </linearGradient>
    <radialGradient
       r="20.976337"
       fy="32.475872"
       fx="-20.094555"
       cy="32.475872"
       cx="-20.094555"
       gradientTransform="matrix(0.45536787,0.66836335,-0.637554,0.41127938,37.574317,7.1470536)"
       gradientUnits="userSpaceOnUse"
       id="radialGradient3131"
       xlink:href="#linearGradient6119-4"
       inkscape:collect="always" />
    <linearGradient
       inkscape:collect="always"
       id="linearGradient6119-4">
      <stop
         style="stop-color: rgb(255, 241, 227); stop-opacity: 1;"
         offset="0"
         id="stop6121-1" />
      <stop
         style="stop-color: rgb(255, 241, 227); stop-opacity: 0;"
         offset="1"
         id="stop6123-4" />
    </linearGradient>
    <linearGradient
       inkscape:collect="always"
       xlink:href="#linearGradient3490"
       id="linearGradient3496"
       x1="-18.198442"
       y1="23.479414"
       x2="44.828243"
       y2="12.947504"
       gradientUnits="userSpaceOnUse"
       gradientTransform="matrix(0.33581357,0,0,0.33581357,0.46745531,0.02872094)" />
    <linearGradient
       inkscape:collect="always"
       id="linearGradient3490">
      <stop
         style="stop-color: rgb(239, 41, 41); stop-opacity: 1;"
         offset="0"
         id="stop3492" />
      <stop
         style="stop-color: rgb(239, 41, 41); stop-opacity: 0;"
         offset="1"
         id="stop3494" />
    </linearGradient>
    <linearGradient
       inkscape:collect="always"
       xlink:href="#linearGradient11549"
       id="linearGradient1572"
       gradientUnits="userSpaceOnUse"
       gradientTransform="matrix(-0.00587106,0.01448515,-0.01242789,-0.00498573,11.541459,7.5516219)"
       x1="374.50772"
       y1="352.56131"
       x2="168.51511"
       y2="535.84491" />
    <linearGradient
       id="linearGradient11549">
      <stop
         id="stop11565"
         offset="0"
         style="stop-color:#fde1a2;stop-opacity:1;" />
      <stop
         style="stop-color: rgb(252, 218, 108); stop-opacity: 0;"
         offset="0.90625"
         id="stop3430-6" />
      <stop
         id="stop11553"
         offset="1.0000000"
         style="stop-color: rgb(255, 252, 181); stop-opacity: 1;" />
    </linearGradient>
    <linearGradient
       inkscape:collect="always"
       xlink:href="#linearGradient11549"
       id="linearGradient1580"
       gradientUnits="userSpaceOnUse"
       gradientTransform="matrix(1.4981383e-4,0.01562903,-0.01338952,1.760862e-4,10.950646,7.4054569)"
       x1="374.50772"
       y1="352.56131"
       x2="168.51511"
       y2="535.84491" />
    <linearGradient
       id="linearGradient4009">
      <stop
         id="stop4011"
         offset="0"
         style="stop-color:#fde1a2;stop-opacity:1;" />
      <stop
         style="stop-color: rgb(252, 218, 108); stop-opacity: 0;"
         offset="0.90625"
         id="stop4013" />
      <stop
         id="stop4015"
         offset="1.0000000"
         style="stop-color: rgb(255, 252, 181); stop-opacity: 1;" />
    </linearGradient>
    <linearGradient
       inkscape:collect="always"
       xlink:href="#linearGradient11549"
       id="linearGradient1584"
       gradientUnits="userSpaceOnUse"
       gradientTransform="matrix(-0.00998549,0.0120241,-0.010332,-0.00851821,10.349578,8.3712978)"
       x1="374.50772"
       y1="352.56131"
       x2="168.51511"
       y2="535.84491" />
    <linearGradient
       id="linearGradient4018">
      <stop
         id="stop4020"
         offset="0"
         style="stop-color:#fde1a2;stop-opacity:1;" />
      <stop
         style="stop-color: rgb(252, 218, 108); stop-opacity: 0;"
         offset="0.90625"
         id="stop4022" />
      <stop
         id="stop4024"
         offset="1.0000000"
         style="stop-color: rgb(255, 252, 181); stop-opacity: 1;" />
    </linearGradient>
    <linearGradient
       inkscape:collect="always"
       xlink:href="#linearGradient11549"
       id="linearGradient1438"
       gradientUnits="userSpaceOnUse"
       gradientTransform="matrix(0.01147834,-0.01060836,0.00912363,0.00980153,6.9918527,6.2671631)"
       x1="374.50772"
       y1="352.56131"
       x2="168.51511"
       y2="535.84491" />
    <linearGradient
       id="linearGradient4027">
      <stop
         id="stop4029"
         offset="0"
         style="stop-color:#fde1a2;stop-opacity:1;" />
      <stop
         style="stop-color: rgb(252, 218, 108); stop-opacity: 0;"
         offset="0.90625"
         id="stop4031" />
      <stop
         id="stop4033"
         offset="1.0000000"
         style="stop-color: rgb(255, 252, 181); stop-opacity: 1;" />
    </linearGradient>
    <linearGradient
       inkscape:collect="always"
       xlink:href="#linearGradient11549"
       id="linearGradient1442"
       gradientUnits="userSpaceOnUse"
       gradientTransform="matrix(0.01526118,-0.00337425,0.00293745,0.01306453,7.0871893,5.3223232)"
       x1="374.50772"
       y1="352.56131"
       x2="168.51511"
       y2="535.84491" />
    <linearGradient
       id="linearGradient4036">
      <stop
         id="stop4038"
         offset="0"
         style="stop-color:#fde1a2;stop-opacity:1;" />
      <stop
         style="stop-color: rgb(252, 218, 108); stop-opacity: 0;"
         offset="0.90625"
         id="stop4040" />
      <stop
         id="stop4042"
         offset="1.0000000"
         style="stop-color: rgb(255, 252, 181); stop-opacity: 1;" />
    </linearGradient>
    <linearGradient
       inkscape:collect="always"
       xlink:href="#linearGradient11549"
       id="linearGradient1446"
       gradientUnits="userSpaceOnUse"
       gradientTransform="matrix(0.01529415,0.00322154,-0.0027133,0.01311291,7.7463219,5.7728916)"
       x1="374.50772"
       y1="352.56131"
       x2="168.51511"
       y2="535.84491" />
    <linearGradient
       id="linearGradient4045">
      <stop
         id="stop4047"
         offset="0"
         style="stop-color:#fde1a2;stop-opacity:1;" />
      <stop
         style="stop-color: rgb(252, 218, 108); stop-opacity: 0;"
         offset="0.90625"
         id="stop4049" />
      <stop
         id="stop4051"
         offset="1.0000000"
         style="stop-color: rgb(255, 252, 181); stop-opacity: 1;" />
    </linearGradient>
    <radialGradient
       r="10.625"
       fy="4.625"
       fx="62.625"
       cy="4.625"
       cx="62.625"
       gradientTransform="matrix(0.72693757,0,0,0.29372294,-37.43633,11.349722)"
       gradientUnits="userSpaceOnUse"
       id="radialGradient4069"
       xlink:href="#linearGradient8838-9"
       inkscape:collect="always" />
    <radialGradient
       inkscape:collect="always"
       xlink:href="#linearGradient6119-4"
       id="radialGradient3981"
       gradientUnits="userSpaceOnUse"
       gradientTransform="matrix(0.43865563,0.64988923,-0.61415543,0.39991128,37.635289,7.0567938)"
       cx="-20.094555"
       cy="32.475872"
       fx="-20.094555"
       fy="32.475872"
       r="20.976337" />
    <linearGradient
       gradientTransform="matrix(0.33581355,0,0,0.33581355,0.06867672,-0.15787115)"
       inkscape:collect="always"
       xlink:href="#linearGradient4229-5"
       id="linearGradient4235-4"
       x1="1.6875"
       y1="23.852516"
       x2="46.3125"
       y2="23.852516"
       gradientUnits="userSpaceOnUse" />
    <linearGradient
       id="linearGradient4229-5">
      <stop
         style="stop-color:#f57900;stop-opacity:1;"
         offset="0"
         id="stop4231-1" />
      <stop
         style="stop-color:#f5ad00;stop-opacity:1;"
         offset="1"
         id="stop4233-0" />
    </linearGradient>
    <linearGradient
       gradientTransform="matrix(0.33581355,0,0,0.33581355,0.06867672,-0.15787115)"
       inkscape:collect="always"
       xlink:href="#linearGradient4237-7"
       id="linearGradient4243-3"
       x1="1.6875"
       y1="23.852516"
       x2="46.3125"
       y2="23.852516"
       gradientUnits="userSpaceOnUse" />
    <linearGradient
       id="linearGradient4237-7">
      <stop
         style="stop-color:#c85a00;stop-opacity:1;"
         offset="0"
         id="stop4239-8" />
      <stop
         style="stop-color:#c86700;stop-opacity:1;"
         offset="1"
         id="stop4241-8" />
    </linearGradient>
    <linearGradient
       inkscape:collect="always"
       xlink:href="#linearGradient4033"
       id="linearGradient4039"
       x1="4.2253619"
       y1="1.1507576"
       x2="19.109165"
       y2="1.1507576"
       gradientUnits="userSpaceOnUse"
       gradientTransform="matrix(0,0.94715201,-1,0,9.2824871,-3.0756323)" />
  </defs>
  <path
     inkscape:connector-curvature="0"
     style="opacity:0.3;fill:url(#radialGradient4069);fill-opacity:1;fill-rule:evenodd;stroke:none;stroke-width:0.99999988;marker:none;visibility:visible;display:inline;overflow:visible"
     id="path8836"
     d="m 15.811853,12.708192 c 0,1.723577 -3.458023,3.120811 -7.7237125,3.120811 -4.2656875,0 -7.72371156,-1.397234 -7.72371156,-3.120811 0,-1.723576 3.45802406,-3.1208111 7.72371156,-3.1208111 4.2656895,0 7.7237125,1.3972351 7.7237125,3.1208111 z" />
  <path
     style="fill:url(#radialGradient4080);fill-opacity:1;stroke:#204a87;stroke-width:0.50536513;stroke-linecap:round;stroke-linejoin:round;stroke-miterlimit:4;stroke-opacity:1;stroke-dasharray:none;stroke-dashoffset:0"
     d="m 8.3696034,0.45268345 c -3.7928693,0 -6.8669208,3.12996235 -6.8669208,6.99182085 0,3.8618587 3.0740515,7.0028137 6.8669208,7.0028127 3.7928686,0 6.8777206,-3.140954 6.8777136,-7.0028127 0,-3.8618585 -3.084845,-6.99182085 -6.8777136,-6.99182085 z"
     id="path2555"
     inkscape:connector-curvature="0" />
  <path
     inkscape:connector-curvature="0"
     style="opacity:0.1;fill:#000000;fill-opacity:1;fill-rule:evenodd;stroke:none;filter:url(#filter4206)"
     d="m 44.21875,7.328125 c 4.573145,2.250552 6.788749,7.955579 7.5,13.375 -0.747725,-0.583873 -1.422354,-0.995434 -1.8125,-1.03125 0.945349,2.853931 1.351501,5.509282 1.53125,7.3125 -2.9e-5,0.0026 1.2e-4,0.02855 0,0.03125 -0.240129,1.031205 -0.558074,2.04471 -0.96875,3 -0.605191,-1.384489 -1.316265,-2.624561 -1.84375,-3.09375 -0.03413,-0.02904 -0.09242,-0.07149 -0.125,-0.09375 -0.01608,-0.01026 -0.04684,-0.02277 -0.0625,-0.03125 -0.346678,4.077818 -1.498386,7.388022 -2,8.8125 -0.0029,0.0082 -4.319353,2.6875 -6.9375,2.6875 -2.819755,10e-7 -6.124722,-2.03002 -7.144929,-3.553893 1.856753,0.719965 2.609351,0.934787 3.977358,0.934787 3.393162,0 5.767648,-3.731613 5.730071,-4.162144 -6.08e-4,-0.0056 -1.279143,-1.99059 -2.09375,-2.375 -0.01059,-0.0056 -0.05205,-0.02611 -0.0625,-0.03125 -1.703629,0.271437 -3.306888,1.26159 -5.75,1.65625 -0.0048,-0.0044 -3.22405,-1.100086 -3.5625,-2.9375 1.150591,-0.248113 2.723805,-0.30563 3.461771,0.08683 -0.598177,-1.397325 -0.970026,-2.557313 -1.430521,-3.49308 1.750108,-0.597096 4.037349,-2.917692 4.28125,-4.625 10e-7,0 -4.261447,-0.13788 -5.21875,-1.09375 -0.0039,-0.0041 -0.0253,-0.02552 -0.03125,-0.03125 -0.0069,-0.0071 -0.02925,-0.02966 -0.03125,-0.03125 0.113378,-0.830264 0.324835,-1.546396 0.59375,-2.0625 -3.1e-4,-0.0015 -9.6e-5,-0.02414 0,-0.03125 0.632179,-0.994356 1.754423,-3.933808 1.75,-3.9375 -0.01038,-0.0056 -4.279729,0.43004 -6.40625,2.6875 -3.575063,-0.144139 -5.310998,2.739778 -8.3,-3.8875 -1.624542,2.11854 -2.456865,4.888987 -1.60625,8.23125 0.0018,0.007 -1.29e-4,0.02995 0,0.03125 -0.0056,0.0057 -0.0256,0.02554 -0.03125,0.03125 2.68e-4,0.0016 8.4e-5,0.02417 0,0.03125 -0.865138,1.238773 -2.183927,4.479108 -2.1875,7.3125 0.336206,-0.262439 0.777963,-0.556233 1.28125,-0.84375 -0.02314,0.472668 -0.03125,0.937682 -0.03125,1.40625 0,11.624869 9.437632,21.062501 21.0625,21.0625 11.62487,10e-7 21.062498,-9.437631 21.0625,-21.0625 0,-9.536027 -5.550805,-17.628571 -14.25,-20.21875 l -0.34375,-0.0625 z"
     id="path1711-6"
     sodipodi:nodetypes="cccsscsscsscssscccccsssssssccssssccssscc"
     transform="matrix(0.30504015,0,0,0.30504015,-3.1444671,-0.89208305)" />
  <path
     style="opacity:0.5;fill:none;stroke:url(#linearGradient3130);stroke-width:0.34500667;stroke-miterlimit:4;stroke-opacity:1;stroke-dasharray:none"
     id="path8655"
     d="m 14.762258,7.3976943 c 0,3.5251367 -2.857807,6.3828467 -6.3825391,6.3828467 -3.5250542,0 -6.3826995,-2.857741 -6.3826995,-6.3828467 0,-3.5249735 2.8576453,-6.382392 6.3826995,-6.382392 3.5247321,0 6.3825391,2.8574185 6.3825391,6.382392 l 0,0 z"
     inkscape:connector-curvature="0" />
  <path
     style="opacity:0.4;fill:#000000;fill-opacity:1;fill-rule:nonzero;stroke:none"
     id="path6534"
     d="M 8.3529096,1.0216457 7.5378849,1.114955 6.6413591,1.3598919 c 0.076368,-0.026778 0.1537326,-0.056008 0.2328638,-0.081646 L 6.7694338,1.0916272 6.4201375,1.1499459 6.2454884,1.3132371 5.9776967,1.3482285 5.7331889,1.4648653 5.6167577,1.5231832 5.5818274,1.5698379 5.4071797,1.6048293 5.3023921,1.826439 5.1626726,1.5465107 5.1160989,1.6631475 5.1393857,1.9780667 4.9181655,2.1646854 4.7900902,2.5029321 l 0.2677934,0 0.1047883,-0.2216099 0.034931,-0.081645 C 5.3153475,2.1162624 5.4269713,2.0233668 5.546897,1.9430757 l 0.2794368,0.09331 c 0.1819343,0.123822 0.3651459,0.2496024 0.5472299,0.3732367 L 6.6413556,2.1646855 6.3386324,2.0363852 6.1989137,1.7564571 5.6866128,1.6981383 5.6749694,1.6398195 5.8961889,1.6864733 6.0242649,1.5581732 6.3037008,1.4998544 c 0.066126,-0.032219 0.131179,-0.055424 0.1979347,-0.081647 l -0.1746478,0.1632914 0.6287331,0.4315561 0,0.2566004 L 6.7112129,2.5145932 7.0372215,3.1677595 7.2584431,3.0394585 7.5378806,2.6079027 C 7.9307484,2.4862282 8.2848247,2.3446413 8.6556295,2.1763493 L 8.6323408,2.3396406 8.8186321,2.4679408 9.1446416,2.2463311 8.9816364,2.0597124 8.760415,2.1880126 8.690558,2.1646872 c 0.016048,-0.00734 0.030458,-0.01586 0.046577,-0.023325 L 9.0631475,1.3015766 8.3529123,1.0216487 z m -3.190238,1.2596763 0.2677934,0.1866187 0.2212217,0 0,-0.2216097 -0.2677933,-0.1166368 -0.2212218,0.1516278 0,0 z m 6.1825404,-0.1516278 -0.477371,0.1166368 -0.302722,0.1982823 0,0.1749549 -0.477371,0.303255 0.09315,0.4548846 0.279436,-0.1982829 0.174647,0.1982829 0.197936,0.1166364 0.128075,-0.3382468 -0.06986,-0.1982827 0.06986,-0.1399646 0.279436,-0.2565999 0.128076,0 -0.128076,0.2799288 0,0.2566002 c 0.115177,-0.031405 0.231432,-0.043638 0.349297,-0.058318 l -0.32601,0.2332744 -0.02328,0.1399634 -0.372582,0.3149198 -0.384226,-0.093311 0,-0.2216094 -0.174648,0.1166367 0.08151,0.198283 -0.279437,0 -0.1513598,0.2566003 -0.1862913,0.2099464 -0.337653,0.069981 0.1979354,0.1982823 0.046577,0.1982825 -0.2445073,0 -0.3260104,0.1749554 0,0.5132004 0.1513607,0 0.1397203,0.1516286 0.3143651,-0.1516286 0.1164325,-0.3149187 0.2328648,-0.1399641 0.04658,-0.1166367 0.372581,-0.093311 0.209578,0.2332744 0.221221,0.1166362 -0.128077,0.2566015 0.197936,-0.058319 0.104789,-0.2566009 -0.256151,-0.291592 0.104789,0 0.25615,0.2099464 0.04657,0.2799281 0.221221,0.2566009 0.05823,-0.3732371 0.116429,-0.058319 c 0.123935,0.1288853 0.221628,0.2865036 0.32601,0.4315562 l 0.384227,0.023334 0.22122,0.1399641 L 12.463,5.7454369 12.24178,5.94372 l -0.326011,0 L 11.48495,5.8037565 11.263729,5.8270835 11.100724,6.0137027 10.634996,5.5471554 10.308987,5.4538464 9.8316143,5.5121664 9.412459,5.6288026 C 9.1733407,5.9003569 8.9285321,6.1749027 8.7022158,6.4569232 L 8.4344217,7.1100884 8.5624984,7.250053 8.3296327,7.5883001 8.5857834,8.1831474 C 8.7989288,8.424682 9.0133247,8.664587 9.2261598,8.9062944 l 0.3143679,-0.2682645 0.128074,0.1632911 0.3376523,-0.2216088 0.116433,0.1283005 0.337652,0 0.197936,0.2216087 -0.116434,0.3965649 0.232866,0.2682648 -0.01165,0.4665469 0.174649,0.338246 -0.128077,0.291593 c -0.01249,0.209133 -0.02328,0.409006 -0.02328,0.618174 0.102729,0.283368 0.20572,0.566041 0.302724,0.851447 l 0.06986,0.454883 0,0.233273 0.186288,0 0.267796,-0.174954 0.32601,0 0.489014,-0.548193 -0.05822,-0.186619 0.326009,-0.29159 -0.244508,-0.268266 0.291079,-0.233274 0.279439,-0.174955 0.128075,-0.139964 -0.08151,-0.314918 c 0,-0.26513 0,-0.527965 0,-0.7931301 l 0.221219,-0.4898736 0.279436,-0.3032559 0.302724,-0.746474 0,-0.1982833 c -0.150645,0.019014 -0.295038,0.036149 -0.442442,0.046653 l 0.302723,-0.3032559 0.419157,-0.2799279 0.22122,-0.2566022 0,-0.2799268 C 14.322268,6.8170136 14.271599,6.7150011 14.22108,6.6202119 l -0.197934,0.233273 -0.151362,-0.1749546 -0.221222,-0.1749559 0,-0.3615738 0.256151,0.2915915 0.29108,-0.034993 c 0.131315,0.1194196 0.257405,0.2256061 0.372584,0.361573 l 0.186295,-0.2099515 c 0,-0.2260242 -0.254123,-1.3418402 -0.803381,-2.2860794 -0.54925,-0.9439244 -1.513609,-1.8078656 -1.513609,-1.8078656 l -0.06986,0.1283004 -0.256152,0.2799279 -0.326009,-0.3382462 0.326009,0 L 12.265024,2.3629682 11.659576,2.2463313 11.345209,2.1296945 z M 4.3476481,2.281322 4.2312156,2.5845774 c 0,0 -0.203844,0.033713 -0.2561499,0.046655 -0.6680027,0.6166455 -2.0150694,1.9541752 -2.3286405,4.4671867 0.012415,0.058269 0.221221,0.3965638 0.221221,0.3965638 l 0.5123013,0.3032557 0.5123005,0.1399633 0.2212209,0.2682646 0.3376527,0.2566008 0.197934,-0.034994 0.1397196,0.069983 0,0.046645 -0.186292,0.5248651 -0.1513616,0.2216109 0.046574,0.104973 -0.1164318,0.4198918 0.4307984,0.7931289 0.4424424,0.384902 0.1979334,0.279927 -0.023287,0.583183 0.1397181,0.326583 -0.1397181,0.62984 c 0,0 -0.018641,-0.0052 0,0.05831 0.018806,0.06353 0.7783102,0.490885 0.826667,0.454882 0.048188,-0.03668 0.093145,-0.06998 0.093145,-0.06998 l -0.046575,-0.13996 0.1979341,-0.186619 0.06986,-0.198283 0.3143665,-0.104972 0.244507,-0.606511 -0.06986,-0.163292 0.1630039,-0.2566 0.3725832,-0.08165 L 6.781074,11.075712 6.7345,10.527519 7.0255812,10.119291 7.0721552,9.6994001 C 6.6727807,9.5010204 6.2809486,9.2971681 5.884551,9.0929055 L 5.6866165,8.708005 5.3256774,8.6263594 5.1277426,8.1014934 4.6503712,8.1598068 4.2312156,7.8565525 l -0.4424412,0.384902 0,0.05831 C 3.6562532,8.2614505 3.4992635,8.2558154 3.3812651,8.1831346 l -0.093146,-0.2799293 0,-0.3032551 -0.302723,0.034994 c 0.024362,-0.1931665 0.056969,-0.3900508 0.0815,-0.5831838 l -0.1746484,0 -0.1746465,0.2216074 -0.1630045,0.081646 -0.2445075,-0.1399641 -0.023283,-0.3032549 0.046572,-0.3265833 0.360939,-0.2799281 0.2910805,0 0.058217,-0.1632919 0.3609385,0.081645 L 3.6723485,6.5618837 3.7189229,6.0020254 4.1846517,5.6171243 4.347656,5.2088968 4.6969522,5.0689322 4.8832427,4.7890034 5.3256853,4.7073588 5.5469062,4.3807756 c -0.2189646,0 -0.444698,0 -0.6636635,0 L 5.302399,4.182493 l 0.2910797,0 L 5.966061,4.0541931 6.0359212,4.4157663 6.1989269,4.1591655 6.0126356,4.0308653 6.0592095,3.8792379 5.9078466,3.7392732 5.7448416,3.6926191 5.7914155,3.5176643 5.6633401,3.2727275 5.3722592,3.3893637 5.418833,3.1677543 5.0811802,2.9694714 4.8133869,3.4360183 4.8366739,3.5993099 4.5688804,3.7159464 4.4058755,4.0775203 4.3243726,3.7392737 3.8702887,3.552655 3.7887856,3.2960542 4.4058753,2.9461442 4.673668,2.6895433 4.6969547,2.3862879 4.545593,2.3046424 4.3476577,2.2813182 l -3.6e-6,-4e-7 z m 4.9949342,0.559857 0,0.1866174 0.1047872,0.1166375 0,0.2799282 L 9.3891434,3.7975994 9.691866,3.7392797 9.9130895,3.5176698 9.7151538,3.3310504 C 9.6509782,3.1598226 9.5859248,3.0054103 9.5055865,2.841179 l -0.1630042,0 z m -0.2561516,0.3732363 -0.1862911,0.05832 0.046577,0.3382458 0.2445072,-0.1283013 -0.104788,-0.268264 0,0 z m 3.4114593,3.067546 0.279437,0.3265819 0.337653,0.7231476 0.209576,0.2332738 -0.104787,0.2449373 0.186291,0.2216103 c -0.08549,0.00567 -0.168283,0.011672 -0.25615,0.011672 C 12.990283,7.7071705 12.863954,7.3683053 12.742397,7.0167819 L 12.532818,6.7835083 12.416387,6.363616 l 0.08151,-0.081645 0,-1.3e-6 z"
     inkscape:connector-curvature="0" />
  <path
     inkscape:connector-curvature="0"
     style="fill:url(#linearGradient4235);fill-opacity:1;fill-rule:evenodd;stroke:url(#linearGradient4243);stroke-width:0.50091845;stroke-linecap:round;stroke-linejoin:miter;stroke-miterlimit:4;stroke-opacity:1;stroke-dasharray:none;stroke-dashoffset:0"
     d="M 10.371245,0.75045922 C 11.899924,1.5125005 12.640542,3.444234 12.878293,5.2792606 12.628348,5.08156 12.402838,4.942205 12.272421,4.9300778 c 0.316008,0.9663462 0.451772,1.8654527 0.511858,2.4760262 -1.1e-5,8.674e-4 4e-5,0.00967 0,0.010585 -0.08027,0.3491681 -0.186549,0.6923428 -0.323827,1.0158061 -0.2023,-0.4687911 -0.439992,-0.8886822 -0.616317,-1.0475508 -0.01141,-0.00983 -0.03088,-0.024204 -0.04177,-0.031742 -0.0054,-0.00354 -0.01566,-0.00771 -0.02091,-0.010576 -0.115885,1.380758 -0.500869,2.5016 -0.668544,2.9839297 -9.5e-4,0.0027 -1.4438426,0.909995 -2.3190185,0.909995 -0.9425666,0 -2.0473276,-0.68737 -2.3883557,-1.203358 0.6206629,0.243784 0.8722349,0.316523 1.3295237,0.316523 1.1342413,0 1.9279676,-1.2635328 1.915406,-1.4093116 C 9.6502661,8.9385255 9.2228865,8.2663849 8.950585,8.1362233 8.9470055,8.134348 8.9331874,8.1273812 8.9296859,8.125647 8.3602151,8.217555 7.8242886,8.5528231 7.0076233,8.6864556 7.0060532,8.6850097 5.9299102,8.3139646 5.816776,7.6918111 6.2013869,7.6078003 6.7272704,7.5883257 6.973952,7.721212 6.7740009,7.2480737 6.6497019,6.8552982 6.4957713,6.5384459 7.0807848,6.336269 7.8453476,5.5505109 7.9268759,4.9724126 c 1.8e-6,0 -1.4244852,-0.046685 -1.7444855,-0.3703457 -0.00134,-0.00136 -0.00845,-0.00864 -0.010448,-0.010583 -0.00228,-0.00241 -0.00978,-0.010041 -0.010448,-0.010583 0.037903,-0.2811289 0.1085832,-0.5236129 0.1984738,-0.6983662 -1.032e-4,-5.079e-4 -3.13e-5,-0.00817 0,-0.010583 C 6.5712886,3.5352576 6.9464237,2.5399533 6.9449464,2.5387033 6.9415207,2.536802 5.5143485,2.6843156 4.803511,3.4486962 3.6084713,3.3998934 3.0281944,4.3763932 2.029053,2.1323835 1.4860127,2.8497254 1.2077895,3.787804 1.4921271,4.9195015 c 5.917e-4,0.00234 -4.3e-5,0.010142 0,0.010583 -0.00189,0.00195 -0.00856,0.00865 -0.010446,0.010582 8.96e-5,5.42e-4 2.8e-5,0.00818 0,0.010583 C 1.192489,5.370699 0.75165349,6.4678824 0.75045922,7.4272738 0.86284361,7.3384134 1.0105111,7.2389334 1.1787462,7.1415795 c -0.00774,0.1600457 -0.010445,0.3175004 -0.010445,0.4761588 0,3.9362027 3.1547433,7.1318037 7.0406205,7.1318027 3.8858773,10e-7 7.0406193,-3.1956 7.0406193,-7.1318027 0,-3.2289175 -1.855482,-5.969069 -4.763386,-6.84610862 L 10.371246,0.7504613 z"
     id="path1711"
     sodipodi:nodetypes="cccsscsscsscssscccccsssssssccssssccssscc" />
  <path
     inkscape:connector-curvature="0"
     style="opacity:0.75;fill:url(#linearGradient3496);fill-opacity:1;fill-rule:evenodd;stroke:none"
     d="m 11.652286,1.5831641 c 1.169872,1.4712142 1.736419,3.4843556 1.658492,5.0613778 -0.464873,2.4627416 -0.852219,3.5785691 -1.855922,4.7283821 -0.002,0.0039 -0.0085,0.0066 -0.01049,0.01049 -0.0037,0.0035 -0.0068,0.0072 -0.0105,0.01049 -0.0013,0.0025 0.002,0.0084 0,0.01049 -0.772492,0.854991 -1.7230991,1.165738 -4.3251673,1.399369 C 4.8431372,13.008346 2.6816467,10.789147 2.1537474,9.9277604 3.3017289,13.277907 6.6516504,14.372471 8.6896009,14.246739 12.471987,14.024935 14.29053,11.070942 14.801552,8.6448448 15.260426,6.1999433 14.606631,3.0240142 11.652282,1.5831625 z"
     id="path2729"
     sodipodi:nodetypes="cccsssccccc" />
  <path
     inkscape:connector-curvature="0"
     style="fill:#ffffff;fill-opacity:0.675978;fill-rule:evenodd;stroke:none"
     d="M 7.3004186,5.4629536 C 7.0000399,6.0983957 6.4106608,6.3183382 5.9936774,6.4282082 6.0918569,6.114783 6.3113685,5.9785812 6.3830962,5.913059 6.6370931,5.8111561 6.6719751,5.8758763 7.3004186,5.4629536 z"
     id="path2726"
     sodipodi:nodetypes="cccc" />
  <path
     inkscape:connector-curvature="0"
     style="fill:#2e3436;fill-opacity:1;fill-rule:evenodd;stroke:none"
     d="M 7.3615826,5.4688968 C 7.1681355,5.8477125 6.800771,6.0953875 6.6296098,6.1780836 6.7209475,5.8192352 6.5290776,5.4778585 6.3752644,5.2591728 6.7772401,5.395461 6.9474452,5.4059172 7.3615828,5.4688959 z"
     id="rect8531"
     sodipodi:nodetypes="cccc" />
  <path
     style="opacity:0.65;fill:url(#linearGradient1572);fill-opacity:1;fill-rule:evenodd;stroke:none"
     d="M 5.2842973,11.122443 C 4.130354,10.519265 3.1298142,9.5766362 3.649118,7.9220248 l 0.6870142,0.022994 c -0.03739,1.375178 0.2848693,2.0962912 0.9481651,3.1774242 z"
     id="path1570"
     sodipodi:nodetypes="cccc"
     inkscape:connector-curvature="0" />
  <path
     style="opacity:0.65;fill:url(#linearGradient1580);fill-opacity:1;fill-rule:evenodd;stroke:none"
     d="M 6.5474922,13.107639 C 5.2503368,12.994521 3.9642724,12.509063 3.8074577,10.781977 L 4.4504993,10.53905 c 0.4942409,1.283836 1.0689924,1.825606 2.0969929,2.568589 z"
     id="path1578"
     sodipodi:nodetypes="cccc"
     inkscape:connector-curvature="0" />
  <path
     style="opacity:0.65;fill:url(#linearGradient1584);fill-opacity:1;fill-rule:evenodd;stroke:none"
     d="M 3.304411,9.8775005 C 2.3875867,8.9529251 1.7198395,7.7513662 2.7162463,6.3320039 L 3.3639684,6.56216 C 2.9115057,7.8613095 3.0000247,8.6461777 3.3044082,9.8775005 z"
     id="path1582"
     sodipodi:nodetypes="cccc"
     inkscape:connector-curvature="0" />
  <path
     style="opacity:0.65;fill:url(#linearGradient1438);fill-opacity:1;fill-rule:evenodd;stroke:none"
     d="m 14.173824,5.69937 c 0.787436,1.0369902 1.291574,2.3158464 0.117368,3.5920344 L 13.679311,8.9781637 C 14.298497,7.7497007 14.313838,6.9600062 14.173824,5.69937 z"
     id="path1436"
     sodipodi:nodetypes="cccc"
     inkscape:connector-curvature="0" />
  <path
     style="opacity:0.65000006;fill:url(#linearGradient1442);fill-opacity:1;fill-rule:evenodd;stroke:none"
     d="m 13.575804,8.4529698 c 0.157203,1.2925545 -0.05218,2.6511502 -1.709664,3.1612572 l -0.37049,-0.57901 c 1.154092,-0.748723 1.565485,-1.4229677 2.080154,-2.5822472 z"
     id="path1440"
     sodipodi:nodetypes="cccc"
     inkscape:connector-curvature="0" />
  <path
     style="opacity:0.65;fill:url(#linearGradient1446);fill-opacity:1;fill-rule:evenodd;stroke:none"
     d="m 12.365739,11.301349 c -0.389979,1.242306 -1.14116,2.393549 -2.861463,2.174516 L 9.4056217,12.795583 C 10.7658,12.589602 11.418692,12.145096 12.365739,11.301349 z"
     id="path1444"
     sodipodi:nodetypes="cccc"
     inkscape:connector-curvature="0" />
</svg>
