<?xml version="1.0" encoding="UTF-8" standalone="no"?>
<!-- Created with Inkscape (http://www.inkscape.org/) -->

<svg
   xmlns:dc="http://purl.org/dc/elements/1.1/"
   xmlns:cc="http://creativecommons.org/ns#"
   xmlns:rdf="http://www.w3.org/1999/02/22-rdf-syntax-ns#"
   xmlns:svg="http://www.w3.org/2000/svg"
   xmlns="http://www.w3.org/2000/svg"
   xmlns:xlink="http://www.w3.org/1999/xlink"
   xmlns:inkscape="http://www.inkscape.org/namespaces/inkscape"
   version="1.0"
   width="96"
   height="96"
   id="svg2408">
  <defs
     id="defs2410">
    <linearGradient
       id="linearGradient4384">
      <stop
         id="stop4386"
         style="stop-color:#ffffff;stop-opacity:1"
         offset="0" />
      <stop
         id="stop4388"
         style="stop-color:#ffffff;stop-opacity:0"
         offset="1" />
    </linearGradient>
    <linearGradient
       id="linearGradient4367">
      <stop
         id="stop4369"
         style="stop-color:#ffffff;stop-opacity:0.71755725"
         offset="0" />
      <stop
         id="stop4371"
         style="stop-color:#ffffff;stop-opacity:1"
         offset="1" />
    </linearGradient>
    <linearGradient
       x1="45.447727"
       y1="92.539597"
       x2="45.447727"
       y2="7.0165396"
       id="ButtonShadow"
       gradientUnits="userSpaceOnUse"
       gradientTransform="scale(1.0058652,0.994169)">
      <stop
         id="stop3750"
         style="stop-color:#000000;stop-opacity:1"
         offset="0" />
      <stop
         id="stop3752"
         style="stop-color:#000000;stop-opacity:0.58823532"
         offset="1" />
    </linearGradient>
    <linearGradient
       id="linearGradient3737">
      <stop
         id="stop3739"
         style="stop-color:#ffffff;stop-opacity:1"
         offset="0" />
      <stop
         id="stop3741"
         style="stop-color:#ffffff;stop-opacity:0"
         offset="1" />
    </linearGradient>
    <filter
       color-interpolation-filters="sRGB"
       id="filter3174">
      <feGaussianBlur
         id="feGaussianBlur3176"
         stdDeviation="1.71" />
    </filter>
    <filter
       x="-0.192"
       y="-0.192"
       width="1.3839999"
       height="1.3839999"
       color-interpolation-filters="sRGB"
       id="filter3794">
      <feGaussianBlur
         id="feGaussianBlur3796"
         stdDeviation="5.28" />
    </filter>
    <linearGradient
       x1="48"
       y1="20.220806"
       x2="48"
       y2="138.66119"
       id="linearGradient3613"
       xlink:href="#linearGradient3737"
       gradientUnits="userSpaceOnUse" />
    <linearGradient
       x1="45.447727"
       y1="92.539597"
       x2="45.447727"
       y2="7.0165396"
       id="ButtonShadow-0"
       gradientUnits="userSpaceOnUse"
       gradientTransform="matrix(1.0058652,0,0,0.994169,100,0)">
      <stop
         id="stop3750-8"
         style="stop-color:#000000;stop-opacity:1"
         offset="0" />
      <stop
         id="stop3752-5"
         style="stop-color:#000000;stop-opacity:0.58823532"
         offset="1" />
    </linearGradient>
    <linearGradient
       x1="32.251034"
       y1="6.1317081"
       x2="32.251034"
       y2="90.238609"
       id="linearGradient3780"
       xlink:href="#ButtonShadow-0"
       gradientUnits="userSpaceOnUse"
       gradientTransform="matrix(1.0238095,0,0,1.0119048,-1.1428571,-98.071429)" />
    <linearGradient
       x1="32.251034"
       y1="6.1317081"
       x2="32.251034"
       y2="90.238609"
       id="linearGradient3772"
       xlink:href="#ButtonShadow-0"
       gradientUnits="userSpaceOnUse"
       gradientTransform="matrix(1.0238095,0,0,1.0119048,-1.1428571,-98.071429)" />
    <linearGradient
       x1="32.251034"
       y1="6.1317081"
       x2="32.251034"
       y2="90.238609"
       id="linearGradient3725"
       xlink:href="#ButtonShadow-0"
       gradientUnits="userSpaceOnUse"
       gradientTransform="matrix(1.0238095,0,0,1.0119048,-1.1428571,-98.071429)" />
    <linearGradient
       x1="32.251034"
       y1="6.1317081"
       x2="32.251034"
       y2="90.238609"
       id="linearGradient3721"
       xlink:href="#ButtonShadow-0"
       gradientUnits="userSpaceOnUse"
       gradientTransform="translate(0,-97)" />
    <linearGradient
       x1="32.251034"
       y1="6.1317081"
       x2="32.251034"
       y2="90.238609"
       id="linearGradient3026"
       xlink:href="#ButtonShadow-0"
       gradientUnits="userSpaceOnUse"
       gradientTransform="matrix(1.0238095,0,0,1.0119048,-1.1428571,-98.071429)" />
    <clipPath
       id="clipPath4355">
      <rect
         width="84"
         height="80"
         rx="6"
         ry="6"
         x="6"
         y="6"
         id="rect4357"
         style="fill:#ffffff;fill-opacity:1;fill-rule:nonzero;stroke:none" />
    </clipPath>
    <radialGradient
       cx="48"
       cy="87.792389"
       r="42"
       fx="48"
       fy="87.792389"
       id="radialGradient4375"
       xlink:href="#linearGradient4367"
       gradientUnits="userSpaceOnUse"
       gradientTransform="matrix(1,-6.7114942e-8,8.4282233e-8,1.2557894,109.99999,-24.505592)" />
    <linearGradient
       x1="48"
       y1="88"
       x2="48"
       y2="-40"
       id="linearGradient4390"
       xlink:href="#linearGradient4384"
       gradientUnits="userSpaceOnUse"
       gradientTransform="matrix(1,0,0,-1,0,92)" />
    <linearGradient
       x1="48"
       y1="82"
       x2="112.12357"
       y2="82.454597"
       id="linearGradient4429"
       xlink:href="#linearGradient4384"
       gradientUnits="userSpaceOnUse"
       spreadMethod="reflect" />
    <linearGradient
       id="linearGradient3892">
      <stop
         id="stop3894"
         style="stop-color:#000000;stop-opacity:0.58823532"
         offset="0" />
      <stop
         id="stop3896"
         style="stop-color:#000000;stop-opacity:0.47058824"
         offset="0.11780351" />
      <stop
         id="stop3898"
         style="stop-color:#000000;stop-opacity:0.39215687"
         offset="0.23809524" />
      <stop
         id="stop3900"
         style="stop-color:#000000;stop-opacity:0.3137255"
         offset="1" />
    </linearGradient>
    <linearGradient
       x1="90"
       y1="88"
       x2="48"
       y2="88"
       id="linearGradient3228"
       xlink:href="#linearGradient3892"
       gradientUnits="userSpaceOnUse"
       spreadMethod="reflect" />
    <linearGradient
       id="linearGradient3187">
      <stop
         id="stop3189"
         style="stop-color:#b4b4b4;stop-opacity:1"
         offset="0" />
      <stop
         id="stop3191"
         style="stop-color:#e6e6e6;stop-opacity:1"
         offset="1" />
    </linearGradient>
    <linearGradient
       x1="43.17857"
       y1="13"
       x2="43.17857"
       y2="83.294571"
       id="linearGradient3436-4"
       xlink:href="#linearGradient3465-9"
       gradientUnits="userSpaceOnUse"
       gradientTransform="matrix(1.0294118,0,0,1.0294118,-1.4117647,-1.4117647)" />
    <linearGradient
       id="linearGradient3465-9">
      <stop
         id="stop3467-0"
         style="stop-color:#919191;stop-opacity:1"
         offset="0" />
      <stop
         id="stop3469-9"
         style="stop-color:#fdfdfd;stop-opacity:1"
         offset="1" />
    </linearGradient>
    <linearGradient
       x1="48"
       y1="90"
       x2="48"
       y2="5.9877172"
       id="linearGradient3388"
       xlink:href="#linearGradient3187"
       gradientUnits="userSpaceOnUse" />
    <linearGradient
       id="linearGradient3687">
      <stop
         id="stop3689"
         style="stop-color:#ffffff;stop-opacity:1"
         offset="0" />
      <stop
         id="stop3691"
         style="stop-color:#ffffff;stop-opacity:0"
         offset="1" />
    </linearGradient>
    <linearGradient
       x1="76.45089"
       y1="8.0625"
       x2="76.45089"
       y2="72.765785"
       id="linearGradient3483"
       xlink:href="#linearGradient3687"
       gradientUnits="userSpaceOnUse" />
    <clipPath
       id="clipPath3907-9">
      <path
         d="m -68,12 0,71.875 71.9375,0 L 3.9375,12 -68,12 z m 36,12 c 5.344692,0 9.687507,3.992831 9.6875,8.9375 -0.02133,0.621424 -0.07398,1.335406 -0.125,2.0625 0.730245,0.543315 0.778989,2.170384 0.0625,3.84375 -0.258603,0.603976 -0.555928,1.075565 -0.90625,1.5 -0.113311,0.524949 -0.197851,0.951157 -0.34375,1.5625 -0.396974,1.180487 -1.938671,3.498551 -3.125,5.3125 -0.07646,1.206398 -0.0877,2.400163 0.0625,3.625 3.709677,3.197549 13.39093,4.950832 13.40625,7.6875 L -12,66.84375 c 0,1.679322 -2.544846,3.197858 -6.53125,4.25 l -0.6875,2.375 A 1.4052899,1.3929762 0 0 1 -20.0625,74.375 c -0.18137,0.06953 -0.315419,0.200704 -0.8125,0.34375 C -23.493482,75.472297 -27.516862,76 -32,76 c -4.483138,0 -8.475268,-0.527703 -11.09375,-1.28125 -0.497081,-0.143046 -0.631128,-0.27418 -0.8125,-0.34375 a 1.4052899,1.3929762 0 0 1 -0.875,-0.9375 l -0.5625,-2.28125 C -49.429991,70.102441 -52,68.547059 -52,66.84375 l 1.28125,-8.3125 c -0.0144,-3.197542 9.588017,-4.598837 13.34375,-7.6875 0.261803,-1.513002 0.255123,-2.826115 0.125,-4.15625 -1.304823,-1.724246 -2.766418,-3.714925 -3.125,-4.78125 -0.11575,-0.525153 -0.18554,-0.878183 -0.28125,-1.34375 -0.01345,-0.01457 -0.04914,-0.04755 -0.0625,-0.0625 -0.400969,-0.447139 -0.802819,-0.976777 -1.09375,-1.65625 -0.754478,-1.762097 -0.627089,-3.521792 0.21875,-3.96875 -0.05944,-0.70484 -0.08077,-1.339582 -0.09375,-1.90625 C -41.6875,28.02408 -37.344692,24 -32,24 z"
         inkscape:connector-curvature="0"
         id="path3909-4"
         style="fill:url(#radialGradient3911);fill-opacity:1;fill-rule:nonzero;stroke:none" />
    </clipPath>
    <filter
       x="-0.27599999"
       y="-0.21230771"
       width="1.552"
       height="1.4246154"
       color-interpolation-filters="sRGB"
       id="filter3913">
      <feGaussianBlur
         id="feGaussianBlur3915"
         stdDeviation="4.5999998" />
    </filter>
    <linearGradient
       x1="65.15625"
       y1="16.125"
       x2="65.15625"
       y2="69.687508"
       id="linearGradient2675-4"
       xlink:href="#linearGradient3737-0-0"
       gradientUnits="userSpaceOnUse" />
    <linearGradient
       id="linearGradient3737-0-0">
      <stop
         id="stop3739-6-5"
         style="stop-color:#ffffff;stop-opacity:1"
         offset="0" />
      <stop
         id="stop3741-4-9"
         style="stop-color:#ffffff;stop-opacity:0"
         offset="1" />
    </linearGradient>
    <linearGradient
       id="linearGradient3487-6">
      <stop
         id="stop3489-9"
         style="stop-color:#9bb7d3;stop-opacity:1"
         offset="0" />
      <stop
         id="stop3491-2"
         style="stop-color:#e6edf4;stop-opacity:0"
         offset="1" />
    </linearGradient>
    <linearGradient
       x1="65.15625"
       y1="16.125"
       x2="65.15625"
       y2="69.687508"
       id="linearGradient3337"
       xlink:href="#linearGradient3487-6"
       gradientUnits="userSpaceOnUse" />
    <linearGradient
       id="linearGradient3175-3">
      <stop
         id="stop3177-1"
         style="stop-color:#53a3e1;stop-opacity:1"
         offset="0" />
      <stop
         id="stop3179-1"
         style="stop-color:#29618d;stop-opacity:1"
         offset="1" />
    </linearGradient>
    <radialGradient
       cx="56.065952"
       cy="-15.871236"
       r="35.9375"
       fx="56.065952"
       fy="-15.871236"
       id="radialGradient3354"
       xlink:href="#linearGradient3175-3"
       gradientUnits="userSpaceOnUse"
       gradientTransform="matrix(0.00225966,0.925477,-1.3844339,0,25.901984,-30.21143)" />
  </defs>
  <metadata
     id="metadata2413">
    <rdf:RDF>
      <cc:Work
         rdf:about="">
        <dc:format>image/svg+xml</dc:format>
        <dc:type
           rdf:resource="http://purl.org/dc/dcmitype/StillImage" />
        <dc:title />
      </cc:Work>
    </rdf:RDF>
  </metadata>
  <g
     id="layer2"
     style="display:none">
    <rect
       width="86"
       height="85"
       rx="6"
       ry="6"
       x="5"
       y="7"
       id="rect3745"
       style="opacity:0.9;fill:url(#ButtonShadow);fill-opacity:1;fill-rule:nonzero;stroke:none;filter:url(#filter3174)" />
  </g>
  <g
     id="layer3"
     style="display:inline">
    <path
       d="m 12,-95.03125 c -5.5110903,0 -10.03125,4.52016 -10.03125,10.03125 l 0,71 c 0,5.5110902 4.5201598,10.03125 10.03125,10.03125 l 72,0 c 5.51109,0 10.03125,-4.5201597 10.03125,-10.03125 l 0,-71 c 0,-5.51109 -4.52016,-10.03125 -10.03125,-10.03125 l -72,0 z"
       transform="scale(1,-1)"
       id="path3786"
       style="opacity:0.07999998;fill:url(#linearGradient3026);fill-opacity:1;fill-rule:nonzero;stroke:none;display:inline" />
    <path
       d="m 12,-94.03125 c -4.971633,0 -9.03125,4.059617 -9.03125,9.03125 l 0,71 c 0,4.9716329 4.0596171,9.03125 9.03125,9.03125 l 72,0 c 4.971633,0 9.03125,-4.059617 9.03125,-9.03125 l 0,-71 c 0,-4.971633 -4.059617,-9.03125 -9.03125,-9.03125 l -72,0 z"
       transform="scale(1,-1)"
       id="path3778"
       style="opacity:0.1;fill:url(#linearGradient3780);fill-opacity:1;fill-rule:nonzero;stroke:none;display:inline" />
    <path
       d="m 12,-93 c -4.4091333,0 -8,3.590867 -8,8 l 0,71 c 0,4.4091333 3.5908667,8 8,8 l 72,0 c 4.409133,0 8,-3.5908667 8,-8 l 0,-71 c 0,-4.409133 -3.590867,-8 -8,-8 l -72,0 z"
       transform="scale(1,-1)"
       id="path3770"
       style="opacity:0.2;fill:url(#linearGradient3772);fill-opacity:1;fill-rule:nonzero;stroke:none;display:inline" />
    <rect
       width="86"
       height="85"
       rx="7"
       ry="7"
       x="5"
       y="-92"
       transform="scale(1,-1)"
       id="rect3723"
       style="opacity:0.3;fill:url(#linearGradient3725);fill-opacity:1;fill-rule:nonzero;stroke:none;display:inline" />
    <rect
       width="84"
       height="84"
       rx="6"
       ry="6"
       x="6"
       y="-91"
       transform="scale(1,-1)"
       id="rect3716"
       style="opacity:0.45;fill:url(#linearGradient3721);fill-opacity:1;fill-rule:nonzero;stroke:none;display:inline" />
  </g>
  <g
     id="layer1">
    <path
       d="m 12.0625,12.0625 0,53.875 71.875,0 0,-53.875 -71.875,0 z"
       transform="matrix(-1.0008688,0,0,-1.3339699,96.010451,99.96593)"
       id="path3215"
       style="fill:url(#radialGradient3354);fill-opacity:1;fill-rule:nonzero;stroke:none;display:inline" />
    <path
       d="m 19,13 c -3.289406,0 -6,2.71059 -6,6 l 0,54 c 0,3.28941 2.710594,6 6,6 l 58,0 c 3.289411,0 6.000001,-2.71059 6.000001,-6 l 0,-54 c 0,-3.28941 -2.71059,-6 -6.000001,-6 z m 0,4 58,0 c 1.142594,0 2,0.85741 2,2 l 0,54 c 0,1.14259 -0.857406,2 -2,2 l -58,0 c -1.142594,0 -2,-0.85741 -2,-2 l 0,-54 c 0,-1.14259 0.857406,-2 2,-2 z"
       inkscape:connector-curvature="0"
       id="rect3222"
       style="font-size:medium;font-style:normal;font-variant:normal;font-weight:normal;font-stretch:normal;text-indent:0;text-align:start;text-decoration:none;line-height:normal;letter-spacing:normal;word-spacing:normal;text-transform:none;direction:ltr;block-progression:tb;writing-mode:lr-tb;text-anchor:start;opacity:0.07999998;color:#000000;fill:#000000;fill-opacity:1;stroke:none;stroke-width:4;marker:none;visibility:visible;display:inline;overflow:visible;enable-background:accumulate;font-family:Abandoned Bitplane;-inkscape-font-specification:Abandoned Bitplane" />
    <path
       d="m 17,14 c -1.662,0 -3,1.338 -3,3 l 0,58 c 0,1.662 1.338,3 3,3 l 62,0 c 1.662001,0 3.000001,-1.338 3.000001,-3 l 0,-58 c 0,-1.662 -1.338,-3 -3.000001,-3 z m 0,1.9375 62,0 c 0.618163,0 1.062501,0.44434 1.062501,1.0625 l 0,58 c 0,0.61816 -0.444338,1.0625 -1.062501,1.0625 l -62,0 c -0.618163,0 -1.0625,-0.44434 -1.0625,-1.0625 l 0,-58 c 0,-0.61816 0.444337,-1.0625 1.0625,-1.0625 z"
       inkscape:connector-curvature="0"
       id="rect3981"
       style="opacity:0.1;color:#000000;fill:#000000;fill-opacity:1;fill-rule:nonzero;stroke:none;stroke-width:1;marker:none;visibility:visible;display:inline;overflow:visible;enable-background:accumulate" />
    <path
       d="m 17,14 c -1.662,0 -3,1.338 -3,3 l 0,58 c 0,1.662 1.338,3 3,3 l 62,0 c 1.662001,0 3.000001,-1.338 3.000001,-3 l 0,-58 c 0,-1.662 -1.338,-3 -3.000001,-3 z m 0,0.96875 62,0 c 1.140081,0 2.031251,0.89117 2.031251,2.03125 l 0,58 c 0,1.14008 -0.89117,2.03125 -2.031251,2.03125 l -62,0 c -1.140081,0 -2.03125,-0.89117 -2.03125,-2.03125 l 0,-58 c 0,-1.14008 0.891169,-2.03125 2.03125,-2.03125 z"
       inkscape:connector-curvature="0"
       id="rect3977"
       style="opacity:0.25;color:#000000;fill:#000000;fill-opacity:1;fill-rule:nonzero;stroke:none;stroke-width:1;marker:none;visibility:visible;display:inline;overflow:visible;enable-background:accumulate" />
    <path
       d="M 12,6 C 8.676,6 6,8.676 6,12 l 0,72 c 0,3.324 2.676,6 6,6 l 72,0 c 3.324,0 6,-2.676 6,-6 L 90,12 C 90,8.676 87.324,6 84,6 z m 5,8 1,0 60,0 1,0 c 1.683774,0 3,1.316227 3,3 l 0,1 c 0,20.333333 0,36.666667 0,57 10e-7,1.683774 -1.316227,3 -3,3 -21.545716,0 -43.541072,0 -62,0 -1.683771,0 -3,-1.316227 -3,-3 0,-20.333333 0,-36.666667 0,-57 l 0,-1 c 0,-1.683772 1.316227,-3 3,-3 z"
       inkscape:connector-curvature="0"
       id="rect2419"
       style="fill:url(#linearGradient3388);fill-opacity:1;fill-rule:nonzero;stroke:none;display:inline" />
    <rect
       width="70"
       height="66"
       rx="4"
       ry="4"
       x="13.000001"
       y="13.000001"
       id="rect3425"
       style="fill:none;stroke:url(#linearGradient3436-4);stroke-width:2;stroke-linecap:square;stroke-linejoin:round;stroke-miterlimit:4;stroke-opacity:0.69658119;stroke-dasharray:none;stroke-dashoffset:0;display:inline" />
    <path
       d="M 120.78125,6.125 C 118.04223,6.6826484 116,9.0915 116,12 l 0,68 c 0,3.324 2.676,6 6,6 l 72,0 c 3.324,0 6,-2.676 6,-6 l 0,-68 c 0,-2.9085 -2.04223,-5.3173516 -4.78125,-5.875 2.20512,0.5362071 3.8125,2.4908437 3.8125,4.875 l 0,68 c 0,2.80489 -2.22636,5.03125 -5.03125,5.03125 l -72,0 c -2.80489,0 -5.03125,-2.22636 -5.03125,-5.03125 l 0,-68 c 0,-2.3841563 1.60738,-4.3387929 3.8125,-4.875 z"
       inkscape:connector-curvature="0"
       id="rect4359"
       style="opacity:0.2;fill:url(#radialGradient4375);fill-opacity:1;fill-rule:nonzero;stroke:none" />
    <path
       d="M 12,86 C 8.676,86 6,83.324 6,80 L 6,12 C 6,8.676 8.676,6 12,6 l 72,0 c 3.324,0 6,2.676 6,6 l 0,68 c 0,3.324 -2.676,6 -6,6 z m 0,-0.96875 72,0 c 2.80489,0 5.03125,-2.22636 5.03125,-5.03125 l 0,-68 C 89.03125,9.19511 86.80489,6.96875 84,6.96875 l -72,0 C 9.1951102,6.96875 6.96875,9.19511 6.96875,12 l 0,68 c 0,2.80489 2.2263602,5.03125 5.03125,5.03125 z"
       inkscape:connector-curvature="0"
       id="rect4377"
       style="opacity:0.45;fill:url(#linearGradient4390);fill-opacity:1;fill-rule:nonzero;stroke:none" />
    <path
       d="m 6,78 0,2 c 0,3.324 2.676,6 6,6 l 72,0 c 3.324,0 6,-2.676 6,-6 l 0,-2 c 0,3.324 -2.676,6 -6,6 L 12,84 C 8.676,84 6,81.324 6,78 z"
       inkscape:connector-curvature="0"
       id="rect4414"
       style="opacity:0.15;fill:url(#linearGradient4429);fill-opacity:1;fill-rule:nonzero;stroke:none" />
    <path
       d="m 6,100 0,1 c 0,3.324 2.676,6 6,6 l 72,0 c 3.324,0 6,-2.676 6,-6 l 0,-1 c 0,3.324 -2.676,6 -6,6 l -72,0 c -3.324,0 -6,-2.676 -6,-6 z"
       inkscape:connector-curvature="0"
       id="path4412"
       style="opacity:0.15;fill:#000000;fill-opacity:1;fill-rule:nonzero;stroke:none" />
    <path
       d="m -32.000011,24.000047 c -5.344692,0 -9.677419,4.008446 -9.677419,8.953116 0.01298,0.566668 0.02121,1.213684 0.08065,1.918524 -0.845839,0.446958 -0.956091,2.194858 -0.201613,3.956955 0.290931,0.679473 0.687741,1.231568 1.08871,1.678707 0.01336,0.01495 0.02688,0.02535 0.04033,0.03992 0.09571,0.465567 0.166509,0.833802 0.282259,1.358955 0.358582,1.066325 1.840339,3.072065 3.145162,4.796311 0.130123,1.330135 0.140827,2.643804 -0.120976,4.156806 -3.755733,3.088663 -13.36117,4.476556 -13.346774,7.674098 L -52,66.847042 c 0,1.703309 2.566985,3.262871 6.653226,4.31668 l 0.564516,2.27825 a 1.4052899,1.3929762 0 0 0 0.887097,0.919293 c 0.181372,0.06957 0.30937,0.216674 0.806451,0.35972 2.618482,0.753547 6.605572,1.279012 11.08871,1.279012 4.483138,0 8.51055,-0.525465 11.129032,-1.279012 0.497081,-0.143046 0.62508,-0.290189 0.80645,-0.35972 a 1.4052899,1.3929762 0 0 0 0.846776,-0.879325 l 0.685484,-2.398156 C -14.545854,70.031642 -12,68.526364 -12,66.847042 l -1.290327,-8.313598 c -0.01532,-2.736668 -9.677421,-4.476556 -13.387098,-7.674105 -0.150198,-1.224837 -0.157125,-2.430796 -0.08066,-3.637194 1.186329,-1.813949 2.748187,-4.135429 3.145161,-5.315916 0.145899,-0.611343 0.209269,-1.033853 0.32258,-1.558802 0.350322,-0.424435 0.668816,-0.914854 0.927419,-1.51883 0.716489,-1.673366 0.649595,-3.293734 -0.08065,-3.837049 0.05102,-0.727094 0.09963,-1.417008 0.120962,-2.038432 7e-6,-4.944669 -4.332719,-8.953114 -9.677411,-8.953114 z"
       inkscape:connector-curvature="0"
       transform="translate(80,-2.0000002)"
       clip-path="url(#clipPath3907-9)"
       id="path3126"
       style="opacity:0.8;fill:#ffffff;fill-opacity:1;stroke:none;display:inline;filter:url(#filter3913);enable-background:new" />
    <path
       d="m 47.999989,22.000047 c -5.344692,0 -9.677419,4.008446 -9.677419,8.953116 0.01298,0.566668 0.02121,1.213684 0.08065,1.918524 -0.845839,0.446958 -0.956091,2.194858 -0.201613,3.956955 0.290931,0.679473 0.687741,1.231568 1.08871,1.678707 0.01336,0.01495 0.02688,0.02535 0.04033,0.03992 0.09571,0.465567 0.166509,0.833802 0.282259,1.358955 0.358582,1.066325 1.840339,3.072065 3.145162,4.796311 0.130123,1.330135 0.140827,2.643804 -0.120976,4.156806 -3.755733,3.088663 -13.36117,4.476556 -13.346774,7.674098 L 28,64.847042 c 0,1.703309 2.566985,3.262871 6.653226,4.31668 l 0.564516,2.27825 a 1.4052899,1.3929762 0 0 0 0.887097,0.919293 c 0.181372,0.06957 0.30937,0.216674 0.806451,0.35972 2.618482,0.753547 6.605572,1.279012 11.08871,1.279012 4.483138,0 8.51055,-0.525465 11.129032,-1.279012 0.497081,-0.143046 0.62508,-0.290189 0.80645,-0.35972 a 1.4052899,1.3929762 0 0 0 0.846776,-0.879325 l 0.685484,-2.398156 C 65.454146,68.031642 68,66.526364 68,64.847042 l -1.290327,-8.313598 c -0.01532,-2.736668 -9.677421,-4.476556 -13.387098,-7.674105 -0.150198,-1.224837 -0.157125,-2.430796 -0.08066,-3.637194 1.186329,-1.813949 2.748187,-4.135429 3.145161,-5.315916 0.145899,-0.611343 0.209269,-1.033853 0.32258,-1.558802 0.350322,-0.424435 0.668816,-0.914854 0.927419,-1.51883 0.716489,-1.673366 0.649595,-3.293734 -0.08065,-3.837049 0.05102,-0.727094 0.09963,-1.417008 0.120962,-2.038432 7e-6,-4.944669 -4.332719,-8.953114 -9.677411,-8.953114 z"
       inkscape:connector-curvature="0"
       id="path3798"
       style="fill:#173a56;fill-opacity:1;stroke:none;display:inline;enable-background:new" />
  </g>
  <g
     id="layer4"
     style="display:inline">
    <path
       d="m 6,80 0,4 c 0,3.324 2.676,6 6,6 l 72,0 c 3.324,0 6,-2.676 6,-6 l 0,-4 c 0,3.324 -2.676,6 -6,6 L 12,86 C 8.676,86 6,83.324 6,80 z"
       inkscape:connector-curvature="0"
       id="path3888"
       style="fill:url(#linearGradient3228);fill-opacity:1;fill-rule:nonzero;stroke:none;display:inline" />
    <path
       d="m 6,82 0,2 c 0,3.324 2.676,6 6,6 l 72,0 c 3.324,0 6,-2.676 6,-6 l 0,-2 c 0,3.324 -2.676,6 -6,6 L 12,88 C 8.676,88 6,85.324 6,82 z"
       inkscape:connector-curvature="0"
       id="rect4345"
       style="opacity:0.1;color:#000000;fill:#000000;fill-opacity:1;fill-rule:nonzero;stroke:none;stroke-width:1.5;marker:none;visibility:visible;display:inline;overflow:visible;enable-background:accumulate" />
    <path
       d="m 6,83 0,1 c 0,3.324 2.676,6 6,6 l 72,0 c 3.324,0 6,-2.676 6,-6 l 0,-1 c 0,3.324 -2.676,6 -6,6 L 12,89 C 8.676,89 6,86.324 6,83 z"
       inkscape:connector-curvature="0"
       id="rect4336"
       style="opacity:0.15;color:#000000;fill:#000000;fill-opacity:1;fill-rule:nonzero;stroke:none;stroke-width:1.5;marker:none;visibility:visible;display:inline;overflow:visible;enable-background:accumulate" />
  </g>
  <g
     id="layer5"
     style="display:none">
    <rect
       width="66"
       height="62"
       rx="12"
       ry="12"
       x="15"
       y="15"
       clip-path="url(#clipPath4355)"
       id="rect3171"
       style="opacity:0.1;fill:url(#linearGradient3613);fill-opacity:1;fill-rule:nonzero;stroke:#ffffff;stroke-width:0.5;stroke-linecap:round;stroke-linejoin:miter;stroke-miterlimit:4;stroke-opacity:1;stroke-dasharray:none;stroke-dashoffset:0;filter:url(#filter3794)" />
  </g>
  <g
     id="layer6">
    <path
       d="m 44.84375,8.0625 1.34375,3.875 31.8125,0 1,0 c 2.753976,0 5.0625,2.308526 5.0625,5.0625 l 0,1 0,56 0,1 c 0,2.753977 -3.115146,3.115146 -5.0625,5.0625 l -1,0 -6.875,0 1.34375,3.875 11.53125,0 c 2.221843,0 3.9375,-1.715657 3.9375,-3.9375 l 0,-68 C 87.9375,9.7781575 86.221843,8.0625 84,8.0625 z"
       inkscape:connector-curvature="0"
       id="path3660"
       style="opacity:0.4;fill:url(#linearGradient3483);fill-opacity:1;fill-rule:evenodd;stroke:none;display:inline" />
    <path
       d="m 47.65625,16.125 22.03125,59.75 9.3125,0 c 0.538805,0 0.875,-0.336196 0.875,-0.875 l 0,-58 c 0,-0.538805 -0.336194,-0.875 -0.875,-0.875 z"
       inkscape:connector-curvature="0"
       id="path3664"
       style="opacity:0.7;fill:url(#linearGradient3337);fill-opacity:1;fill-rule:evenodd;stroke:none;display:inline" />
    <path
       d="m 47.65625,16.125 22.03125,59.75 1,0 -22.03125,-59.75 z"
       inkscape:connector-curvature="0"
       id="path2669"
       style="opacity:0.5;fill:url(#linearGradient2675-4);fill-opacity:1;fill-rule:evenodd;stroke:none;display:inline" />
  </g>
</svg>
