/* XPM */
static char *x[] = {
/* columns rows colors chars-per-pixel */
"22 22 36 1 ",
"  c #959595",
". c #A0A0A0",
"X c #A6A6A6",
"o c #A7A7A7",
"O c #B0B0B0",
"+ c #B2B2B2",
"@ c #B4B4B4",
"# c #B8B8B8",
"$ c #BCBCBC",
"% c #BFBFBF",
"& c #C0C0C0",
"* c #C1C1C1",
"= c #C5C5C5",
"- c #C7C7C7",
"; c #C8C8C8",
": c #C9C9C9",
"> c #CDCDCD",
", c #CECECE",
"< c #D1D1D1",
"1 c #D3D3D3",
"2 c #D5D5D5",
"3 c #D6D6D6",
"4 c #D9D9D9",
"5 c #DCDCDC",
"6 c #DDDDDD",
"7 c #DEDEDE",
"8 c #E0E0E0",
"9 c #E1E1E1",
"0 c #E2E2E2",
"q c #E6E6E6",
"w c #E7E7E7",
"e c #E9E9E9",
"r c #EDEDED",
"t c #EEEEEE",
"y c #F3F3F3",
"u c None",
/* pixels */
"uuuuuuuuuuuuuuuuuuuuuu",
"uuuuuuuuuuuuuuuuuuuuuu",
"uuuuuuuuuuuuuuuuuuuuuu",
"uuuuuuruuuuuuuuruuuuuu",
"uuuu2yry2uuuu2yry2uuuu",
"uuuerwwwreuuerwwwreuuu",
"uu0w00000wrrw000w0e0uu",
"uuu&55555500555555$uuu",
"uuuuu24444uu44442uuuuu",
"uuuuuu>222uu222>uuuuuu",
"uuuuu:2111uu1112:uuuuu",
"uuuu55>>>>uu:>>>55uuuu",
"uuu02:::::uu:::::20uuu",
"uu::======uu======::uu",
"uuuu&&&&&&ew&&&&&&uuuu",
"uuuuu@$$$$uu$$$$Ouuuuu",
"uuuuuu.###uu###.uuuuuu",
"uuuuuuuuO@00@Ouuuuuuuu",
"uuuuuuuuuoOOouuuuuuuuu",
"uuuuuuuuuu  uuuuuuuuuu",
"uuuuuuuuuuuuuuuuuuuuuu",
"uuuuuuuuuuuuuuuuuuuuuu"
};
