/* XPM */
static char *x[] = {
/* columns rows colors chars-per-pixel */
"22 22 48 1 ",
"  c #000000",
". c #060606",
"X c #181818",
"o c #1A1A1A",
"O c #1D1D1D",
"+ c #3D3D3D",
"@ c #414141",
"# c #494949",
"$ c #6A6A6A",
"% c #717171",
"& c #868686",
"* c #939393",
"= c #9C9C9C",
"- c #ACACAC",
"; c #B0B0B0",
": c #B3B3B3",
"> c #B4B4B4",
", c #B6B6B6",
"< c #B7B7B7",
"1 c #B8B8B8",
"2 c #BBBBBB",
"3 c #BFBFBF",
"4 c #C3C3C3",
"5 c #C7C7C7",
"6 c #CACACA",
"7 c #CBCBCB",
"8 c #CCCCCC",
"9 c #CDCDCD",
"0 c #CECECE",
"q c #D0D0D0",
"w c #D1D1D1",
"e c #D2D2D2",
"r c #D6D6D6",
"t c #D9D9D9",
"y c #DADADA",
"u c #DCDCDC",
"i c #DDDDDD",
"p c #DEDEDE",
"a c #E0E0E0",
"s c #E1E1E1",
"d c #E2E2E2",
"f c #E4E4E4",
"g c #E5E5E5",
"h c #E9E9E9",
"j c #EBEBEB",
"k c #F0F0F0",
"l c #F1F1F1",
"z c None",
/* pixels */
"zzzzzzzzzzzzzzzzzzzzzz",
"zzzzzzzzzzzzzzzzzzzzzz",
"zzzzzzzzzzzzzzzzzzzzzz",
"zzzzzzjzzzzzzzzjzzzzzz",
"zzzz8lfl8zzzz8ljl8zzzz",
"zzzdjdddjdzzdjdddjfzzz",
"zzpfpppdpfjjfpppppfdzz",
"zzz&ttttptpptttttt&zzz",
"zzzz#8rrrr  rrrr8#zzzz",
"zzzzzO1wwwzzwrw<Ozzzzz",
"zzzzz<8w88zz888w;zzzzz",
"zzzztt7787zz8778ptzzzz",
"zzzdw55555zz75555wdzzz",
"zz<5444445zz4444445;zz",
"zzz@133433ff33333<@zzz",
"zzzzo=1131  1311=ozzzz",
"zzzzz.%<11zz<<<%.zzzzz",
"zzzzzzz+-;dd<-+zzzzzzz",
"zzzzzzzzo*;;*Xzzzzzzzz",
"zzzzzzzzz.$$.zzzzzzzzz",
"zzzzzzzzzzzzzzzzzzzzzz",
"zzzzzzzzzzzzzzzzzzzzzz"
};
