/* XPM */
static char *browser[] = {
/* columns rows colors chars-per-pixel */
"24 24 132 2 ",
"   c #000000",
".  c #0C2A46",
"X  c #174B7D",
"o  c #1B5A94",
"O  c #1E5F9D",
"+  c #295681",
"@  c #2A5986",
"#  c #1E619D",
"$  c #3B6085",
"%  c #37638C",
"&  c #27659F",
"*  c #1F64A6",
"=  c #1F65A8",
"-  c #2367A5",
";  c #2F6CA7",
":  c #2269AC",
">  c #286DAF",
",  c #246FB7",
"<  c #2E71B1",
"1  c #2572BB",
"2  c #2A75BC",
"3  c #3374B2",
"4  c #3C7AB5",
"5  c #357CBE",
"6  c #3D7DBA",
"7  c #56738E",
"8  c #436D94",
"9  c #42709B",
"0  c #4A739A",
"q  c #537595",
"w  c #5F7D97",
"e  c #507598",
"r  c #5E7D9A",
"t  c #497CAA",
"y  c #2676C0",
"u  c #2977C1",
"i  c #277AC7",
"p  c #2C7AC5",
"a  c #2D7ECA",
"s  c #327EC6",
"d  c #317FC9",
"f  c #5F809F",
"g  c #5383AF",
"h  c #5B82AC",
"j  c #4680B3",
"k  c #4584BF",
"l  c #5485B4",
"z  c #5F8BB3",
"x  c #6D8BA6",
"c  c #6D8CAA",
"v  c #6492BC",
"b  c #7596B4",
"n  c #7095B8",
"m  c #7B9EBF",
"M  c #2E80CA",
"N  c #3C82C5",
"B  c #3382CC",
"V  c #3B85CD",
"C  c #3F88CC",
"Z  c #3987D0",
"A  c #3D89D1",
"S  c #4D8AC3",
"D  c #4186C9",
"F  c #448ACD",
"G  c #4A8ECF",
"H  c #568FC6",
"J  c #518FCB",
"K  c #4F91CE",
"L  c #5D92C3",
"P  c #438DD3",
"I  c #4690D6",
"U  c #4B92D4",
"Y  c #4A93D8",
"T  c #5093D2",
"R  c #5B97D0",
"E  c #5698D5",
"W  c #5D98D2",
"Q  c #5299DC",
"!  c #599EDF",
"~  c #6898C5",
"^  c #6A9ACA",
"/  c #749DC3",
"(  c #629DD4",
")  c #609EDA",
"_  c #71A1CF",
"`  c #7DA6CE",
"'  c #6FA2D2",
"]  c #64A1DD",
"[  c #6EA5D9",
"{  c #6CA8DF",
"}  c #78A6D1",
"|  c #75ABDC",
" . c #79ACDB",
".. c #5A9EE0",
"X. c #63A4E3",
"o. c #6CA9E4",
"O. c #77AEE2",
"+. c #79AEE0",
"@. c #7DB2E3",
"#. c #899EB1",
"$. c #8DA5BB",
"%. c #97A7B6",
"&. c #80A1C1",
"*. c #81A6CA",
"=. c #84A9CD",
"-. c #8EACC9",
";. c #90AECC",
":. c #86B4DF",
">. c #94B6D4",
",. c #9ABDDE",
"<. c #AABCCD",
"1. c #82B6E6",
"2. c #89B7E2",
"3. c #8BB9E4",
"4. c #8FBDE9",
"5. c #90BFEB",
"6. c #B3C5D7",
"7. c #BEC8D3",
"8. c #94C2ED",
"9. c #C3CDD6",
"0. c #C9D2DC",
"q. c #C8D5E1",
"w. c #D0D9E3",
"e. c #D8DFE5",
"r. c #DAE1E7",
"t. c #DCE3EA",
"y. c #E2E5E8",
"u. c #E4E9EE",
"i. c #ECEFF1",
"p. c #EFF1F5",
"a. c #FFFFFF",
"s. c None",
/* pixels */
"s.s.s.s.s.s.s.s.s.s.s.s.s.s.s.s.s.s.s.s.s.s.s.s.",
"s.s.s.s.s.s.s.s.s.s.s.s.s.s.s.s.s.s.s.s.s.s.s.s.",
"s.s.s.3.5.5.4.8.8.@.[ [ O.8.8.8.8.8.8.8.5.s.s.s.",
"s.s.O.I Q ..P G o.o.p 2 S O.X.X.X.X...X.o.O.s.s.",
"s.s.I A I Z ! E ) 1.2 g ` | ] X.o.V M Y Y Y s.s.",
"s.s.B B d P @.[ 2.1.3 <.<.` ] X.W D p V B B s.s.",
"s.s.B d p W O.C 3.] / t.y.k { @.D :.s a d B s.s.",
"s.s.B p p p  .1 1  .v a.a.v ,.1.( G u p p d s.s.",
"s.s.M p p y 1 1 _ ;.q.a.a.q.=.6 , 1 u s p d s.s.",
"s.s.B p y 1 1 k / p.a.a.a.a.p.z } J R K T p s.s.",
"s.s.U p 1 , - *.q.a.e.r q 0.a.0.m >.,.u p p s.s.",
"s.s.U H j 6.y.a.a.a.c 4 6 x a.a.a.t.;.l 2 F s.s.",
"s.s.P 4 h %.y.a.a.a.n D F b a.a.a.e.#.e ; P s.s.",
"s.s.F N 4 t w 7 9.a.r.~ L w.a.7.$ X o - S P s.s.",
"s.s.A A V C ^ & @ i.a.a.a.a.i.0 l : 2 s U A s.s.",
"s.s.Z Z Z V ] 5 & X 7.a.a.9.% 3 ' 2 u G P Z s.s.",
"s.s.B B B Z Z | 1 - 8 a.a.0 < V [ u p U V B s.s.",
"s.s.B B B B B ( u 2 h e.r.& s B T s D V B B s.s.",
"s.s.M a a a d U a ( < $.$.> a M d P B a a a s.s.",
"s.s.p a a a a V F d 1 9 9 , p a a a i a a p s.s.",
"s.s.O y i i i a a p y # # y i i i i i i y O s.s.",
"s.s.. o : * * : = = = O O * = = = = = = o . s.s.",
"s.s.s.s.                                s.s.s.s.",
"s.s.s.s.s.s.s.s.s.s.s.s.s.s.s.s.s.s.s.s.s.s.s.s."
};
