/* XPM */
static char *gnome_activity_journal[] = {
/* columns rows colors chars-per-pixel */
"24 24 236 2 ",
"   c #000000",
".  c #0E2E3B",
"X  c #1E657A",
"o  c #206882",
"O  c #23728D",
"+  c #24738D",
"@  c #24738E",
"#  c #2C7892",
"$  c #2D7B95",
"%  c #2D7C96",
"&  c #2F819D",
"*  c #2E839F",
"=  c #2984A3",
"-  c #2A86A4",
";  c #2D8AA9",
":  c #2F8DAB",
">  c #2E8DAD",
",  c #2F8FAF",
"<  c #3289A6",
"1  c #3E89A2",
"2  c #3B8BA6",
"3  c #308BAA",
"4  c #318CAB",
"5  c #338CAA",
"6  c #328DAB",
"7  c #338DAB",
"8  c #3390AF",
"9  c #3590AD",
"0  c #3A93AF",
"q  c #3292B1",
"w  c #3793B2",
"e  c #3394B4",
"r  c #3597B6",
"t  c #3D95B1",
"y  c #3F94B0",
"u  c #3F95B1",
"i  c #3C95B2",
"p  c #3A96B4",
"a  c #3B98B7",
"s  c #3799B9",
"d  c #389BBB",
"f  c #3C9AB9",
"g  c #3E9BBB",
"h  c #3A9DBE",
"j  c #3E9CBC",
"k  c #3F9DBD",
"l  c #3F9EBE",
"z  c #4C889B",
"x  c #548EA2",
"c  c #5297AD",
"v  c #5C9AAF",
"b  c #4098B5",
"n  c #4399B5",
"m  c #479AB5",
"M  c #469AB6",
"N  c #479BB7",
"B  c #489BB7",
"V  c #4A9BB6",
"C  c #4E9DB7",
"Z  c #439BB8",
"A  c #479CB8",
"S  c #449DBA",
"D  c #459EBB",
"F  c #469FBC",
"G  c #4A9EB9",
"H  c #4B9EB9",
"J  c #4B9EBA",
"K  c #4B9FBB",
"L  c #4C9EB9",
"P  c #4E9FBB",
"I  c #579AB0",
"U  c #579CB4",
"Y  c #6195A6",
"T  c #6F9EAD",
"R  c #4FA0BB",
"E  c #49A0BD",
"W  c #4BA0BC",
"Q  c #48A1BF",
"!  c #4CA0BC",
"~  c #50A2BF",
"^  c #60A7BF",
"/  c #6CA7BB",
"(  c #70A1B1",
")  c #75A2B2",
"_  c #79A5B4",
"`  c #77A7B8",
"'  c #3B9FC0",
"]  c #3DA1C3",
"[  c #3FA3C5",
"{  c #41A0C0",
"}  c #42A1C1",
"|  c #42A2C2",
" . c #44A3C4",
".. c #44A4C5",
"X. c #46A7C7",
"o. c #49A2C0",
"O. c #4CA6C4",
"+. c #40A5C8",
"@. c #41A7CA",
"#. c #47A9CA",
"$. c #42A9CC",
"%. c #47ABCD",
"&. c #46ACCF",
"*. c #4DA8C8",
"=. c #4FABCA",
"-. c #48AACC",
";. c #4EAECF",
":. c #52A7C2",
">. c #52A6C3",
",. c #53A7C3",
"<. c #54A6C3",
"1. c #54A8C3",
"2. c #53A8C4",
"3. c #54A8C4",
"4. c #55A9C6",
"5. c #55AAC7",
"6. c #56ABC8",
"7. c #56ACC9",
"8. c #57ACCA",
"9. c #57ADCB",
"0. c #50ADCC",
"q. c #50AECE",
"w. c #59AFCB",
"e. c #59AFCC",
"r. c #59AFCD",
"t. c #57B0CE",
"y. c #59B0CD",
"u. c #5AB0CD",
"i. c #58B1CE",
"p. c #5AB0CF",
"a. c #5AB2CF",
"s. c #5DB1CD",
"d. c #48AFD1",
"f. c #4CAED0",
"g. c #4DAFD1",
"h. c #4BB0D2",
"j. c #4EB0D1",
"k. c #4CB1D2",
"l. c #4DB1D2",
"z. c #4EB1D2",
"x. c #4FB2D2",
"c. c #50B0D2",
"v. c #53B2D2",
"b. c #57B1D0",
"n. c #55B2D1",
"m. c #55B2D3",
"M. c #56B2D3",
"N. c #58B3D2",
"B. c #5DB3D0",
"V. c #5FB4D1",
"C. c #60B1CD",
"Z. c #64B3CE",
"A. c #6FB5CD",
"S. c #7DBACF",
"D. c #62B4D0",
"F. c #61B7D5",
"G. c #66B8D3",
"H. c #6ABBD5",
"J. c #6DBCD6",
"K. c #6FBED9",
"L. c #75C3DE",
"P. c #76C4DE",
"I. c #76C4DF",
"U. c #80ADBB",
"Y. c #85AFBC",
"T. c #80BBCF",
"R. c #99B7C1",
"E. c #9FBAC3",
"W. c #95BBC8",
"Q. c #96BECA",
"!. c #93BFCE",
"~. c #80BDD3",
"^. c #83BED3",
"/. c #97C1CF",
"(. c #89C0D2",
"). c #8EC3D4",
"_. c #86C5D9",
"`. c #8BC8DC",
"'. c #A4CFDD",
"]. c #A4CFDE",
"[. c #ABCDD9",
"{. c #B7CCD3",
"}. c #B3CCD4",
"|. c #B6CED6",
" X c #B9CDD3",
".X c #BBCFD5",
"XX c #BFD1D6",
"oX c #B6D0D9",
"OX c #BBD2D9",
"+X c #BDD2D8",
"@X c #BCD4DB",
"#X c #BFD4DB",
"$X c #96CFE3",
"%X c #A5D5E6",
"&X c #A9D5E3",
"*X c #B2D5E1",
"=X c #C2D4DA",
"-X c #CAD8DD",
";X c #CADADF",
":X c #CBDADF",
">X c #C9DEE5",
",X c #D0DEE3",
"<X c #C5E2EB",
"1X c #C8E0E8",
"2X c #CBE1E8",
"3X c #CCE2E9",
"4X c #D1E6ED",
"5X c #D6E7EC",
"6X c #DAE5E9",
"7X c #D9E5EA",
"8X c #DDE7EA",
"9X c #DCE8EC",
"0X c #DBEAF0",
"qX c #DCECF1",
"wX c #E2EBED",
"eX c #E2EBEF",
"rX c #E5ECEE",
"tX c #E2EDF1",
"yX c #ECF1F3",
"uX c #E9F2F5",
"iX c #E9F2F6",
"pX c #EDF2F4",
"aX c #EFF5F6",
"sX c #F0F4F5",
"dX c #F2F6F8",
"fX c #F5F8F9",
"gX c #F5F9FB",
"hX c #F7F9FA",
"jX c #FBFCFC",
"kX c #FCFDFD",
"lX c #FDFDFD",
"zX c #FDFDFE",
"xX c #FDFEFE",
"cX c #FEFEFF",
"vX c #FFFFFF",
"bX c None",
/* pixels */
"bXbXbXbXbXbXbXbXbXbXbXbXbXbXbXbXbXbXbXbXbXbXbXbX",
"bXbXbXbXbXbXbXbXbXbXbXbXbXbXbXbXbXbXbXbXbXbXbXbX",
"bXbXbXK.L.L.L.L.L.I.I.L.L.L.I.I.L.L.L.L.K.bXbXbX",
"bXbXD.x.d.h.x.x.x.x.x.x.g.x.x.x.x.h.h.f.x.D.bXbX",
"bXbXg.%.f.x.m.m.m.$X>XuXgXqX%XF.v.v.z.g.%.x.bXbX",
"bXbX$.%.;.m.m.J.4XcXcX>XR.R.>XiXH.B.m.g.%.$.bXbX",
"bXbX@.#.q.t.V.tXcXfX_ P e.e.C ) 5XG.m.q.%.@.bXbX",
"bXbX@.#.q.r.*XcXcXY.e.B.V.&Xa.e.U.9X`.t.%.[ bXbX",
"bXbX[ X.=.s.cXcXwX<.e.e._.Q.e.a.4.8XcX2XX.[ bXbX",
"bXbX]  .*.S.cXcXOXw.w.s.cXcXZ.7.7.|.cX7X .] bXbX",
"bXbX] ] O.[.cXcXOX6.6.2.{.XX,.7.7.oXjX` } h bXbX",
"bXbXd Q A.cXcXcXtX4.4.6.C >XS.4.4.9XOXW } h bXbX",
"bXbXd k /.cXcXcXcX).2.2.,.( !.2.(.cXQ.o.k d bXbX",
"bXbXs g I pXcXcXcXdX^.,.,.! U ~.sXcX/ W g d bXbX",
"bXbXr f D 1 ,XcXcXcXcX3X].].2XcXcX=XH D f r bXbX",
"bXbXe a S W =XcXcXcXcXcXcXcXcXcXjXv ! D a e bXbX",
"bXbXq p S L {.cXcXcXcXcXcXcXcXhXT C ! Z p e bXbX",
"bXbX, w u D 7XcXcXcXcXcXcXcXsXY V H D u w > bXbX",
"bXbX> 8 n ~ cXcXcXcXcXcXcX Xx m V M n t 8 > bXbX",
"bXbX- : 9 c =XrXfXpX-XE.z 2 0 n t t 0 9 : - bXbX",
"bXbXo = < 3 & % # $ & < 7 7 7 7 4 4 3 ; = o bXbX",
"bXbX. X + + + + @ @ @ @ @ + + + + @ @ O X . bXbX",
"bXbXbXbX                                bXbXbXbX",
"bXbXbXbXbXbXbXbXbXbXbXbXbXbXbXbXbXbXbXbXbXbXbXbX"
};
