/* XPM */
static char *picasa_fontcfg[] = {
/* columns rows colors chars-per-pixel */
"24 24 221 2 ",
"   c #000000",
".  c #0D3409",
"X  c #0E3509",
"o  c #0E370A",
"O  c #183312",
"+  c #071F39",
"@  c #2B3E29",
"#  c #4A0E0F",
"$  c #4A0F10",
"%  c #4A1213",
"&  c #4B1617",
"*  c #4B1A1B",
"=  c #521718",
"-  c #4C2A03",
";  c #4C2B03",
":  c #663904",
">  c #741F20",
",  c #422627",
"<  c #562425",
"1  c #224A1C",
"2  c #24501B",
"3  c #1F6F11",
"4  c #354233",
"5  c #364234",
"6  c #4A443E",
"7  c #092549",
"8  c #2C3949",
"9  c #0B3760",
"0  c #0D3A6C",
"q  c #474542",
"w  c #424445",
"e  c #444444",
"r  c #454545",
"t  c #454744",
"y  c #474645",
"u  c #464646",
"i  c #484542",
"p  c #484643",
"a  c #494644",
"s  c #494749",
"d  c #46484A",
"f  c #4B4B4B",
"g  c #4F4F4F",
"h  c #515151",
"j  c #525252",
"k  c #535353",
"l  c #595653",
"z  c #585858",
"x  c #5A5A5A",
"c  c #614949",
"v  c #754849",
"b  c #626262",
"n  c #6C6C6D",
"m  c #6D6D6D",
"M  c #797979",
"N  c #7E7E7E",
"B  c #A52426",
"V  c #DA393C",
"C  c #E03A3D",
"Z  c #F9373B",
"A  c #874A05",
"S  c #A95B06",
"D  c #B25F06",
"F  c #CC6906",
"G  c #D57208",
"H  c #EA7307",
"J  c #F67A0A",
"K  c #FC7C08",
"L  c #FE7E08",
"P  c #FE7F08",
"I  c #CD4245",
"U  c #E05D60",
"Y  c #F9666A",
"T  c #E87A7B",
"R  c #238215",
"E  c #27871D",
"W  c #289B1B",
"Q  c #2FAF1D",
"!  c #2DAD1E",
"~  c #2FB01D",
"^  c #34B61B",
"/  c #31B31C",
"(  c #32B31C",
")  c #33B51C",
"_  c #34B51C",
"`  c #36B81B",
"'  c #38BA1A",
"]  c #39BB1A",
"[  c #45972F",
"{  c #46972F",
"}  c #459531",
"|  c #459631",
" . c #48B73B",
".. c #54AA4A",
"X. c #52BA46",
"o. c #75C06B",
"O. c #F68409",
"+. c #FE8108",
"@. c #FE8508",
"#. c #FE8709",
"$. c #F98216",
"%. c #FD8B24",
"&. c #F58F34",
"*. c #8E8377",
"=. c #E58F42",
"-. c #FA9D49",
";. c #E4A469",
":. c #E7A469",
">. c #EBA768",
",. c #124C91",
"<. c #1553A5",
"1. c #145FA3",
"2. c #155EAE",
"3. c #1C59AC",
"4. c #9A57B5",
"5. c #9B58B7",
"6. c #9C58B9",
"7. c #9E5ABB",
"8. c #9F5FBA",
"9. c #A05FBB",
"0. c #A05EBC",
"q. c #A260BD",
"w. c #A362BE",
"e. c #A972BF",
"r. c #A77BBA",
"t. c #A97FBB",
"y. c #A565C0",
"u. c #A567C0",
"i. c #A769C1",
"p. c #A76AC1",
"a. c #A86DC2",
"s. c #AA6FC3",
"d. c #AB70C4",
"f. c #AD72C5",
"g. c #AE75C6",
"h. c #B17AC8",
"j. c #7293BB",
"k. c #858082",
"l. c #8C8C8C",
"z. c #8D9194",
"x. c #919292",
"c. c #9D9D9D",
"v. c #AA81BB",
"b. c #AF8ABF",
"n. c #AD91BA",
"m. c #A3A3A3",
"M. c #A5A5A5",
"N. c #A5A6A7",
"B. c #A8A8A8",
"V. c #B0B0B0",
"C. c #B3B3B3",
"Z. c #B0B5B9",
"A. c #BDBDBD",
"S. c #BFBFBF",
"D. c #E39597",
"F. c #EEA4A5",
"G. c #92D18B",
"H. c #ABD8A6",
"J. c #C1E3BC",
"K. c #B693C4",
"L. c #B796C4",
"P. c #B893C7",
"I. c #BE94D0",
"U. c #88A7C8",
"Y. c #9AADC6",
"T. c #A0BBD3",
"R. c #A2B9D7",
"E. c #D4B8DF",
"W. c #C0C0C0",
"Q. c #C1C1C1",
"!. c #C6C6C6",
"~. c #C8C8C8",
"^. c #CBCDCB",
"/. c #CDCDCD",
"(. c #CECECE",
"). c #CCD4DF",
"_. c #D4D1D1",
"`. c #D5D5D5",
"'. c #DCDCDC",
"]. c #DDDDDD",
"[. c #ECDACA",
"{. c #D9E3D8",
"}. c #F5E4D4",
"|. c #F9E4D2",
" X c #DCC6E5",
".X c #DED5E2",
"XX c #DCDFE5",
"oX c #E2D1E9",
"OX c #E7DBEC",
"+X c #DCE0E5",
"@X c #DCE1E6",
"#X c #E2E2E2",
"$X c #E4E4E4",
"%X c #E5E5E5",
"&X c #E6E6E6",
"*X c #E7E7E7",
"=X c #EAE1EE",
"-X c #E8E8E8",
";X c #E9E9E9",
":X c #EAEAEA",
">X c #EBEBEB",
",X c #ECECEC",
"<X c #EDEDED",
"1X c #EEEEEE",
"2X c #EFEFEF",
"3X c #F8E6E8",
"4X c #F5E8EA",
"5X c #F2F0EE",
"6X c #F3F1EF",
"7X c #EEECF0",
"8X c #F0F0F0",
"9X c #F1F0F1",
"0X c #F1F1F1",
"qX c #F2F1F2",
"wX c #F2F2F2",
"eX c #F3F2F2",
"rX c #F3F3F3",
"tX c #F4F4F4",
"yX c #F5F5F5",
"uX c #FAFAFA",
"iX c None",
/* pixels */
"iXiXiXiXiXiXiXiXiXiXiXiXiXiXiXiXiXiXiXiXiXiXiXiX",
"iXiXiXiXiXiXiXiXiXiXiXiXiXiXiXiXiXiXiXiXiXiXiXiX",
"iXiXiXyXuXuXuXuXuXuXuXuXuXuXuXuXuXuXuXuXyXiXiXiX",
"iXiX1XyXtX0XtXtXyXtXtXtXyX(.m.!.yXrXrXrXyX1XiXiX",
"iXiXyX0XyX0XtXtXtXD.U V V < , M rXrXrXrX0XeXiXiX",
"iXiX0X0X0XyX0XK.K.3XY Z B # # l ;.5XrXrXeXeXiXiX",
"iXiX0X0X0X0Xt.5.7.t.4XT = > % a H =.eX0X0X0XiXiX",
"iXiX0X0X0XK.6.w.e.a.v.k.v I & q F K >.0X0X0XiXiX",
"iXiX1X2X.X4.w.p.s.h.n.d _.F.* y S +.J [.1X1XiXiX",
"iXiX1X1XK.7.y.d.h.E.n l.7XyXc i A #.P >.1X,XiXiX",
"iXiX>X1Xd.8.p.f. XC.j #X5X1XN i : #.P &.,X,XiXiX",
"iXiX>X>Xq.0.a.oX;Xz M.4X1X1Xc.q ; O.+.$.,X>XiXiX",
"iXiX>X1Xp.p.OXT.z.b >X1X1X1XA.q ; G +.%.5X4XiXiX",
"iXiX>X>XI.=XU.1.d A.1X1X1X,X'.q ; D P -.,X4XiXiX",
"iXiX*X>X1Xj.2.9 w f f f f f f y 6 *.|.}.>X;XiXiX",
"iXiX*X*X).3.,.+ Z.} [ [ [ } } 2 O 1 ..{.*X;XiXiX",
"iXiX*X*X*XR.7 0 @X^ ' ' ] ' ` 3 X o H.-X*X-XiXiX",
"iXiX$X*X*XM.8 <.XX/ ^ ^ ^ ^ / R X @ /.*X$X$XiXiX",
"iXiX*X`.~.h x.Y.XXQ Q Q ~ Q W E 4 u c./.*X*XiXiX",
"iXiX'.n y w y x -XJ.G.X. .o.5 y y w y k #X'.iXiX",
"iXiXV.'.#X$X$X$X*X#X>X1X1X1X*X*X*X#X*X#X'.V.iXiX",
"iXiXg B.W.Q.Q.Q.Q.Q.Q.Q.Q.Q.A.Q.T.Q.Q.Q.B.g iXiX",
"iXiXiXiX                                iXiXiXiX",
"iXiXiXiXiXiXiXiXiXiXiXiXiXiXiXiXiXiXiXiXiXiXiXiX"
};
