/* XPM */
static char *terminal[] = {
/* columns rows colors chars-per-pixel */
"24 24 164 2 ",
"   c #000000",
".  c #060507",
"X  c #09080A",
"o  c #0B0A0D",
"O  c #0E0C10",
"+  c #0E0D10",
"@  c #100E12",
"#  c #110F14",
"$  c #121014",
"%  c #131114",
"&  c #131115",
"*  c #131016",
"=  c #131116",
"-  c #141317",
";  c #151318",
":  c #17141A",
">  c #17151A",
",  c #18141B",
"<  c #18151C",
"1  c #1A171C",
"2  c #1A171D",
"3  c #1B171E",
"4  c #1B181E",
"5  c #1B181F",
"6  c #1C181F",
"7  c #1C1A1F",
"8  c #1D1B1F",
"9  c #1D1921",
"0  c #1E1B20",
"q  c #1F1B23",
"w  c #1F1D20",
"e  c #1F1C21",
"r  c #1F1D22",
"t  c #1F1D23",
"y  c #1F1B24",
"u  c #201B23",
"i  c #201D23",
"p  c #201D25",
"a  c #211E24",
"s  c #211D26",
"d  c #221D26",
"f  c #231E27",
"g  c #231F27",
"h  c #231E28",
"j  c #231F28",
"k  c #231F29",
"l  c #241F29",
"z  c #242027",
"x  c #252128",
"c  c #252129",
"v  c #262229",
"b  c #25202A",
"n  c #26212B",
"m  c #26232A",
"M  c #262429",
"N  c #272429",
"B  c #27242B",
"V  c #26212C",
"C  c #27222C",
"Z  c #28222D",
"A  c #28252D",
"S  c #29252D",
"D  c #29242E",
"F  c #2A252E",
"G  c #2A242F",
"H  c #2A262E",
"J  c #2A2430",
"K  c #2B2530",
"L  c #2B2531",
"P  c #2C2730",
"I  c #2C2632",
"U  c #2D2732",
"Y  c #2D2633",
"T  c #2E2A33",
"R  c #2E2834",
"E  c #2F2934",
"W  c #2F2835",
"Q  c #2F2936",
"!  c #302A36",
"~  c #312A37",
"^  c #312C36",
"/  c #312C37",
"(  c #322C37",
")  c #312E36",
"_  c #322C39",
"`  c #332D39",
"'  c #332C3A",
"]  c #342E39",
"[  c #342D3B",
"{  c #352E3C",
"}  c #36303C",
"|  c #37303E",
" . c #37313E",
".. c #37303F",
"X. c #3F3F3F",
"o. c #383140",
"O. c #393140",
"+. c #3A3240",
"@. c #3A3241",
"#. c #3D3546",
"$. c #3E3646",
"%. c #3F3748",
"&. c #403748",
"*. c #433A4C",
"=. c #453C4F",
"-. c #463D50",
";. c #404040",
":. c #4B4055",
">. c #5B585E",
",. c #625F66",
"<. c #68646C",
"1. c #6C696F",
"2. c #6C6A6F",
"3. c #726F76",
"4. c #878787",
"5. c #8F8F8F",
"6. c #949494",
"7. c #989898",
"8. c #9A9A9A",
"9. c #9E9E9E",
"0. c #A4A4A4",
"q. c #A5A3A8",
"w. c #A9A9A9",
"e. c #AEAEAE",
"r. c #B2B1B3",
"t. c #B3B3B3",
"y. c #B4B4B4",
"u. c #B9B9B9",
"i. c #BAB9BD",
"p. c #BDBDBD",
"a. c #BDBCBF",
"s. c #BEBEBE",
"d. c #BFBFBF",
"f. c #BFBEC0",
"g. c #C2C2C2",
"h. c #C3C3C3",
"j. c #C3C3C4",
"k. c #C5C3C6",
"l. c #C4C4C4",
"z. c #C6C6C6",
"x. c #C7C7C7",
"c. c #C8C7C9",
"v. c #C9C9C9",
"b. c #CCCCCC",
"n. c #CECECE",
"m. c #D1D1D1",
"M. c #D3D3D3",
"N. c #D5D4D6",
"B. c #D6D6D6",
"V. c #D8D8D8",
"C. c #D9D9D9",
"Z. c #DAD9DB",
"A. c #DBDBDB",
"S. c #DDDDDD",
"D. c #DEDEDE",
"F. c #E0E0E1",
"G. c #E2E2E2",
"H. c #E3E3E3",
"J. c #E5E5E5",
"K. c #E6E6E6",
"L. c #EBEBEB",
"P. c #F4F4F4",
"I. c #F8F8F8",
"U. c None",
/* pixels */
"U.U.U.U.U.U.U.U.U.U.U.U.U.U.U.U.U.U.U.U.U.U.U.U.",
"U.U.U.U.U.U.U.U.U.U.U.U.U.U.U.U.U.U.U.U.U.U.U.U.",
"U.U.U.P.I.I.I.I.I.I.I.I.I.I.I.I.I.I.I.I.P.U.U.U.",
"U.U.L.z.6.6.6.6.6.6.6.6.6.6.6.6.6.6.6.6.x.L.U.U.",
"U.U.K.7.w % & & % & & & & & % % % % % w 7.K.U.U.",
"U.U.D.9.% 8 0 0 8 0 0 0 8 0 u 8 8 8 8 % 9.D.U.U.",
"U.U.A.0.% 0 w 0 i u w 0 w 8 w u 8 i 8 $ 0.A.U.U.",
"U.U.A.0.% 0 0 i i 8 w i i i i 8 i i 8 $ w.V.U.U.",
"U.U.N.e.% 0 w r.>.z v v v v v g i i 8 % e.N.U.U.",
"U.U.M.t.% w z 2.v.d.1.H U H F F n z i % y.M.U.U.",
"U.U.m.u.; n F P ) q.F.( ( ( ! N s s 9 O u.m.U.U.",
"U.U.n.p.> F R ,.i.k.3.U n y 8 , ; # O . d.n.U.U.",
"U.U.n.g.2 R _ a.<.Z h n l h p y 9 : # X g.n.U.U.",
"U.U.v.v.8 ( F l n Z J N.A.A.Z.l s 0 : o v.v.U.U.",
"U.U.x.n.2 p s V K R ' { | { [ F l h 0 + n.z.U.U.",
"U.U.g.M.+ y n K ( [ { O.O.o.' ( U l y @ m.z.U.U.",
"U.U.g.A.$ h K R { O.$.%.&.$.O.{ ' Z h # A.g.U.U.",
"U.U.d.D.% h K _ O.$.*.-.-.*.$.O._ K l ; D.p.U.U.",
"U.U.p.H.% n R ' O.&.-.-.-.-.%.O.' R h & H.p.U.U.",
"U.U.y.H.n ; 9 y l Z U R ' K V h y 0 ; n H.y.U.U.",
"U.U.5.z.H.K.K.K.K.K.K.L.K.K.K.K.K.K.K.H.j.5.U.U.",
"U.U.;.4.7.8.8.8.9.7.7.7.7.9.7.7.7.9.7.7.4.X.U.U.",
"U.U.U.U.                                U.U.U.U.",
"U.U.U.U.U.U.U.U.U.U.U.U.U.U.U.U.U.U.U.U.U.U.U.U."
};
