<?xml version="1.0" encoding="UTF-8" standalone="no"?>
<!-- Created with Inkscape (http://www.inkscape.org/) -->

<svg
   xmlns:dc="http://purl.org/dc/elements/1.1/"
   xmlns:cc="http://creativecommons.org/ns#"
   xmlns:rdf="http://www.w3.org/1999/02/22-rdf-syntax-ns#"
   xmlns:svg="http://www.w3.org/2000/svg"
   xmlns="http://www.w3.org/2000/svg"
   xmlns:xlink="http://www.w3.org/1999/xlink"
   xmlns:sodipodi="http://sodipodi.sourceforge.net/DTD/sodipodi-0.dtd"
   xmlns:inkscape="http://www.inkscape.org/namespaces/inkscape"
   version="1.0"
   width="24"
   height="24"
   id="svg3342"
   sodipodi:version="0.32"
   inkscape:version="0.48.0 r9654"
   sodipodi:docname="firefox.svg"
   inkscape:output_extension="org.inkscape.output.svg.inkscape">
  <metadata
     id="metadata52">
    <rdf:RDF>
      <cc:Work
         rdf:about="">
        <dc:format>image/svg+xml</dc:format>
        <dc:type
           rdf:resource="http://purl.org/dc/dcmitype/StillImage" />
        <dc:title />
      </cc:Work>
    </rdf:RDF>
  </metadata>
  <sodipodi:namedview
     inkscape:window-height="1034"
     inkscape:window-width="1920"
     inkscape:pageshadow="2"
     inkscape:pageopacity="0.0"
     guidetolerance="10.0"
     gridtolerance="10.0"
     objecttolerance="10.0"
     borderopacity="1.0"
     bordercolor="#666666"
     pagecolor="#ffffff"
     id="base"
     showgrid="false"
     inkscape:zoom="1"
     inkscape:cx="11.51671"
     inkscape:cy="17.226631"
     inkscape:window-x="0"
     inkscape:window-y="24"
     inkscape:current-layer="svg3342"
     inkscape:window-maximized="1" />
  <defs
     id="defs3344">
    <inkscape:perspective
       sodipodi:type="inkscape:persp3d"
       inkscape:vp_x="0 : 12 : 1"
       inkscape:vp_y="0 : 1000 : 0"
       inkscape:vp_z="24 : 12 : 1"
       inkscape:persp3d-origin="12 : 8 : 1"
       id="perspective54" />
    <linearGradient
       id="linearGradient3428">
      <stop
         id="stop3430"
         style="stop-color:#000000;stop-opacity:0"
         offset="0" />
      <stop
         id="stop3436"
         style="stop-color:#000000;stop-opacity:1"
         offset="0.5" />
      <stop
         id="stop3432"
         style="stop-color:#000000;stop-opacity:0"
         offset="1" />
    </linearGradient>
    <linearGradient
       x1="11.507806"
       y1="39"
       x2="11.507806"
       y2="47.015659"
       id="linearGradient3041"
       xlink:href="#linearGradient3428"
       gradientUnits="userSpaceOnUse" />
    <radialGradient
       cx="3"
       cy="43"
       r="2"
       fx="3"
       fy="43"
       id="radialGradient3039"
       xlink:href="#linearGradient3414"
       gradientUnits="userSpaceOnUse"
       gradientTransform="matrix(2,0,0,2,35,-43)" />
    <linearGradient
       id="linearGradient3414">
      <stop
         id="stop3416"
         style="stop-color:#000000;stop-opacity:1"
         offset="0" />
      <stop
         id="stop3418"
         style="stop-color:#000000;stop-opacity:0"
         offset="1" />
    </linearGradient>
    <radialGradient
       cx="3"
       cy="43"
       r="2"
       fx="3"
       fy="43"
       id="radialGradient3037"
       xlink:href="#linearGradient3414"
       gradientUnits="userSpaceOnUse"
       gradientTransform="matrix(2,0,0,2,-13,-129)" />
    <linearGradient
       id="linearGradient3319">
      <stop
         id="stop3321"
         style="stop-color:#af9b7f;stop-opacity:1"
         offset="0" />
      <stop
         id="stop3323"
         style="stop-color:#736148;stop-opacity:1"
         offset="1" />
    </linearGradient>
    <linearGradient
       x1="22.333973"
       y1="11.029935"
       x2="53.453438"
       y2="61.220222"
       id="linearGradient3911"
       xlink:href="#linearGradient3319"
       gradientUnits="userSpaceOnUse"
       gradientTransform="matrix(0.342036,0,0,0.3599577,1.2685518,0.7194654)" />
    <linearGradient
       id="linearGradient8967">
      <stop
         id="stop8969"
         style="stop-color:#ddcfbd;stop-opacity:1"
         offset="0" />
      <stop
         id="stop8971"
         style="stop-color:#856f50;stop-opacity:1"
         offset="1" />
    </linearGradient>
    <linearGradient
       x1="16.1015"
       y1="9.8888979"
       x2="38.491451"
       y2="45.999996"
       id="linearGradient3909"
       xlink:href="#linearGradient8967"
       gradientUnits="userSpaceOnUse"
       gradientTransform="matrix(0.4753908,0,0,0.5002997,1.2530694,-0.2576396)" />
    <linearGradient
       id="linearGradient8978">
      <stop
         id="stop8980"
         style="stop-color:#4d5459;stop-opacity:0.99607843"
         offset="0" />
      <stop
         id="stop8982"
         style="stop-color:#141b1f;stop-opacity:1"
         offset="1" />
    </linearGradient>
    <linearGradient
       x1="5.4800777"
       y1="25.019028"
       x2="8.5000601"
       y2="25.019028"
       id="linearGradient3906"
       xlink:href="#linearGradient8978"
       gradientUnits="userSpaceOnUse"
       gradientTransform="matrix(0.4285714,0,0,0.5119046,0.8571427,-0.5476191)" />
    <linearGradient
       id="linearGradient3913">
      <stop
         id="stop3915"
         style="stop-color:#4e555a;stop-opacity:1"
         offset="0" />
      <stop
         id="stop3917"
         style="stop-color:#151c20;stop-opacity:1"
         offset="0.14853084" />
      <stop
         id="stop3919"
         style="stop-color:#9b876c;stop-opacity:1"
         offset="0.15142028" />
      <stop
         id="stop3921"
         style="stop-color:#9b876c;stop-opacity:1"
         offset="0.75216067" />
      <stop
         id="stop3923"
         style="stop-color:#9b876c;stop-opacity:1"
         offset="0.92958075" />
      <stop
         id="stop3925"
         style="stop-color:#c2c2c2;stop-opacity:1"
         offset="0.93988967" />
      <stop
         id="stop3927"
         style="stop-color:#c2c2c2;stop-opacity:1"
         offset="1" />
    </linearGradient>
    <linearGradient
       x1="5.7542129"
       y1="5.2438145"
       x2="55.455276"
       y2="4.7322001"
       id="linearGradient3903"
       xlink:href="#linearGradient3913"
       gradientUnits="userSpaceOnUse"
       gradientTransform="matrix(0.3554357,0,0,0.4825071,1.2892151,0.152489)" />
    <linearGradient
       id="linearGradient2346">
      <stop
         id="stop2348"
         style="stop-color:#eeeeee;stop-opacity:1"
         offset="0" />
      <stop
         id="stop2350"
         style="stop-color:#d9d9da;stop-opacity:1"
         offset="1" />
    </linearGradient>
    <linearGradient
       x1="24.62738"
       y1="3.1234391"
       x2="24.640038"
       y2="4.882647"
       id="linearGradient3901"
       xlink:href="#linearGradient2346"
       gradientUnits="userSpaceOnUse"
       gradientTransform="matrix(0.4982332,0,0,0.9932654,0.8272925,-2.4231523)" />
    <radialGradient
       r="10.625"
       fy="4.625"
       fx="62.625"
       cy="4.625"
       cx="62.625"
       gradientTransform="matrix(2.1647059,0,0,0.8746607,-111.42185,34.668974)"
       gradientUnits="userSpaceOnUse"
       id="radialGradient3102"
       xlink:href="#linearGradient8838-9"
       inkscape:collect="always" />
    <linearGradient
       id="linearGradient8838-9">
      <stop
         id="stop8840-2"
         style="stop-color:#000000;stop-opacity:1"
         offset="0" />
      <stop
         id="stop8842-6"
         style="stop-color:#000000;stop-opacity:0"
         offset="1" />
    </linearGradient>
    <radialGradient
       inkscape:collect="always"
       xlink:href="#linearGradient8647"
       id="radialGradient4080"
       gradientUnits="userSpaceOnUse"
       gradientTransform="matrix(1.2902008,0,0,1.0623161,-3.710408,-0.83981117)"
       cx="12.465816"
       cy="5.3052077"
       fx="12.465816"
       fy="5.3052077"
       r="10.499999" />
    <linearGradient
       id="linearGradient8647">
      <stop
         style="stop-color:#8fb1dc;stop-opacity:1;"
         offset="0"
         id="stop8649" />
      <stop
         style="stop-color:#3465a4;stop-opacity:1;"
         offset="1"
         id="stop8651" />
    </linearGradient>
    <filter
       color-interpolation-filters="sRGB"
       inkscape:collect="always"
       id="filter4206">
      <feGaussianBlur
         inkscape:collect="always"
         stdDeviation="1.0589844"
         id="feGaussianBlur4208" />
    </filter>
    <linearGradient
       y2="-1.4615115"
       x2="62.200409"
       y1="-12.489107"
       x1="62.200409"
       gradientTransform="matrix(1.1300215,0,0,1.1299957,-57.906527,15.243949)"
       gradientUnits="userSpaceOnUse"
       id="linearGradient3130"
       xlink:href="#linearGradient4873-1"
       inkscape:collect="always" />
    <linearGradient
       id="linearGradient4873-1">
      <stop
         id="stop4875-43"
         style="stop-color:#ffffff;stop-opacity:1"
         offset="0" />
      <stop
         id="stop4877-6"
         style="stop-color:#ffffff;stop-opacity:0"
         offset="1" />
    </linearGradient>
    <linearGradient
       gradientTransform="matrix(0.51996089,0,0,0.51996089,-0.4524168,-0.40094962)"
       inkscape:collect="always"
       xlink:href="#linearGradient4229"
       id="linearGradient4235"
       x1="1.6875"
       y1="23.852516"
       x2="46.3125"
       y2="23.852516"
       gradientUnits="userSpaceOnUse" />
    <linearGradient
       id="linearGradient4229">
      <stop
         style="stop-color:#f57900;stop-opacity:1;"
         offset="0"
         id="stop4231" />
      <stop
         style="stop-color:#f5ad00;stop-opacity:1;"
         offset="1"
         id="stop4233" />
    </linearGradient>
    <linearGradient
       gradientTransform="matrix(0.51996089,0,0,0.51996089,-0.4524168,-0.40094962)"
       inkscape:collect="always"
       xlink:href="#linearGradient4237"
       id="linearGradient4243"
       x1="1.6875"
       y1="23.852516"
       x2="46.3125"
       y2="23.852516"
       gradientUnits="userSpaceOnUse" />
    <linearGradient
       id="linearGradient4237">
      <stop
         style="stop-color:#c85a00;stop-opacity:1;"
         offset="0"
         id="stop4239" />
      <stop
         style="stop-color:#c86700;stop-opacity:1;"
         offset="1"
         id="stop4241" />
    </linearGradient>
    <radialGradient
       r="20.976337"
       fy="32.475872"
       fx="-20.094555"
       cy="32.475872"
       cx="-20.094555"
       gradientTransform="matrix(0.7050742,1.0348683,-0.98716426,0.63680928,57.585197,10.888286)"
       gradientUnits="userSpaceOnUse"
       id="radialGradient3131"
       xlink:href="#linearGradient6119-4"
       inkscape:collect="always" />
    <linearGradient
       inkscape:collect="always"
       id="linearGradient6119-4">
      <stop
         style="stop-color: rgb(255, 241, 227); stop-opacity: 1;"
         offset="0"
         id="stop6121-1" />
      <stop
         style="stop-color: rgb(255, 241, 227); stop-opacity: 0;"
         offset="1"
         id="stop6123-4" />
    </linearGradient>
    <linearGradient
       inkscape:collect="always"
       xlink:href="#linearGradient3490"
       id="linearGradient3496"
       x1="-18.198442"
       y1="23.479414"
       x2="44.828243"
       y2="12.947504"
       gradientUnits="userSpaceOnUse"
       gradientTransform="matrix(0.51996091,0,0,0.51996091,0.13034915,-0.13346856)" />
    <linearGradient
       inkscape:collect="always"
       id="linearGradient3490">
      <stop
         style="stop-color: rgb(239, 41, 41); stop-opacity: 1;"
         offset="0"
         id="stop3492" />
      <stop
         style="stop-color: rgb(239, 41, 41); stop-opacity: 0;"
         offset="1"
         id="stop3494" />
    </linearGradient>
    <linearGradient
       inkscape:collect="always"
       xlink:href="#linearGradient11549"
       id="linearGradient1572"
       gradientUnits="userSpaceOnUse"
       gradientTransform="matrix(-0.00909052,0.02242826,-0.01924287,-0.00771971,17.276913,11.514704)"
       x1="374.50772"
       y1="352.56131"
       x2="168.51511"
       y2="535.84491" />
    <linearGradient
       id="linearGradient11549">
      <stop
         id="stop11565"
         offset="0"
         style="stop-color:#fde1a2;stop-opacity:1;" />
      <stop
         style="stop-color: rgb(252, 218, 108); stop-opacity: 0;"
         offset="0.90625"
         id="stop3430-6" />
      <stop
         id="stop11553"
         offset="1.0000000"
         style="stop-color: rgb(255, 252, 181); stop-opacity: 1;" />
    </linearGradient>
    <linearGradient
       inkscape:collect="always"
       xlink:href="#linearGradient11549"
       id="linearGradient1580"
       gradientUnits="userSpaceOnUse"
       gradientTransform="matrix(2.31966e-4,0.02419939,-0.02073183,2.7264515e-4,16.362121,11.288388)"
       x1="374.50772"
       y1="352.56131"
       x2="168.51511"
       y2="535.84491" />
    <linearGradient
       id="linearGradient3267">
      <stop
         id="stop3269"
         offset="0"
         style="stop-color:#fde1a2;stop-opacity:1;" />
      <stop
         style="stop-color: rgb(252, 218, 108); stop-opacity: 0;"
         offset="0.90625"
         id="stop3271" />
      <stop
         id="stop3273"
         offset="1.0000000"
         style="stop-color: rgb(255, 252, 181); stop-opacity: 1;" />
    </linearGradient>
    <linearGradient
       inkscape:collect="always"
       xlink:href="#linearGradient11549"
       id="linearGradient1584"
       gradientUnits="userSpaceOnUse"
       gradientTransform="matrix(-0.01546115,0.01861766,-0.01599769,-0.01318927,15.431451,12.783859)"
       x1="374.50772"
       y1="352.56131"
       x2="168.51511"
       y2="535.84491" />
    <linearGradient
       id="linearGradient3276">
      <stop
         id="stop3278"
         offset="0"
         style="stop-color:#fde1a2;stop-opacity:1;" />
      <stop
         style="stop-color: rgb(252, 218, 108); stop-opacity: 0;"
         offset="0.90625"
         id="stop3280" />
      <stop
         id="stop3282"
         offset="1.0000000"
         style="stop-color: rgb(255, 252, 181); stop-opacity: 1;" />
    </linearGradient>
    <linearGradient
       inkscape:collect="always"
       xlink:href="#linearGradient11549"
       id="linearGradient1438"
       gradientUnits="userSpaceOnUse"
       gradientTransform="matrix(0.01777262,-0.01642557,0.01412666,0.01517631,10.232477,9.5258972)"
       x1="374.50772"
       y1="352.56131"
       x2="168.51511"
       y2="535.84491" />
    <linearGradient
       id="linearGradient3285">
      <stop
         id="stop3287"
         offset="0"
         style="stop-color:#fde1a2;stop-opacity:1;" />
      <stop
         style="stop-color: rgb(252, 218, 108); stop-opacity: 0;"
         offset="0.90625"
         id="stop3289" />
      <stop
         id="stop3291"
         offset="1.0000000"
         style="stop-color: rgb(255, 252, 181); stop-opacity: 1;" />
    </linearGradient>
    <linearGradient
       inkscape:collect="always"
       xlink:href="#linearGradient11549"
       id="linearGradient1442"
       gradientUnits="userSpaceOnUse"
       gradientTransform="matrix(0.02362983,-0.00522457,0.00454823,0.02022862,10.380093,8.062943)"
       x1="374.50772"
       y1="352.56131"
       x2="168.51511"
       y2="535.84491" />
    <linearGradient
       id="linearGradient3294">
      <stop
         id="stop3296"
         offset="0"
         style="stop-color:#fde1a2;stop-opacity:1;" />
      <stop
         style="stop-color: rgb(252, 218, 108); stop-opacity: 0;"
         offset="0.90625"
         id="stop3298" />
      <stop
         id="stop3300"
         offset="1.0000000"
         style="stop-color: rgb(255, 252, 181); stop-opacity: 1;" />
    </linearGradient>
    <linearGradient
       inkscape:collect="always"
       xlink:href="#linearGradient11549"
       id="linearGradient1446"
       gradientUnits="userSpaceOnUse"
       gradientTransform="matrix(0.02368089,0.00498811,-0.00420117,0.02030354,11.400668,8.7605864)"
       x1="374.50772"
       y1="352.56131"
       x2="168.51511"
       y2="535.84491" />
    <linearGradient
       id="linearGradient3303">
      <stop
         id="stop3305"
         offset="0"
         style="stop-color:#fde1a2;stop-opacity:1;" />
      <stop
         style="stop-color: rgb(252, 218, 108); stop-opacity: 0;"
         offset="0.90625"
         id="stop3307" />
      <stop
         id="stop3309"
         offset="1.0000000"
         style="stop-color: rgb(255, 252, 181); stop-opacity: 1;" />
    </linearGradient>
    <radialGradient
       r="10.625"
       fy="4.625"
       fx="62.625"
       cy="4.625"
       cx="62.625"
       gradientTransform="matrix(1.1255624,0,0,0.45478938,-58.558424,16.990736)"
       gradientUnits="userSpaceOnUse"
       id="radialGradient3327"
       xlink:href="#linearGradient8838-9"
       inkscape:collect="always" />
  </defs>
  <path
     inkscape:connector-curvature="0"
     style="opacity:0.3;fill:url(#radialGradient3327);fill-opacity:1;fill-rule:evenodd;stroke:none;stroke-width:0.99999988;marker:none;visibility:visible;display:inline;overflow:visible"
     id="path8836"
     d="m 23.889028,19.09414 c 0,2.668721 -5.354271,4.832144 -11.959101,4.832144 -6.6048278,0 -11.95909996,-2.163423 -11.95909996,-4.832144 0,-2.66872 5.35427216,-4.832144 11.95909996,-4.832144 6.60483,0 11.959101,2.163424 11.959101,4.832144 z" />
  <path
     style="fill:url(#radialGradient4080);fill-opacity:1;stroke:#204a87;stroke-width:0.99999183;stroke-linecap:round;stroke-linejoin:round;stroke-miterlimit:4;stroke-opacity:1;stroke-dasharray:none;stroke-dashoffset:0"
     d="m 12.364657,0.7536332 c -5.8628926,0 -10.6146611,4.7518456 -10.6146611,10.6148398 0,5.862996 4.7517685,10.631532 10.6146611,10.631531 5.862892,0 10.631357,-4.768535 10.631347,-10.631531 0,-5.8629942 -4.768455,-10.6148398 -10.631347,-10.6148398 z"
     id="path2555"
     inkscape:connector-curvature="0" />
  <path
     inkscape:connector-curvature="0"
     style="opacity:0.1;fill:#000000;fill-opacity:1;fill-rule:evenodd;stroke:none;filter:url(#filter4206)"
     d="m 44.21875,7.328125 c 4.573145,2.250552 6.788749,7.955579 7.5,13.375 -0.747725,-0.583873 -1.422354,-0.995434 -1.8125,-1.03125 0.945349,2.853931 1.351501,5.509282 1.53125,7.3125 -2.9e-5,0.0026 1.2e-4,0.02855 0,0.03125 -0.240129,1.031205 -0.558074,2.04471 -0.96875,3 -0.605191,-1.384489 -1.316265,-2.624561 -1.84375,-3.09375 -0.03413,-0.02904 -0.09242,-0.07149 -0.125,-0.09375 -0.01608,-0.01026 -0.04684,-0.02277 -0.0625,-0.03125 -0.346678,4.077818 -1.498386,7.388022 -2,8.8125 -0.0029,0.0082 -4.319353,2.6875 -6.9375,2.6875 -2.819755,10e-7 -6.124722,-2.03002 -7.144929,-3.553893 1.856753,0.719965 2.609351,0.934787 3.977358,0.934787 3.393162,0 5.767648,-3.731613 5.730071,-4.162144 -6.08e-4,-0.0056 -1.279143,-1.99059 -2.09375,-2.375 -0.01059,-0.0056 -0.05205,-0.02611 -0.0625,-0.03125 -1.703629,0.271437 -3.306888,1.26159 -5.75,1.65625 -0.0048,-0.0044 -3.22405,-1.100086 -3.5625,-2.9375 1.150591,-0.248113 2.723805,-0.30563 3.461771,0.08683 -0.598177,-1.397325 -0.970026,-2.557313 -1.430521,-3.49308 1.750108,-0.597096 4.037349,-2.917692 4.28125,-4.625 10e-7,0 -4.261447,-0.13788 -5.21875,-1.09375 -0.0039,-0.0041 -0.0253,-0.02552 -0.03125,-0.03125 -0.0069,-0.0071 -0.02925,-0.02966 -0.03125,-0.03125 0.113378,-0.830264 0.324835,-1.546396 0.59375,-2.0625 -3.1e-4,-0.0015 -9.6e-5,-0.02414 0,-0.03125 0.632179,-0.994356 1.754423,-3.933808 1.75,-3.9375 -0.01038,-0.0056 -4.279729,0.43004 -6.40625,2.6875 -3.575063,-0.144139 -5.310998,2.739778 -8.3,-3.8875 -1.624542,2.11854 -2.456865,4.888987 -1.60625,8.23125 0.0018,0.007 -1.29e-4,0.02995 0,0.03125 -0.0056,0.0057 -0.0256,0.02554 -0.03125,0.03125 2.68e-4,0.0016 8.4e-5,0.02417 0,0.03125 -0.865138,1.238773 -2.183927,4.479108 -2.1875,7.3125 0.336206,-0.262439 0.777963,-0.556233 1.28125,-0.84375 -0.02314,0.472668 -0.03125,0.937682 -0.03125,1.40625 0,11.624869 9.437632,21.062501 21.0625,21.0625 11.62487,10e-7 21.062498,-9.437631 21.0625,-21.0625 0,-9.536027 -5.550805,-17.628571 -14.25,-20.21875 l -0.34375,-0.0625 z"
     id="path1711-6"
     sodipodi:nodetypes="cccsscsscsscssscccccsssssssccssssccssscc"
     transform="matrix(0.47231251,0,0,0.47231251,-5.4622136,-1.559206)" />
  <path
     style="opacity:0.5;fill:none;stroke:url(#linearGradient3130);stroke-width:0.53419513;stroke-miterlimit:4;stroke-opacity:1;stroke-dasharray:none"
     id="path8655"
     d="m 22.263875,11.276369 c 0,5.458188 -4.424918,9.882955 -9.882479,9.882955 -5.4580596,0 -9.8827285,-4.424817 -9.8827285,-9.882955 0,-5.4579348 4.4246689,-9.8822527 9.8827285,-9.8822527 5.457561,0 9.882479,4.4243179 9.882479,9.8822527 l 0,0 z"
     inkscape:connector-curvature="0" />
  <path
     style="opacity:0.4;fill:#000000;fill-opacity:1;fill-rule:nonzero;stroke:none"
     id="path6534"
     d="M 12.339885,1.4039383 11.077933,1.5484148 9.6897855,1.927666 C 9.8080313,1.8862037 9.9278202,1.8409462 10.050343,1.8012489 L 9.8880919,1.5122956 9.3472549,1.6025937 9.0768354,1.8554277 8.6621957,1.9096066 8.2836103,2.0902024 8.1033319,2.1804993 8.0492505,2.2527378 7.7788333,2.3069167 7.6165835,2.6500487 7.4002469,2.2166186 l -0.072112,0.180596 0.036061,0.4876088 -0.3425293,0.2889533 -0.198307,0.5237281 0.4146424,0 0.16225,-0.3431322 0.054081,-0.126417 C 7.6366463,3.0988004 7.8094803,2.9549642 7.9951679,2.8306446 L 8.427837,2.9751214 c 0.2817,0.1917222 0.5653792,0.3864757 0.8473109,0.5779064 L 9.6897866,3.1737767 9.2210617,2.9751214 9.0047274,2.5416914 8.2114992,2.4513935 8.193468,2.3610954 8.5359963,2.4333334 8.7343044,2.2346783 9.166973,2.1443802 C 9.2693593,2.0944947 9.3700849,2.0585655 9.4734466,2.0179631 l -0.2704175,0.2528341 0.9735059,0.6682049 0,0.3973103 -0.3785858,0.3792512 0.5047788,1.0113376 0.342531,-0.1986563 0.43267,-0.6682045 c 0.608302,-0.1883989 1.156541,-0.4076269 1.73068,-0.6682037 l -0.03606,0.252834 0.288446,0.1986553 0.504782,-0.343132 -0.252392,-0.2889533 -0.342531,0.1986552 -0.108166,-0.036117 c 0.02484,-0.011371 0.04716,-0.024557 0.07211,-0.036116 L 13.439585,1.8373711 12.339883,1.4039414 z m -4.9396423,1.9504348 0.4146414,0.2889532 0.3425304,0 0,-0.343132 -0.4146405,-0.1805961 -0.3425313,0.2347749 0,0 z m 9.5728093,-0.2347749 -0.739143,0.1805961 -0.468724,0.3070129 0,0.2708934 -0.739143,0.4695485 0.144223,0.7043258 0.432669,-0.3070139 0.270418,0.3070139 0.306475,0.1805953 0.198306,-0.5237284 -0.108167,-0.3070132 0.108167,-0.216716 0.432671,-0.3973095 0.198306,0 -0.198306,0.4334311 0,0.39731 c 0.178333,-0.048626 0.358338,-0.067567 0.540836,-0.090298 l -0.504781,0.3611929 -0.03606,0.2167141 -0.576892,0.4876095 -0.594921,-0.144478 0,-0.3431315 -0.270418,0.180596 0.126195,0.3070135 -0.432669,0 -0.234362,0.3973105 -0.288446,0.3250729 -0.522809,0.1083567 0.306475,0.307013 0.07211,0.3070129 -0.378586,0 -0.504782,0.2708942 0,0.7946205 0.234362,0 0.216336,0.2347753 0.486753,-0.2347753 0.180278,-0.487608 0.36056,-0.216715 0.07211,-0.1805959 0.576891,-0.1444771 0.324502,0.3611922 0.342531,0.1805958 -0.198309,0.3973115 0.306477,-0.090299 0.162249,-0.3973111 -0.396613,-0.4514895 0.162251,0 0.396613,0.325073 0.07211,0.43343 0.342529,0.397311 0.09015,-0.5779063 0.180278,-0.090299 c 0.191896,0.1995614 0.343158,0.4436112 0.504781,0.6682048 l 0.594921,0.036127 0.342528,0.216715 -0.16225,0.2347743 -0.342529,0.3070136 -0.504782,0 -0.667032,-0.2167145 -0.34253,0.036121 -0.25239,0.2889537 -0.721116,-0.7223842 -0.50478,-0.1444758 -0.739145,0.090298 -0.649003,0.180595 c -0.37023,0.4204641 -0.749282,0.8455603 -1.099702,1.2822305 l -0.414642,1.0113356 0.198309,0.216716 -0.360559,0.523728 0.396613,0.921039 c 0.330026,0.373983 0.661989,0.745443 0.991535,1.119693 l 0.486754,-0.41537 0.198305,0.252834 0.522809,-0.343131 0.180279,0.198655 0.522809,0 0.306474,0.343131 -0.180279,0.614026 0.360559,0.415371 -0.01804,0.722383 0.270419,0.523728 -0.198308,0.45149 c -0.01933,0.323813 -0.03606,0.633292 -0.03606,0.957158 0.159061,0.438756 0.31853,0.876436 0.468727,1.318349 l 0.108168,0.704323 0,0.361191 0.288443,0 0.414644,-0.270893 0.504781,0 0.757172,-0.8488 -0.09015,-0.288955 0.50478,-0.451488 -0.378586,-0.41537 0.450696,-0.361192 0.432671,-0.270895 0.198306,-0.216714 -0.126193,-0.487609 c 0,-0.410515 1e-6,-0.81748 0,-1.228051 l 0.342529,-0.758502 0.432669,-0.46955 0.468726,-1.155812 0,-0.307014 c -0.233254,0.02944 -0.456827,0.05597 -0.685061,0.07224 l 0.468726,-0.46955 0.649004,-0.433429 0.34253,-0.397313 0,-0.433428 c -0.07769,-0.146772 -0.156143,-0.304724 -0.234365,-0.451492 l -0.306473,0.361191 -0.234362,-0.270893 -0.342531,-0.2708946 0,-0.559847 0.396613,0.451489 0.450698,-0.05418 c 0.203324,0.184905 0.398557,0.3493196 0.576892,0.5598456 l 0.288454,-0.3250806 c 0,-0.349967 -0.393474,-2.0776539 -1.243925,-3.5396781 C 20.160846,4.9629632 18.667669,3.6252696 18.66767,3.6252696 l -0.108168,0.1986557 -0.396613,0.4334296 -0.504781,-0.5237275 0.504781,0 0.234363,-0.2528362 -0.937451,-0.180596 -0.486754,-0.1805959 z M 6.1382905,3.3543731 5.9580122,3.8239222 c 0,0 -0.3156244,0.0522 -0.396613,0.072238 -1.0343106,0.95479 -3.1200568,3.0257694 -3.6055781,6.9168208 0.019223,0.09022 0.3425299,0.614024 0.3425299,0.614024 l 0.7932275,0.46955 0.7932267,0.216714 0.3425302,0.415371 0.5228082,0.397311 0.3064745,-0.05418 0.2163354,0.108359 0,0.07223 -0.2884477,0.812681 -0.2343622,0.343134 0.072112,0.162536 -0.1802787,0.650145 0.667032,1.228051 0.6850607,0.595967 0.3064732,0.433429 -0.036061,0.902979 0.2163346,0.505667 -0.2163346,0.97522 c 0,0 -0.028864,-0.0081 0,0.09029 0.029121,0.09836 1.205105,0.76007 1.2799796,0.704322 0.074615,-0.05679 0.1442223,-0.108357 0.1442223,-0.108357 L 7.6165717,20.131717 7.9230449,19.842764 8.0312132,19.535751 8.5179659,19.373213 8.8965514,18.434116 8.7883842,18.181282 9.0407736,17.783971 9.6176677,17.657554 9.9061142,16.97129 9.8340002,16.122488 10.284698,15.490405 10.35681,14.840261 C 9.7384334,14.533078 9.1317349,14.217441 8.5179682,13.901169 L 8.2114938,13.305203 7.652629,13.178786 7.3461547,12.366104 l -0.7391433,0.09029 -0.6490045,-0.469547 -0.6850597,0.595967 0,0.09029 c -0.2051899,-0.05933 -0.4482668,-0.06805 -0.6309716,-0.18059 l -0.1442226,-0.433432 0,-0.469548 -0.4687251,0.05418 c 0.037718,-0.299092 0.088211,-0.60394 0.126194,-0.90298 l -0.2704186,0 -0.2704181,0.343132 -0.2523907,0.126417 -0.3785857,-0.216715 -0.036054,-0.469548 0.072112,-0.505669 0.5588644,-0.4334298 0.4506975,0 0.090139,-0.2528347 0.5588643,0.1264157 0.4146415,0.52373 L 5.1647861,9.115368 5.8859019,8.5194023 6.1382915,7.8873176 6.6791287,7.6706021 6.9675744,7.2371714 7.6526351,7.1107547 7.9951645,6.6050864 c -0.3390354,0 -0.6885534,0 -1.0275901,0 l 0.6490057,-0.3070136 0.4506955,0 L 8.644169,6.0994187 8.7523359,6.6592647 9.0047274,6.2619538 8.7162798,6.0632987 8.788392,5.8285248 8.5540304,5.6118093 8.3016388,5.5395708 8.3737509,5.2686775 8.1754439,4.8894268 7.7247464,5.0700217 7.7968585,4.7268903 7.2740498,4.4198766 6.8594094,5.14226 6.8954708,5.3950945 6.4808304,5.5756901 6.2284398,6.1355371 6.1022439,5.6118092 5.3991567,5.3228558 5.2729619,4.9255449 6.2284398,4.3837575 6.6430802,3.9864465 6.6791417,3.5168974 6.4447796,3.3904803 6.1383053,3.3543642 l -6.4e-6,-5e-7 z m 7.7339655,0.8668611 0,0.2889512 0.16225,0.1805972 0,0.43343 -0.09015,0.5779063 0.468724,-0.090298 0.342531,-0.3431317 -0.306475,-0.2889544 C 14.349761,4.7146098 14.249039,4.4755237 14.124647,4.2212342 l -0.252391,0 z m -0.396614,0.5779049 -0.288447,0.090299 0.07211,0.5237269 0.378586,-0.1986566 -0.16225,-0.4153698 0,0 z m 5.282172,4.7496711 0.432669,0.5056668 0.52281,1.119694 0.3245,0.361192 -0.162249,0.379252 0.288447,0.343133 c -0.13237,0.0088 -0.260563,0.01807 -0.396614,0.01807 -0.247159,-0.520271 -0.442764,-1.044956 -0.630978,-1.589242 l -0.324502,-0.361192 -0.180278,-0.6501448 0.126195,-0.126418 0,-2e-6 z"
     inkscape:connector-curvature="0" />
  <path
     inkscape:connector-curvature="0"
     style="fill:url(#linearGradient4235);fill-opacity:1;fill-rule:evenodd;stroke:url(#linearGradient4243);stroke-width:1;stroke-linecap:round;stroke-linejoin:miter;stroke-miterlimit:4;stroke-opacity:1;stroke-dasharray:none;stroke-dashoffset:0"
     d="m 15.715117,1.2528597 c 2.377858,1.1701989 3.529885,4.1365904 3.899708,6.9544777 -0.388788,-0.3035911 -0.739568,-0.5175867 -0.94243,-0.5362096 0.491545,1.4839326 0.702728,2.8646102 0.796191,3.8022132 -1.6e-5,0.0013 6.2e-5,0.01484 0,0.01625 -0.124859,0.536187 -0.290177,1.063169 -0.503712,1.559883 -0.314676,-0.719881 -0.684407,-1.36467 -0.958679,-1.60863 -0.01774,-0.0151 -0.04805,-0.03717 -0.06499,-0.04875 -0.0084,-0.0054 -0.02435,-0.01183 -0.0325,-0.01624 -0.180259,2.120307 -0.779102,3.841485 -1.039921,4.582156 -0.0015,0.0042 -2.245895,1.397397 -3.607229,1.397397 -1.466162,0 -3.184616,-1.055532 -3.7150844,-1.847886 0.9654394,0.374353 1.3567594,0.486052 2.0680714,0.486052 1.764311,0 2.998951,-1.940294 2.979411,-2.164153 -3.14e-4,-0.0029 -0.665103,-1.035029 -1.088667,-1.234907 -0.0055,-0.0029 -0.02707,-0.01357 -0.0325,-0.01624 -0.88582,0.141137 -1.719452,0.655978 -2.989774,0.861186 -0.0024,-0.0022 -1.6763814,-0.572002 -1.8523624,-1.527387 0.5982624,-0.129008 1.4162734,-0.158914 1.7999874,0.04515 -0.31103,-0.726553 -0.5043774,-1.329704 -0.7438168,-1.816266 0.9099888,-0.3104648 2.0992648,-1.5170841 2.2260828,-2.4048175 2e-6,0 -2.2157854,-0.071692 -2.7135457,-0.5687076 -0.00206,-0.00212 -0.01316,-0.01327 -0.016245,-0.016248 -0.00361,-0.00368 -0.015203,-0.015422 -0.016245,-0.016249 0.058955,-0.4317047 0.1689013,-0.8040654 0.3087267,-1.0724193 -1.61e-4,-7.8e-4 -4.96e-5,-0.012552 0,-0.016249 C 9.8043024,5.529231 10.387825,4.0008307 10.385527,3.998911 10.38018,3.9959914 8.1602339,4.222515 7.0545268,5.3963062 5.1956336,5.32136 4.2930148,6.8208836 2.7388507,3.3749579 1.8941524,4.476516 1.4613767,5.9170403 1.9036635,7.6548867 c 9.203e-4,0.00363 -6.69e-5,0.015574 0,0.016248 -0.00294,0.00296 -0.013313,0.013279 -0.016249,0.016248 1.396e-4,8.32e-4 4.36e-5,0.012567 0,0.016248 C 1.4375767,8.3477448 0.75185772,10.032592 0.75,11.505844 c 0.17481384,-0.136456 0.4045103,-0.289218 0.6661998,-0.438715 -0.012033,0.245768 -0.016249,0.487557 -0.016249,0.731194 0,6.044477 4.9071991,10.951678 10.9516772,10.951677 6.044477,1e-6 10.951674,-4.9072 10.951675,-10.951677 0,-4.9583612 -2.8862,-9.166168 -7.409442,-10.5129598 l -0.178738,-0.032506 z"
     id="path1711"
     sodipodi:nodetypes="cccsscsscsscssscccccsssssssccssssccssscc" />
  <path
     style="opacity:0.8;fill:none;stroke:url(#radialGradient3131);stroke-width:0.51341701;stroke-linecap:round;stroke-linejoin:miter;stroke-miterlimit:4;stroke-opacity:0.60893902;stroke-dasharray:none;stroke-dashoffset:0"
     d="m 18.650871,3.4380681 c 0.189647,0.4678128 1.667182,2.8563143 1.677237,5.5725808 0.0037,0.9640184 -0.107696,0.3479655 -0.645921,-0.017011 0.283029,1.4428661 0.507879,2.2251361 0.400741,2.7199831 -0.520798,1.504075 -0.529193,1.734177 -1.076764,2.620402 -0.456216,-0.961516 -0.472805,-0.904808 -0.677997,-1.366313 -0.138181,0.963215 -0.78623,2.960764 -0.895728,3.223754 -1.776782,0.949422 -2.648356,1.373514 -4.055383,1.531765 -2.419488,0.01935 -4.2696815,-1.636389 -5.4143957,-3.519741 1.2030728,0.383816 2.9258607,1.068553 3.4790517,1.058869 0.95817,0.153526 2.316761,-1.039698 2.535069,-1.425511 -0.367879,-0.550317 -0.3558,-0.438824 -0.638747,-0.688343 -0.658917,0.161563 -1.408048,0.532496 -2.599068,0.769728 -0.68902,0.106823 -3.0969849,-1.234833 -2.6619157,-2.538452 0.5105955,-0.08184 0.748652,-0.237398 1.476658,-0.171566 C 9.3819149,10.66401 9.2311925,10.508046 8.9028819,9.8425792 9.614846,9.62564 10.73205,9.040812 11.103438,8.3103188 c 0,-6e-7 -1.7481661,-0.1262274 -2.5988196,-0.8766224 -0.00171,-0.00147 0.085233,-0.7936805 0.9422371,-2.5197322 C 9.0610036,5.0053732 8.0716078,5.3669259 7.2694009,5.9964144 6.337074,6.1194533 5.8521749,6.3078495 5.2782096,6.3568161 3.8323005,6.3000917 3.178086,5.4803189 2.7383392,4.7684566 2.3860315,5.4593544 2.2648001,6.0538413 2.5043525,7.9609639 2.5009725,7.9654191 1.5344794,9.1848426 1.5330345,10.299894 2.4086051,9.7168457 1.9892822,11.176459 1.9892822,11.360859 1.806849,18.109073 7.7060254,22.214588 12.962066,21.835429 19.620295,21.326832 22.850988,16.060263 22.808248,11.4856 22.783598,8.8468613 21.402164,5.1748389 18.650871,3.4380681 z"
     id="path5035"
     sodipodi:nodetypes="csccccccccccccccssccccccccsc"
     inkscape:connector-curvature="0" />
  <path
     inkscape:connector-curvature="0"
     style="opacity:0.75;fill:url(#linearGradient3496);fill-opacity:1;fill-rule:evenodd;stroke:none"
     d="m 17.448513,2.273372 c 1.811385,2.2779718 2.688605,5.3950429 2.567946,7.836844 -0.719792,3.813215 -1.319544,5.540919 -2.873638,7.321246 -0.0031,0.006 -0.01313,0.01022 -0.01625,0.01625 -0.0058,0.0053 -0.01049,0.01108 -0.01625,0.01624 -0.002,0.0039 0.003,0.01293 0,0.01625 -1.1961,1.323839 -2.667985,1.804985 -6.696928,2.166732 -3.5079007,0.316748 -6.8546701,-3.119374 -7.6720492,-4.453111 1.777491,5.187238 6.9643809,6.882019 10.1198672,6.687341 5.856502,-0.343434 8.672263,-4.917283 9.463508,-8.67376 C 23.035224,9.4218122 22.022913,4.5043249 17.448512,2.2733653 z"
     id="path2729"
     sodipodi:nodetypes="cccsssccccc" />
  <path
     inkscape:connector-curvature="0"
     style="fill:#ffffff;fill-opacity:0.675978;fill-rule:evenodd;stroke:none"
     d="M 11.438375,8.0126087 C 10.940629,9.2551764 9.9181245,9.7048722 9.192665,9.9344652 9.350632,9.3236007 9.7290349,9.0509987 9.8517416,8.9212278 10.292079,8.713647 10.356067,8.8375581 11.438375,8.0126087 z"
     id="path2726"
     sodipodi:nodetypes="cccc" />
  <path
     inkscape:connector-curvature="0"
     style="fill:#2e3436;fill-opacity:1;fill-rule:evenodd;stroke:none"
     d="M 11.553066,7.9238705 C 11.333629,8.5764855 10.811906,9.0554049 10.561548,9.2258283 10.625088,8.6275421 10.247816,8.118829 9.9576101,7.7996477 10.619152,7.9321905 10.888745,7.9121424 11.553066,7.9238705 z"
     id="rect8531"
     sodipodi:nodetypes="cccc" />
  <path
     style="opacity:0.65;fill:url(#linearGradient1572);fill-opacity:1;fill-rule:evenodd;stroke:none"
     d="M 7.5885632,17.043628 C 5.8018422,16.109689 4.252644,14.650159 5.0567142,12.088222 l 1.0637467,0.0356 c -0.057889,2.129274 0.4410803,3.245817 1.4681023,4.919801 z"
     id="path1570"
     sodipodi:nodetypes="cccc"
     inkscape:connector-curvature="0" />
  <path
     style="opacity:0.65;fill:url(#linearGradient1580);fill-opacity:1;fill-rule:evenodd;stroke:none"
     d="M 9.5444455,20.117429 C 7.53598,19.94228 5.5446872,19.190617 5.3018809,16.516463 l 0.9956608,-0.37614 c 0.7652643,1.987844 1.6551876,2.826698 3.2469038,3.977106 z"
     id="path1578"
     sodipodi:nodetypes="cccc"
     inkscape:connector-curvature="0" />
  <path
     style="opacity:0.65;fill:url(#linearGradient1584);fill-opacity:1;fill-rule:evenodd;stroke:none"
     d="M 4.5229825,15.116006 C 3.1034071,13.684428 2.0694929,11.82398 3.6122913,9.6262942 l 1.0029079,0.356365 C 3.9146231,11.994212 4.0516827,13.209472 4.5229821,15.116006 z"
     id="path1582"
     sodipodi:nodetypes="cccc"
     inkscape:connector-curvature="0" />
  <path
     style="opacity:0.65;fill:url(#linearGradient1438);fill-opacity:1;fill-rule:evenodd;stroke:none"
     d="m 21.352766,8.6467478 c 1.219237,1.6056362 1.999826,3.5857682 0.181727,5.5617692 l -0.947411,-0.48501 c 0.958724,-1.902106 0.982477,-3.124838 0.765684,-5.0767592 z"
     id="path1436"
     sodipodi:nodetypes="cccc"
     inkscape:connector-curvature="0" />
  <path
     style="opacity:0.65000006;fill:url(#linearGradient1442);fill-opacity:1;fill-rule:evenodd;stroke:none"
     d="m 20.426814,12.910317 c 0.243409,2.001342 -0.08081,4.104939 -2.647178,4.894769 l -0.573652,-0.896518 c 1.786952,-1.159292 2.423938,-2.203267 3.22083,-3.998251 z"
     id="path1440"
     sodipodi:nodetypes="cccc"
     inkscape:connector-curvature="0" />
  <path
     style="opacity:0.65;fill:url(#linearGradient1446);fill-opacity:1;fill-rule:evenodd;stroke:none"
     d="m 18.553198,17.32064 c -0.603829,1.923538 -1.76693,3.706077 -4.430581,3.366936 l -0.152752,-1.053323 c 2.106047,-0.318933 3.116959,-1.007188 4.583333,-2.313613 z"
     id="path1444"
     sodipodi:nodetypes="cccc"
     inkscape:connector-curvature="0" />
</svg>
