<?xml version="1.0" encoding="UTF-8" standalone="no"?>
<!-- Created with Inkscape (http://www.inkscape.org/) -->

<svg
   xmlns:dc="http://purl.org/dc/elements/1.1/"
   xmlns:cc="http://creativecommons.org/ns#"
   xmlns:rdf="http://www.w3.org/1999/02/22-rdf-syntax-ns#"
   xmlns:svg="http://www.w3.org/2000/svg"
   xmlns="http://www.w3.org/2000/svg"
   xmlns:xlink="http://www.w3.org/1999/xlink"
   xmlns:inkscape="http://www.inkscape.org/namespaces/inkscape"
   version="1.0"
   width="96"
   height="96"
   id="svg2408">
  <defs
     id="defs2410">
    <linearGradient
       id="linearGradient4008">
      <stop
         id="stop4010"
         style="stop-color:#dab980;stop-opacity:1"
         offset="0" />
      <stop
         id="stop4012"
         style="stop-color:#c29856;stop-opacity:1"
         offset="0.71691591" />
      <stop
         id="stop4014"
         style="stop-color:#a2773a;stop-opacity:1"
         offset="1" />
    </linearGradient>
    <linearGradient
       id="linearGradient3874">
      <stop
         id="stop3876"
         style="stop-color:#ffffff;stop-opacity:1"
         offset="0" />
      <stop
         id="stop3878"
         style="stop-color:#ffffff;stop-opacity:0"
         offset="1" />
    </linearGradient>
    <linearGradient
       x1="11.794092"
       y1="3.2126782"
       x2="11.794092"
       y2="20.137329"
       id="linearGradient3317"
       gradientUnits="userSpaceOnUse"
       gradientTransform="scale(1.0598527,0.9435274)">
      <stop
         id="stop3319"
         style="stop-color:#c6953a;stop-opacity:1"
         offset="0" />
      <stop
         id="stop3321"
         style="stop-color:#ab7a1f;stop-opacity:1"
         offset="1" />
    </linearGradient>
    <linearGradient
       x1="48.035713"
       y1="25.910715"
       x2="48.035713"
       y2="85.821426"
       id="linearGradient3361"
       xlink:href="#linearGradient3317"
       gradientUnits="userSpaceOnUse" />
    <linearGradient
       id="linearGradient3187">
      <stop
         id="stop3189"
         style="stop-color:#c29656;stop-opacity:1"
         offset="0" />
      <stop
         id="stop3191"
         style="stop-color:#ddc08b;stop-opacity:1"
         offset="1" />
    </linearGradient>
    <linearGradient
       x1="45.447727"
       y1="80.471962"
       x2="45.447727"
       y2="7.0165396"
       id="ButtonShadow"
       gradientUnits="userSpaceOnUse"
       gradientTransform="matrix(1.0058652,0,0,0.994169,0,12)">
      <stop
         id="stop3750"
         style="stop-color:#000000;stop-opacity:1"
         offset="0" />
      <stop
         id="stop3752"
         style="stop-color:#000000;stop-opacity:0.58823532"
         offset="1" />
    </linearGradient>
    <linearGradient
       x1="48"
       y1="78"
       x2="48"
       y2="5.9877172"
       id="linearGradient3706"
       xlink:href="#linearGradient3187"
       gradientUnits="userSpaceOnUse"
       gradientTransform="translate(0,8)" />
    <filter
       color-interpolation-filters="sRGB"
       id="filter3174">
      <feGaussianBlur
         id="feGaussianBlur3176"
         stdDeviation="1.71" />
    </filter>
    <linearGradient
       x1="45.447727"
       y1="80.471962"
       x2="45.447727"
       y2="5.297224"
       id="linearGradient3664"
       xlink:href="#ButtonShadow"
       gradientUnits="userSpaceOnUse"
       gradientTransform="matrix(1.0058652,0,0,0.994169,0,12)" />
    <clipPath
       id="clipPath3860">
      <rect
         width="84"
         height="72"
         rx="6"
         ry="6"
         x="6"
         y="18"
         id="rect3862"
         style="fill:#ff00ff;fill-opacity:1;fill-rule:nonzero;stroke:none" />
    </clipPath>
    <filter
       x="-0.16558799"
       y="-0.19715989"
       width="1.331176"
       height="1.3943198"
       color-interpolation-filters="sRGB"
       id="filter3870">
      <feGaussianBlur
         id="feGaussianBlur3872"
         stdDeviation="5.1703125" />
    </filter>
    <linearGradient
       id="linearGradient3699">
      <stop
         id="stop3701"
         style="stop-color:#aa7932;stop-opacity:0.78431374"
         offset="0" />
      <stop
         id="stop3703"
         style="stop-color:#aa7932;stop-opacity:0.39215687"
         offset="1" />
    </linearGradient>
    <linearGradient
       id="linearGradient3892">
      <stop
         id="stop3894"
         style="stop-color:#000000;stop-opacity:0.58823532"
         offset="0" />
      <stop
         id="stop3896"
         style="stop-color:#000000;stop-opacity:0.47058824"
         offset="0.11780351" />
      <stop
         id="stop3898"
         style="stop-color:#000000;stop-opacity:0.39215687"
         offset="0.23809524" />
      <stop
         id="stop3900"
         style="stop-color:#000000;stop-opacity:0.3137255"
         offset="1" />
    </linearGradient>
    <linearGradient
       x1="90"
       y1="88"
       x2="48"
       y2="88"
       id="linearGradient3077"
       xlink:href="#linearGradient3892"
       gradientUnits="userSpaceOnUse"
       spreadMethod="reflect" />
    <linearGradient
       id="linearGradient4384">
      <stop
         id="stop4386"
         style="stop-color:#ffffff;stop-opacity:1"
         offset="0" />
      <stop
         id="stop4388"
         style="stop-color:#ffffff;stop-opacity:0"
         offset="1" />
    </linearGradient>
    <linearGradient
       x1="48"
       y1="75.08329"
       x2="48"
       y2="-40"
       id="linearGradient3094"
       xlink:href="#linearGradient4384"
       gradientUnits="userSpaceOnUse"
       gradientTransform="matrix(1,0,0,-1,0,92)" />
    <linearGradient
       x1="48.021698"
       y1="22.933374"
       x2="48.021698"
       y2="81.481377"
       id="linearGradient3123"
       xlink:href="#linearGradient3874"
       gradientUnits="userSpaceOnUse" />
    <linearGradient
       x1="34.85965"
       y1="16.275133"
       x2="34.85965"
       y2="26.986736"
       id="linearGradient3105"
       xlink:href="#linearGradient4008"
       gradientUnits="userSpaceOnUse"
       gradientTransform="matrix(0.72,0,0,0.72,1.92,-5.52)" />
    <linearGradient
       x1="43"
       y1="91"
       x2="43"
       y2="7"
       id="linearGradient3952"
       xlink:href="#ButtonShadow"
       gradientUnits="userSpaceOnUse" />
    <linearGradient
       x1="45"
       y1="92"
       x2="45"
       y2="7"
       id="linearGradient3961"
       xlink:href="#ButtonShadow"
       gradientUnits="userSpaceOnUse" />
    <linearGradient
       x1="45"
       y1="92"
       x2="45"
       y2="7"
       id="linearGradient3969"
       xlink:href="#ButtonShadow"
       gradientUnits="userSpaceOnUse" />
    <linearGradient
       x1="45"
       y1="92"
       x2="45"
       y2="7"
       id="linearGradient3977"
       xlink:href="#ButtonShadow"
       gradientUnits="userSpaceOnUse" />
    <linearGradient
       x1="45"
       y1="92"
       x2="45"
       y2="7"
       id="linearGradient3986"
       xlink:href="#ButtonShadow"
       gradientUnits="userSpaceOnUse" />
    <linearGradient
       x1="52.318588"
       y1="75.953461"
       x2="52.318588"
       y2="31.997854"
       id="linearGradient3107"
       xlink:href="#linearGradient3699"
       gradientUnits="userSpaceOnUse"
       gradientTransform="translate(0,-4)" />
    <linearGradient
       x1="52.318588"
       y1="75.953461"
       x2="52.318588"
       y2="31.997854"
       id="linearGradient4404"
       xlink:href="#linearGradient3699"
       gradientUnits="userSpaceOnUse"
       gradientTransform="translate(0,-4)" />
    <linearGradient
       x1="52.318588"
       y1="75.953461"
       x2="52.318588"
       y2="31.997854"
       id="linearGradient4417"
       xlink:href="#linearGradient3699"
       gradientUnits="userSpaceOnUse"
       gradientTransform="translate(0,-4)" />
    <linearGradient
       x1="52.318588"
       y1="75.953461"
       x2="52.318588"
       y2="31.997854"
       id="linearGradient4430"
       xlink:href="#linearGradient3699"
       gradientUnits="userSpaceOnUse"
       gradientTransform="translate(0,-4)" />
  </defs>
  <metadata
     id="metadata2413">
    <rdf:RDF>
      <cc:Work
         rdf:about="">
        <dc:format>image/svg+xml</dc:format>
        <dc:type
           rdf:resource="http://purl.org/dc/dcmitype/StillImage" />
        <dc:title />
      </cc:Work>
    </rdf:RDF>
  </metadata>
  <g
     id="layer2"
     style="display:none">
    <path
       d="M 14.96875,8.8028918 C 13.32891,8.8028918 12,10.085142 12,11.677892 L 12,19 c -3.324,0 -7,2.676 -7,6 l 0,61 c 0,3.324 2.676,6 6,6 l 74,0 c 3.324,0 6,-2.676 6,-6 l 0,-61 c 0,-3.324 -3.74743,-6 -7.07143,-6 l 0,-0.134608 c 0,-2.389125 -1.97774,-4.3125 -4.4375,-4.3125 l -43.33482,0 -1.46875,-2.875 C 33.95414,10.253293 33.35859,8.8028918 31.71875,8.8028918 l -16.75,0 z"
       inkscape:connector-curvature="0"
       id="rect3745"
       style="opacity:0.9;fill:url(#linearGradient3664);fill-opacity:1;fill-rule:nonzero;stroke:none;filter:url(#filter3174)" />
  </g>
  <g
     id="layer4"
     style="display:inline">
    <path
       d="M 14.125,4 C 9.6910704,4 6,7.568413 6,12 l 0,2.15625 C 3.6235961,15.958367 2,18.759045 2,22 l 0,63 c 0,5.503629 4.496371,10 10,10 l 72,0 c 5.503629,0 10,-4.496371 10,-10 L 94,22 C 94,18.516601 92.146607,15.546894 89.46875,13.78125 88.481551,10.491738 85.526024,8 81.875,8 l -39.5,0 C 40.972352,6.645177 39.835329,5.4903784 38.6875,4.84375 37.192287,4.0014231 35.756649,4.0295412 34.875,4 a 0.92780092,0.92780092 0 0 0 -0.03125,0 c -0.0012,-1.73e-5 -0.03009,-1.73e-5 -0.03125,0 L 34.78125,4 14.125,4 z"
       id="path3984"
       style="opacity:0.07999998;fill:url(#linearGradient3986);fill-opacity:1;fill-rule:nonzero;stroke:none;display:inline" />
    <path
       d="M 14.125,4.9375 C 10.184407,4.9375 6.9375,8.0807925 6.9375,12 l 0,2.59375 c -2.3826099,1.622076 -4,4.293928 -4,7.40625 l 0,63 c 0,5.001444 4.0610559,9.0625 9.0625,9.0625 l 72,0 c 5.001444,0 9.0625,-4.061056 9.0625,-9.0625 l 0,-63 c 0,-3.260846 -1.77319,-6.039741 -4.34375,-7.625 C 87.957559,11.279325 85.241489,8.9375 81.875,8.9375 l -39.8125,0 C 40.465021,7.3963057 39.290438,6.2599842 38.21875,5.65625 36.945571,4.9390059 35.771277,4.9685784 34.84375,4.9375 a 1.043776,1.043776 0 0 0 -0.03125,0 c -10e-7,0 -0.03125,0 -0.03125,0 l -20.65625,0 z"
       id="path3975"
       style="opacity:0.1;fill:url(#linearGradient3977);fill-opacity:1;fill-rule:nonzero;stroke:none;display:inline" />
    <path
       d="M 14.125,5.96875 C 10.736326,5.96875 7.96875,8.6567706 7.96875,12 l 0,3.125 c -2.3751432,1.394016 -4,3.920462 -4,6.875 l 0,63 c 0,4.438141 3.5931086,8.03125 8.03125,8.03125 l 72,0 c 4.438141,0 8.03125,-3.593109 8.03125,-8.03125 l 0,-63 c 0,-3.031992 -1.712245,-5.604362 -4.1875,-6.96875 -0.491893,-2.85962 -2.928643,-5.0625 -5.96875,-5.0625 l -40.1875,0 C 39.852667,8.1939079 38.678863,7.1033787 37.71875,6.5625 36.681475,5.9781523 35.778304,6.0011109 34.8125,5.96875 a 1.043776,1.043776 0 0 0 -0.03125,0 l -20.65625,0 z"
       id="path3967"
       style="opacity:0.2;fill:url(#linearGradient3969);fill-opacity:1;fill-rule:nonzero;stroke:none;display:inline" />
    <path
       d="M 14.125,7 C 11.282105,7 9,9.23 9,12 l 0,3.6875 C 6.6359408,16.808884 5,19.200342 5,22 l 0,63 c 0,3.878 3.122,7 7,7 l 72,0 c 3.878,0 7,-3.122 7,-7 L 91,22 C 91,19.190264 89.346632,16.803629 86.96875,15.6875 86.799101,13.069075 84.606585,11 81.875,11 l -40.59375,0 c -4.220528,-4.1123102 -4.502768,-3.9330794 -6.5,-4 L 14.125,7 z"
       inkscape:connector-curvature="0"
       id="path3908-1"
       style="opacity:0.3;fill:url(#linearGradient3961);fill-opacity:1;fill-rule:nonzero;stroke:none;display:inline" />
    <path
       d="m 15,7 c -2.77,0 -5,2.23 -5,5 l 0,3.34375 C 7.6664933,16.164656 6,18.378887 6,21 l 0,64 c 0,3.324 2.676,6 6,6 l 72,0 c 3.324,0 6,-2.676 6,-6 L 90,21 C 90,18.358112 88.300137,16.148775 85.9375,15.34375 85.611464,12.893448 83.542274,11 81,11 L 40.46875,11 C 36.35644,6.8876898 36.102271,7.0669206 34.15625,7 L 15,7 z"
       inkscape:connector-curvature="0"
       id="path3941"
       style="opacity:0.45;fill:url(#linearGradient3952);fill-opacity:1;fill-rule:nonzero;stroke:none;display:inline" />
  </g>
  <g
     id="layer3"
     style="display:inline">
    <rect
       width="75"
       height="62.678574"
       rx="6"
       ry="6"
       x="10.535714"
       y="23.142857"
       id="rect3352"
       style="fill:url(#linearGradient3361);fill-opacity:1;fill-rule:nonzero;stroke:none;display:inline" />
    <path
       d="m 15,6 c -2.77,0 -5,2.23 -5,5 l 0,59.8125 c 0,2.39328 1.91922,4.3125 4.3125,4.3125 l 67.375,0 C 84.08078,75.125 86,73.20578 86,70.8125 L 86,15 c 0,-2.77 -2.23,-5 -5,-5 L 40.46875,10 C 36.35644,5.8876898 36.102271,6.0669206 34.15625,6 z"
       inkscape:connector-curvature="0"
       id="path3908"
       style="fill:url(#linearGradient3105);fill-opacity:1;fill-rule:nonzero;stroke:none;display:inline" />
    <path
       d="m 15,6 c -2.77,0 -5,2.23 -5,5 l 0,59.8125 c 0,2.39328 1.91922,4.3125 4.3125,4.3125 l 67.375,0 C 84.08078,75.125 86,73.20578 86,70.8125 L 86,15 c 0,-2.77 -2.23,-5 -5,-5 L 40.46875,10 C 36.35644,5.8876898 36.102271,6.0669206 34.15625,6 L 15,6 z m 0,1.03125 19.125,0 0.03125,0 c 0.964976,0.031157 1.192535,-0.016972 1.8125,0.34375 0.630289,0.366729 1.706808,1.3318077 3.75,3.375 a 1.043776,1.043776 0 0 0 0.75,0.28125 l 40.53125,0 c 2.209859,0 3.96875,1.758891 3.96875,3.96875 l 0,55.8125 c 0,1.835319 -1.445931,3.28125 -3.28125,3.28125 l -67.375,0 c -1.835319,0 -3.28125,-1.445931 -3.28125,-3.28125 l 0,-59.8125 c 0,-2.2098586 1.758891,-3.96875 3.96875,-3.96875 z"
       inkscape:connector-curvature="0"
       id="path3108"
       style="opacity:0.2;fill:#ffffff;fill-opacity:1;fill-rule:nonzero;stroke:none;display:inline" />
  </g>
  <g
     id="layer1"
     style="display:inline">
    <rect
       width="84"
       height="76"
       rx="6"
       ry="6"
       x="6"
       y="14"
       id="rect2419"
       style="fill:url(#linearGradient3706);fill-opacity:1;fill-rule:nonzero;stroke:none" />
    <path
       d="M 12,86 C 8.676,86 6,83.324 6,80 L 6,20 c 0,-3.324 2.676,-6 6,-6 l 72,0 c 3.324,0 6,2.676 6,6 l 0,60 c 0,3.324 -2.676,6 -6,6 z m 0,-0.96875 72,0 c 2.80489,0 5.03125,-2.22636 5.03125,-5.03125 l 0,-60 c 0,-2.80489 -2.22636,-5.03125 -5.03125,-5.03125 l -72,0 c -2.8048898,0 -5.03125,2.22636 -5.03125,5.03125 l 0,60 c 0,2.80489 2.2263602,5.03125 5.03125,5.03125 z"
       inkscape:connector-curvature="0"
       id="rect4377"
       style="opacity:0.35;fill:url(#linearGradient3094);fill-opacity:1;fill-rule:nonzero;stroke:none" />
    <path
       d="m 6,78 0,2 c 0,3.324 2.676,6 6,6 l 72,0 c 3.324,0 6,-2.676 6,-6 l 0,-2 c 0,3.324 -2.676,6 -6,6 L 12,84 C 8.676,84 6,81.324 6,78 z"
       inkscape:connector-curvature="0"
       id="rect3841"
       style="opacity:0.1;fill:#ffffff;fill-opacity:1;fill-rule:nonzero;stroke:none" />
  </g>
  <g
     id="layer7">
    <path
       d="m 6,80 0,4 c 0,3.324 2.676,6 6,6 l 72,0 c 3.324,0 6,-2.676 6,-6 l 0,-4 c 0,3.324 -2.676,6 -6,6 L 12,86 C 8.676,86 6,83.324 6,80 z"
       inkscape:connector-curvature="0"
       id="path3067"
       style="opacity:0.8;fill:#a17431;fill-opacity:1;fill-rule:nonzero;stroke:none;display:inline" />
    <path
       d="m 6,80 0,4 c 0,3.324 2.676,6 6,6 l 72,0 c 3.324,0 6,-2.676 6,-6 l 0,-4 c 0,3.324 -2.676,6 -6,6 L 12,86 C 8.676,86 6,83.324 6,80 z"
       inkscape:connector-curvature="0"
       id="path3888"
       style="opacity:0.5;fill:url(#linearGradient3077);fill-opacity:1;fill-rule:nonzero;stroke:none;display:inline" />
    <path
       d="m 6,82 0,2 c 0,3.324 2.676,6 6,6 l 72,0 c 3.324,0 6,-2.676 6,-6 l 0,-2 c 0,3.324 -2.676,6 -6,6 L 12,88 C 8.676,88 6,85.324 6,82 z"
       inkscape:connector-curvature="0"
       id="rect4345"
       style="opacity:0.1;color:#000000;fill:#000000;fill-opacity:1;fill-rule:nonzero;stroke:none;stroke-width:1.5;marker:none;visibility:visible;display:inline;overflow:visible;enable-background:accumulate" />
    <path
       d="m 6,83 0,1 c 0,3.324 2.676,6 6,6 l 72,0 c 3.324,0 6,-2.676 6,-6 l 0,-1 c 0,3.324 -2.676,6 -6,6 L 12,89 C 8.676,89 6,86.324 6,83 z"
       inkscape:connector-curvature="0"
       id="rect4336"
       style="opacity:0.15;color:#000000;fill:#000000;fill-opacity:1;fill-rule:nonzero;stroke:none;stroke-width:1.5;marker:none;visibility:visible;display:inline;overflow:visible;enable-background:accumulate" />
  </g>
  <g
     id="layer5"
     style="display:inline">
    <path
       d="m 15.96875,22.53125 c -2.845903,0.0043 -5.433244,2.591597 -5.4375,5.4375 l 0,48.0625 c 0.0043,2.845903 2.591597,5.433244 5.4375,5.4375 l 64.0625,0 c 2.845903,-0.0043 5.433244,-2.591597 5.4375,-5.4375 l 0,-48.0625 c -0.0043,-2.845903 -2.591597,-5.433244 -5.4375,-5.4375 z"
       inkscape:connector-curvature="0"
       clip-path="url(#clipPath3860)"
       id="path3850"
       style="opacity:0.15;fill:url(#linearGradient3123);fill-opacity:1;fill-rule:nonzero;stroke:none;filter:url(#filter3870)" />
  </g>
  <g
     id="layer6">
    <path
       d="m 48,26 c -5.507641,0 -10.15625,4.234445 -10.15625,9.5625 a 1.9579418,1.9579418 0 0 0 0,0.03125 c 0.0057,0.248585 0.05139,0.636616 0.0625,0.96875 -0.346763,0.584433 -0.534473,1.207101 -0.5625,1.78125 -0.04796,0.982585 0.139846,1.981633 0.5625,2.96875 0.244225,0.570392 0.589417,0.9585 0.90625,1.375 0.0051,0.0066 -0.0051,0.02465 0,0.03125 0.06013,0.273012 0.120035,0.506418 0.1875,0.8125 A 1.9579418,1.9579418 0 0 0 39.0625,43.75 c 0.291795,0.867719 0.72507,1.506477 1.25,2.28125 0.406742,0.600333 0.868482,1.219475 1.3125,1.8125 0.0399,0.569217 -0.01272,1.14221 -0.0625,1.71875 -1.276259,0.801198 -3.462662,1.696879 -5.65625,2.5625 -1.252592,0.494291 -2.454175,0.970718 -3.5,1.65625 -0.96779,0.63438 -1.977109,1.667219 -2.125,3.125 l -0.0625,0 -0.03125,0.3125 -1.0625,6.71875 A 1.9579418,1.9579418 0 0 0 29.09375,64.25 c 0,1.701105 1.186969,2.888388 2.4375,3.6875 0.939703,0.600488 2.213495,1.000217 3.5,1.40625 l 0.25,1 a 1.9579418,1.9579418 0 0 0 0.03125,0.0625 c -0.0089,-0.03006 0.137374,0.372408 0.125,0.34375 -0.01237,-0.02866 0.171863,0.370584 0.15625,0.34375 -0.01561,-0.02683 0.237325,0.337133 0.21875,0.3125 -0.01857,-0.02463 0.271222,0.303356 0.25,0.28125 -0.02122,-0.02211 0.304777,0.269305 0.28125,0.25 -0.02353,-0.01931 0.306725,0.235033 0.28125,0.21875 -0.02548,-0.01628 0.370806,0.200588 0.34375,0.1875 -0.02192,-0.0106 0.197651,0.05827 0.28125,0.09375 -0.01886,-0.0072 0.07309,0.0346 0.0625,0.03125 -0.127873,-0.04047 0.21799,0.15041 0.78125,0.3125 2.484259,0.714921 5.954205,1.1875 9.90625,1.1875 3.952045,0 7.448541,-0.471227 9.9375,-1.1875 0.61,-0.17554 1.090973,-0.438527 0.84375,-0.34375 l 0,0.03125 c -0.02684,0.0099 0.338178,-0.169197 0.3125,-0.15625 -0.02568,0.01295 0.336693,-0.172101 0.3125,-0.15625 -0.02419,0.01585 0.303639,-0.23735 0.28125,-0.21875 -0.02239,0.0186 0.301522,-0.271154 0.28125,-0.25 -0.02027,0.02115 0.236607,-0.304718 0.21875,-0.28125 -0.01786,0.02347 0.202666,-0.306749 0.1875,-0.28125 -0.01517,0.0255 0.199729,-0.339704 0.1875,-0.3125 -0.01223,0.0272 0.134087,-0.372293 0.125,-0.34375 a 1.9579418,1.9579418 0 0 0 0,-0.03125 l 0.34375,-1.125 C 62.297864,68.909789 63.566832,68.498012 64.5,67.90625 65.734091,67.123659 66.90625,65.950713 66.90625,64.25 A 1.9579418,1.9579418 0 0 0 66.875,63.9375 l -1.0625,-6.71875 -0.03125,-0.3125 -0.09375,0 c -0.09723,-0.704275 -0.350443,-1.386798 -0.71875,-1.8125 -0.431883,-0.499186 -0.925928,-0.839775 -1.4375,-1.15625 -1.023145,-0.632949 -2.193113,-1.116883 -3.4375,-1.625 -2.176099,-0.88856 -4.380671,-1.841847 -5.65625,-2.6875 -0.02543,-0.486299 -0.05273,-0.966133 -0.03125,-1.46875 0.416651,-0.635509 0.869628,-1.298797 1.28125,-1.96875 0.522505,-0.850426 0.959472,-1.573555 1.25,-2.4375 A 1.9579418,1.9579418 0 0 0 57,43.59375 c 0.10778,-0.451616 0.152721,-0.77239 0.21875,-1.09375 0.257748,-0.372992 0.549035,-0.718138 0.75,-1.1875 0.401179,-0.936957 0.5853,-1.882525 0.5625,-2.8125 -0.01367,-0.557399 -0.180166,-1.150147 -0.46875,-1.71875 0.02371,-0.394883 0.08132,-0.794065 0.09375,-1.15625 a 1.9579418,1.9579418 0 0 0 0,-0.0625 C 58.156258,30.234441 53.50764,26 48,26 z m 0,1.96875 c 4.524658,0 8.187506,3.407739 8.1875,7.59375 -0.01805,0.526079 -0.05056,1.103213 -0.09375,1.71875 0.618208,0.459953 0.669058,1.833378 0.0625,3.25 -0.218925,0.511308 -0.484678,0.921936 -0.78125,1.28125 -0.09593,0.444406 -0.157736,0.794956 -0.28125,1.3125 -0.336067,0.999366 -1.651939,2.964364 -2.65625,4.5 -0.06473,1.021301 -0.06465,2.056839 0.0625,3.09375 3.140503,2.70695 11.33078,4.183218 11.34375,6.5 L 64.9375,64.25 c 0,1.421664 -2.156478,2.703037 -5.53125,3.59375 L 58.8125,69.875 a 1.1896769,1.1792525 0 0 1 -0.71875,0.75 c -0.153543,0.05886 -0.266686,0.160152 -0.6875,0.28125 C 55.18952,71.544181 51.795293,72 48,72 44.204707,72 40.841729,71.544181 38.625,70.90625 38.204186,70.785152 38.091044,70.6839 37.9375,70.625 a 1.1896769,1.1792525 0 0 1 -0.75,-0.78125 l -0.5,-1.9375 C 33.22821,67.014127 31.0625,65.69197 31.0625,64.25 l 1.09375,-7.03125 c -0.01219,-2.706944 8.133007,-3.885229 11.3125,-6.5 0.221634,-1.280862 0.203909,-2.405197 0.09375,-3.53125 C 42.457875,45.727804 41.209815,44.02772 40.90625,43.125 40.808259,42.680422 40.73728,42.394135 40.65625,42 40.64487,41.98766 40.63631,41.95016 40.625,41.9375 40.285552,41.558965 39.965043,41.106472 39.71875,40.53125 39.080031,39.03951 39.158937,37.565881 39.875,37.1875 c -0.05032,-0.596696 -0.05151,-1.145276 -0.0625,-1.625 0,-4.186011 3.662841,-7.59375 8.1875,-7.59375 z"
       inkscape:connector-curvature="0"
       id="path4459"
       style="opacity:0.05;fill:#ffffff;fill-opacity:1;stroke:none;display:inline;enable-background:new" />
    <path
       d="m 48,27.03125 c -4.991046,0 -9.125,3.803383 -9.125,8.53125 a 0.9289681,0.9289681 0 0 0 0,0.03125 c 0.0086,0.377429 0.03304,0.844224 0.0625,1.34375 -0.330764,0.432726 -0.536332,0.932679 -0.5625,1.46875 -0.0382,0.782663 0.131631,1.639667 0.5,2.5 0.247988,0.579181 0.576798,1.007562 0.90625,1.40625 0.07317,0.344972 0.133712,0.614187 0.21875,1 a 0.9289681,0.9289681 0 0 0 0.03125,0.09375 c 0.218213,0.648906 0.619458,1.316343 1.125,2.0625 0.449509,0.663455 0.968336,1.367006 1.46875,2.03125 0.075,0.866264 0.0608,1.727996 -0.0625,2.65625 -1.412165,1.03408 -3.945393,1.984487 -6.28125,2.90625 -1.233417,0.486724 -2.389781,0.988913 -3.3125,1.59375 -0.873037,0.57227 -1.610529,1.357215 -1.6875,2.40625 l -0.03125,0 -0.03125,0.125 c -9.7e-5,0.01069 -4.8e-5,0.0205 0,0.03125 l -1.0625,6.875 A 0.9289681,0.9289681 0 0 0 30.125,64.25 c 0,1.186014 0.832382,2.106309 1.9375,2.8125 0.96444,0.616295 2.350058,1.103544 3.84375,1.53125 l 0.375,1.46875 a 0.9289681,0.9289681 0 0 0 0.03125,0.03125 c 0.0014,0.0046 0.0296,0.120437 0.03125,0.125 0.0017,0.0046 0.02932,0.120525 0.03125,0.125 0.0019,0.0045 0.06029,0.120626 0.0625,0.125 0.0022,0.0044 0.06002,0.08949 0.0625,0.09375 0.0025,0.0043 0.05976,0.120874 0.0625,0.125 0.0027,0.0041 0.0595,0.08977 0.0625,0.09375 0.003,0.004 0.0905,0.08993 0.09375,0.09375 0.0033,0.0038 0.09026,0.09011 0.09375,0.09375 0.0035,0.0036 0.05877,0.0903 0.0625,0.09375 0.0037,0.0034 0.0898,0.05926 0.09375,0.0625 0.0039,0.0032 0.120842,0.09073 0.125,0.09375 0.0042,0.003 0.0894,0.05972 0.09375,0.0625 0.0044,0.0028 0.08922,0.05997 0.09375,0.0625 0.0045,0.0025 0.1203,0.06023 0.125,0.0625 0.0047,0.0023 0.120153,0.0605 0.125,0.0625 0.0034,0.0014 0.02892,0.01858 0.0625,0.03125 0.01439,0.0054 0.02976,-5.16e-4 0.03125,0 -0.01354,-0.0012 0.257077,0.170651 0.75,0.3125 2.343662,0.67446 5.755334,1.125 9.625,1.125 3.869666,0 7.310358,-0.449899 9.65625,-1.125 0.49297,-0.141862 0.763771,-0.313796 0.75,-0.3125 9.43e-4,-3.49e-4 0.02409,0.0029 0.03125,0 0.02864,-0.01144 0.09008,-0.0609 0.09375,-0.0625 0.0046,-0.002 0.0893,-0.02901 0.09375,-0.03125 0.0045,-0.0022 0.120703,-0.06002 0.125,-0.0625 0.0043,-0.0025 0.08962,-0.05979 0.09375,-0.0625 0.0041,-0.0027 0.0898,-0.05958 0.09375,-0.0625 0.0039,-0.0029 0.09,-0.09063 0.09375,-0.09375 0.0038,-0.0031 0.0902,-0.05919 0.09375,-0.0625 0.0035,-0.0033 0.09041,-0.09027 0.09375,-0.09375 0.0033,-0.0035 0.05938,-0.09011 0.0625,-0.09375 0.0031,-0.0036 0.09086,-0.08996 0.09375,-0.09375 0.0029,-0.0038 0.05985,-0.08982 0.0625,-0.09375 0.0027,-0.0039 0.06009,-0.0897 0.0625,-0.09375 0.0024,-0.0041 0.06034,-0.08959 0.0625,-0.09375 0.0022,-0.0042 0.06059,-0.120744 0.0625,-0.125 0.0019,-0.0043 0.02959,-0.08941 0.03125,-0.09375 0.0017,-0.0043 0.02985,-0.12059 0.03125,-0.125 A 0.9289681,0.9289681 0 0 0 59.71875,70.125 l 0.46875,-1.59375 c 1.464343,-0.42538 2.795253,-0.894553 3.75,-1.5 1.090553,-0.691567 1.9375,-1.600757 1.9375,-2.78125 a 0.9289681,0.9289681 0 0 0 -0.03125,-0.15625 l -1.0625,-6.875 0,-0.03125 -0.03125,-0.125 -0.03125,0 C 64.668514,56.573971 64.47866,56.117783 64.1875,55.78125 63.861016,55.403889 63.457859,55.095746 63,54.8125 62.084282,54.246008 60.919531,53.753072 59.6875,53.25 c -2.319424,-0.947083 -4.841216,-1.989344 -6.25,-3.0625 -0.06887,-0.769283 -0.105288,-1.531741 -0.0625,-2.3125 0.463424,-0.707053 0.979699,-1.473637 1.4375,-2.21875 0.508846,-0.828195 0.930098,-1.577489 1.15625,-2.25 A 0.9289681,0.9289681 0 0 0 56,43.34375 c 0.114254,-0.478744 0.173213,-0.820524 0.25,-1.1875 0.278481,-0.369047 0.537763,-0.754311 0.75,-1.25 0.349729,-0.816795 0.518264,-1.630039 0.5,-2.375 -0.01296,-0.528504 -0.177827,-1.028904 -0.46875,-1.46875 0.0338,-0.51365 0.07816,-1.014444 0.09375,-1.46875 a 0.9289681,0.9289681 0 0 0 0,-0.03125 c 7e-6,-4.727869 -4.133955,-8.53125 -9.125,-8.53125 z m 0,0.9375 c 4.524658,0 8.187506,3.407739 8.1875,7.59375 -0.01805,0.526079 -0.05056,1.103213 -0.09375,1.71875 0.618208,0.459953 0.669058,1.833378 0.0625,3.25 -0.218925,0.511308 -0.484678,0.921936 -0.78125,1.28125 -0.09593,0.444406 -0.157736,0.794956 -0.28125,1.3125 -0.336067,0.999366 -1.651939,2.964364 -2.65625,4.5 -0.06473,1.021301 -0.06465,2.056839 0.0625,3.09375 3.140503,2.70695 11.33078,4.183218 11.34375,6.5 L 64.9375,64.25 c 0,1.421664 -2.156478,2.703037 -5.53125,3.59375 L 58.8125,69.875 a 1.1896769,1.1792525 0 0 1 -0.71875,0.75 c -0.153543,0.05886 -0.266686,0.160152 -0.6875,0.28125 C 55.18952,71.544181 51.795293,72 48,72 44.204707,72 40.841729,71.544181 38.625,70.90625 38.204186,70.785152 38.091044,70.6839 37.9375,70.625 a 1.1896769,1.1792525 0 0 1 -0.75,-0.78125 l -0.5,-1.9375 C 33.22821,67.014127 31.0625,65.69197 31.0625,64.25 l 1.09375,-7.03125 c -0.01219,-2.706944 8.133007,-3.885229 11.3125,-6.5 0.221634,-1.280862 0.203909,-2.405197 0.09375,-3.53125 C 42.457875,45.727804 41.209815,44.02772 40.90625,43.125 40.808259,42.680422 40.73728,42.394135 40.65625,42 40.64487,41.98766 40.63631,41.95016 40.625,41.9375 40.285552,41.558965 39.965043,41.106472 39.71875,40.53125 39.080031,39.03951 39.158937,37.565881 39.875,37.1875 c -0.05032,-0.596696 -0.05151,-1.145276 -0.0625,-1.625 0,-4.186011 3.662841,-7.59375 8.1875,-7.59375 z"
       inkscape:connector-curvature="0"
       id="path4448"
       style="opacity:0.1;fill:#ffffff;fill-opacity:1;stroke:none;display:inline;enable-background:new" />
    <path
       d="m 47.999992,27.978375 c -4.524659,0 -8.192618,3.393432 -8.192618,7.579443 0.01099,0.479724 0.01796,1.02747 0.06828,1.624166 -0.716063,0.378381 -0.809399,1.858102 -0.17068,3.349842 0.246293,0.575222 0.582221,1.042608 0.921669,1.421143 0.01131,0.01266 0.02276,0.02146 0.03414,0.0338 0.08103,0.394135 0.140961,0.705872 0.238952,1.15045 0.303565,0.90272 1.557976,2.60072 2.662601,4.060416 0.110159,1.126053 0.11922,2.238167 -0.102414,3.519029 -3.179493,2.614771 -11.311171,3.78972 -11.298984,6.496664 l -1.092345,7.038052 c 0,1.44197 2.173134,2.76225 5.632424,3.654373 l 0.477902,1.928699 a 1.1896769,1.1792525 0 0 0 0.750993,0.778248 c 0.153544,0.0589 0.261903,0.18343 0.682717,0.304528 2.216729,0.637931 5.592081,1.082774 9.387374,1.082774 3.795293,0 7.20478,-0.444843 9.42151,-1.082774 0.420814,-0.121098 0.529174,-0.245665 0.682717,-0.304528 a 1.1896769,1.1792525 0 0 0 0.716856,-0.74441 l 0.580309,-2.030208 c 3.374772,-0.890713 5.530017,-2.165037 5.530017,-3.586701 l -1.092353,-7.038047 c -0.01297,-2.316782 -8.192618,-3.78972 -11.333121,-6.49667 -0.127153,-1.036911 -0.133018,-2.057841 -0.06829,-3.079142 1.004311,-1.535636 2.326534,-3.500932 2.662601,-4.500298 0.123514,-0.517544 0.177161,-0.875229 0.273087,-1.319635 0.296572,-0.359314 0.5662,-0.774489 0.785125,-1.285797 0.606558,-1.416622 0.549928,-2.788378 -0.06828,-3.248331 0.04319,-0.615537 0.08435,-1.199598 0.102403,-1.725677 6e-6,-4.186011 -3.667952,-7.579442 -8.19261,-7.579442 z"
       inkscape:connector-curvature="0"
       id="path3798"
       style="opacity:0.9;fill:url(#linearGradient3107);fill-opacity:1;stroke:none;display:inline;enable-background:new" />
    <path
       d="m 48,27.96875 c -4.524659,0 -8.1875,3.407739 -8.1875,7.59375 0.0034,0.147744 0.02724,0.33991 0.03125,0.5 0.277616,-3.953496 3.81274,-7.09375 8.15625,-7.09375 4.320922,0 7.846251,3.106925 8.15625,7.03125 0.0073,-0.141123 0.02665,-0.303466 0.03125,-0.4375 6e-6,-4.186011 -3.662842,-7.59375 -8.1875,-7.59375 z m -8.15625,9.25 c -0.462225,0.277371 -0.655095,1.022102 -0.53125,1.9375 0.07295,-0.466767 0.261754,-0.80983 0.5625,-0.96875 -0.02999,-0.355638 -0.02203,-0.651927 -0.03125,-0.96875 z m 16.3125,0.125 c -0.01894,0.312905 -0.03893,0.601531 -0.0625,0.9375 0.231828,0.172482 0.368974,0.46054 0.4375,0.84375 0.100955,-0.793941 -0.01929,-1.45443 -0.375,-1.78125 z M 43.625,49.03125 c -0.01641,0.540268 -0.05334,1.092756 -0.15625,1.6875 -3.179493,2.614771 -11.324687,3.793056 -11.3125,6.5 L 31.0625,64.25 c 0,0.159681 0.04166,0.312469 0.09375,0.46875 l 1,-6.5 c -0.01219,-2.706944 8.133007,-3.885229 11.3125,-6.5 0.166226,-0.960647 0.194883,-1.839624 0.15625,-2.6875 z m 8.78125,0.375 c -0.01891,0.761313 -9.53e-4,1.540213 0.09375,2.3125 3.140503,2.70695 11.33078,4.183218 11.34375,6.5 l 1,6.5 C 64.895339,64.565252 64.9375,64.407433 64.9375,64.25 l -1.09375,-7.03125 c -0.01297,-2.316782 -8.203247,-3.79305 -11.34375,-6.5 -0.05344,-0.4358 -0.07939,-0.881132 -0.09375,-1.3125 z"
       inkscape:connector-curvature="0"
       id="path4398"
       style="fill:url(#linearGradient4404);fill-opacity:1;stroke:none;display:inline;enable-background:new" />
    <path
       d="m 48,27.96875 c -4.524659,0 -8.1875,3.407739 -8.1875,7.59375 0.01099,0.479724 0.01218,1.028304 0.0625,1.625 -0.716063,0.378381 -0.794969,1.85201 -0.15625,3.34375 0.246293,0.575222 0.566802,1.027715 0.90625,1.40625 0.01131,0.01266 0.01987,0.05016 0.03125,0.0625 0.08103,0.394135 0.152009,0.680422 0.25,1.125 0.303565,0.90272 1.551625,2.602804 2.65625,4.0625 0.110159,1.126053 0.127884,2.250388 -0.09375,3.53125 -3.179493,2.614771 -11.324687,3.793056 -11.3125,6.5 L 31.0625,64.25 c 0,1.44197 2.16571,2.764127 5.625,3.65625 l 0.5,1.9375 a 1.1896769,1.1792525 0 0 0 0.75,0.78125 c 0.153544,0.0589 0.266686,0.160152 0.6875,0.28125 C 40.841729,71.544181 44.204707,72 48,72 c 3.795293,0 7.18952,-0.455819 9.40625,-1.09375 0.420814,-0.121098 0.533957,-0.222387 0.6875,-0.28125 a 1.1896769,1.1792525 0 0 0 0.71875,-0.75 l 0.59375,-2.03125 C 62.781022,66.953037 64.9375,65.671664 64.9375,64.25 L 63.84375,57.21875 C 63.83078,54.901968 55.640503,53.4257 52.5,50.71875 52.372847,49.681839 52.372772,48.646301 52.4375,47.625 c 1.004311,-1.535636 2.320183,-3.500634 2.65625,-4.5 0.123514,-0.517544 0.185324,-0.868094 0.28125,-1.3125 0.296572,-0.359314 0.562325,-0.769942 0.78125,-1.28125 0.606558,-1.416622 0.555708,-2.790047 -0.0625,-3.25 0.04319,-0.615537 0.0757,-1.192671 0.09375,-1.71875 6e-6,-4.186011 -3.662842,-7.59375 -8.1875,-7.59375 z m 0,1.0625 c 3.980593,0 7.106638,2.946493 7.125,6.5 5.4e-5,0.01048 0,0.02076 0,0.03125 -0.01766,0.501684 -0.05198,1.061014 -0.09375,1.65625 A 1.0603009,1.0603009 0 0 0 55.4375,38.125 c 0.0034,0.02336 0.08663,0.147039 0.09375,0.4375 0.0095,0.387281 -0.09349,0.978009 -0.34375,1.5625 -0.177573,0.414728 -0.382925,0.706712 -0.625,1 a 1.0603009,1.0603009 0 0 0 -0.21875,0.46875 c -0.09285,0.430155 -0.149342,0.754145 -0.25,1.1875 -0.0082,0.03509 -0.02249,0.05704 -0.03125,0.09375 -0.122417,0.326857 -0.47765,1.001551 -0.9375,1.75 -0.482441,0.785217 -1.057631,1.634283 -1.5625,2.40625 A 1.0603009,1.0603009 0 0 0 51.375,47.5625 c -0.06759,1.0665 -0.07503,2.159748 0.0625,3.28125 a 1.0603009,1.0603009 0 0 0 0.375,0.6875 c 1.843293,1.588823 4.70871,2.575864 7.125,3.5625 1.208145,0.493318 2.291964,0.968237 3,1.40625 0.354018,0.219007 0.62728,0.451906 0.75,0.59375 0.12272,0.141844 0.09387,0.147405 0.09375,0.125 a 1.0603009,1.0603009 0 0 0 0,0.15625 l 1.0625,6.90625 c -0.01161,0.183068 -0.179914,0.562264 -0.96875,1.0625 -0.813058,0.515596 -2.130029,1.041187 -3.75,1.46875 a 1.0603009,1.0603009 0 0 0 -0.75,0.71875 l -0.59375,2.03125 c -0.02173,0.03653 0.02377,-0.004 0,0.03125 -0.03107,0.02894 0.0014,-0.02713 -0.03125,0 -0.01633,0.01356 -0.0083,0.02998 0,0.03125 -0.03788,0.0191 0.0076,-0.01693 -0.03125,0 -0.370573,0.142065 -0.275388,0.158385 -0.59375,0.25 -2.069308,0.595506 -5.414594,1.0625 -9.125,1.0625 -3.710406,0 -7.021899,-0.466262 -9.09375,-1.0625 -0.318417,-0.09163 -0.223467,-0.107958 -0.59375,-0.25 a 1.0603009,1.0603009 0 0 0 -0.03125,0 c -0.03994,-0.01932 0.0075,0.02165 -0.03125,0 0.0095,-0.0021 0.0187,-0.0193 0,-0.03125 -0.0326,-0.03016 -4.87e-4,0.03204 -0.03125,0 l 0,-0.03125 c -0.01516,-0.04182 0.01264,0.0114 0,-0.03125 l -0.5,-1.875 A 1.0603009,1.0603009 0 0 0 36.9375,66.875 c -1.658815,-0.427795 -2.95725,-0.942199 -3.78125,-1.46875 -0.800533,-0.511555 -0.988494,-0.927361 -1,-1.125 l 1.0625,-6.90625 a 1.0603009,1.0603009 0 0 0 0,-0.15625 c -6.52e-4,-0.144718 0.159026,-0.457418 0.84375,-0.90625 0.684724,-0.448832 1.741153,-0.934154 2.9375,-1.40625 2.392694,-0.944191 5.283803,-1.835125 7.15625,-3.375 A 1.0603009,1.0603009 0 0 0 44.5,50.90625 c 0.241025,-1.392927 0.240744,-2.629355 0.125,-3.8125 A 1.0603009,1.0603009 0 0 0 44.40625,46.5625 c -0.548738,-0.725124 -1.125689,-1.527914 -1.59375,-2.21875 -0.468061,-0.690836 -0.83029,-1.336614 -0.90625,-1.5625 -0.08358,-0.373314 -0.150507,-0.668061 -0.21875,-1 A 1.0603009,1.0603009 0 0 0 41.625,41.5625 c -2.93e-4,-7.36e-4 -1.28e-4,-0.03022 0,-0.03125 a 1.0603009,1.0603009 0 0 0 -0.1875,-0.25 c -0.02815,-0.03657 0.01372,-0.01216 -0.03125,-0.0625 C 41.125713,40.905909 40.881983,40.579218 40.6875,40.125 40.424079,39.509775 40.324412,38.896164 40.34375,38.5 c 0.0097,-0.198082 0.0408,-0.322156 0.0625,-0.375 a 1.0603009,1.0603009 0 0 0 0.53125,-1.03125 c -0.04495,-0.533012 -0.05171,-1.043775 -0.0625,-1.53125 0,-0.01049 -5.4e-5,-0.02077 0,-0.03125 0.01837,-3.553509 3.144406,-6.5 7.125,-6.5 z"
       inkscape:connector-curvature="0"
       id="path4407"
       style="opacity:0.5;fill:url(#linearGradient4417);fill-opacity:1;stroke:none;display:inline;enable-background:new" />
    <path
       d="m 48,27.96875 c -4.524659,0 -8.1875,3.407739 -8.1875,7.59375 0.01099,0.479724 0.01218,1.028304 0.0625,1.625 -0.716063,0.378381 -0.794969,1.85201 -0.15625,3.34375 0.246293,0.575222 0.566802,1.027715 0.90625,1.40625 0.01131,0.01266 0.01987,0.05016 0.03125,0.0625 0.08103,0.394135 0.152009,0.680422 0.25,1.125 0.303565,0.90272 1.551625,2.602804 2.65625,4.0625 0.110159,1.126053 0.127884,2.250388 -0.09375,3.53125 -3.179493,2.614771 -11.324687,3.793056 -11.3125,6.5 L 31.0625,64.25 c 0,1.44197 2.16571,2.764127 5.625,3.65625 l 0.5,1.9375 a 1.1896769,1.1792525 0 0 0 0.75,0.78125 c 0.153544,0.0589 0.266686,0.160152 0.6875,0.28125 C 40.841729,71.544181 44.204707,72 48,72 c 3.795293,0 7.18952,-0.455819 9.40625,-1.09375 0.420814,-0.121098 0.533957,-0.222387 0.6875,-0.28125 a 1.1896769,1.1792525 0 0 0 0.71875,-0.75 l 0.59375,-2.03125 C 62.781022,66.953037 64.9375,65.671664 64.9375,64.25 L 63.84375,57.21875 C 63.83078,54.901968 55.640503,53.4257 52.5,50.71875 52.372847,49.681839 52.372772,48.646301 52.4375,47.625 c 1.004311,-1.535636 2.320183,-3.500634 2.65625,-4.5 0.123514,-0.517544 0.185324,-0.868094 0.28125,-1.3125 0.296572,-0.359314 0.562325,-0.769942 0.78125,-1.28125 0.606558,-1.416622 0.555708,-2.790047 -0.0625,-3.25 0.04319,-0.615537 0.0757,-1.192671 0.09375,-1.71875 6e-6,-4.186011 -3.662842,-7.59375 -8.1875,-7.59375 z m 0,2.0625 c 3.462782,0 6.088411,2.515083 6.125,5.46875 2.58e-4,0.02086 0,0.0416 0,0.0625 -0.0173,0.47849 -0.05341,0.987624 -0.09375,1.5625 a 2.0663816,2.0663816 0 0 0 0.5,1.5 c 0.0012,0.213066 -0.08652,0.638957 -0.28125,1.09375 -0.138335,0.323087 -0.278386,0.550613 -0.46875,0.78125 a 2.0663816,2.0663816 0 0 0 -0.4375,0.875 c -0.08936,0.413994 -0.135874,0.727449 -0.21875,1.09375 -0.03876,0.115246 -0.405914,0.861519 -0.875,1.625 -0.469086,0.763481 -1.023806,1.630346 -1.53125,2.40625 a 2.0663816,2.0663816 0 0 0 -0.34375,1 c -0.07031,1.109388 -0.08487,2.266983 0.0625,3.46875 a 2.0663816,2.0663816 0 0 0 0.71875,1.3125 c 2.102373,1.812136 5.014121,2.77323 7.40625,3.75 1.196064,0.488385 2.240751,0.970716 2.84375,1.34375 0.25929,0.160405 0.3832,0.260851 0.4375,0.3125 l 0.96875,6.4375 c 0.05999,-0.05962 0.03659,-0.01991 0.03125,0.125 L 62.8125,64.125 c -0.0531,0.05277 -0.168113,0.184353 -0.46875,0.375 -0.672714,0.426597 -1.912747,0.93307 -3.46875,1.34375 A 2.0663816,2.0663816 0 0 0 57.4375,67.25 l -0.46875,1.59375 c -0.01387,0.0069 -0.06844,0.04623 -0.125,0.0625 C 54.914326,69.4615 51.62986,69.9375 48,69.9375 c -3.62986,0 -6.878118,-0.474573 -8.8125,-1.03125 -0.05658,-0.01628 -0.111118,-0.05561 -0.125,-0.0625 L 38.6875,67.375 a 2.0663816,2.0663816 0 0 0 -1.46875,-1.46875 c -1.591607,-0.410463 -2.849427,-0.939303 -3.53125,-1.375 -0.32576,-0.208167 -0.447569,-0.355634 -0.5,-0.40625 l -0.03125,0.125 c -0.0042,-0.129379 -0.02118,-0.175616 0.03125,-0.125 l 1,-6.59375 a 2.0663816,2.0663816 0 0 0 0,-0.0625 2.0663816,2.0663816 0 0 0 0.03125,0 c 0.03026,-0.01971 0.106459,-0.136473 0.375,-0.3125 0.564356,-0.369932 1.603651,-0.847803 2.78125,-1.3125 2.355197,-0.929395 5.265558,-1.770775 7.40625,-3.53125 A 2.0663816,2.0663816 0 0 0 45.5,51.0625 C 45.759425,49.563238 45.746044,48.237317 45.625,47 a 2.0663816,2.0663816 0 0 0 -0.40625,-1.0625 c -0.545346,-0.720643 -1.113396,-1.493393 -1.5625,-2.15625 -0.436509,-0.644267 -0.728656,-1.235484 -0.75,-1.28125 -6.16e-4,-0.0013 -0.03114,-0.03092 -0.03125,-0.03125 -0.07216,-0.319385 -0.129405,-0.592421 -0.1875,-0.875 a 2.0663816,2.0663816 0 0 0 -0.125,-0.375 c -0.0025,-0.0063 -0.0238,-0.108852 -0.125,-0.28125 a 2.0663816,2.0663816 0 0 0 -0.125,-0.15625 c -0.0058,-0.0072 0.0062,-0.02372 0,-0.03125 a 2.0663816,2.0663816 0 0 0 -0.125,-0.15625 c -0.02457,-0.02866 -0.0029,4.69e-4 -0.03125,-0.03125 -0.224639,-0.250506 -0.385928,-0.504348 -0.53125,-0.84375 -0.19862,-0.46388 -0.251166,-0.90654 -0.25,-1.125 A 2.0663816,2.0663816 0 0 0 41.9375,37 c -0.03991,-0.473211 -0.05192,-0.947988 -0.0625,-1.4375 0,-0.0209 -2.58e-4,-0.04164 0,-0.0625 0.03659,-2.953671 2.662217,-5.46875 6.125,-5.46875 z"
       inkscape:connector-curvature="0"
       id="path4420"
       style="opacity:0.25;fill:url(#linearGradient4430);fill-opacity:1;stroke:none;display:inline;enable-background:new" />
    <path
       d="m 56.15625,36 c -0.02121,0.412781 -0.03031,0.822539 -0.0625,1.28125 0.02364,0.01759 0.04051,0.0423 0.0625,0.0625 0.01576,-0.260376 0.02305,-0.542312 0.03125,-0.78125 0,-0.188488 -0.01663,-0.377464 -0.03125,-0.5625 z m -16.3125,0.0625 c -0.01158,0.164883 -0.03125,0.332409 -0.03125,0.5 0.0044,0.193803 0.025,0.441501 0.03125,0.65625 0.01215,-0.0073 0.01872,-0.02463 0.03125,-0.03125 -0.03482,-0.412928 -0.02225,-0.765277 -0.03125,-1.125 z m -0.53125,3.09375 c -0.100738,0.644583 0.03579,1.509791 0.40625,2.375 0.246293,0.575222 0.566802,1.027715 0.90625,1.40625 0.01131,0.01266 0.01987,0.05016 0.03125,0.0625 0.08103,0.394135 0.152009,0.680422 0.25,1.125 0.303565,0.90272 1.551625,2.602804 2.65625,4.0625 0.02348,0.240035 0.04946,0.478212 0.0625,0.71875 0.01167,-0.578893 -0.0074,-1.155724 -0.0625,-1.71875 -1.104625,-1.459696 -2.352685,-3.15978 -2.65625,-4.0625 -0.09799,-0.444578 -0.16897,-0.730865 -0.25,-1.125 -0.01138,-0.01234 -0.01994,-0.04984 -0.03125,-0.0625 -0.339448,-0.378535 -0.659957,-0.831028 -0.90625,-1.40625 -0.202279,-0.472426 -0.347342,-0.939585 -0.40625,-1.375 z m 17.21875,0.03125 c -0.05987,0.424282 -0.176119,0.879261 -0.375,1.34375 -0.218925,0.511308 -0.484678,0.921936 -0.78125,1.28125 -0.09593,0.444406 -0.157736,0.794956 -0.28125,1.3125 -0.336067,0.999366 -1.651939,2.964364 -2.65625,4.5 -0.03752,0.592062 -0.05105,1.186252 -0.03125,1.78125 0.0065,-0.260864 0.01473,-0.52061 0.03125,-0.78125 1.004311,-1.535636 2.320183,-3.500634 2.65625,-4.5 0.123514,-0.517544 0.185324,-0.868094 0.28125,-1.3125 0.296572,-0.359314 0.562325,-0.769942 0.78125,-1.28125 0.368484,-0.860598 0.473242,-1.710637 0.375,-2.34375 z M 31.15625,64.71875 31.0625,65.25 c 0,1.44197 2.16571,2.764127 5.625,3.65625 l 0.5,1.9375 a 1.1896769,1.1792525 0 0 0 0.75,0.78125 c 0.153544,0.0589 0.266686,0.160152 0.6875,0.28125 C 40.841729,72.544181 44.204707,73 48,73 c 3.795293,0 7.18952,-0.455819 9.40625,-1.09375 0.420814,-0.121098 0.533957,-0.222387 0.6875,-0.28125 a 1.1896769,1.1792525 0 0 0 0.71875,-0.75 l 0.59375,-2.03125 C 62.781022,67.953037 64.9375,66.671664 64.9375,65.25 l -0.09375,-0.53125 c -0.414273,1.232636 -2.436444,2.332923 -5.4375,3.125 L 58.8125,69.875 a 1.1896769,1.1792525 0 0 1 -0.71875,0.75 c -0.153543,0.05886 -0.266686,0.160152 -0.6875,0.28125 C 55.18952,71.544181 51.795293,72 48,72 44.204707,72 40.841729,71.544181 38.625,70.90625 38.204186,70.785152 38.091044,70.6839 37.9375,70.625 a 1.1896769,1.1792525 0 0 1 -0.75,-0.78125 l -0.5,-1.9375 c -3.076214,-0.793331 -5.112922,-1.93252 -5.53125,-3.1875 z"
       inkscape:connector-curvature="0"
       id="path4433"
       style="opacity:0.2;fill:#ffffff;fill-opacity:1;stroke:none;display:inline;enable-background:new" />
  </g>
</svg>
